<?xml version="1.0" encoding="UTF-8"?>
<svg viewBox="0 0 210 157.5" xmlns="http://www.w3.org/2000/svg">
 <g transform="matrix(1.25,0,0,-1.25,0,157.5)">
  <g transform="scale(.24)">
   <path d="m36.988 515.36c-4.8399-9.21-9.918-18.421-10.274-29.406l-1.0625-1.179c0-12.754 7.086-26.336 19.25-32.243 20.43-12.281 44.285-15.941 68.614-18.777 13.464 11.34 33.539 6.734 45.347 22.086 3.543 2.008 12.403 0.945 10.157 6.848l-4.016 8.504c2.719-2.364 3.898-6.375 5.672-9.684 2.359 2.836 0.351 9.566 1.769 10.863 2.364-4.84-2.953-13.699 4.489-15.351 10.984-5.196 22.32-19.957 35.191-10.157 10.277 6.731 21.969 10.629 31.18 20.313-1.891 0.711-0.828 2.598-1.184 4.016l1.184-1.653 2.832 3.305-1.77-5.668c13.461 3.07 28.344 5.906 43.696 6.262 9.8-3.426 18.66-8.504 27.753-13.582 3.305 4.722 2.95 11.925 4.016 18.187-1.184 14.406-6.023 29.168-17.008 39.68 1.653 2.48 3.781-0.473 5.668-0.59 22.203-16.418 37.438-40.156 30.59-68.617l-1.184-2.242c37.911-23.973 76.293-46.883 117.39-62.946 17.121 8.383 33.184 24.09 55.031 15.824 13.582 4.961 31.532 7.676 44.758 0 19.133-9.445 31.297-29.05 39.68-46.41 15-11.812 37.437-16.179 56.097-9.093 11.102 3.543 21.731 11.808 26.102 22.671 3.777 17.598-1.066 34.957-9.094 50.43-9.687 0.473-17.242 6.969-21.496 15.352-4.488 7.914-1.89 18.777 2.246 26.097 5.668 7.442 12.164 14.172 20.43 18.071-3.309-6.024-5.906-14.762-2.363-21.493 5.433-10.039 18.422-21.968 8.504-33.421 12.398-19.489 19.605-48.657 7.441-70.387-17.48-25.274-49.719-27.281-78.773-25.981-2.36-36.136-20.192-66.371-34.602-96.957-13.461-21.964-26.098-44.757-36.844-67.433-5.316-11.692 7.438-21.731 2.242-34.012-11.574-26.809-27.398-52.082-32.359-81.723-9.566-10.867-24.211-16.418-39.09-15.234-4.25 2.125-5.551 6.375-5.668 10.746-4.961-0.707-10.629-2.9531-15.824-4.4883-7.086 0.8281-18.422-5.3125-21.613 3.3086v5.668c21.965 25.863 35.074 56.332 45.351 87.391-12.047 18.07-21.73 38.027-30 58.34-38.496-28.344-78.886-53.852-127.54-56.094-12.988-29.055-22.793-60.113-21.019-94.715-0.473-6.9688 6.258-13.582 0.59-19.84-5.551-6.2617-12.164-14.41-21.496-13.582-8.149 6.9687-12.516 17.004-11.926 27.16 11.336 20.316 12.992 42.516 15.824 66.371 0.59 12.754-0.473 22.675-3.305 34.011-8.859 2.364-18.425 2.129-27.281 4.489l-1.062-1.063c-0.59-33.183-7.086-57.512 3.304-89.043-3.66-8.6211-12.398-13.109-20.312-17.598-3.422-1.418-7.321-1.8906-11.336-1.6523-3.07 4.7226-6.379 9.2109-7.442 14.762 11.219 11.336 14.055 25.508 10.747 41.332-5.079 24.211-9.446 48.773-19.84 70.859-47.121 29.168-80.778 80.895-88.336 134.98-2.715 8.148 4.254 22.203-9.094 24.328-19.84 21.258-13.344 57.984-3.4219 82.195l-0.5938 0.59c-7.6757-8.383-17.711-18.305-28.34-15.352-1.3008 0.707-2.8359 1.536-3.4258 2.832-1.6523 9.094 4.1328 16.297 10.863 22.676-23.973 11.336-65.66 17.008-64.125 52.789-0.71094 22.321 9.2109 45.114 30.113 54.324"/>
   <path d="m29.547 508.62c-5.5469-13.816-12.043-34.602 1.1836-48.184 20.668-22.437 51.254-25.273 77.59-29.523-10.867-5.668-21.968-10.984-32.242-18.07-16.652 3.308-32.949 10.629-48.184 18.66-10.98 4.722-15.234 15.707-17.004 26.687-0.7109 19.606 3.4258 38.383 18.656 50.43" fill="#fffcbf"/>
   <path d="m82.3398,412.848c14.6407,9.449 30.9412,15 45.3482,25.507l10.156,2.247c-1.891-1.063-4.489-1.418-5.668-2.836 2.242-1.891 5.902.117 8.504,1.062 12.633,6.262 26.097,25.985 40.859,11.93 7.559-5.906 15.59-10.985 23.738-15.235 1.063,1.418 1.063,1.891 0,3.305 6.258-2.48 17.004-1.887 24.446-5.668 5.785-7.441 17.715-4.961 20.312-15.234 2.363-7.793 3.781-16.887 2.363-25.508-11.339,7.441-16.652,19.957-21.613,30.586 .356-9.684 4.723-18.895 9.684-27.16 7.203-9.449 7.797-22.321 9.094-33.543-1.063-15.942-2.715-35.426-18.188-45.821-4.016-1.769-7.676-3.542-11.926-4.605 5.551,11.809 10.981,26.57 6.258,39.68-3.07,4.254-6.496,9.332-11.336,11.929 7.676,12.047 11.926,29.762 5.078,43.696l-2.836,3.898c2.715,1.887 7.442,2.715 7.442,7.438-.946,3.543-2.715,7.086-6.258,8.976l-1.774-1.062c2.715-1.418 3.188-4.844 2.836-7.914-5.789-5.551-15-2.715-20.312-9.094-9.449-6.731-12.758-22.438-25.512-22.672-4.957,2.953-1.887,9.328-5.195,12.988-3.305-2.832 0-9.8-5.078-11.925l-3.899.589c-11.336,12.871-26.097,23.973-44.875,23.856-2.363,2.125-.472,6.375-1.062,9.566-3.543-2.953-5.789-8.031-4.016-12.992 2.715-3.543 8.383-2.715 11.336-2.832-6.496-10.75-9.566-28.582-1.652-39.684 .117-1.414 2.125-2.003 2.242-3.421-8.973-9.094-11.219-21.614-9.09-34.606 1.414-5.902 3.66-11.57 6.848-17.004-10.039,0-18.7776,5.434-24.4456,13.699-17.3593,30.942-.2382,66.016 11.9256,94.004-.234.711-1.062.59-1.652.59-9.0939-13.578-19.6056-26.57-34.0118-33.418-2.0079-.238-3.6602.235-5.0782,1.653-.707,11.691 8.6211,18.421 17.0078,25.035" fill="#a54f49"/>
   <path d="m101.59,390.645h1.062c-.238-7.321 3.071-13.106 4.606-19.84-4.016,1.418-2.836,7.086-5.078,10.277-.239,3.188-2.129,6.375-.59,9.563"/>
   <path d="m110.68 400.92c-0.942-9.215-3.422-22.32 0-32.359-4.25 10.511-4.25 21.847 0 32.359"/>
   <path d="m110.09 306.21c6.496-5.906 17.242-1.535 22.676-10.156 1.418-0.356 2.836-0.711 4.488-0.59 5.43-6.379 12.516-14.762 22.082-11.34 6.379 3.426 14.527 2.953 21.613 4.488 5.668-1.535 13.817-2.125 19.25 0.59 4.371 2.836 5.668 8.153 7.321 12.52 14.171 1.301 29.644 6.969 37.437 19.84 11.336 20.785 9.922 46.175 2.836 68.613 2.242-0.59 4.25-3.777 6.848-1.77 4.132 3.661 1.418 8.977 2.836 13.11 22.32 5.668 45.23 10.39 65.187 22.082 6.379 4.371 10.629 11.574 14.172 18.07 41.215-24.094 82.906-48.539 126.95-64.008 4.254 0 7.914-2.836 11.93-1.656-4.371 3.191-9.922 3.543-14.762 5.672 12.988 8.266 27.398 20.902 44.168 15.824-1.535-1.535-4.488-2.008-4.488-4.488 4.722-1.063 8.383 3.777 12.992 4.488 17.949 6.848 40.035 3.543 53.379-10.746 18.66-19.25 31.176-43.105 31.648-70.859-12.047-50.899-38.972-95.539-65.187-140.65-6.496-11.457-9.567-27.871-1.656-39.679 0.121-10.868-5.903-19.371-10.747-28.344-7.086-12.164-11.101-25.629-16.414-38.5-7.675-7.0859-16.535-11.93-26.101-14.172-5.43 9.0937 4.488 12.992 6.734 20.43 9.094 16.297 19.84 32.004 26.688 49.246-25.981 41.57-53.262 86.328-49.836 137.82-0.707 0.59-2.715-0.355-2.836-1.773-0.707-10.036-1.297-22.2 0.472-31.176-28.812-7.32-46.293-35.547-74.164-45.348-20.785-7.914-40.976-16.652-64.125-18.66 2.598 8.977 11.926 17.832 5.079 27.75-3.188-1.769-0.711-7.086-2.247-10.156-19.128-43.223-41.449-85.028-41.921-136.05-2.836-4.957-8.032-6.8476-12.52-9.0937l-5.078 6.2617c5.551 26.336 13.344 53.734 8.504 82.195-7.086 23.266-9.328 48.418-11.336 73.692l-1.063 1.062-1.183-1.062c0.117-10.395-0.473-19.012 0.59-28.934-37.555 7.676-69.793 36.609-102.62 56.098-3.305 2.004-5.434-3.543-7.914-5.672-1.536-3.895-3.895-7.676-4.606-11.926-19.484 25.508-32.004 55.031-36.254 87.391 0.117 3.187-0.355 7.558 1.18 9.566" fill="#a54f49"/>
   <path d="m124.85 360.65c5.671 3.071 13.109 3.309 19.839 2.247 7.325-2.008 10.629-10.04 18.661-10.157 12.753-2.597 20.429 8.856 31.179 9.563 7.676 1.066 16.414 1.301 22.082-4.485 6.496-6.968 7.914-16.535 6.258-26.101-2.359-9.211-5.43-20.668-15.824-23.266-11.102-2.48-22.32 1.774-32.356 5.199-11.222-9.449-28.109-17.953-42.515-10.277-14.883 8.387-19.606 25.629-17.008 42.516 1.418 5.668 5.434 11.34 9.684 14.761" fill="#fabe76"/>
   <path d="m124.852,406c13.937-2.246 23.503-15.355 33.421-23.855 2.125-.122 4.133-2.129 6.262-.473l2.242,2.242c.235-2.242-.355-7.559-1.773-10.746-.117,2.953-3.539,5.078-5.668,6.73-3.07.356-5.902-.234-8.5-1.652-3.664-3.187-4.609-8.266-3.898-12.519-6.731,3.308-15.473,1.3-22.086-.59-10.629,10.629-8.856,29.996 0,40.863" fill="#fff"/>
   <path d="m129.93,350.492c3.781,0 7.914,2.481 11.34,0 7.437-5.668 5.902-15.824 11.925-21.609l-.59-.594-6.847,6.852c-1.418-2.243-2.719-3.543-5.078-4.489-5.672-2.007-10.512,2.953-14.172,6.141l-.594-8.504c-3.777,6.734-3.187,17.715 4.016,22.203"/>
   <path d="m174.69 308.45c8.739-3.543 18.539-4.605 28.34-5.668 0-3.304-2.949-5.902-5.078-7.91-9.211-3.543-18.539 4.723-27.75-0.594-6.262-2.476-13.109-5.312-20.433-3.304l-5.079 4.488c10.75 2.598 21.731 5.43 30 12.988" fill="#f8a13f"/>
   <path d="m158.27 222.95c32.832-20.429 64.129-45.941 102.04-56.687l4.488-25.035c-47 2.359-90.344 25.507-117.27 64.714 3.071 5.789 2.243 17.125 10.746 17.008" fill="#f8a13f"/>
   <path d="m156.031,377.656c2.36-.117 1.77-3.308 1.063-4.488l-2.836,1.062c0,1.418.59,2.598 1.773,3.426" fill="#fff"/>
   <path d="m169.61 376c1.063-6.258 6.02-11.687 10.746-15.941-6.613-3.426-16.296-5.786-22.675-1.653 6.496 3.778 9.211 11.219 11.929 17.594" fill="#f8a13f"/>
   <path d="m171.86 382.14c1.418-2.129 4.133-0.711 6.258-1.063-4.722 2.715-2.48-18.07-6.258-2.836v3.899" fill="#bfbfbf"/>
   <path d="m204.215,354.391c3.894-2.364 7.086-6.969 7.32-11.93 .473-2.359-.707-4.016-1.18-6.141l-1.652,7.325c-2.008-3.426-3.543-8.032-7.914-9.684-3.543-1.656-6.969.473-9.684,2.359l-2.246,2.246c-2.832-2.597-5.785-6.968-10.156-6.851 10.75,5.668 8.27,26.926 25.512,22.676"/>
   <path d="m180.949,379.309c.707-1.063 2.832.355 2.832-1.653 .356-1.89-.707-3.543-2.242-4.015-4.488-.828-3.07,5.195-.59,5.668" fill="#fff"/>
   <path d="m212.125,410.488c6.496-6.734 8.742-17.125 6.734-27.164-1.773-6.379-3.664-13.582-8.976-17.597-6.613.711-12.52,1.3-18.778-.59 2.125,3.426 3.305,8.738 1.18,12.519-2.953,3.543-6.375,6.258-11.336,5.078 11.926,9.094 14.762,26.098 31.176,27.754" fill="#fff"/>
   <path d="m233.62 138.98c-1.656-23.265-4.254-49.007 0-71.918 0.473-4.0156-4.133-7.6797-7.324-10.277l-5.668-2.8321c-4.371 6.8477-3.543 14.524-2.832 22.672-2.719 26.809-9.567 51.727-18.188 75.938 10.508-3.661 21.965-10.747 34.012-13.583" fill="#92292e"/>
   <path d="m215.55 57.969c0-3.1915 2.246-5.3165 3.308-7.9141 6.258 1.0625 12.399 5.4336 15.942 10.746l2.242-11.336c-4.84-9.0937-14.406-13.816-23.855-16.414-3.661 2.125-3.895 6.6133-6.731 9.5625 2.715 4.8437 7.203 9.6836 9.094 15.356" fill="#404040"/>
   <path d="m247.79 464.34c13.461 3.07 27.633 5.902 41.449 6.258 8.504-4.606 17.242-8.739 25.512-14.172-5.434-14.406-21.141-13.699-33.539-16.414-16.535-2.953-32.242-3.664-49.84-4.016-6.965 4.133-16.414 2.359-23.855 5.195 13.937 6.497 26.925 16.414 40.273 23.149" fill="#a54f49"/>
   <path d="m227.36 399.74c3.426-8.738 1.301-20.195-2.242-27.75 2.481 8.5 2.481 18.895 2.242 27.75"/>
   <path d="m233.621,391.238c1.418,1.887.707-.945 2.242-.593-.707-6.141-.472-13.227-4.488-17.477 1.535,5.668 4.133,12.398 2.246,18.07"/>
   <path d="m307.9 443.43c14.055 9.804 15.473 27.281 14.172 42.515-2.125 8.031-4.371 16.18-9.094 23.266 15.942-13.699 29.172-35.313 22.676-59.52-10.867-35.664-49.957-34.722-78.769-43.105-1.301 8.738-4.727 18.66-12.992 22.672l-5.196 1.656c22.321 3.305 48.063 3.543 69.203 12.516" fill="#fffcbf"/>
   <path d="m270.46 33.52c4.605 1.8907 9.805 5.3164 11.93 9.0938 0.589-6.2578 3.66-12.754 1.652-18.656-4.016-4.2539-9.567-9.9218-15.234-13.109-5.434 4.25-7.442 11.102-10.274 17.004l4.606 12.52 7.32-6.8516" fill="#404040"/>
   <path d="m320.42 161.66c44.402 7.676 84.793 23.973 119.04 54.442 6.852 3.425 13.699 7.207 20.906 9.683l2.832-11.336c-40.386-13.933-69.558-56.332-112.78-65.781-12.754-3.305-25.746-7.555-39.09-7.437 2.363 7.086 5.195 14.523 9.094 20.429" fill="#f8a13f"/>
   <path d="m436.04 56.785c-0.711 0 1.297-2.2422 0.59-3.8946 9.445-0.2383 17.715 6.1407 25.508 11.809l-2.836-15.234c-9.563-5.7851-21.254-10.039-32.946-7.4414 0.708 6.0235 6.02 10.156 9.684 14.762" fill="#404040"/>
   <path d="m446.2 73.793c10.391 19.133 16.059 40.152 24.446 60.109-12.52 18.661-22.438 38.266-30.114 58.93 6.731 6.023 15.586 11.223 24.446 14.172 3.66-12.633 8.027-24.918 14.644-36.254 0.942-12.52 2.598-24.562 5.196-36.254-9.211-20.312-13.817-42.398-21.024-63.539-5.43-7.3203-13.461-10.629-21.019-14.172h-3.899c-1.769 7.4414 5.551 11.102 7.324 17.008" fill="#92292e"/>
   <path d="m473.94 57.969c1.063-2.129 0.239-6.0235 2.836-7.9141 9.094 2.125 17.36 6.3789 25.035 11.809-4.605-8.7383-1.296-21.609-14.171-24.328-6.731-2.7149-14.762-6.9649-22.2-2.8321-6.851 4.3672 0.707 9.8008 2.36 14.172l6.14 9.0938" fill="#404040"/>
   <path d="m489.89 132.25c-1.301 8.504-4.371 16.297-4.016 25.508 4.961-11.692 12.398-22.32 19.84-32.949-8.031-26.098-25.629-48.184-40.27-71.446 4.606 27.16 13.344 53.735 24.446 78.887" fill="#fff"/>
   <path d="m599.836,342.461c23.148-9.684 55.98-7.793 73.695,11.34 13.461,18.777 6.614,45.23-2.836,63.535l2.246,1.18c11.336-17.36 19.247-42.278 8.5-62.356-15.824-22.91-44.875-29.406-73.101-25.035-4.488,1.301-8.621,3.543-8.504,9.094-.117.707-1.18,1.89 0,2.242" fill="#a54f49"/>
   <path d="m627.59,457.605h1.773c-.711-5.785-1.3-10.98.473-16.414-2.598,4.606-2.246,11.336-2.246,16.414"/>
   <path d="m633.26 455.36c1.062-7.675 2.129-16.179 5.668-23.265-4.485 6.257-8.028 14.406-5.668 23.265"/>
   <path d="m663.38 469.54c-6.379-16.18 8.266-24.801 11.336-38.617 0.117-3.781-2.598-6.969-5.195-9.094-6.496-1.535-10.868 2.364-15.235 5.668-6.14 6.258-7.203 15.235-5.668 23.856 3.422 7.203 9.211 13.582 14.762 18.187" fill="#fabe76"/>
   <path d="m688.883,446.859c.707-5.55.355-10.863-1.18-15.941-.711,5.43 1.887,14.645-2.246,19.84 2.125,0 2.953-2.363 3.426-3.899"/>
   <path d="m692.188,457.605c2.48-1.062 2.718-4.957 4.015-7.437l-.59-10.156c-2.125,4.722-.117,12.043-3.894,16.414 .234.355.707.59.469,1.179"/>
   <path d="m29.547 508.62s-16.887-29.289-6.2578-43.855c10.629-14.563 17.961-20.04 21.652-22.438 7.8711-5.117 56.293-16.926 56.293-16.926" fill="none" stroke="#fff" stroke-width="3.5429"/>
   <path d="m25.555 505.12 4.7226 3.641s-0.8867-1.379-2.8554-6.297-2.9492-9.844-2.9492-9.844l8.1679 17.52-1.8711 0.687-3.0507-0.984-2.1641-4.723"/>
   <path d="m95.918 424.5 6.867 3.543-1.773-4.652"/>
   <path d="m311.44 511.62s14.172-11.023 15.352-36.609c1.383-29.949-19.289-40.942-46.844-43.305-8.195-0.703-38.183-3.344-38.183-3.344" fill="none" stroke="#fff" stroke-width="3.5429"/>
   <path d="m315.58 503.94-3.148 5.313 10.824-9.84-5.508 9.645-6.301 5.707-2.953-3.149"/>
   <path d="m240.59 430.13s0.199 0.199 3.152-1.574 4.723-2.953 4.723-2.953l-7.086 0.984-0.789 3.543"/>
   <path d="m109.1 307.31s1.184-0.786 7.086-2.364c5.907-1.574 10.235-2.754 10.235-2.754s-0.391 0 4.332-2.753c4.722-2.758 6.297-2.758 6.297-2.758s4.726-6.692 7.48-8.66c2.758-1.969 3.938-5.118 9.844-3.938 5.902 1.184 7.871 2.363 7.871 2.363l17.32 3.149s3.938-1.574 11.418-1.18c7.477 0.395 8.266-0.394 11.809 4.723s4.332 9.449 4.332 9.449 20.469 0.785 33.457 14.566 12.203 32.278 12.203 32.278 4.332-15.352-5.117-31.887c-9.445-16.531-22.832-25.98-33.457-33.461-23.68-16.66-26.375-25.586-26.375-25.586s-6.695 5.117-22.442 12.992c-10.234 5.117-13.07 7.895-27.554 9.84-26.375 3.543-28.739 25.981-28.739 25.981" fill="#92292e"/>
   <path d="m124.85 407s12.695-4.137 16.832-8.27c4.132-4.132 13.578-13.875 15.941-15.648s1.949-1.535 4.43-1.473 5.019 4.133 5.019 4.133l-0.594-5.609s-3.789-2.778-12.507 2.281c-3.918 2.273-9.192 8.133-14.95 13.07-10.332 8.856-15.941 7.973-15.941 7.973l1.77 3.543" fill="#bfbfbf"/>
   <path d="m180.95 382.73s3.543 4.192 7.973 9.801 10.922 14.172 15.941 16.535 7.262 1.418 7.262 1.418l2.48-2.601s-5.902-0.883-10.332-4.723-9.742-11.219-13.875-15.059c-4.136-3.835-9.449-5.371-9.449-5.371" fill="#bfbfbf"/>
   <path d="m126.51 336.79s4.367-5.195 9.269-5.668 5.02 0.297 7.086 1.773 2.895 2.243 2.895 2.243l6.551-6.082-6.2 3.246s-5.902-5.313-10.921-4.723-8.68 9.211-8.68 9.211" fill="#f8a13f"/>
   <path d="m182.43 332.3 6.199 7.086s3.246-5.903 9.449-5.313 9.742 9.742 9.742 9.742l2.364-6.199-2.071 0.887s-3.246-7.383-9.742-7.973c-5.594-0.508-10.039 5.61-10.039 5.61l-5.902-3.84" fill="#f8a13f"/>
   <path d="m649.57 433.8s-6.726 12.902 1.969 26.176c3.738 5.707 12.793 10.433 12.793 10.433s-9.578-8.707-12.965-14.886c-3.347-6.102-1.797-21.723-1.797-21.723" fill="#fffcbf"/>
  </g>
 </g>
</svg>
