<?xml version="1.0" encoding="UTF-8"?>
<!DOCTYPE svg PUBLIC "-//W3C//DTD SVG 1.1//EN" "http://www.w3.org/Graphics/SVG/1.1/DTD/svg11.dtd">
<svg version="1.1" xmlns="http://www.w3.org/2000/svg" xmlns:xlink="http://www.w3.org/1999/xlink" x="0" y="0" width="396" height="565" viewBox="0, 0, 396, 565">
  <g id="Layer_1">
    <path d="M17.051,477.848 C32.401,484.653 49.667,477.824 63.923,478.37 C65.697,478.313 67.668,478.275 69.892,478.476 C72.295,478.667 74.897,479.044 77.35,479.592 C82.274,480.697 86.569,482.268 90.464,483.811 C94.361,485.362 97.983,486.929 101.484,488.278 C102.292,488.583 103.054,488.836 103.838,489.118 C105.154,486.122 108.264,478.993 109.824,474.919 C111.835,469.661 131.728,458.789 130.513,457.078 C129.294,455.367 130.382,452.434 132.877,451.229 C132.877,451.229 135.088,442.982 132.245,437.742 C131.95,437.195 130.167,434.758 130.167,434.758 C130.167,434.758 119.674,426.832 120.521,426.255 C121.372,425.677 125.979,425.147 125.979,425.147 L127.791,424.863 C129.599,424.583 132.87,424.05 136.147,424.441 C136.955,424.26 143.924,425.88 143.924,425.88 C143.924,425.88 150.031,428.143 151.326,429.065 C152.619,429.99 150.446,432.206 146.522,435.529 C141.997,439.357 146.482,449.81 146.482,449.81 C146.482,449.81 147.663,452.881 148.731,453.647 C149.797,454.413 150.992,456.212 148.163,458.906 C148.163,458.906 145.838,468.701 148.624,476.382 C162.649,472.894 167.098,462.135 166.487,460.636 C165.772,458.877 164.113,455.657 166.006,454.537 C168.754,452.913 174.535,448.444 175.876,446.891 C178.48,443.886 183.376,437.228 182.848,433.603 C182.875,433.308 187.249,431.168 190.502,431.292 C193.756,431.419 203.354,431.962 205.431,431.971 C207.509,431.978 210.866,433.952 211.385,434.699 C211.905,435.445 211.595,434.191 215.573,435.979 C219.554,437.766 203.534,437.605 197.981,439.681 C193.785,441.245 185.893,450.669 184.495,452.814 C183.09,454.957 187.02,457.233 185.11,458.528 C183.196,459.824 179.896,463.167 181.756,465.335 C183.392,467.24 187.54,475.95 189.395,479.491 C198.521,479.231 208.263,479.328 217.386,480.3 C217.386,480.3 228.019,471.94 232.127,469.473 C234.788,467.879 232.539,465.35 232.086,463.916 C232.086,463.916 232.511,462.322 235.109,460.102 C237.706,457.884 236.484,442.182 236.152,439.571 C235.82,436.957 223.175,431.232 224.262,430.746 C225.35,430.258 233.659,430.346 233.659,430.346 C233.659,430.346 235.36,429.672 236.277,429.415 C236.277,429.415 242.925,429.732 248.251,431.703 C248.612,431.342 257.652,432.444 257.652,432.444 L257.787,432.606 C257.918,432.768 257.457,435.896 257.457,435.896 L249.969,439.513 C242.481,443.129 251.093,460.952 251.093,460.952 C251.093,460.952 254.241,465.138 250.231,469.597 C250.231,469.597 246.465,486.48 248.162,487.343 C248.727,487.63 253.491,489.046 260.275,490.898 C262.991,484.818 265.398,473.801 262.36,471.037 C259.092,468.066 258.712,463.924 259.774,461.257 L260.834,458.582 C260.834,458.582 263.252,442.293 256.966,437.831 C265.133,435.339 286.645,438.016 287.795,438.392 C288.525,438.997 287.626,440.097 287.626,440.097 C287.626,440.097 291.992,440.005 294.67,440.934 C297.347,441.86 294.364,443.328 291.245,443.5 C274.125,444.44 277.283,447.875 275.882,448.314 C267.539,450.923 276.332,465.953 276.332,465.953 C280.432,468.944 279.352,471.811 276.71,472.868 C280.719,485.132 293.781,490.396 298.02,500.071 C301.76,500.828 305.223,501.449 308.184,501.867 C316.172,502.998 330.879,510.912 335.216,513.694 C341.45,517.69 348.536,526.036 346.937,530.142 C345.34,534.247 339.576,541.407 343.339,542.38 C347.104,543.351 361.06,549.307 361.06,549.307 C364.612,549.661 372.984,549.196 374.588,549.102 C376.911,548.968 378.641,550.559 378.835,551.712 C378.928,552.251 376.792,552.369 376.792,552.369 C386.344,553.851 389.821,554.668 385.269,556.684 C383.198,557.6 381.6,557.74 381.6,557.74 C381.6,557.74 377.561,558.528 376.502,559.216 C375.445,559.904 369.113,561.85 365.389,561.479 L361.664,561.105 C361.664,561.105 343.158,560.052 340.16,560.348 C337.16,560.64 318.111,559.071 312.213,554.713 C299.92,552.891 297.471,553.637 297.353,552.832 C297.236,552.024 302.267,549.224 305.887,548.658 L298.076,543.615 L303.242,533.514 C304.134,530.531 310.821,523.259 295.127,521.195 C279.436,519.137 268.387,525.669 263.989,528.107 L259.587,530.545 C259.587,530.545 220.654,527.849 213.048,532.644 C205.444,537.439 181.608,530.295 179.135,527.272 C176.666,524.249 125.761,505.674 125.761,505.674 C125.761,505.674 108.93,500.11 104.346,493.271 C103.14,492.849 101.941,492.41 100.81,491.937 C99.037,491.22 97.383,490.451 95.735,489.664 C92.47,488.08 89.397,486.399 86.199,484.8 C83.005,483.204 79.616,481.679 75.768,480.585 C73.846,480.043 71.807,479.648 69.792,479.386 C68.978,479.271 68.18,479.213 67.387,479.162 C66.542,484.016 50.305,485.043 50.305,485.043 C54.867,483.577 51.798,482.527 51.798,482.527 C51.798,482.527 42.97,485.491 38.55,485.088 C39.632,484.317 39.005,483.148 39.005,483.148 L26.815,483.741 L29.231,482.427 C29.231,482.427 18.785,480.732 17.051,477.848" fill="#8A8D8B"/>
    <path d="M0,191.376 C0,295.825 84.674,380.5 189.125,380.5 C293.573,380.5 378.248,295.825 378.248,191.376 C378.248,86.927 293.573,2.252 189.125,2.252 C84.674,2.252 0,86.927 0,191.376" fill="#F0A949"/>
    <path d="M340.67,102.706 C338.008,103.617 337.831,106.96 337.766,107.971 C337.687,109.249 339.983,107.981 343.134,106.684 C345.812,105.581 349.111,104.46 352.098,104.867 C350.661,103.008 344.231,101.485 340.67,102.706" fill="#FFFFFE"/>
    <path d="M340.468,101.888 C337.317,103.185 335.022,104.453 335.101,103.175 C335.166,102.164 335.344,98.823 338.005,97.91 C341.567,96.689 347.996,98.212 349.434,100.071 C346.447,99.665 343.148,100.786 340.468,101.888 M370.497,97.913 C370.667,97.327 371.016,96.81 371.469,96.482 C372.382,95.812 373.383,95.812 374.154,95.976 C375.743,96.293 376.91,97.192 377.85,98.255 C376.448,98.033 375.125,97.716 374.016,97.808 C373.47,97.846 373.015,98.022 372.876,98.221 C372.722,98.4 372.773,98.539 372.791,98.562 L372.792,98.567 L372.958,98.657 C373.167,98.743 373.435,98.817 373.723,98.889 C374.301,99.036 374.944,99.134 375.584,99.269 C376.877,99.504 378.209,99.746 379.573,100.175 C378.25,100.729 376.889,101.004 375.495,101.112 C374.793,101.179 374.091,101.179 373.343,101.098 C372.969,101.057 372.582,100.979 372.152,100.847 C371.917,100.745 371.698,100.683 371.425,100.479 C371.144,100.289 370.924,100.037 370.749,99.751 C370.427,99.171 370.358,98.51 370.497,97.913 M382.793,119.221 C391.708,117.701 394.883,116.152 390.704,109.046 C388.734,105.698 387.159,104.806 387.159,104.806 C387.159,104.806 383.218,101.26 382.232,98.896 C381.248,96.532 375.141,88.85 371.397,88.85 L367.655,88.85 C367.655,88.85 349.136,86.487 346.18,84.714 C343.225,82.941 324.116,81.955 317.812,93.184 C305.401,94.957 303.038,92.002 302.841,94.365 C302.643,96.73 307.372,106.575 310.918,109.336 L302.643,122.043 L306.78,153.662 C307.372,162.823 313.301,186.462 297.482,187.941 C281.662,189.418 271.32,166.664 267.182,158.095 L263.045,149.524 C263.045,149.524 224.039,145.979 216.946,129.43 C209.854,112.883 185.427,127.065 182.669,135.34 C179.91,143.614 127.408,183.804 127.408,183.804 C127.408,183.804 110.1,195.354 104.855,214.364 C103.619,215.255 102.387,216.226 101.216,217.298 C99.384,218.906 97.659,220.702 95.941,222.565 C92.536,226.306 89.311,230.398 85.972,234.216 C82.634,238.014 79.109,241.547 75.172,243.656 C73.206,244.705 71.141,245.277 69.108,245.462 C68.306,245.559 67.515,245.545 66.74,245.473 C66.44,230.704 50.276,222.811 50.276,222.811 C54.673,228.535 51.515,230.746 51.515,230.746 C51.515,230.746 43.026,219.285 38.583,219.185 C39.588,221.8 38.845,225.088 38.845,225.088 L26.776,219.701 L29.049,224.335 C29.049,224.335 18.486,226.28 16.473,234.353 C32.48,218.594 49.042,244.355 63.314,246.823 C65.026,247.492 66.956,248.137 69.114,248.204 C71.526,248.341 74.152,247.996 76.649,247.092 C81.658,245.267 86.087,241.867 90.115,238.429 C94.149,234.961 97.908,231.385 101.527,228.402 C102.344,227.738 103.145,227.103 103.94,226.495 C104.951,235.794 107.348,258.053 108.496,270.682 C109.975,286.934 128.69,325.251 127.31,329.98 C125.929,334.707 126.718,343.771 129.081,348.104 C129.081,348.104 130.461,373.329 127.114,388.096 C126.764,389.635 124.749,396.371 124.749,396.371 C124.749,396.371 113.52,416.858 114.308,418.829 C115.095,420.801 119.626,423.754 119.626,423.754 C119.626,423.754 119.641,423.765 120.515,424.445 C122.1,420.508 125.584,416.481 126.718,414.546 L127.114,414.149 L127.605,415.146 C125.351,418.995 123.569,423.095 122.456,425.944 C124.297,427.323 126.952,429.039 129.673,428.877 C130.271,429.476 134.515,428.025 136.514,427.294 C136.181,424.596 135.737,420.006 134.644,415.812 L135.188,415.283 L136.043,415.568 C137.409,420.803 138.404,423.667 138.725,425.965 C140.615,424.422 144.23,421.343 145.235,419.619 C146.616,417.254 144.671,409.997 141.099,398.934 C136.978,386.182 142.479,356.38 142.479,356.38 C142.479,356.38 143.958,347.591 145.098,345.622 C146.235,343.653 147.6,338.65 145.057,329.782 C145.057,329.782 143.695,299.824 147.249,277.772 C160.88,292.314 164.216,325.795 163.459,330.078 C162.574,335.102 160.601,344.205 162.375,348.104 C164.95,353.765 170.256,368.79 171.438,373.813 C173.729,383.546 177.94,404.841 177.054,415.481 C177.054,416.367 181.191,424.05 184.441,424.641 C186.052,424.933 189.221,425.386 192.261,425.841 C191.216,423.406 191.441,420.589 191.343,420.131 L192.289,419.929 C192.682,421.762 194.084,424.475 195.088,426.273 C197.028,426.578 198.649,426.86 199.365,427.065 C201.318,427.623 204.578,423.3 205.431,421.077 C204.254,419.7 202.424,417.773 200.75,416.125 L201.41,415.457 C204.02,418.027 206.616,418.751 207.583,419.959 C208.127,419.677 208.855,419.138 209.854,418.139 C213.993,414.002 198.036,409.717 192.715,401.885 C188.696,395.969 181.783,365.539 180.6,358.742 C179.417,351.945 183.556,346.33 181.783,341.9 C180.009,337.466 177.054,326.532 179.121,320.622 C180.936,315.44 185.928,290.728 188.127,280.731 C197.184,284.217 206.885,286.824 216.059,286.639 C216.059,286.639 225.811,314.711 229.654,323.282 C232.141,328.834 229.654,335.692 229.063,339.83 C229.063,339.83 229.325,344.702 231.689,352.088 C234.053,359.477 231.278,405.876 230.688,413.56 C230.097,421.241 216.946,434.54 217.981,436.313 C218.806,437.728 224.226,439.419 226.39,440.048 L230.444,434.079 L231.809,433.446 L232.313,434.103 L228.201,441.668 C228.72,442.43 229.355,443.326 229.801,443.848 C229.801,443.848 236.45,444.882 241.945,440.598 C242.032,440.914 242.754,441.1 243.755,441.208 C243.639,439.747 242.357,436.314 239.974,432.451 L241.174,431.976 C242.586,434.266 246.039,438.196 246.054,441.33 C248.596,441.368 251.374,441.19 251.374,441.19 L251.52,440.746 C251.668,440.303 251.52,430.847 251.52,430.847 L244.429,417.843 C237.335,404.841 247.678,354.31 247.678,354.31 C247.678,354.31 251.224,342.785 247.678,328.306 C247.678,328.306 245.61,276.889 247.383,274.819 C247.951,274.157 252.476,271.554 258.979,268.244 C261.276,286.354 263.349,319.938 259.892,327.62 C256.346,335.499 255.556,347.715 256.346,355.987 L257.135,364.263 C257.135,364.263 257.925,413.515 251.224,424.94 C259.104,434.791 280.777,433.218 281.958,432.428 C282.42,431.5 282.339,429.897 282.194,428.729 C279.762,426.991 276.275,424.671 273.97,423.887 L274.123,422.872 C277.272,423.942 282.71,426.143 285.059,427.89 C286.366,427.95 287.856,427.763 289.05,426.909 C291.808,424.94 288.984,419.682 285.896,418.243 C268.956,410.356 272.438,401.053 271.088,399.33 C263.045,389.085 273.289,346.924 273.289,346.924 C277.667,339.228 276.877,330.367 274.352,326.436 C279.869,289.004 296.857,286.821 301.236,255.512 C297.18,254.983 285.721,257.595 278.239,259.219 C289.157,254.531 300.667,250.377 308.553,249.404 C316.612,248.416 332.035,229.209 336.627,222.22 C343.225,212.171 351.106,189.418 349.924,176.711 C348.743,164.005 343.719,140.955 347.56,139.181 C351.402,137.409 365.882,123.815 365.882,123.815 C369.451,123.815 377.737,127.696 379.321,128.451 C381.62,129.545 383.499,125.315 383.808,121.943 C383.953,120.367 381.838,119.383 381.838,119.383 L382.054,119.345 C377.592,117.551 370.737,119.133 366.669,114.853 C363.553,111.57 375.713,116.334 382.793,119.221" fill="#FFFFFE"/>
    <path d="M343.133,106.684 C339.982,107.981 337.687,109.249 337.766,107.971 C337.831,106.96 338.008,103.618 340.669,102.706 C344.231,101.485 350.66,103.008 352.098,104.867 C349.111,104.46 345.812,105.582 343.133,106.684 M373.161,102.708 C373.332,102.122 373.68,101.606 374.133,101.278 C375.047,100.608 376.048,100.608 376.818,100.772 C378.408,101.089 379.574,101.988 380.514,103.051 C379.112,102.829 377.791,102.512 376.681,102.604 C376.134,102.642 375.679,102.818 375.542,103.016 C375.386,103.195 375.437,103.335 375.455,103.357 L375.457,103.363 L375.623,103.452 C375.832,103.539 376.099,103.613 376.387,103.685 C376.966,103.832 377.608,103.93 378.25,104.065 C379.542,104.299 380.875,104.542 382.238,104.971 C380.915,105.525 379.553,105.8 378.159,105.908 C377.458,105.975 376.755,105.975 376.007,105.894 C375.634,105.853 375.246,105.774 374.816,105.643 C374.581,105.541 374.362,105.478 374.089,105.275 C373.808,105.085 373.588,104.833 373.413,104.547 C373.091,103.967 373.023,103.306 373.161,102.708 M385.458,124.017 C394.373,122.497 397.548,120.948 393.369,113.842 C391.398,110.494 389.823,109.602 389.823,109.602 C389.823,109.602 385.882,106.056 384.897,103.692 C383.912,101.328 377.806,93.646 374.061,93.646 L370.319,93.646 C370.319,93.646 351.8,91.283 348.844,89.51 C345.89,87.737 326.781,86.751 320.477,97.979 C308.066,99.753 305.702,96.798 305.505,99.161 C305.307,101.526 310.036,111.371 313.583,114.132 L305.307,126.839 L309.445,158.458 C310.036,167.618 315.966,191.258 300.147,192.737 C284.326,194.213 273.984,171.46 269.847,162.891 L265.709,154.32 C265.709,154.32 226.704,150.774 219.61,134.226 C212.519,117.679 188.092,131.861 185.333,140.136 C182.574,148.41 130.072,188.6 130.072,188.6 C130.072,188.6 112.764,200.15 107.52,219.16 C106.283,220.051 105.052,221.021 103.881,222.095 C102.048,223.702 100.324,225.498 98.606,227.36 C95.2,231.102 91.976,235.194 88.636,239.011 C85.298,242.81 81.773,246.343 77.836,248.452 C75.871,249.5 73.805,250.073 71.773,250.258 C70.97,250.355 70.179,250.341 69.404,250.268 C69.105,235.5 52.941,227.607 52.941,227.607 C57.337,233.331 54.179,235.542 54.179,235.542 C54.179,235.542 45.69,224.081 41.248,223.981 C42.252,226.596 41.51,229.884 41.51,229.884 L29.44,224.497 L31.713,229.131 C31.713,229.131 21.151,231.076 19.138,239.149 C35.145,223.39 51.706,249.15 65.978,251.619 C67.69,252.287 69.621,252.933 71.779,252.999 C74.19,253.137 76.816,252.792 79.314,251.888 C84.322,250.062 88.752,246.663 92.779,243.225 C96.813,239.757 100.572,236.181 104.191,233.198 C105.008,232.534 105.81,231.899 106.604,231.291 C107.615,240.59 110.012,262.849 111.16,275.478 C112.639,291.731 131.354,330.047 129.972,334.774 C128.594,339.503 129.383,348.566 131.745,352.899 C131.745,352.899 133.125,378.125 129.778,392.892 C129.428,394.431 127.414,401.167 127.414,401.167 C127.414,401.167 116.184,421.654 116.973,423.625 C117.759,425.597 122.291,428.55 122.291,428.55 C122.291,428.55 122.306,428.561 123.18,429.241 C124.764,425.304 128.248,421.277 129.383,419.342 L129.778,418.945 L130.271,419.941 C128.015,423.791 126.233,427.891 125.12,430.74 C126.962,432.119 129.616,433.835 132.337,433.673 C132.936,434.272 137.179,432.82 139.178,432.09 C138.845,429.392 138.402,424.802 137.308,420.607 L137.853,420.079 L138.708,420.364 C140.073,425.599 141.068,428.463 141.389,430.761 C143.279,429.218 146.895,426.139 147.9,424.415 C149.28,422.05 147.336,414.793 143.763,403.73 C139.643,390.977 145.144,361.176 145.144,361.176 C145.144,361.176 146.622,352.387 147.763,350.418 C148.899,348.449 150.265,343.446 147.721,334.578 C147.721,334.578 146.359,304.62 149.913,282.566 C163.544,297.109 166.88,330.591 166.124,334.874 C165.238,339.898 163.266,349.001 165.039,352.899 C167.614,358.561 172.921,373.586 174.102,378.608 C176.393,388.342 180.604,409.637 179.718,420.276 C179.718,421.163 183.855,428.846 187.105,429.437 C188.716,429.729 191.885,430.182 194.925,430.636 C193.88,428.202 194.106,425.385 194.007,424.927 L194.953,424.725 C195.346,426.558 196.749,429.271 197.752,431.068 C199.692,431.374 201.314,431.656 202.029,431.86 C203.982,432.419 207.242,428.096 208.095,425.873 C206.918,424.496 205.088,422.568 203.415,420.921 L204.074,420.253 C206.684,422.823 209.28,423.547 210.247,424.755 C210.792,424.473 211.519,423.934 212.519,422.935 C216.657,418.798 200.699,414.513 195.379,406.681 C191.36,400.765 184.447,370.335 183.264,363.538 C182.082,356.741 186.22,351.126 184.447,346.695 C182.673,342.262 179.718,331.328 181.785,325.417 C183.6,320.235 188.592,295.523 190.792,285.527 C199.848,289.013 209.549,291.62 218.723,291.435 C218.723,291.435 228.475,319.507 232.318,328.077 C234.805,333.63 232.318,340.488 231.727,344.626 C231.727,344.626 231.989,349.497 234.354,356.884 C236.717,364.273 233.943,410.671 233.352,418.356 C232.761,426.037 219.61,439.336 220.645,441.108 C221.47,442.523 226.89,444.215 229.054,444.844 L233.108,438.875 L234.473,438.242 L234.977,438.898 L230.865,446.464 C231.384,447.226 232.019,448.122 232.465,448.644 C232.465,448.644 239.114,449.678 244.61,445.394 C244.696,445.71 245.419,445.896 246.419,446.004 C246.304,444.543 245.022,441.109 242.638,437.247 L243.838,436.772 C245.25,439.062 248.703,442.992 248.718,446.126 C251.261,446.164 254.038,445.985 254.038,445.985 L254.184,445.542 C254.333,445.099 254.184,435.643 254.184,435.643 L247.093,422.639 C240,409.637 250.343,359.106 250.343,359.106 C250.343,359.106 253.889,347.581 250.343,333.102 C250.343,333.102 248.274,281.685 250.047,279.615 C250.615,278.953 255.141,276.35 261.643,273.04 C263.941,291.149 266.014,324.733 262.556,332.415 C259.01,340.295 258.22,352.511 259.01,360.783 L259.799,369.059 C259.799,369.059 260.589,418.311 253.889,429.736 C261.768,439.587 283.441,438.013 284.622,437.224 C285.084,436.296 285.003,434.692 284.858,433.524 C282.426,431.787 278.939,429.467 276.634,428.683 L276.787,427.668 C279.936,428.738 285.375,430.939 287.724,432.686 C289.03,432.746 290.52,432.559 291.714,431.705 C294.472,429.736 291.649,424.477 288.561,423.039 C271.621,415.151 275.103,405.849 273.752,404.126 C265.709,393.881 275.953,351.72 275.953,351.72 C280.331,344.023 279.542,335.163 277.016,331.231 C282.533,293.8 295.766,293.286 300.147,261.977 C296.089,261.448 288.386,262.391 280.903,264.015 C291.822,259.327 303.332,255.172 311.218,254.2 C319.277,253.211 334.699,234.004 339.292,227.016 C345.89,216.967 353.771,194.213 352.588,181.507 C351.407,168.801 346.383,145.751 350.225,143.977 C354.066,142.205 368.546,128.611 368.546,128.611 C372.115,128.611 380.402,132.492 381.986,133.247 C384.284,134.341 386.164,130.111 386.472,126.739 C386.617,125.163 384.503,124.179 384.503,124.179 L384.718,124.141 C380.257,122.347 373.402,123.929 369.334,119.648 C366.217,116.366 378.377,121.13 385.458,124.017" fill="#0B0B09"/>
  </g>
</svg>
