<?xml version="1.0"?>
<svg xmlns:rdf="http://www.w3.org/1999/02/22-rdf-syntax-ns#" xmlns="http://www.w3.org/2000/svg" xmlns:cc="http://creativecommons.org/ns#" xmlns:xlink="http://www.w3.org/1999/xlink" xmlns:dc="http://purl.org/dc/elements/1.1/" xmlns:svg="http://www.w3.org/2000/svg" id="svg5023" viewBox="0 0 391.37 413.34" version="1.0">
  <defs id="defs5025">
    <radialGradient id="radialGradient4731" gradientUnits="userSpaceOnUse" cy="224.43" cx="505.78" gradientTransform="matrix(1 0 0 1.08 0 -17.955)" r="26.846">
      <stop id="stop4727" stop-color="#c1d5e2" offset="0"/>
      <stop id="stop4729" stop-color="#1d2022" stop-opacity="0" offset="1"/>
    </radialGradient>
    <radialGradient id="radialGradient4719" gradientUnits="userSpaceOnUse" cy="224.43" cx="505.78" gradientTransform="matrix(1 0 0 1.08 0 -17.955)" r="26.846">
      <stop id="stop329" stop-color="#fafafa" offset="0"/>
      <stop id="stop330" stop-color="#fafafa" stop-opacity="0" offset="1"/>
    </radialGradient>
    <linearGradient id="linearGradient4309">
      <stop id="stop4311" stop-color="#fce9d1" offset="0"/>
      <stop id="stop4313" stop-color="#ef6129" offset="1"/>
    </linearGradient>
    <radialGradient id="radialGradient2591" xlink:href="#linearGradient4309" gradientUnits="userSpaceOnUse" cy="105.84" cx="282.53" gradientTransform="matrix(-.10972 -.88911 -1.3443 .16590 535.32 609.04)" r="67.198"/>
    <radialGradient id="radialGradient2614" xlink:href="#linearGradient4309" gradientUnits="userSpaceOnUse" cy="134.3" cx="305.61" gradientTransform="matrix(.61508 -.65132 1.3083 1.2355 67.175 450.88)" r="67.198"/>
  </defs>
  <g id="layer1" transform="translate(-211.69 -200.82)">
    <g id="g9611">
      <g id="g9554">
        <path id="path4172" fill-rule="evenodd" d="m285.94 417.86c-6.92 4.46-17.9 14.2-21.62 21.72-4.39 8.26-13.43 14.89-12.65 24.95-0.79 10.28-1.58 20.56-2.37 30.84 2.14 1.54-10.29 7.71-15.6 11.04-6.79 2.5-16.22 2.25-14.89 11.31-2.26 3.83-13.58 15.53-1.97 9.39 5.89-2.58-0.02 17.21 3.51 7.67 1.17-4.62 3.5-18.45 7.92-7.29 7.37 5.41 6.65-13.45 13.58-15.19 10.37 0.93 15.6-12.65 15.4-21.65 3.44-16.56 9.9-32.31 14.35-48.59 2.07-6.88 14.59 1.99 11.39-8.54-0.51-3.7 2.5-11.88 2.95-15.66z"/>
        <path id="path4204" fill-rule="evenodd" d="m300.23 393.02c-6.82-1.62-13.63-3.24-20.44-4.87-2.02 4.67-5.15 10.37-11.04 10.16-4.14-0.7-10.91 1.59-7.41 6.61 0.35 3.41 4.65 6.09 7.12 2.84 3.18-2.81 6.75-5.18 10.19-7.68 2.81-2.86 3.49 0.1 2.43 2.66-1.33 4.91 3.51 3.19 5.36 0.63 4.52-3.54 9.23-6.85 13.79-10.35z"/>
        <path id="path4202" fill-rule="evenodd" d="m340.89 335.05c-1.54-3.59-6.11-3.42-5.89 0.97-2.69 3.97-2.26 11.61-7.69 12.29-2.17 1.17-8.26 7.05-5.2 3.34 3.37-7.29 7.63-20.01 11-27.3l24.33 1.95c-5.52 2.92-11.03 5.84-16.55 8.75z"/>
        <path id="path4200" fill-rule="evenodd" d="m466.78 513.62c5-3.35 8.9-8.32 14.44-10.8-1.57 9.12-3.14 18.23-4.71 27.34-7.14 10.06-14.27 20.11-21.41 30.17-8.43 3.57-16.87 7.13-25.3 10.7 5.67 6.43 14.71 10.68 16.87 19.62 1.69 5.07 6.52 9.51 5.5 15.2-1.99 2.72-4.71 8.28-7.96 8.3-0.51-5.29 0.08-10.73-0.82-16.01-0.47-3.07-4.67-10.17-7.56-5.66-1.7 3.13-2.37 7.55-5.07 9.66-1.44-3.79-1.14-8.1-2.35-12.01-1.16-6.37-2.32-12.73-3.48-19.1 16.55-16.54 33.09-33.08 49.63-49.63l-7.78-7.78z"/>
        <path id="path4198" fill-rule="evenodd" d="m505.82 423.36c4.35-0.24 14.41-4.98 10.85 3.96-2.32 16.52-4.63 33.04-6.95 49.56 8.75 11.68 17.51 23.36 26.27 35.03-1.58-8.1 4.92-8.47 10.48-5.82 4.77 2.31 18.72-2.82 7.71-5.08-9.85-3.93-19.94-7.46-28.72-13.46-12.52-3.17-6.39-15.22-3.77-23.6 3.9-8.34 3.62-16.87 1.04-25.51-1.42-7.3-2.84-14.6-4.26-21.89-4.58-2.63-10.39-11.87-14.12-10.18 0.49 5.66 0.98 11.33 1.47 16.99z"/>
        <path id="path3978" fill-rule="evenodd" d="m517.54 393.06c7.14-3.18 16.09-4.69 20.33-12.04 7.44-5.98 9.66-15.68 12.14-24.39 3.24-7.94 3.93-16.58 4.54-25.05 18.56-2.66 14.37-6.78 32.26-2.96 4.96 2.49 8.43-4.87 3.21-6.93-2.07-2.8 4.41-3.05 5.99-4.75 15.46 11.92 1.44-4.14-3.89-14.8 2.04 3.95 2.43 10.57-2.45 12.55-5.23 2.98-3.02-7.34-7.88-4.44-5.48 12.63-27.13 10.44-34.24 14.89-0.65 5.08-2.13 10.06-3.55 15.03-3.68 13.21-7.49 26.39-11.14 39.61-3.78-3.35-9.19-0.96-10.5 3.55-1.62 3.23-2.57 6.85-4.82 9.73z"/>
        <path id="path3135" d="m352.44 442.92c-12.49 28.13-46.97 105.01-43.31 117.25 3.65 12.24 49.87 23.63 86.83 7.59 36.25-15.73 35.61-21.36 65.76-41.29 31.49-20.81 59.17-103.41 45.64-119.95-13.86-16.95-28.83-35.17-40.46-39.96-17.96 2.36-25.63-2.02-46.85-8.52-24.27 6.03-55.86 56.65-67.61 84.88z" fill-rule="evenodd" stroke="#ce3921" stroke-width="1px" fill="#ce3921"/>
        <path id="path4299" opacity=".77099" fill-rule="evenodd" fill="url(#radialGradient2614)" d="m391.25 385.43c-10.41 8.44-21.14 28.69-36.2 57.68-14.89 28.68-42.2 103.89-46.72 112.14 11.83 16.23 50.2 25.75 83.42 11 19.43-6.39 48.02-25.13 65.76-41.29 28.19-27.17 48.13-59.58 48.2-116.54-7.05-9.63-34.19-43.79-42.46-38.94-7.65 4.48-36.36-4.55-47.41-12.96-12.64 11.81-10.75 14.11-24.59 28.91z"/>
        <path id="path3145" stroke-width="1px" stroke="#000" fill-rule="evenodd" d="m418.24 352.3c7.45 10.84 8.83 19.55 6.28 25.69s-9.5 12.38-15.34 13.26c-5.84 0.87-20.49-2.74-21.55-7.7"/>
        <path id="path3149" d="m404.59 466.51c-3.65-1.1-16.5-12.74-17.62-15.87-6.39-18 22.75-21.88 33.88-2.42 5.39 14-3.36 23.12-16.26 18.29z" stroke-dashoffset="758.4" stroke="#000" stroke-linecap="square" stroke-width="5.5"/>
        <path id="path3151" d="m466.64 452.23c0.2-1.81 7.03-8.05 9.31-8.56 13.09-2.91 21.62 11.73 8.25 16.99-10.1 2.47-18.98-2.05-17.56-8.43z" stroke-dashoffset="758.4" stroke="#000" stroke-linecap="square" stroke-width="5.5"/>
        <path id="path3147" d="m392.95 342.92c-11.5-4.94-8.17-15.98-11-19.66-3.08-3.99-38.25 4.55-55.43 19.88-17.17 15.33-44.15 67.89-46.66 89.3-2.4 20.56-6.92 38.31-0.69 69.54 6.22 31.24 24.58 53.34 27.83 51.29 3.31-2.08 31.71-89.95 50.99-131.14s33.47-51.4 56.48-73.57" fill-rule="evenodd" stroke="#ce3921" stroke-width="1px" fill="#ce3921"/>
        <path id="path3067" d="m352.17 540.25c0.19-1.81 7.02-8.06 9.3-8.56 13.09-2.92 21.62 11.72 8.26 16.98-10.11 2.48-18.98-2.04-17.56-8.42z" stroke-dashoffset="758.4" stroke="#000" stroke-linecap="square" stroke-width="5.5"/>
        <path id="path3180" stroke-width="1px" stroke="#000" fill-rule="evenodd" d="m411.96 332.62c4.07 6.33 1.95 17.87 4.09 19.31 1.78 1.2 18.37-3.51 26.02-0.48 7.4 2.92-34.44-25.57-30.11-18.83z"/>
        <path id="path3184" stroke-width="1px" stroke="#000" fill-rule="evenodd" d="m437.19 289.34c-4.55 0.59-54.95 1.57-54.87 18.46s30.49 13.99 51.55 28.45c20.96 14.4 45.93 24.51 60.83 46.86 14.89 22.35 27.04-8.36 24.94-21.05-2.11-12.68-7.53-25.23-3.5-6.7 4.02 18.54-14.22 19.88-14.8-0.48-0.58-20.35-11.75-33.63-28.6-44.88s-51.17 3.8-55.86-5.8c-4.98-10.2 24.86-15.46 20.31-14.86z"/>
        <g id="g4242" transform="matrix(1.4891 -.053967 .053967 1.4891 -213.26 -194.32)">
          <path id="path3188" stroke-width=".67111px" stroke="#000" fill-rule="evenodd" d="m440.86 339.99c-0.34 0-4.19 2.95-4.13 5.2 0.06 2.2 12.53 6.6 17.16 9.89 4.62 3.28 10.05 13.91 12.34 11.65 2.27-2.24 5.22-7.04 7.54-8.22s6.28 1.37 6.17-0.69-3.5 1.57-7.54 0-5.54-10.24-13.11-13.63c-6.88-3.08-9.53-2.9-11.57-4.88-2.05-1.99-2.96-6.92-4.12-8.23s-2.74-9.6-2.05-1.37c0.68 8.23-0.35 10.28-0.69 10.28z"/>
          <path id="path3190" transform="matrix(1 0 0 2.6667 17.141 -616.48)" fill="#f7efcf" d="m434 360.22a3.4281 1.0284 0 1 1 -6.85 0 3.4281 1.0284 0 1 1 6.85 0z"/>
          <path id="path3966" transform="matrix(1 0 0 2.6667 32.91 -606.19)" fill="#f7efcf" d="m434 360.22a3.4281 1.0284 0 1 1 -6.85 0 3.4281 1.0284 0 1 1 6.85 0z"/>
        </g>
        <g id="g4253" transform="matrix(1.4615 .29031 -.27152 1.3669 -72.856 -337.35)">
          <path id="path3970" stroke-width=".69394px" stroke="#000" fill-rule="evenodd" d="m476.04 393.14c-2.74-1.09-11.74-2.23-9.94-4.75 1.95-2.72 1.97-9.45 5.49-8.99 3.52 0.47 7.19 14.83 4.45 13.74z"/>
          <path id="path3974" transform="matrix(.32925 .64736 -1.4805 .90680 863.13 -218.03)" fill="#f7efcf" d="m434 360.22a3.4281 1.0284 0 1 1 -6.85 0 3.4281 1.0284 0 1 1 6.85 0z"/>
        </g>
        <path id="path3976" d="m442.03 285.07c-16.81-3.94-44.4 5.93-57.52 10.25-19.01 9.47-9.08 31.29 9.88 31.33 21.14 4.94 39.29 17.64 58.26 27.72 12.66 7.26 18.78 11.14 32.95 27.99 26.3 27.22 36.72 14.13 37.32-7.86 0.6-11.34 1.36-38.25-11.05-40.71" stroke="#000" stroke-miterlimit="6.7" stroke-width="3.3" fill="none"/>
        <path id="path4389" opacity=".77099" fill-rule="evenodd" fill="url(#radialGradient2591)" d="m308.85 541.59c0.99 25.46-28.27-21.22-30.44-56.24-2.17-35.03 13.41-85.47 28.36-110.71 10.36-22.11 52-59.3 72.28-48.09 3.98 28.32 49.79 29.38 28.9 22.21-21.66-7.42-100.03 168.76-99.1 192.83z"/>
        <path id="path4206" transform="matrix(1.4624 .28594 -.28594 1.4624 -67.882 -367.68)" d="m421.23 317.33a1.6327 2.2857 0 1 1 -3.27 0 1.6327 2.2857 0 1 1 3.27 0z"/>
        <path id="path4208" transform="matrix(-.40165 1.4349 -1.4349 -.40165 1074.5 -251.19)" d="m421.23 317.33a1.6327 2.2857 0 1 1 -3.27 0 1.6327 2.2857 0 1 1 3.27 0z"/>
        <path id="path4210" transform="matrix(-.40165 1.4349 -1.4349 -.40165 1074.5 -251.19)" d="m421.23 317.33a1.6327 2.2857 0 1 1 -3.27 0 1.6327 2.2857 0 1 1 3.27 0z"/>
        <path id="path4212" transform="matrix(1.4624 .28594 -.28594 1.4624 -67.882 -367.68)" d="m419.99 326.94a1.5074 1.3515 0 1 1 -3.01 0 1.5074 1.3515 0 1 1 3.01 0z"/>
        <path id="path4214" transform="matrix(1.4624 .28594 -.28594 1.4624 -67.882 -367.68)" d="m420.41 330.63a1.2995 1.6113 0 1 1 -2.6 0 1.2995 1.6113 0 1 1 2.6 0z"/>
        <path id="path3968" stroke-width="1px" stroke="#000" fill-rule="evenodd" d="m437.66 283.71c3.58 2.56 8.45 10.47 13.26 9.76s5.92-6.4 6.15-10.78c0.24-4.37-22.98-1.53-19.41 1.02z"/>
        <path id="path3972" transform="matrix(1.1249 0 0 2.7563 -36.704 -706.87)" fill="#f7efcf" d="m434 360.22a3.4281 1.0284 0 1 1 -6.85 0 3.4281 1.0284 0 1 1 6.85 0z"/>
        <path id="path4216" transform="matrix(1.4624 .28594 -.28594 1.4624 -66.612 -366.79)" d="m422.9 334.95a1.5074 1.6633 0 1 1 -3.01 0 1.5074 1.6633 0 1 1 3.01 0z"/>
        <path id="path4218" transform="matrix(1.4624 .28594 -.28594 1.4624 -66.612 -366.79)" d="m424.46 338.64a1.1955 1.4034 0 1 1 -2.39 0 1.1955 1.4034 0 1 1 2.39 0z"/>
        <path id="path4220" transform="matrix(1.4624 .28594 -.28594 1.4624 -67.882 -367.68)" d="m427.16 341.81a1.5594 1.4554 0 1 1 -3.12 0 1.5594 1.4554 0 1 1 3.12 0z"/>
        <path id="path4222" transform="matrix(1.4624 .28594 -.28594 1.4624 -67.882 -367.68)" d="m429.87 346.7a1.4554 1.8712 0 1 1 -2.91 0 1.4554 1.8712 0 1 1 2.91 0z"/>
        <path id="path4224" transform="matrix(1.4901 0 0 1.4901 -177.18 -247.88)" d="m502.84 361.56a2.3391 2.1831 0 1 1 -4.67 0 2.3391 2.1831 0 1 1 4.67 0z"/>
        <path id="path4226" transform="matrix(1.4901 0 0 1.4901 -177.18 -247.88)" d="m498.27 365.1a1.6633 2.0792 0 1 1 -3.33 0 1.6633 2.0792 0 1 1 3.33 0z"/>
        <path id="path4228" transform="matrix(1.4901 0 0 1.4901 -177.18 -247.88)" d="m494.63 368.32a1.9232 1.3515 0 1 1 -3.84 0 1.9232 1.3515 0 1 1 3.84 0z"/>
        <path id="path4230" transform="matrix(1.4901 0 0 1.4901 -177.18 -247.88)" d="m489.75 370.66a1.6113 1.4034 0 1 1 -3.23 0 1.6113 1.4034 0 1 1 3.23 0z"/>
        <path id="path4232" transform="matrix(1.4901 0 0 1.4901 -177.18 -247.88)" d="m486.11 372.01a1.1435 1.2995 0 1 1 -2.29 0 1.1435 1.2995 0 1 1 2.29 0z"/>
        <path id="path4234" transform="matrix(1.4901 0 0 1.4901 -177.18 -247.88)" d="m483.09 372.94a1.8712 1.1955 0 1 1 -3.74 0 1.8712 1.1955 0 1 1 3.74 0z"/>
        <path id="path4236" transform="matrix(1.4901 0 0 1.4901 -177.18 -247.88)" d="m479.14 374.09a1.6113 1.8193 0 1 1 -3.22 0 1.6113 1.8193 0 1 1 3.22 0z"/>
        <path id="path4238" transform="matrix(1.4901 0 0 1.4901 -177.18 -247.88)" d="m475.19 374.4a1.1955 1.2995 0 1 1 -2.39 0 1.1955 1.2995 0 1 1 2.39 0z"/>
        <path id="path4240" transform="matrix(1.4901 0 0 1.4901 -176.86 -246.93)" d="m471.55 374.56a0.93562 1.5594 0 1 1 -1.87 0 0.93562 1.5594 0 1 1 1.87 0z"/>
        <g id="g4393" stroke="#000" transform="matrix(1.4901 0 0 1.4901 -176.17 -246.26)">
          <path id="path2511" stroke-width="3.6911" stroke-dashoffset="758.4" stroke-linecap="square" d="m336.67 451.55c-2.11-0.6-9.54-6.95-10.19-8.65-3.7-9.81 13.16-11.93 19.6-1.32 3.12 7.63-1.94 12.6-9.41 9.97z"/>
          <path id="path3069" stroke-width="3.6911" stroke-dashoffset="758.4" stroke-linecap="square" d="m307.54 495.39c-1.61 0.41 0.07 2.87-0.17 4.99-0.24 2.11 3.25 20.41 4.7 17.3 1.45-3.12 3.1-3.95 4.57-7.25 1.48-3.3-0.87-9.68-3.39-11.79-2.53-2.1-4.1-3.66-5.71-3.25z"/>
          <path id="path3178" stroke-width=".67111px" fill-rule="evenodd" d="m396.66 401.02c-2.88-4.41-13.68-0.54-17.22 1.29-3.54 1.82-6.81 6.07-6.9 9.35-0.09 3.27 0.4 8.83 3.5 9.08"/>
        </g>
        <path id="path4699" opacity=".77099" transform="translate(-62.277 175.22)" fill="url(#radialGradient4719)" d="m532.62 224.43a26.846 28.994 0 1 1 -53.69 0 26.846 28.994 0 1 1 53.69 0z"/>
        <path id="path4717" opacity=".77099" transform="translate(-138.52 124.75)" fill="url(#radialGradient4719)" d="m532.62 224.43a26.846 28.994 0 1 1 -53.69 0 26.846 28.994 0 1 1 53.69 0z"/>
        <path id="path4721" opacity=".77099" transform="matrix(.64 0 0 .77778 139.13 155.29)" fill="url(#radialGradient4731)" d="m532.62 224.43a26.846 28.994 0 1 1 -53.69 0 26.846 28.994 0 1 1 53.69 0z"/>
        <path id="path3388" fill-rule="evenodd" d="m395.32 316.68c-2.25-7.49-6.96-15.25-4.17-23.26-0.33-9.54 5.57-17.55 10.53-25.13 3.9-7.63 10-13.8 16-19.8-10.11-15.78-4.25-15.31-18.83-26.36-5.13-2.12-1.82-9.56 3.15-6.95 3.48-0.27-0.58-5.33-0.32-7.64-19.13-3.92 2.2-3.8 13.75-6.72-4.32 1.03-9.59 5.06-7.9 10.05 1.16 5.9 7.53-2.51 8.51 3.06-5.98 12.4 9.82 27.36 11.09 35.65-3.42 3.81-6.22 8.18-9.05 12.51-7.6 11.42-15.09 22.91-22.71 34.31 5.01 0.68 6.73 6.33 4.17 10.27-1.39 3.34-3.51 6.42-4.22 10.01z"/>
        <path id="path3394" fill-rule="evenodd" fill="#f7efcf" d="m437.34 289.27c-6.37 0.08-30.8 3.81-33.1 10.44-0.43 2.56 8.81 7.7 12.01 10.62 3.2 2.91 12.99 6.23 19.09 6.19s23.74-9.1 27.12-10.67c-0.19-0.22-12.69-4.87-25.12-16.58z"/>
        <path id="path3396" fill-rule="evenodd" fill="#f7efcf" d="m514.84 345.37c2.18 5.98 7.4 27.02 2.02 31.53-2.24 1.31-10.33-5.49-14.19-7.45-3.86-1.95-10.45-9.92-12.58-15.64-2.13-5.71 0.05-25.42 0.32-29.14-0.02-1.04 19.71 19.9 24.43 20.7z"/>
        <path id="path3398" d="m442.03 285.07c-16.81-3.94-44.4 5.93-57.52 10.25-19.01 9.47-9.08 31.29 9.88 31.33 21.14 4.94 39.29 17.64 58.26 27.72 12.66 7.26 18.78 11.14 32.95 27.99 26.3 27.22 36.72 14.13 37.32-7.86 0.6-11.34 1.36-38.25-11.05-40.71" stroke="#000" stroke-miterlimit="6.7" stroke-width="3.3" fill="none"/>
      </g>
    </g>
  </g>
  <metadata>
    <rdf:RDF>
      <cc:Work>
        <dc:format>image/svg+xml</dc:format>
        <dc:type rdf:resource="http://purl.org/dc/dcmitype/StillImage"/>
        <cc:license rdf:resource="http://creativecommons.org/licenses/publicdomain/"/>
        <dc:publisher>
          <cc:Agent rdf:about="http://openclipart.org/">
            <dc:title>Openclipart</dc:title>
          </cc:Agent>
        </dc:publisher>
        <dc:title>ladybug</dc:title>
        <dc:date>2009-01-09T07:39:44</dc:date>
        <dc:description>bug, bug, clip art, clipart, country, country, flower, flower, image, insect, insect, ladybug, ladybug, media, nature, nature, public domain, summer, summer, svg, </dc:description>
        <dc:source>http://openclipart.org/detail/21071/ladybug-by-mekonee_29-21071</dc:source>
        <dc:creator>
          <cc:Agent>
            <dc:title>mekonee_29</dc:title>
          </cc:Agent>
        </dc:creator>
        <dc:subject>
          <rdf:Bag>
            <rdf:li>bug</rdf:li>
            <rdf:li>clip art</rdf:li>
            <rdf:li>clipart</rdf:li>
            <rdf:li>country</rdf:li>
            <rdf:li>flower</rdf:li>
            <rdf:li>image</rdf:li>
            <rdf:li>insect</rdf:li>
            <rdf:li>ladybug</rdf:li>
            <rdf:li>media</rdf:li>
            <rdf:li>nature</rdf:li>
            <rdf:li>public domain</rdf:li>
            <rdf:li>summer</rdf:li>
            <rdf:li>svg</rdf:li>
          </rdf:Bag>
        </dc:subject>
      </cc:Work>
      <cc:License rdf:about="http://creativecommons.org/licenses/publicdomain/">
        <cc:permits rdf:resource="http://creativecommons.org/ns#Reproduction"/>
        <cc:permits rdf:resource="http://creativecommons.org/ns#Distribution"/>
        <cc:permits rdf:resource="http://creativecommons.org/ns#DerivativeWorks"/>
      </cc:License>
    </rdf:RDF>
  </metadata>
</svg>
