<?xml version="1.0" encoding="UTF-8" standalone="no"?>
<svg
   xmlns:dc="http://purl.org/dc/elements/1.1/"
   xmlns:cc="http://creativecommons.org/ns#"
   xmlns:rdf="http://www.w3.org/1999/02/22-rdf-syntax-ns#"
   xmlns:svg="http://www.w3.org/2000/svg"
   xmlns="http://www.w3.org/2000/svg"
   version="1.0"
   viewBox="0 0 454.91 354.33"
   id="svg1876">
  <defs
     id="defs8" />
  <g
     transform="translate(-98.062,-56.704)"
     id="layer1">
    <g
       id="g830">
      <path
         style="fill:#e9afaf;fill-opacity:1;stroke:none;stroke-width:1px;stroke-linecap:butt;stroke-linejoin:miter;stroke-opacity:1"
         d="m 312.95079,321.44086 45.13338,2.69453 c 0,0 22.90351,72.07868 31.66073,72.07868 l 14.81992,-6.73633 -10.10449,-67.36325 24.9244,-6.73633 c 0,0 8.08359,10.77812 -10.10448,45.13338 l 14.81991,-1.34726 c 0,0 11.45176,0 22.22988,-56.58514 0,0 43.11248,14.14629 3.36816,84.87771 l 20.88261,-7.40996 c 0,0 2.69453,14.14628 18.18808,-64.66873 0,0 -6.73633,-13.47265 12.79902,-61.30056 0,0 15.49355,14.81992 24.25077,2.69453 l 4.0418,-18.18808 c 0,0 4.71542,-8.75722 14.14628,-4.0418 0,0 -0.67363,-13.47265 -16.84082,-6.73632 0,0 -5.38906,-14.81992 -12.79901,-17.51445 0,0 4.71542,-105.76031 -123.27476,-101.04488 l -8.75723,-9.430859 -8.75722,-17.514447 -35.70253,-20.208977 c 0,0 -22.22987,-2.020897 -38.39705,17.514447 0,0 -14.81992,-15.493549 -52.54334,-11.451754 0,0 -28.9662,-3.368163 -49.17519,17.514447 0,0 -49.8488,-55.911503 -74.77321,14.146284 0,0 -41.091582,61.974199 -2.02089,43.786119 0,0 -34.355263,51.8697 2.69452,78.81501 0,0 10.1045,55.23787 48.50155,55.9115 33.94573,12.53995 28.27485,26.40661 111.14937,28.9662 0,0 -18.18807,59.9533 -45.13338,80.16228 l 11.45176,8.08359 c 0,0 37.72342,-26.27167 61.97419,-71.40505"
         id="path817" />
      <path
         style="fill:#ffffff;stroke:none;stroke-width:1px;stroke-linecap:butt;stroke-linejoin:miter;stroke-opacity:1"
         d="m 235.49555,127.96189 c 0,0 7.69218,-36.409633 31.28152,-21.02528 0,0 6.15374,8.20499 3.07687,24.10215 z"
         id="path819" />
      <path
         style="fill:#ffffff;stroke:none;stroke-width:1px;stroke-linecap:butt;stroke-linejoin:miter;stroke-opacity:1"
         d="m 176.5222,133.60282 c 0,0 9.23061,-35.896822 21.53809,-21.02528 0,0 7.17937,21.53809 -7.69217,26.1534 z"
         id="path821" />
      <path
         style="fill:#ff2a2a;stroke:none;stroke-width:1px;stroke-linecap:butt;stroke-linejoin:miter;stroke-opacity:1"
         d="m 210.88059,216.67833 c 0,0 -12.8203,-2.05125 -13.33311,15.89716 0,0 19.48685,24.61497 42.56338,-2.05124 0,0 2.56406,-25.64059 -29.23027,-13.84592 z"
         id="path823" />
      <path
         id="path2159"
         style="opacity:1;fill:#000000"
         d="m 390.52,408.69 c -0.54,-1.22 -1.34,-2.49 -1.79,-2.82 -0.45,-0.34 -2.75,-4.88 -5.1,-10.11 -2.34,-5.23 -5.72,-11.76 -7.49,-14.52 -1.77,-2.76 -6.88,-15.62 -11.35,-28.59 l -8.13,-23.58 -14.42,0.78 c -9.84,0.54 -16.66,0.22 -21.5,-1.01 -3.89,-0.99 -7.57,-1.45 -8.18,-1.03 -0.6,0.43 -3.77,5.52 -7.03,11.32 -3.77,6.69 -9.72,14.41 -16.26,21.08 -5.68,5.79 -11.52,13.05 -12.99,16.13 -1.46,3.09 -4.36,6.59 -6.43,7.79 -3.57,2.06 -12.99,9.55 -14.27,11.36 -1.17,1.63 -11.21,7 -13.32,7.12 -1.2,0.07 -1.88,-0.6 -1.56,-1.53 2.13,-6.23 2.35,-5.98 -4.5,-4.92 -4.97,0.77 -6.53,0.59 -6.61,-0.78 -0.05,-0.98 4.72,-7.33 10.6,-14.12 11.1,-12.8 25.04,-34.99 31.83,-50.66 3.85,-8.91 6.49,-19.68 4.84,-19.78 -0.46,-0.03 -4.64,-0.1 -9.29,-0.15 -9.46,-0.1 -29.03,-2.72 -30.11,-4.03 -1.59,-1.93 -9.49,-4.6 -13.04,-4.4 -5.77,0.33 -28.85,-4.52 -36.37,-7.65 -3.66,-1.52 -8.76,-4.48 -11.33,-6.59 -2.57,-2.1 -7.06,-4.51 -9.99,-5.36 -9.26,-2.68 -22.51,-9.81 -29.04,-15.63 -4.96,-4.42 -7.32,-8 -11.07,-16.76 -2.62,-6.12 -4.9,-13.46 -5.07,-16.3 -0.26,-4.5 -0.86,-5.44 -4.56,-7.15 -2.34,-1.08 -7.2,-4.36 -10.81,-7.29 -6.387,-5.19 -6.563,-5.52 -6.985,-12.84 -0.873,-15.13 4.015,-35.63 11.395,-47.82 4.07,-6.72 4.48,-8.9 1.62,-8.74 -1.05,0.06 -4.62,-1.02 -7.94,-2.4 -4.473,-1.86 -6.065,-3.25 -6.189,-5.41 -0.234,-4.06 1.768,-10.04 3.999,-11.96 4.43,-3.8 11.85,-17.18 18.85,-33.98 13.67,-32.854 24.27,-41.484 46.31,-37.723 5.73,0.979 13.69,6.052 26.55,16.925 l 5.65,4.78 8.57,-5.878 c 12.72,-8.716 19.84,-10.861 35.55,-10.698 38.68,0.402 38.79,0.412 47.69,4.412 l 8.43,3.792 13.59,-7.563 C 326.58,57 327.06,56.843 336.72,56.774 l 9.86,-0.07 9.88,9.152 c 5.44,5.033 13.1,11.492 17.02,14.353 7.42,5.401 12.03,11.805 14.12,19.599 l 1.22,4.542 16.86,-0.51 c 20.34,-0.63 32.37,1.53 50.54,9.07 10.63,4.41 14.4,6.85 23.73,15.33 12.68,11.53 23.94,25.77 28.43,35.94 2.11,4.79 3.79,12.52 5.34,24.63 2.19,17.04 2.42,17.79 6.34,21.48 2.24,2.1 5.45,6.22 7.14,9.17 2.54,4.41 3.71,5.31 6.77,5.13 10.48,-0.6 19.14,6.74 19,16.11 -0.08,5.21 -0.33,5.59 -4.26,6.2 -4.16,0.64 -4.19,0.61 -4.52,-5.12 -0.32,-5.6 -0.47,-5.79 -5.05,-6.38 -2.59,-0.33 -4.83,-0.41 -4.97,-0.18 -0.15,0.23 -0.78,3.63 -1.42,7.56 -1.79,11.11 -6.38,18.25 -13.57,21.11 -7.04,2.81 -10.62,2.23 -13.24,-2.14 l -1.9,-3.17 -1.79,3.15 c -4.32,7.58 -7.3,26.76 -6.46,41.62 0.4,7.04 -0.29,10.22 -4.51,21.06 -4.87,12.49 -6.46,20.47 -7.22,36.31 -0.33,6.86 -0.94,8.41 -4.99,12.63 -2.53,2.65 -5.43,6.71 -6.45,9.01 -2.32,5.27 -8.83,12.68 -11.27,12.82 -1.09,0.06 -1.91,-1.19 -2.02,-3.06 -0.26,-4.56 -2.6,-5.18 -6.67,-1.79 -4.32,3.59 -7.5,3.97 -7.64,0.91 -0.17,-3.75 4.19,-13.73 9.43,-21.58 5.8,-8.68 8.78,-22.11 7.99,-36.01 -0.57,-10.12 -2.86,-15.51 -8.63,-20.34 l -4.08,-3.42 -2.81,8.39 c -1.54,4.62 -3.07,11.33 -3.38,14.9 -0.86,9.67 -1.99,12.23 -6.82,15.47 -2.41,1.62 -5.54,5.32 -6.96,8.23 -2.61,5.34 -8.75,10.72 -12.49,10.94 -1.12,0.06 -2.47,-1.03 -3,-2.43 -1.16,-3.04 -2.53,-3.15 -4.59,-0.35 -0.9,1.21 -2.55,1.8 -4.03,1.43 -2.14,-0.55 -2.35,-0.17 -1.45,2.7 1.4,4.49 3.22,31.24 2.2,32.41 -1.3,1.49 -6.11,-1.34 -7.22,-4.25 -1.55,-4.06 -3.22,-1.05 -3.69,6.62 -0.41,6.89 -2.97,9.33 -4.97,4.74 z m -0.34,-21.7 c -0.18,-3.28 4.1,-3.83 6.63,-0.85 1.32,1.56 2.63,2.54 2.9,2.17 0.28,-0.36 -1.37,-9.62 -3.66,-20.57 -5.02,-24.04 -8.58,-55.11 -6.74,-58.85 1.1,-2.26 1.41,-1.89 2.47,2.88 0.66,3 1.57,5.42 2.01,5.39 2.13,-0.16 14.59,-4.84 23.68,-8.88 19.57,-8.69 25.93,-12.38 26.38,-15.3 0.24,-1.52 0.81,-6.01 1.26,-9.97 2.12,-18.63 6.64,-19.73 6.63,-1.61 0,5.45 4.86,16.88 13.45,31.58 6.18,10.57 6.21,10.67 6.84,24.02 0.73,15.44 -1.53,23.42 -9.45,33.27 -4.73,5.9 -4.91,8.17 -0.41,5.42 2.33,-1.43 2.63,-1.25 2.8,1.68 0.27,4.67 1.91,3.98 4.85,-2.04 1.4,-2.87 3.39,-5.6 4.43,-6.07 1.43,-0.64 1.77,-3.05 1.38,-9.76 -0.56,-9.83 1.95,-24.79 5.88,-35.03 2.02,-5.24 2.47,-9.41 2.13,-19.63 -0.24,-7.13 0.31,-16.53 1.22,-20.87 1.84,-8.79 8,-25.18 13.86,-36.83 2.24,-4.47 5.15,-14.13 6.97,-23.16 2.82,-14.02 2.98,-16.77 1.65,-29.05 -2.69,-24.8 -9.52,-38.24 -27.81,-54.74 -16.3,-14.7 -19.76,-16.88 -34.07,-21.48 -15.12,-4.86 -30.5,-6.86 -45.94,-5.97 -10.46,0.61 -12.3,1.04 -12.86,3.02 -3.64,12.88 -12.6,29.32 -23.93,43.92 -6.09,7.84 -9.98,11.38 -17.68,16.06 -9.18,5.58 -10.44,6 -18.15,5.95 -9.91,-0.06 -14.3,-2.46 -19.08,-10.43 -2.98,-4.98 -3.36,-6.92 -3.52,-17.97 -0.17,-11.88 0.11,-13.12 6.84,-30.81 8.11,-21.3 10.59,-32.093 9.01,-39.279 -0.95,-4.34 -0.78,-4.979 1.22,-4.726 1.28,0.161 3.84,2.956 5.7,6.212 l 3.37,5.919 -8.05,19.844 c -10.45,25.75 -11.41,29.35 -10.79,40.18 0.88,15.17 7.62,22.65 19.78,21.94 13.17,-0.76 29.93,-19.5 42.49,-47.52 8.66,-19.32 6.32,-32.314 -7.29,-40.478 -3.52,-2.112 -10.38,-7.076 -15.26,-11.032 -10.4,-8.449 -13.6,-9.705 -20.87,-8.187 -5.76,1.203 -21.36,11.952 -26.51,18.269 -3.75,4.59 -8.89,5.174 -9.14,1.036 -0.16,-2.777 -4.84,-6.109 -14.79,-10.531 -4.4,-1.955 -42.76,-4.208 -48.33,-2.839 -9.74,2.394 -23.9,11.642 -30.21,19.723 -2.02,2.593 -7.14,7.12 -11.37,10.059 l -7.7,5.35 8.11,-0.08 c 7.59,-0.08 8.26,0.16 10.41,3.8 3.79,6.39 1.61,23.39 -3.85,30.19 -1.86,2.3 -1.72,2.72 2.19,6.42 4.4,4.16 6.68,9.16 4.79,10.49 -0.62,0.43 -3.38,-1.17 -6.14,-3.56 -4.27,-3.7 -14.69,-7.66 -19.43,-7.39 -0.65,0.04 1.97,3.15 5.84,6.92 6.38,6.23 8.41,9.16 6.41,9.28 -0.4,0.02 -3.59,-2.07 -7.08,-4.65 -7.75,-5.72 -13.8,-8.45 -18.18,-8.2 -3.07,0.18 -4.47,2.09 -2.14,2.94 1.61,0.59 10.11,12.46 10.21,14.26 0.05,0.89 0.5,2.52 1,3.62 1.87,4.15 -1.56,1.84 -8.75,-5.88 -13.77,-14.8 -30.72,-18.3 -42.47,-8.77 -6.4,5.18 -13,16.78 -14.07,24.74 -0.4,3.04 -0.48,10.37 -0.17,16.28 0.5,9.62 0.9,11.05 3.81,13.65 6.29,5.61 21.39,6.97 40.94,3.7 15.53,-2.61 22.34,-5.51 26.3,-11.22 3.37,-4.86 5.02,-4.42 3.34,0.89 -0.64,2.03 -0.99,3.78 -0.79,3.91 1.17,0.71 32.82,-4.13 40.85,-6.25 13.26,-3.5 23.64,-10.99 29.6,-21.34 1.71,-2.98 1.49,-3.43 -4.55,-9.59 -6.12,-6.24 -7.95,-9.67 -5.24,-9.83 0.71,-0.04 1.32,0.44 1.36,1.06 0.08,1.4 9.16,4.68 23.57,8.51 13.4,3.56 22.55,8.85 26.26,15.19 3.27,5.58 1.81,9.57 -1.51,4.13 -2.39,-3.9 -9.23,-7.12 -19.55,-9.18 -12.65,-2.53 -13.1,-2.32 -13.68,6.3 -0.7,10.52 -4.87,27.95 -8.91,37.26 -4.76,10.97 -10,17.19 -18.1,21.48 -9.35,4.95 -17.65,4.59 -31.34,-1.34 -9.21,-4 -10.53,-5.07 -15.73,-12.71 -3.12,-4.59 -7.03,-9.73 -8.68,-11.42 l -3,-3.07 -7.77,2.92 c -5.96,2.24 -28.76,6.77 -36.33,7.21 -1.61,0.1 -0.67,6.82 1.77,12.73 8.07,19.49 19.28,29.42 36.21,32.08 5.45,0.86 8.77,2.41 13.61,6.38 10.87,8.9 31.36,15.2 44.71,13.74 9.57,-1.04 21.75,-4.06 25.61,-6.35 2.42,-1.43 5.53,-3.26 6.91,-4.07 1.38,-0.81 4.98,-2.99 8,-4.85 3.03,-1.85 5.83,-3.07 6.24,-2.71 1.39,1.25 -6.21,14.06 -8.42,14.19 -0.42,0.02 -3.25,1.94 -6.29,4.26 -3.04,2.32 -6.81,4.29 -8.36,4.38 -1.69,0.1 -2.58,0.81 -2.2,1.75 1.36,3.42 26.42,3.52 45.15,0.19 16.4,-2.91 22.47,-3.45 18.74,-1.67 -1.39,0.67 -3.57,2.51 -4.84,4.1 -1.27,1.59 -3.64,2.96 -5.27,3.06 -1.62,0.09 -3.26,0.73 -3.64,1.42 -0.77,1.43 6.56,2.19 18.9,1.95 l 8.44,-0.17 -7.95,3.05 c -4.36,1.67 -7.92,3.41 -7.89,3.86 0.02,0.45 3.18,1.96 7.01,3.36 5.56,2.04 10.15,2.5 22.79,2.27 15.65,-0.28 15.81,-0.31 14.94,-3 -1.12,-3.44 -0.19,-3.48 4.81,-0.21 3.58,2.34 4.04,3.35 4.41,9.72 0.28,4.91 2.52,12.5 7.26,24.6 3.77,9.63 6.91,18.48 6.98,19.67 0.07,1.19 1.67,3.79 3.55,5.78 1.88,2 4.18,5.91 5.11,8.71 1.54,4.65 4.2,5.78 3.96,1.68 z M 208.59,264.65 c -9.64,-2.39 -19.34,-8.48 -14,-8.79 0.89,-0.05 5.57,0.8 10.4,1.88 4.83,1.09 13.36,2.09 18.96,2.22 5.6,0.14 11.65,0.48 13.44,0.75 3.09,0.47 3.13,0.58 0.82,2.06 -3.92,2.5 -22.37,3.67 -29.62,1.88 z m 109.68,-11.72 c 3.19,-2.42 15.21,-18.78 18.02,-24.52 4.01,-8.19 8.89,-23.06 10.4,-31.69 1.61,-9.21 4.69,-9.61 5.2,-0.69 0.73,12.55 -3.38,30.59 -9.16,40.24 -3.2,5.34 -19.55,17.4 -23.86,17.61 -1.26,0.05 -1.47,-0.28 -0.6,-0.95 z M 157.06,182.97 c -0.45,-0.4 -0.95,-2.96 -1.1,-5.7 -0.21,-3.55 -0.84,-4.93 -2.23,-4.85 -1.07,0.06 -1.91,0.69 -1.87,1.41 0.04,0.71 -1.09,1.36 -2.51,1.44 -3.5,0.2 -3.91,-6.31 -0.61,-9.67 5.41,-5.5 11.74,0.06 12.37,10.87 0.3,5.23 -1.76,8.54 -4.05,6.5 z m -40.19,-0.19 c -1.34,-1.2 -1.49,-7.49 -0.26,-11.39 1.94,-6.15 8.9,-3.99 9.3,2.89 0.16,2.82 -0.4,3.67 -2.51,3.79 -1.62,0.09 -2.92,1.21 -3.23,2.78 -0.55,2.7 -1.69,3.37 -3.3,1.93 z m 162.32,-42.3 c -8.91,-5.19 -20.27,-7.1 -40.01,-6.72 l -18.81,0.37 5.01,-3.11 c 3.72,-2.3 6.33,-5.66 10.04,-12.93 7.78,-15.2 10.99,-18.615 17.87,-19.013 5.85,-0.337 16.81,2.833 18.6,5.373 0.54,0.78 0.36,2.26 -0.4,3.29 -0.98,1.32 -0.91,3.8 0.23,8.5 0.88,3.65 1.39,7.68 1.13,8.96 -0.32,1.61 1.02,3.14 4.34,4.93 5.46,2.96 8.94,6.86 9.14,10.23 0.17,3 -2.14,3.04 -7.14,0.12 z m -12.75,-15.57 c 0.54,-1.68 -0.11,-1.85 -3.74,-0.95 -3.66,0.91 -4.99,0.55 -8.03,-2.15 -2.98,-2.66 -3.6,-4.18 -3.44,-8.42 0.15,-4.11 -0.21,-5.08 -1.76,-4.69 -2.47,0.61 -9.7,12.73 -9.52,15.93 0.12,2.07 0.94,2.25 6.25,1.38 3.37,-0.55 8.77,-0.61 12.01,-0.12 3.25,0.48 6.28,0.92 6.74,0.97 0.46,0.05 1.13,-0.82 1.49,-1.95 z m -2.33,-9.4 c -0.04,-0.62 -0.91,-1.76 -1.94,-2.52 -1.44,-1.06 -2.02,-0.94 -2.48,0.51 -0.33,1.04 -0.24,2.22 0.21,2.62 1.26,1.11 4.28,0.68 4.21,-0.61 z M 262.3,88.756 c -0.41,-0.362 -4.79,-1.167 -9.74,-1.789 -10.05,-1.264 -12.05,-3.787 -4.82,-6.111 8.12,-2.615 18.32,0.895 18.64,6.417 0.11,1.872 -2.56,2.841 -4.08,1.483 z m -4.83,296.86 c 2.2,-2.55 5.61,-5.06 7.56,-5.57 2.34,-0.61 4.44,-2.63 6.12,-5.91 4.38,-8.51 21.01,-31.87 28.81,-40.46 4.09,-4.51 7.41,-8.57 7.39,-9.03 -0.03,-0.46 -2.55,-2.38 -5.62,-4.27 -16.09,-9.91 -16.52,-9.9 -18.16,0.1 -1.85,11.27 -12.56,30.6 -30.26,54.62 -8.7,11.8 -9.94,14.73 -4.93,11.67 3.48,-2.13 3.84,-2.02 3.23,1 -0.78,3.88 1.33,3.1 5.86,-2.15 z m 152.4,-37.27 c 5.32,-8.79 7.13,-14.53 6.73,-21.4 -0.28,-4.81 -0.76,-5.85 -2.69,-5.74 -2.98,0.18 -15.87,4.74 -17.12,6.07 -0.88,0.93 4.06,30.81 5.77,34.89 0.52,1.24 1.26,0.27 2.13,-2.79 0.73,-2.57 3.06,-7.54 5.18,-11.03 z m 21.23,-4.32 c 1.09,-0.69 2.86,-5.39 3.93,-10.43 1.08,-5.04 2.98,-12.68 4.23,-16.97 1.25,-4.3 2.21,-8.91 2.13,-10.26 -0.13,-2.24 -0.62,-2.13 -6.08,1.43 -9.17,5.96 -9.96,7.09 -10.49,15.09 -0.3,4.54 -2.25,11.46 -5.04,17.91 -4.24,9.81 -4.86,14.07 -1.51,10.3 2.83,-3.17 4.78,-2.05 4.23,2.44 -0.51,4.14 -0.43,4.09 3.05,-2 1.97,-3.44 4.47,-6.82 5.55,-7.51 z m 88.34,-88.7 c 2.31,-2.28 4.46,-5.41 4.77,-6.95 0.51,-2.58 0.3,-2.52 -2.8,0.82 -3.42,3.67 -8.17,4.96 -9.79,2.65 -1.84,-2.63 0.39,-9.09 3.97,-11.49 4.64,-3.12 5.81,-6.28 2.02,-5.49 -4.49,0.94 -10.2,10.11 -9.87,15.85 0.3,5.17 2.81,9.02 5.76,8.85 0.96,-0.05 3.63,-1.96 5.94,-4.24 z m -0.16,-12.42 c -0.46,-0.41 -1.46,0.65 -2.22,2.37 -1.31,2.98 -1.27,3.01 0.84,0.74 1.21,-1.3 1.83,-2.7 1.38,-3.11 z m 18.86,-12.15 c 3.09,-0.26 3.17,-0.39 0.79,-1.26 -4.46,-1.62 -8.5,-1.01 -8.37,1.28 0.08,1.36 0.81,1.77 2.13,1.17 1.1,-0.49 3.55,-1.03 5.45,-1.19 z m -23.24,-1.32 c -0.04,-0.72 -0.64,-0.91 -1.33,-0.42 -0.68,0.48 -1.21,1.45 -1.17,2.17 0.04,0.71 0.64,0.9 1.32,0.42 0.69,-0.48 1.22,-1.46 1.18,-2.17 z m 6,-7.22 c -1.73,-3.19 -3.95,-5.75 -4.94,-5.69 -2.63,0.15 -1.99,3.71 0.9,5.05 1.37,0.64 3.37,2.98 4.45,5.21 1.08,2.24 2.14,3.43 2.35,2.65 0.21,-0.79 -1.03,-4.03 -2.76,-7.22 z m -295.5,14.82 c 3.3,-0.99 6.95,-3.02 8.11,-4.51 3.04,-3.91 2.31,-9.77 -1.67,-13.31 -3.48,-3.1 -6.03,-2.87 -9.95,0.89 -1.69,1.63 -2.74,1.71 -6.46,0.5 -2.45,-0.79 -6.56,-1.14 -9.15,-0.78 -4.21,0.6 -4.76,1.13 -5.27,5.11 -0.85,6.61 0.85,10.37 5.59,12.4 5.11,2.19 10.78,2.1 18.8,-0.3 z m -28.69,-15.65 c 1.21,-2.64 1.86,-5.09 1.45,-5.46 -0.42,-0.37 -3.77,-0.32 -7.45,0.11 l -6.7,0.78 4.35,5.33 c 2.4,2.92 4.76,5.03 5.25,4.68 0.49,-0.36 1.88,-2.8 3.1,-5.44 z m 48.92,-4.55 c 1.98,-5.97 3.2,-16.11 1.93,-16.03 -1.43,0.08 -26.41,9.42 -29.21,10.93 -1.98,1.05 -1.69,1.14 1.32,0.39 2.11,-0.53 5.14,-1.37 6.72,-1.87 4.79,-1.5 10.49,1.36 13.33,6.71 1.43,2.68 2.97,4.87 3.43,4.86 0.45,-0.01 1.57,-2.25 2.48,-4.99 z m -86.91,-71.7 c 2.79,-2.19 4.31,-27.86 1.64,-27.7 -0.68,0.04 -2.86,2.76 -4.86,6.06 -1.99,3.29 -6.13,8.02 -9.2,10.5 -3.06,2.48 -5.52,4.85 -5.46,5.26 0.14,0.91 13.46,6.96 15.27,6.93 0.72,-0.01 1.89,-0.49 2.61,-1.05 z m -34.29,-7.54 c 5.23,-2.31 9.14,-5.49 15.05,-12.24 10.94,-12.49 23.36,-33.696 26.39,-45.057 0.72,-2.672 1.83,-4.889 2.47,-4.926 2.82,-0.163 3.21,7.153 0.9,16.742 -1.33,5.497 -2.59,11.761 -2.8,13.921 l -0.39,3.92 4.13,-4.35 c 2.27,-2.39 7.93,-6.718 12.59,-9.618 5.65,-3.519 8.42,-6.057 8.33,-7.627 -0.19,-3.288 -11.84,-12.223 -21.22,-16.267 -8.96,-3.866 -20.28,-4.569 -25.24,-1.566 -5.2,3.153 -11.74,14.477 -16.06,27.827 -5.14,15.851 -7.43,20.481 -13.99,28.221 -6.41,7.55 -8.49,13.04 -5.19,13.71 4.69,0.95 8.21,0.32 15.03,-2.69 z m 48.16,-2.99 c 0.63,-0.93 1.71,-4.25 2.41,-7.37 0.7,-3.13 3.18,-8.05 5.5,-10.94 4.16,-5.17 4.18,-5.27 1.28,-6.01 -2.29,-0.58 -3.55,0.1 -5.61,3.02 -2.36,3.33 -7.25,18.48 -7.05,21.85 0.1,1.78 2.12,1.46 3.47,-0.55 z m 17.82,-2.02 c 0.4,-0.74 -0.21,-1.64 -1.35,-2.01 -1.17,-0.37 -2.57,-2.92 -3.21,-5.84 l -1.14,-5.18 -2.08,4.53 c -2.82,6.12 -2.64,7.08 1.6,8.48 4.85,1.6 5.32,1.6 6.18,0.02 z m 3.24,-14.82 c -0.41,-0.86 -0.62,0.19 -0.47,2.32 0.15,2.14 0.48,2.84 0.74,1.56 0.25,-1.28 0.13,-3.03 -0.27,-3.88 z" />
    </g>
  </g>
  <metadata
     id="metadata5">
    <rdf:RDF>
      <cc:Work>
        <dc:format>image/svg+xml</dc:format>
        <dc:type
           rdf:resource="http://purl.org/dc/dcmitype/StillImage" />
        <cc:license
           rdf:resource="http://creativecommons.org/licenses/publicdomain/" />
        <dc:publisher>
          <cc:Agent
             rdf:about="http://openclipart.org/">
            <dc:title>Openclipart</dc:title>
          </cc:Agent>
        </dc:publisher>
        <dc:title></dc:title>
        <dc:date>2006-12-06T07:12:38</dc:date>
        <dc:description>a smiling cartoon pig</dc:description>
        <dc:source>https://openclipart.org/detail/1900/smiling-pig-by-lalolalo</dc:source>
        <dc:creator>
          <cc:Agent>
            <dc:title>lalolalo</dc:title>
          </cc:Agent>
        </dc:creator>
        <dc:subject>
          <rdf:Bag>
            <rdf:li>animal</rdf:li>
            <rdf:li>cartoon</rdf:li>
            <rdf:li>contour</rdf:li>
            <rdf:li>farm</rdf:li>
            <rdf:li>line art</rdf:li>
            <rdf:li>mammal</rdf:li>
            <rdf:li>outline</rdf:li>
            <rdf:li>pig</rdf:li>
            <rdf:li>remix problem</rdf:li>
            <rdf:li>smiling</rdf:li>
          </rdf:Bag>
        </dc:subject>
      </cc:Work>
      <cc:License
         rdf:about="http://creativecommons.org/licenses/publicdomain/">
        <cc:permits
           rdf:resource="http://creativecommons.org/ns#Reproduction" />
        <cc:permits
           rdf:resource="http://creativecommons.org/ns#Distribution" />
        <cc:permits
           rdf:resource="http://creativecommons.org/ns#DerivativeWorks" />
      </cc:License>
    </rdf:RDF>
  </metadata>
</svg>
