<?xml version="1.0" standalone="no"?>
<!DOCTYPE svg PUBLIC "-//W3C//DTD SVG 1.0//EN" "http://www.w3.org/TR/2001/REC-SVG-20010904/DTD/svg10.dtd">
<svg xmlns="http://www.w3.org/2000/svg" xmlns:xlink="http://www.w3.org/1999/xlink" id="body_1" width="667" height="667">

<defs>
    <clipPath  id="1">

    <path id=""  clip-rule="evenodd" transform="matrix(1 0 0 1 0 0)"  d="M0 0L500 0L500 0L500 500L500 500L3.0616172E-14 500L3.0616172E-14 500L0 0z" />    </clipPath>
</defs>

<g transform="matrix(1.3333 0 0 1.3333 0 0)">
	<g clip-path="url(#1)" >
    <path id=""  transform="matrix(1 0 0 -1 0 500)"  d="M31.471893 256.77502L31.471893 256.77502L31.471893 256.77502L31.471893 256.77502L31.471893 256.77502L31.471893 445.66214L31.471893 445.66214L238.2847 238.84933L238.2847 238.84933L238.2847 238.84933C 241.53235 235.60168 245.81194 234.11804 250.07466 234.24268L250.07466 234.24268L250.07466 234.24268C 254.32178 234.11804 258.60138 235.60168 261.84903 238.84933L261.84903 238.84933L468.70984 445.6933L468.70984 445.6933L468.70984 445.6933L468.70984 445.6933L468.70984 256.72833L468.70984 256.72833L250.10709 38.12555L250.10709 38.12555L31.471893 256.77502zM261.849 4.5989075L261.849 4.5989075L261.849 4.5989075L495.20898 237.95758L495.20898 237.95758L495.20898 237.95758C 498.3632 241.11176 499.90915 245.24988 499.878 249.3724L499.878 249.3724L499.878 249.3724C 499.878 249.49702 499.94028 249.59048 499.94028 249.71638L499.94028 249.71638L499.94028 249.71638L499.94028 249.71638L499.94028 483.95123L499.94028 483.95123L499.94028 483.95123C 499.94028 492.5714 492.94394 499.56647 484.32507 499.56647L484.32507 499.56647L484.32507 499.56647C 484.20047 499.56647 484.107 499.50415 483.98108 499.50415L483.98108 499.50415L483.98108 499.50415C 479.85858 499.51974 475.72046 497.9738 472.56628 494.83517L472.56628 494.83517L250.10579 272.3747L250.10579 272.3747L27.178009 495.30374L27.178009 495.30374L27.178009 495.30374C 20.91632 501.56543 10.765808 501.56543 4.50412 495.30374L4.50412 495.30374L4.50412 495.30374C 0.7878723 491.58752 -0.44656372 486.5434 0.24139404 481.71863L0.24139404 481.71863L0.24139404 481.71863L0.24139404 481.71863L0.24139404 251.99702L0.24139404 251.99702L0.24139404 251.99702C -0.44528198 247.17227 0.7878113 242.12814 4.50412 238.4119L4.50412 238.4119L238.30151 4.614502C 241.54916 1.3668518 245.82875 -0.11682129 250.09148 0.0078125L250.09148 0.0078125L250.09148 0.0078125C 254.32307 -0.11810303 258.60138 1.3655396 261.849 4.5989075z" stroke="#FFFFFF" stroke-width="1.7306981" fill="#E1E1E1" fill-rule="nonzero" />
	</g>
</g>
</svg>