<?xml version="1.0" encoding="UTF-8" standalone="no"?>
<!--part of the matt icon theme by sixsixfive released under CC0 (https://creativecommons.org/publicdomain/zero/1.0/) on openclipart-->
<svg xmlns="http://www.w3.org/2000/svg" xmlns:xlink="http://www.w3.org/1999/xlink" viewBox="0 0 128 128">
 <defs id="0">
  <linearGradient id="2">
   <stop id="M" stop-color="#eee"/>
   <stop offset="1" id="N" stop-color="#eee" stop-opacity="0"/>
  </linearGradient>
  <linearGradient id="3">
   <stop id="O" stop-color="#888"/>
   <stop offset="1" id="P" stop-color="#494949"/>
  </linearGradient>
  <linearGradient id="4">
   <stop id="Q" stop-color="#e2e2e2"/>
   <stop offset="1" id="R" stop-color="#cacaca"/>
  </linearGradient>
  <linearGradient id="5">
   <stop id="S" stop-color="#cf4913"/>
   <stop offset="1" id="T" stop-color="#c34512"/>
  </linearGradient>
  <linearGradient id="6">
   <stop id="U"/>
   <stop offset="1" id="V" stop-opacity="0"/>
  </linearGradient>
  <linearGradient id="7">
   <stop id="W" stop-color="#eee"/>
   <stop offset="1" id="X" stop-color="#dcdcdc"/>
  </linearGradient>
  <linearGradient id="8">
   <stop id="Y" stop-color="#cc0700"/>
   <stop offset="1" id="Z" stop-color="#af0600"/>
  </linearGradient>
  <radialGradient xlink:href="#7" gradientUnits="userSpaceOnUse" gradientTransform="matrix(-1.404511,1.1888571,-0.99999995,-1.1813958,199.01878,10.32822)" r="15.03" cy="51.39" cx="60.05" id="9"/>
  <radialGradient xlink:href="#6" r="53.91" cy="117.35" cx="63.894" gradientTransform="matrix(1,0,0,0.08641975,0,107.20963)" gradientUnits="userSpaceOnUse" id="A"/>
  <radialGradient xlink:href="#7" r="15.03" cy="51.39" cx="60.05" gradientTransform="matrix(-1.404511,1.1888571,-0.99999995,-1.1813958,199.73811,11.750541)" gradientUnits="userSpaceOnUse" id="B"/>
  <radialGradient xlink:href="#7" gradientUnits="userSpaceOnUse" gradientTransform="matrix(1.0952013,0,0,6.2001065,-38.990121,-322.7298)" r="6.946" cy="62.995" cx="88.96" id="C"/>
  <radialGradient xlink:href="#4" gradientUnits="userSpaceOnUse" gradientTransform="matrix(-2.1258279,1.7045928,-2.0193458,-2.5183618,260.99697,-27.663597)" r="20.898" cy="30.18" cx="64" id="D"/>
  <radialGradient xlink:href="#2" id="E" cx="63.21" cy="-8.84" r="54.27" gradientTransform="matrix(1.2606553,0,0,0.9847417,-16.476307,0.9860661)" gradientUnits="userSpaceOnUse"/>
  <linearGradient xlink:href="#3" id="F" y1="8.211" x2="0" y2="121.04" gradientUnits="userSpaceOnUse"/>
  <radialGradient xlink:href="#4" id="G" gradientUnits="userSpaceOnUse" gradientTransform="matrix(-2.1258279,1.7045928,-2.0193458,-2.5183618,260.99697,-27.663597)" cx="68.44" cy="25.506" r="20.898"/>
 </defs>
 <g id="1">
  <path id="H" d="m 117.80366,117.35108 a 53.910149,4.6589017 0 1 1 -107.8202997,0 53.910149,4.6589017 0 1 1 107.8202997,0 z" transform="translate(1.2996963,3.4536055)" opacity="0.443" fill="url(#A)"/>
  <path id="I" d="m 122.08898,64.625572 a 56.734097,55.918617 0 1 1 -113.4681952,0 56.734097,55.918617 0 1 1 113.4681952,0 z" transform="matrix(1.0119373,0,0,1.0266947,-2.1350421,-4.4029736)" fill="url(#F)" stroke="#323232"/>
  <path transform="matrix(1.0119373,0,0,1.0266947,-2.1350421,-4.4029736)" d="m 122.08898,64.625572 a 56.734097,55.918617 0 1 1 -113.4681952,0 56.734097,55.918617 0 1 1 113.4681952,0 z" id="J" fill="none" stroke="#323232" stroke-width="3.924"/>
  <g id="K" fill="url(#D)">
   <path d="m 54.446705,34.590597 c -1.4e-5,1.013291 0.289479,2.008425 0.868481,2.985404 0.542785,0.723795 0.814186,1.718928 0.814201,2.985405 -1.5e-5,1.302778 -0.651376,2.352191 -1.954082,3.148244 -1.302735,0.796161 -2.840669,1.194215 -4.613807,1.194162 -1.556036,5.3e-5 -3.021597,-0.542747 -4.396686,-1.628403 -1.375099,-1.121732 -2.062646,-2.659666 -2.062643,-4.613806 -3e-6,-1.809275 0.470424,-3.419582 1.411282,-4.830927 0.977036,-1.411216 2.51497,-2.985337 4.613807,-4.722366 3.473912,-2.894866 8.540048,-4.342333 15.198421,-4.342406 6.296458,7.3e-5 11.29022,1.5561 14.981301,4.668086 3.727189,3.075937 5.590803,7.201218 5.590848,12.375857 -4.5e-5,1.556084 -0.289538,3.094018 -0.868481,4.613807 -0.542844,1.519892 -1.176111,2.822613 -1.899803,3.908165 -0.723776,1.085649 -1.737003,2.261716 -3.039684,3.528205 -1.30276,1.230392 -2.38836,2.189339 -3.256805,2.876844 -0.832329,0.651402 -1.990303,1.519882 -3.473925,2.605444 -0.977072,0.687586 -1.791273,1.338946 -2.442603,1.954083 -0.65139,0.61521 -1.35703,1.447504 -2.116923,2.496883 -0.723761,1.013262 -1.284655,2.261702 -1.682683,3.745326 -0.361892,1.483684 -0.542826,3.166365 -0.5428,5.048047 l 0,2.551163 c -2.6e-5,1.375117 -0.253332,2.352157 -0.759921,2.931124 -0.470452,0.579007 -1.519866,0.868501 -3.148245,0.868482 -1.592235,1.9e-5 -2.623556,-0.289475 -3.093964,-0.868482 -0.434259,-0.578967 -0.651379,-1.556007 -0.651361,-2.931124 l 0,-2.768284 c -1.8e-5,-1.519815 0.05426,-2.804442 0.16284,-3.853885 0.144729,-1.049384 0.434223,-2.406385 0.868481,-4.071006 0.470409,-1.664554 1.302702,-3.347234 2.496884,-5.048047 1.194139,-1.736922 2.71398,-3.455789 4.559526,-5.156607 2.062615,-1.80929 3.564363,-3.618624 4.505247,-5.428008 0.940823,-1.809285 1.41125,-4.034765 1.411282,-6.676449 -3.2e-5,-3.473866 -0.850419,-6.567827 -2.551164,-9.281893 -1.700803,-2.713936 -3.745351,-4.070937 -6.133649,-4.071006 -2.42453,6.9e-5 -4.505264,0.579056 -6.242208,1.736963 -1.700791,1.121854 -2.551178,2.478855 -2.551164,4.071005 m 2.442603,58.459642 c -1.6e-5,-1.736955 0.597064,-3.202516 1.791243,-4.396686 1.230329,-1.230338 2.713983,-1.845511 4.450966,-1.845522 1.700751,1.1e-5 3.166312,0.615184 4.396686,1.845522 1.23032,1.19417 1.845494,2.659731 1.845523,4.396686 -2.9e-5,1.664593 -0.615203,3.093967 -1.845523,4.288126 -1.230374,1.194162 -2.695935,1.791242 -4.396686,1.791243 -1.736983,-1e-6 -3.220637,-0.597081 -4.450966,-1.791243 -1.194179,-1.194159 -1.791259,-2.623533 -1.791243,-4.288126" id="a" fill="url(#G)"/>
  </g>
  <path id="L" d="M 65.34375,12.21875 C 35.896134,12.21875 12.125,35.682244 12.125,64.625 C 12.125,93.567756 35.896134,117.03125 65.34375,117.03125 C 94.791366,117.03125 118.59375,93.565388 118.59375,64.625 C 118.59375,35.684612 94.791366,12.21875 65.34375,12.21875 z" transform="matrix(1.0119373,0,0,1.0266947,-2.1350421,-4.4029736)" fill="none" stroke="url(#E)" stroke-width="2.079"/>
 </g>
</svg>
