<?xml version="1.0" encoding="UTF-8" standalone="no"?>
<!-- Created with Inkscape (http://www.inkscape.org/) -->
<svg xmlns:rdf="http://www.w3.org/1999/02/22-rdf-syntax-ns#" xmlns="http://www.w3.org/2000/svg" xmlns:cc="http://creativecommons.org/ns#" xmlns:xlink="http://www.w3.org/1999/xlink" xmlns:dc="http://purl.org/dc/elements/1.1/" xmlns:svg="http://www.w3.org/2000/svg" xmlns:inkscape="http://www.inkscape.org/namespaces/inkscape" xmlns:sodipodi="http://sodipodi.sourceforge.net/DTD/sodipodi-0.dtd" xmlns:ns1="http://sozi.baierouge.fr" id="svg2" viewBox="0 0 207.3 197.37" version="1.1" inkscape:version="0.91 r13725">
  <defs id="defs6">
    <filter id="filter3914" color-interpolation-filters="sRGB">
      <feGaussianBlur id="feGaussianBlur3916" stdDeviation="1.4734688"/>
    </filter>
    <filter id="filter3934" color-interpolation-filters="sRGB">
      <feGaussianBlur id="feGaussianBlur3936" stdDeviation="2.3853622"/>
    </filter>
    <filter id="filter3960" color-interpolation-filters="sRGB">
      <feGaussianBlur id="feGaussianBlur3962" stdDeviation="1.3414375"/>
    </filter>
    <filter id="filter4002" color-interpolation-filters="sRGB">
      <feGaussianBlur id="feGaussianBlur4004" stdDeviation="1.4356252"/>
    </filter>
    <filter id="filter4112" height="1.6431" width="1.4804" color-interpolation-filters="sRGB" y="-.32157" x="-.24022">
      <feGaussianBlur id="feGaussianBlur4114" stdDeviation="2.5312285"/>
    </filter>
    <filter id="filter4158" color-interpolation-filters="sRGB">
      <feGaussianBlur id="feGaussianBlur4160" stdDeviation="0.81035529"/>
    </filter>
    <filter id="filter4179" height="1.2549" width="1.1874" color-interpolation-filters="sRGB" y="-.12744" x="-.093703">
      <feGaussianBlur id="feGaussianBlur4181" stdDeviation="0.25772881"/>
    </filter>
    <radialGradient id="radialGradient4214" gradientUnits="userSpaceOnUse" cy="115.98" cx="37.54" gradientTransform="matrix(1 0 0 .85277 0 17.076)" r="5.2571">
      <stop id="stop4118" style="stop-color:#ffac0a" offset="0"/>
      <stop id="stop4120" style="stop-color:#ffac0a;stop-opacity:0" offset="1"/>
    </radialGradient>
    <linearGradient id="linearGradient4216" y2="133.58" gradientUnits="userSpaceOnUse" x2="48.589" y1="107.67" x1="48.465">
      <stop id="stop4130" style="stop-color:#ffc700" offset="0"/>
      <stop id="stop4132" style="stop-color:#ffc700;stop-opacity:0" offset="1"/>
    </linearGradient>
    <radialGradient id="radialGradient4236" gradientUnits="userSpaceOnUse" cy="28.156" cx="-12.573" gradientTransform="matrix(1 0 0 .47677 74.876 22.067)" r="14.752">
      <stop id="stop3806" style="stop-color:#8285d2" offset="0"/>
      <stop id="stop4138" style="stop-color:#b5b8e6;stop-opacity:.49804" offset="1"/>
    </radialGradient>
    <radialGradient id="radialGradient4238" gradientUnits="userSpaceOnUse" cy="28.156" cx="-12.573" gradientTransform="matrix(1 0 0 .47677 74.876 22.067)" r="14.752">
      <stop id="stop3798" style="stop-color:#000000" offset="0"/>
      <stop id="stop3800" style="stop-color:#000000;stop-opacity:0" offset="1"/>
    </radialGradient>
    <linearGradient id="linearGradient4241" y2="34.136" gradientUnits="userSpaceOnUse" x2="4.2527" gradientTransform="translate(74.876 10.444)" y1="34.136" x1="-30.174">
      <stop id="stop3822" style="stop-color:#ffffff" offset="0"/>
      <stop id="stop4126" style="stop-color:#d8f1ff" offset="0.45"/>
      <stop id="stop4124" style="stop-color:#b2e3ff" offset="0.53"/>
      <stop id="stop3824" style="stop-color:#66c7ff" offset="1"/>
    </linearGradient>
    <radialGradient id="radialGradient4243" gradientUnits="userSpaceOnUse" cy="34.136" cx="-12.961" gradientTransform="matrix(1 0 0 1.1837 74.876 4.1728)" r="17.214">
      <stop id="stop3814" style="stop-color:#000000" offset="0"/>
      <stop id="stop3816" style="stop-color:#000000;stop-opacity:0" offset="1"/>
    </radialGradient>
    <linearGradient id="linearGradient4250" y2="106.18" gradientUnits="userSpaceOnUse" x2="46.457" gradientTransform="translate(79.695 35.738)" y1="142.87" x1="47.679">
      <stop id="stop3940" style="stop-color:#965a09" offset="0"/>
      <stop id="stop3942" style="stop-color:#db830d" offset="1"/>
    </linearGradient>
    <filter id="filter4259" color-interpolation-filters="sRGB">
      <feGaussianBlur id="feGaussianBlur4261" stdDeviation="0.39768056"/>
    </filter>
  </defs>
  <g id="g4263">
    <path id="path3964" style="stroke-linejoin:round;filter:url(#filter4002);stroke:#008c00;stroke-linecap:round;stroke-width:2;fill:#00ff00" d="m34.438 71.219c-8.7633 0-15.875 5.0203-15.875 11.219 0 2.4974 1.1747 4.7918 3.125 6.6562-0.63604-0.05486-1.2805-0.0625-1.9375-0.0625-4.9108 0-9.3082 1.5531-12.219 4.0312-1.1989-5.3583-7.7435-9.4688-15.656-9.4688-8.7633 0-15.875 5.0203-15.875 11.219 0 1.6013 0.48941 3.1218 1.3438 4.5-1.0522-0.15542-2.1638-0.21875-3.2812-0.21875-7.7581 0-14.183 3.9208-15.562 9.125-2.5432-2.2789-6.234-3.7188-10.344-3.7188-7.6946 0-13.938 5.0203-13.938 11.219 0 4.9528 3.9739 9.1668 9.5 10.656-2.5212 2.031-4.0938 4.807-4.0938 7.9062 0 6.1984 6.2429 11.25 13.938 11.25 2.5614 0 4.9379-0.59098 7-1.5625-0.0054 0.12828-0.03125 0.24567-0.03125 0.375 0 6.1984 6.2429 11.25 13.938 11.25 0.99621 0 1.938-0.12115 2.875-0.28125-1.814 1.8949-2.875 4.2658-2.875 6.8438 0 6.1984 6.2117 11.219 13.906 11.219 7.6946 0 13.938-5.0203 13.938-11.219 0-1.3869-0.33526-2.7113-0.90625-3.9375 1.9002 0.78256 4.0631 1.2188 6.3438 1.2188 4.5368 0 8.5498-1.7333 11.094-4.4375 1.2379 5.1773 6.868 9.0938 13.656 9.0938 7.6946 0 13.938-5.0203 13.938-11.219 0-2.5611-1.0824-4.9238-2.875-6.8125 0.9261 0.15621 1.8913 0.21875 2.875 0.21875 4.7374 0 8.9516-1.8706 11.469-4.7812 1.764 4.5686 7.0606 7.875 13.312 7.875 7.6946 0 13.938-5.0203 13.938-11.219 0-2.471-1.0078-4.7398-2.6875-6.5938 0.1171 0.002 0.22595 0.0312 0.34375 0.0312 7.6946 0 13.938-5.0203 13.938-11.219 0-1.5018-0.36687-2.9407-1.0312-4.25 2.4944 1.894 5.8642 3.0625 9.5625 3.0625 7.6946 0 13.906-5.0203 13.906-11.219 0-6.1984-6.2117-11.219-13.906-11.219-2.2817 0-4.4429 0.46674-6.3438 1.25 0.57865-1.2334 0.90625-2.5409 0.90625-3.9375 0-6.1984-6.2429-11.25-13.938-11.25-2.8855 0-5.5567 0.72266-7.7812 1.9375-0.56532-5.8352-7.4193-10.438-15.812-10.438-5.2716 0-9.927 1.8267-12.812 4.625-2.083-4.486-8.031-7.721-15.065-7.721z" transform="matrix(1.0554 0 0 1.1186 76.794 -1.5065)"/>
    <path id="path2991" style="stroke-opacity:.29804;filter:url(#filter3914);stroke:#007fc7;stroke-width:2.5;fill:#d6f1ff" d="m17.838 120.82 2.6406 6.3375 51.756 27.991h6.3375l85.556-31.159 3.1688-4.7531-2.1125-61.262-99.816-46.475-49.116 50.172z"/>
    <path id="path3836" style="filter:url(#filter3934);fill-opacity:.58824;fill:#ffffff" d="m100.62 104.97a47.259 30.054 0 1 1 -94.518 0 47.259 30.054 0 1 1 94.518 0z" transform="matrix(.95336 -.41983 0 1.3539 70.831 -19.874)"/>
    <rect id="rect2993" style="stroke:#4d2d04;stroke-width:2.5792;fill:url(#linearGradient4250)" transform="matrix(.93953 -.34248 0 1 0 0)" ry="5.4498" width="34.851" y="140.88" x="108.93" height="40.803"/>
    <rect id="rect2995" style="fill-opacity:.29804;stroke:#4d2d04;stroke-width:2.1359;fill:#66c7ff" transform="matrix(.87681 .48083 0 1 0 0)" ry="5.4498" width="37.344" y="70.92" x="32.391" height="23.237"/>
    <path id="path2989" style="stroke-linejoin:round;filter:url(#filter3960);stroke:#b74a00;stroke-linecap:round;stroke-width:6;fill:#ff7800" d="m6.2194 60.616 0.52812 6.3375 59.15 34.856 8.45-0.52812 47.531-52.812 7.3938-1.5844 49.644 20.069v-4.7531l-54.92-29.574-54.396-26.407-10.034 0.5286z"/>
    <path id="path3954" style="stroke-linejoin:round;stroke:#4d2d04;stroke-linecap:round;stroke-width:2;fill:url(#radialGradient4214)" d="m41.797 115.98a4.2571 3.4831 0 1 1 -8.5142 0 4.2571 3.4831 0 1 1 8.5142 0z" transform="matrix(1 -.49880 0 1 71.745 29.008)"/>
    <rect id="rect4006" style="opacity:.9;filter:url(#filter4112);fill:url(#linearGradient4216)" transform="matrix(.98278 -.41065 0 1 70.518 10.444)" ry="5.0953" width="25.289" y="113.97" x="36.092" height="10.191"/>
    <path id="path2997" style="stroke:url(#radialGradient4243);stroke-width:1px;fill:url(#linearGradient4241)" d="m45.301 54.279-0.09936-23.896 16.999-5.6787 16.428 9.7485v8.7358l-17.142 21.268z"/>
    <path id="path2999" style="stroke:url(#radialGradient4238);stroke-width:1px;fill:url(#radialGradient4236)" d="m47.677 31.069 14.567 8.1231 13.938-4.7912-14.131-8.2758z"/>
    <path id="path4136" style="filter:url(#filter4259);fill-opacity:.43137;fill:#ffffff" d="m-24.009 93.461a13.081 11.778 0 1 1 -26.161 0 13.081 11.778 0 1 1 26.161 0z" transform="matrix(.89610 0.427 0 .86524 74.533 40.199)"/>
    <rect id="rect4140" style="fill:#9e5f09" transform="matrix(.94174 -.33634 0 1 0 0)" ry="2.9974" width="20.66" y="179.76" x="155.87" height="11.465"/>
    <rect id="rect4142" style="fill:#9e5f09" transform="matrix(.84030 .54213 0 1 0 0)" ry="2.9974" width="12.817" y="31.527" x="165.18" height="11.465"/>
    <path id="path4144" style="filter:url(#filter4158);stroke:#199100;stroke-width:1px;fill:#00ff00" d="m76.087 91.871c0.34743-0.69485 0.61135-1.4382 1.0423-2.0846 0.06424-0.0964 0.23162 0 0.34743 0s0.24384-0.0518 0.34743 0c0.14649 0.0732 0.20094 0.27418 0.34743 0.34742 0.10358 0.0518 0.26554-0.0819 0.34743 0 0.0819 0.0819-0.08189 0.26554 0 0.34743 0.0819 0.0819 0.26554-0.0819 0.34742 0 0.0819 0.0819-0.0518 0.24385 0 0.34743 0.0733 0.14649 0.27419 0.20094 0.34743 0.34743 0.0518 0.10358-0.0518 0.24384 0 0.34743 0.0732 0.14648 0.27419 0.20094 0.34743 0.34742 0.0628 0.12565 0 1.4955 0 1.7371 0 0.11581-0.0819 0.26554 0 0.34743 0.0819 0.0819 0.26554-0.0819 0.34743 0 0.0819 0.0819-0.0819 0.26554 0 0.34743 0.0819 0.0819 0.23162 0 0.34743 0 0.15646 0 0.93655 0.0529 1.0423 0 0.14649-0.0732 0.20094-0.27418 0.34743-0.34743 0.10358-0.0518 0.26554 0.0819 0.34743 0 0.0819-0.0819-0.0819-0.26554 0-0.34743 0.0112-0.0112 0.95802 0 1.0423 0 0.11581 0 0.26554-0.0819 0.34743 0 0.0819 0.0819-0.0819 0.26554 0 0.34743 0.0819 0.0819 0.24385-0.0518 0.34743 0 1.4459 0.72296-0.37141-0.024 0.34743 0.69486 0.0819 0.0819 0.26553-0.0819 0.34742 0 0.0819 0.0819 0 0.23162 0 0.34743 0 0.24165 0.0628 1.6115 0 1.7371-0.0452 0.0905-0.61902 0.42326-0.34742 0.69485 0.16378 0.16378 0.48769-0.10358 0.69485 0 0.14649 0.0733 0.20094 0.27419 0.34743 0.34743 0.47923 0.23961 0.31077-0.42075 0.69486 0.34743 0.0518 0.10358-0.0819 0.26554 0 0.34743 0.0819 0.0819 0.26554-0.0819 0.34742 0 0.10758 0.10758-0.10758 1.6296 0 1.7371 0.0819 0.0819 0.26554-0.0819 0.34743 0 0.0819 0.0819-0.0819 0.26554 0 0.34743 0.16378 0.16377 0.53108-0.16378 0.69486 0 0.0819 0.0819-0.0819 0.26553 0 0.34742 0.11549 0.11549 0.57937-0.11549 0.69486 0 0.0819 0.0819-0.0518 0.24385 0 0.34743 0.14648 0.29298 0.54836 0.40188 0.69485 0.69486 0.009 0.0182 0.009 1.0241 0 1.0423-0.0732 0.14649-0.27418 0.20094-0.34743 0.34743-0.0518 0.10358 0.0819 0.26554 0 0.34743-0.0819 0.0819-0.26554-0.0819-0.34742 0-0.10759 0.10758 0.10758 1.6296 0 1.7371-0.0819 0.0819-0.26554-0.0819-0.34743 0-0.0819 0.0819 0.0518 0.24384 0 0.34743-0.0733 0.14649-0.23162 0.23162-0.34743 0.34743-0.11581 0.1158-0.20094 0.27418-0.34743 0.34742-0.10358 0.0518-0.26554-0.0819-0.34743 0-0.0819 0.0819 0.0819 0.26554 0 0.34743-0.0819 0.0819-0.23162 0-0.34743 0h-0.34742-2.0846c-0.11581 0-0.26554 0.0819-0.34743 0-0.0819-0.0819-0.0819-0.26554 0-0.34743 0.0819-0.0819 0.26554-0.0819 0.34743 0 0.0819 0.0819-0.0819 0.26554 0 0.34743 0.0819 0.0819 0.26554-0.0819 0.34743 0 0.049 0.049 0.0356 0.97102 0 1.0423-0.3841 0.76818-0.21563 0.10781-0.69486 0.34742-0.14649 0.0733-0.20094 0.27419-0.34743 0.34743-0.10358 0.0518-0.24384-0.0518-0.34743 0-0.14648 0.0733-0.20094 0.27419-0.34742 0.34743-0.10359 0.0518-0.45102 0.0518-0.34743 0 0.32756-0.16378 1.4085-0.34743 1.0423-0.34743-0.59051 0-1.1769 0.16069-1.7371 0.34743-0.15537 0.0518-0.18365 0.34743-0.34743 0.34743-0.11581 0-0.11581-0.34743 0-0.34743s0.0819 0.26554 0 0.34743c-0.0819 0.0819-0.23162 0-0.34742 0-0.81479 0 0.16377-0.0819-0.69486 0.34743-0.27794 0.13897-0.76434-0.13898-1.0423 0-0.14648 0.0732-0.20093 0.27418-0.34742 0.34742-0.07127 0.0356-0.99329 0.049-1.0423 0-0.08189-0.0819 0.08189-0.26553 0-0.34742-0.16378-0.16378-0.53108 0.16377-0.69486 0-0.08189-0.0819 0.08189-0.26554 0-0.34743-0.08189-0.0819-0.24384 0.0518-0.34743 0-0.14649-0.0733-0.20094-0.27419-0.34743-0.34743-0.10358-0.0518-0.26554 0.0819-0.34743 0s0.08189-0.26554 0-0.34743c-0.16378-0.16378-0.53108 0.16378-0.69486 0-0.08189-0.0819 0.08189-0.26554 0-0.34743-0.08189-0.0819-0.26554 0.0819-0.34743 0s0.08189-0.26553 0-0.34742c-0.08189-0.0819-0.23162 0-0.34743 0s-0.26554-0.0819-0.34743 0 0.08189 0.26553 0 0.34742c-0.08189 0.0819-0.26554-0.0819-0.34743 0s0.05179 0.24385 0 0.34743c-0.07325 0.14649-0.23162 0.23162-0.34743 0.34743s-0.20094 0.27418-0.34743 0.34743c-0.10358 0.0518-0.23162 0-0.34743 0h-0.34743c-0.16381 0-1.7214 0.0157-1.7371 0-0.08189-0.0819 0-0.23162 0-0.34743-0.57905-0.23162-1.1581-0.46324-1.7371-0.69486h-0.34743c-0.11581 0-0.26554 0.0819-0.34743 0s0.08189-0.26552 0-0.34742-0.23162 0-0.34743 0c-0.15647 0-0.93655-0.0529-1.0423 0-0.14649 0.0732-0.20094 0.27422-0.34743 0.34742-0.01818 0.009-1.0241 0.009-1.0423 0-0.14649-0.0732-0.20094-0.27422-0.34743-0.34742-0.18478-0.0924-0.51007 0.0924-0.69486 0-0.46088-0.23045-0.23398-0.46442-0.69486-0.69486-0.10358-0.0518-0.26554 0.0819-0.34743 0s0.08189-0.26553 0-0.34743-0.26554 0.0819-0.34743 0c-0.01117-0.0112 0-0.95798 0-1.0423v-0.34743c0-0.11581-0.05179-0.24385 0-0.34743 0.07325-0.14649 0.23162-0.23162 0.34743-0.34743s0.20094-0.27413 0.34743-0.34743c0.10358-0.0518 0.26554 0.0819 0.34743 0s-0.08189-0.26552 0-0.34742 0.26554 0.0819 0.34743 0-0.08189-0.26553 0-0.34743 0.34743 0.11581 0.34743 0c0-0.72296-0.48722-0.1398-0.69486-0.34743-0.16378-0.16378 0.10358-0.48769 0-0.69486-0.07325-0.14648-0.27418-0.20094-0.34743-0.34742-0.05287-0.10574 0-0.88582 0-1.0423 0-0.11581-0.08189-0.26553 0-0.34743s0.26554 0.0819 0.34743 0c0.16378-0.16378-0.16378-0.53107 0-0.69485 0.08189-0.0819 0.24384 0.0518 0.34743 0 0.29298-0.14649 0.40188-0.54837 0.69486-0.69486 0.18496-0.0925 0.50989 0.0925 0.69486 0 0.14649-0.0732 0.20094-0.27413 0.34743-0.34743 0.10358-0.0518 0.34743 0.11581 0.34743 0 0-0.16378-0.27419-0.20094-0.34743-0.34742-0.05179-0.10359 0-0.23162 0-0.34743v-0.34743c0-0.18168-0.04568-1.2983 0-1.3897 0.07324-0.14649 0.27419-0.20094 0.34743-0.34743 0.05179-0.10358-0.05179-0.24385 0-0.34743 0.03325-0.0665 1.3232-1.3565 1.3897-1.3897 0.10358-0.0518 0.24384 0.0518 0.34743 0 0.14649-0.0733 0.20094-0.27423 0.34743-0.34743 0.12564-0.0628 1.4955 0 1.7371 0 0.15647 0 0.93655 0.0529 1.0423 0 0.14649-0.0732 0.20094-0.27413 0.34743-0.34743 0.20717-0.10358 0.53108 0.16378 0.69486 0 0.08189-0.0819 0-0.23162 0-0.34743s0.08189-0.26552 0-0.34742-0.26554 0.0819-0.34743 0c-0.16378-0.16378 0.16378-0.53108 0-0.69486-0.08189-0.0819-0.26554 0.0819-0.34743 0s0-0.23162 0-0.34743-0.08189-0.26553 0-0.34743 0.26554 0.0819 0.34743 0c0.16378-0.16378-0.10358-0.48769 0-0.69485 0.03325-0.0665 1.3232-1.3565 1.3897-1.3897 0.10358-0.0518 0.24384 0.0518 0.34743 0 0.14649-0.0733 0.20094-0.27423 0.34743-0.34743 0.10573-0.0529 0.88582 0 1.0423 0 0.11581 0 0.26554-0.0819 0.34743 0s-0.08189 0.26553 0 0.34743 0.24384-0.0518 0.34743 0c0.14649 0.0732 0.20094 0.27422 0.34743 0.34742 0.10358 0.0518 0.34743-0.11581 0.34743 0 0 0.59052-0.34743 1.1466-0.34743 1.7371 0 0.4775 0.81067-1.2739 0.34743-1.3897-0.46324-0.11581-0.23162 0.92648-0.34743 1.3897" transform="matrix(1 -.27223 0 1 77.63 36.434)"/>
    <path id="path4162" style="filter:url(#filter4179);stroke:#2aa100;stroke-width:2;fill:none" d="m99.891 160.34c2.2259 0.71775 4.1623 1.3289 4.2024 3.1167-0.64398-3.9052 0.98005-3.874 2.3988-4.8535"/>
    <path id="path4183" style="filter:url(#filter4179);stroke:#2aa100;stroke-width:2;fill:none" d="m146.18 148.13c2.2259 0.71775 4.1623 1.3289 4.2024 3.1167-0.64398-3.9052 0.98005-3.874 2.3987-4.8535"/>
    <path id="path4185" style="filter:url(#filter4179);stroke:#2aa100;stroke-width:2;fill:none" d="m65.3 166.95c2.2259 0.71775 4.1623 1.3289 4.2024 3.1167-0.64398-3.9052 0.98005-3.874 2.3987-4.8535"/>
    <path id="path4187" style="filter:url(#filter4179);stroke:#2aa100;stroke-width:2;fill:none" d="m29.692 146.09c2.2259 0.71775 4.1623 1.3289 4.2024 3.1167-0.64398-3.9052 0.98005-3.874 2.3987-4.8535"/>
    <path id="path4189" style="filter:url(#filter4179);stroke:#2aa100;stroke-width:2;fill:none" d="m181.28 116.59c2.2259 0.71775 4.1623 1.3289 4.2024 3.1167-0.64397-3.9052 0.98005-3.874 2.3988-4.8535"/>
  </g>
  <metadata>
    <rdf:RDF>
      <cc:Work>
        <dc:format>image/svg+xml</dc:format>
        <dc:type rdf:resource="http://purl.org/dc/dcmitype/StillImage"/>
        <cc:license rdf:resource="http://creativecommons.org/licenses/publicdomain/"/>
        <dc:publisher>
          <cc:Agent rdf:about="http://openclipart.org/">
            <dc:title>Openclipart</dc:title>
          </cc:Agent>
        </dc:publisher>
        <dc:title>Home</dc:title>
        <dc:date>2011-06-06T23:05:44</dc:date>
        <dc:description>Casa Home Page</dc:description>
        <dc:source>https://openclipart.org/detail/142831/home-by-egonpin</dc:source>
        <dc:creator>
          <cc:Agent>
            <dc:title>egonpin</dc:title>
          </cc:Agent>
        </dc:creator>
        <dc:subject>
          <rdf:Bag>
            <rdf:li>cartoon</rdf:li>
            <rdf:li>casa</rdf:li>
            <rdf:li>color</rdf:li>
            <rdf:li>green</rdf:li>
            <rdf:li>home</rdf:li>
            <rdf:li>icon</rdf:li>
            <rdf:li>icono</rdf:li>
            <rdf:li>naranja</rdf:li>
            <rdf:li>orange</rdf:li>
            <rdf:li>verde</rdf:li>
          </rdf:Bag>
        </dc:subject>
      </cc:Work>
      <cc:License rdf:about="http://creativecommons.org/licenses/publicdomain/">
        <cc:permits rdf:resource="http://creativecommons.org/ns#Reproduction"/>
        <cc:permits rdf:resource="http://creativecommons.org/ns#Distribution"/>
        <cc:permits rdf:resource="http://creativecommons.org/ns#DerivativeWorks"/>
      </cc:License>
    </rdf:RDF>
  </metadata>
</svg>
