<svg xmlns="http://www.w3.org/2000/svg" viewBox="0 0 85.002 76" height="81.067" width="90.669"><g transform="translate(-898.277 -531.151)"><rect style="fill:#c4c4c4;fill-opacity:1;stroke:none" width="60" height="74" x="900.277" y="533.151" rx="2" ry="2"/><rect style="fill:#f9fefa;fill-opacity:1;stroke:none" width="60" height="74" x="898.277" y="531.151" rx="2" ry="2"/><path style="fill:#e6e6e6;fill-opacity:1;stroke:none" d="M900.277 531.151c-1.108 0-2 .892-2 2v70c0 1.108.892 2 2 2h56c1.108 0 2-.892 2-2v-70c0-1.108-.892-2-2-2h-56zm2 2h52c1.108 0 2 .892 2 2v66c0 1.108-.892 2-2 2h-52c-1.108 0-2-.892-2-2v-66c0-1.108.892-2 2-2z"/><path style="fill:#ccc;fill-opacity:1;stroke:none" d="M910.277 543.151h36v2h-36zM910.277 591.151h18v2h-18zM910.277 555.151h36v2h-36zM910.277 567.151h36v2h-36zM910.277 579.151h36v2h-36z"/><path style="fill:#c4c4c4;fill-opacity:1;stroke:none" d="m934.277 591.151 7.637-2.545.954-.318 8.592-2.864 31.82-31.82c-.772-2.37-2.317-4.862-4.495-7.04-2.179-2.179-4.59-3.643-6.96-4.415l-31.82 31.82-2.864 8.591-2.864 8.591z"/><path style="fill:#a0a0a0;fill-opacity:1;stroke:none" d="m958.277 555.695-2 2v22.912l2-2v-22.912z"/><path style="fill:#9dd692;fill-opacity:1;stroke:none" d="m949.46 583.424 31.82-31.82c-.772-2.37-2.317-4.862-4.495-7.04-2.179-2.179-4.59-3.643-6.96-4.415l-31.82 31.82c2.37.771 4.781 2.236 6.96 4.415 2.179 2.178 3.723 4.67 4.495 7.04z"/><path style="fill:#f9d69a;fill-opacity:1;stroke:none" d="m932.28 589.149 8.591-2.864 8.591-2.864c-.771-2.37-2.316-4.862-4.494-7.04-2.179-2.179-4.59-3.643-6.96-4.415l-2.864 8.591-2.864 8.592z"/><path style="fill:#4d4d4d;fill-opacity:1;stroke:none" d="m932.277 589.151 7.637-2.545c-.299-1.098-.961-2.234-1.93-3.202-.968-.968-2.064-1.59-3.162-1.89l-2.545 7.637z"/><path style="fill:#bbe3a4;fill-opacity:1;stroke:none" d="M938.004 571.969c1.152.375 2.321.926 3.46 1.63l31.82-31.82a16.147 16.147 0 0 0-3.46-1.63l-31.82 31.82z"/><path style="fill:#89bb80;fill-opacity:1;stroke:none" d="M949.46 583.424a16.141 16.141 0 0 0-1.631-3.46l31.82-31.82a16.14 16.14 0 0 1 1.63 3.46l-31.82 31.82z"/></g></svg>