<svg xmlns="http://www.w3.org/2000/svg" viewBox="0 0 667 667"><defs><clipPath id="a"><path clip-rule="evenodd" d="M500 0L500 500L500 500L0 500L0 500L0 0L0 0L500 0z"/></clipPath></defs><g clip-path="url(#a)" transform="scale(1.3333)"><path transform="matrix(1 0 0 -1 0 500)" d="M256.77502 468.5281L256.77502 468.5281L256.77502 468.5281L256.77502 468.5281L256.77502 468.5281L445.66214 468.5281L445.66214 468.5281L238.84933 261.7153L238.84933 261.7153L238.84933 261.7153C 235.60168 258.46765 234.11804 254.18806 234.24268 249.92534L234.24268 249.92534L234.24268 249.92534C 234.11804 245.67822 235.60168 241.39864 238.84933 238.15097L238.84933 238.15097L445.6933 31.290157L445.6933 31.290157L445.6933 31.290157L445.6933 31.290157L256.72833 31.290157L256.72833 31.290157L38.12555 249.89291L38.12555 249.89291L256.77502 468.5281zM4.5989075 238.15099L4.5989075 238.15099L4.5989075 238.15099L237.95758 4.791005L237.95758 4.791005L237.95758 4.791005C 241.11176 1.6368077 245.24988 0.09086167 249.3724 0.12201445L249.3724 0.12201445L249.3724 0.12201445C 249.49702 0.12201445 249.59048 0.05970932 249.71638 0.05970932L249.71638 0.05970932L249.71638 0.05970932L249.71638 0.05970932L483.95123 0.05970932L483.95123 0.05970932L483.95123 0.05970932C 492.5714 0.05970932 499.56647 7.0560565 499.56647 15.674933L499.56647 15.674933L499.56647 15.674933C 499.56647 15.799542 499.50415 15.893002 499.50415 16.01891L499.50415 16.01891L499.50415 16.01891C 499.51974 20.141432 497.9738 24.27953 494.83517 27.433727L494.83517 27.433727L272.3747 249.89421L272.3747 249.89421L495.30374 472.822L495.30374 472.822L495.30374 472.822C 501.56543 479.08368 501.56543 489.2342 495.30374 495.49588L495.30374 495.49588L495.30374 495.49588C 491.58752 499.21213 486.5434 500.44656 481.71863 499.7586L481.71863 499.7586L481.71863 499.7586L481.71863 499.7586L251.99702 499.7586L251.99702 499.7586L251.99702 499.7586C 247.17227 500.44528 242.12814 499.2122 238.4119 495.49588L238.4119 495.49588L4.614502 261.6985C 1.3668518 258.45084 -0.11682129 254.17125 0.0078125 249.90852L0.0078125 249.90852L0.0078125 249.90852C -0.11810303 245.67693 1.3655396 241.39864 4.5989075 238.15099z" stroke="#FFF" stroke-width="1.731" fill="#E1E1E1"/></g></svg>