<?xml version="1.0" encoding="UTF-8"?>
<!DOCTYPE svg PUBLIC "-//W3C//DTD SVG 1.1//EN" "http://www.w3.org/Graphics/SVG/1.1/DTD/svg11.dtd">
<svg version="1.1" xmlns="http://www.w3.org/2000/svg" xmlns:xlink="http://www.w3.org/1999/xlink" x="0" y="0" width="799" height="1383" viewBox="0, 0, 799, 1383">
  <defs>
    <clipPath id="Clip_1">
      <path d="M0,1383 L798.331,1383 L798.331,0.38 L0,0.38 z"/>
    </clipPath>
  </defs>
  <g id="Layer_1">
    <g clip-path="url(#Clip_1)">
      <path d="M666.246,654.177 C664.076,656.914 661.679,659.47 659.494,662.196 C658.242,663.759 657.152,664.256 655.412,662.796 C653.175,660.919 655.365,660.32 656.278,659.519 C667.1,650.018 676.342,639.164 684.502,627.244 C679.529,636.944 673.012,645.649 666.246,654.177 z M230.639,669.131 C228.737,671.105 227.524,670.552 225.856,668.806 C205.035,647.021 189.108,622.106 177.954,594.134 C177.588,593.217 175.967,591.861 178.075,590.931 C180.156,591.142 180.199,592.944 180.705,594.224 C185.727,606.929 191.716,619.138 199.146,630.618 C207.512,643.545 217.406,655.144 229.03,665.278 C229.95,666.08 233.235,666.437 230.639,669.131 z M689.936,691.581 C687.953,689.651 686.911,688.578 689.357,685.806 C716.69,654.817 735.255,619.063 746.405,579.38 C747.079,576.983 748.177,575.288 750.199,573.844 C758.51,567.909 765.968,560.997 772.385,553.059 C791.595,529.296 802.37,503.041 796.918,471.707 C791.16,438.607 767.085,414.583 733.953,409.711 C731.611,409.367 730.86,408.775 731.109,406.343 C732.565,392.095 734.086,377.849 735.192,363.571 C738.722,317.974 739.891,272.375 733.775,226.886 C730.879,205.351 725.941,184.354 715.834,164.853 C707.137,148.074 694.287,136.264 675.887,131.093 C670.612,129.61 665.214,128.334 659.786,127.67 C642.133,125.511 630.224,117.249 627.543,98.602 C627.473,98.118 627.201,97.665 627.046,97.191 C619.22,73.302 603.092,58.617 578.431,53.497 C567.519,51.231 556.548,52.062 545.585,53.237 C533.996,54.479 522.568,56.82 510.957,58.028 C501.049,59.058 494.74,54.694 490.043,46.75 C488.943,44.889 487.938,42.966 486.999,41.019 C484.539,35.917 482.241,30.688 478.67,26.263 C469.143,14.455 458.866,3.741 442.677,1.411 C429.82,-0.44 417.052,0.427 404.333,2.235 C357.037,8.959 313.139,25.389 273.062,51.08 C188.335,105.396 140.625,181.623 137.912,283.79 C136.828,324.583 140.724,364.985 147.425,405.157 C147.973,408.442 147.719,409.855 144.054,410.319 C137.587,411.137 131.473,413.377 125.619,416.252 C95.363,431.113 78.508,467.239 85.309,502.788 C90.697,530.946 106.21,552.806 127.941,570.707 C130.093,572.48 131.428,574.352 132.174,577.122 C136.381,592.728 141.851,607.89 148.67,622.567 C160.983,649.071 177.136,672.945 197.279,694.122 C198.405,695.306 200.399,696.091 198.102,698.381 C189.408,707.048 180.929,715.931 172.473,724.628 C152.835,699.322 127.631,688.358 95.745,694.489 C93.538,694.913 92.42,694.138 91.07,692.712 C82.775,683.95 72.552,681.248 60.977,683.848 C43.172,687.848 27.395,705.186 35.852,727.353 C37.214,730.924 38.186,734.643 39.517,738.227 C40.826,741.753 41.167,745.086 40.022,748.862 C38.331,754.441 37.596,760.3 37.935,766.151 C38.105,769.086 37.008,770.528 34.586,771.997 C23.277,778.861 16.83,788.819 16.32,802.247 C16.248,804.146 15.93,805.699 14.613,807.23 C8.784,814.003 6.417,821.958 7.05,830.835 C7.156,832.321 7.341,833.686 6.341,835.104 C-2.674,847.899 -1.574,861.197 6.471,873.481 C19.479,893.344 38.433,903.068 62.315,902.164 C66.147,902.019 67.336,902.717 68.277,906.443 C78.561,947.146 111.884,976.007 148.855,976.968 C151.502,977.037 151.762,978.4 151.706,980.484 C151.529,987.146 151.403,993.809 151.326,1000.47 C150.302,1087.96 150.791,1175.44 152.032,1262.92 C152.144,1270.79 155.119,1273.69 163.039,1273.69 C179.038,1273.7 195.039,1273.82 211.035,1273.61 C215.023,1273.56 216.706,1274.17 217.141,1278.78 C218.567,1293.86 220.559,1308.89 222.626,1323.91 C223.121,1327.5 222.133,1329.11 218.879,1330.64 C207.48,1335.97 197.349,1343.22 188.602,1352.3 C184.066,1357.01 180.154,1362.18 178.399,1368.65 C175.938,1377.72 179.916,1383 189.21,1383 C228.375,1383.01 267.54,1383 306.705,1383 C345.37,1383 384.035,1383.01 422.7,1383 C429.809,1383 432.863,1380.8 434.207,1373.94 C435.417,1367.76 436.44,1361.5 436.952,1355.23 C438.159,1340.47 439.011,1325.68 440.007,1310.9 C440.185,1310.91 440.363,1310.91 440.541,1310.92 C440.675,1313.18 440.774,1315.45 440.951,1317.71 C442.397,1336.28 441.974,1355.02 445.768,1373.38 C447.303,1380.81 450.067,1383 457.858,1383 C539.854,1383 621.851,1383 703.847,1383 C713.952,1383 718.151,1376.94 714.331,1367.59 C711.157,1359.83 705.471,1353.97 699.135,1348.71 C687.821,1339.33 674.782,1333.2 660.81,1329.03 C657.999,1328.19 657.207,1327.27 657.6,1324.26 C659.626,1308.74 661.431,1293.19 663.165,1277.63 C663.503,1274.6 664.549,1273.56 667.759,1273.61 C681.256,1273.81 694.757,1273.72 708.256,1273.69 C715.251,1273.67 718.353,1270.72 718.639,1263.78 C718.933,1256.62 719.159,1249.46 719.315,1242.3 C720.654,1180.68 724.138,1119.06 719.707,1057.44 C719.566,1055.48 719.913,1054.07 721.309,1052.55 C730.787,1042.2 739.046,1030.91 746.24,1018.89 C790.499,944.925 797.685,868.38 760.487,789.588 C743.092,752.742 719.224,720.09 689.936,691.581" fill="#4F3E42"/>
    </g>
    <path d="M415.748,933.08 C422.451,948.812 428.819,963.783 435.218,978.742 C436.116,980.841 436.703,983.523 439.65,983.481 C442.576,983.439 443.1,980.756 444.003,978.649 C472.615,911.947 500.254,844.86 523.844,776.181 C524.725,773.615 525.973,772.465 528.618,772.074 C540.491,770.316 552.237,767.867 563.744,764.459 C566.799,763.554 566.981,764.641 567.128,767.054 C567.718,776.7 568.346,786.347 569.193,795.973 C569.42,798.549 568.656,799.379 566.218,799.957 C556.985,802.148 547.807,804.571 538.627,806.978 C533.562,808.307 532.888,809.85 535.372,814.377 C541.215,825.028 546.938,835.751 553.095,846.218 C554.971,849.407 554.461,851.356 552.444,854.047 C523.583,892.556 494.793,931.119 466.086,969.743 C464.336,972.097 460.085,974.981 464.212,978.051 C468.316,981.104 469.872,976.261 471.649,973.887 C501.19,934.429 530.592,894.867 560.191,855.454 C562.821,851.952 562.965,849.327 560.823,845.641 C554.656,835.022 548.827,824.208 542.696,813.166 C552.263,810.692 561.372,808.092 570.605,806.05 C575.22,805.03 576.94,803.258 576.4,798.248 C575.203,787.156 574.754,775.985 573.886,764.856 C573.711,762.605 574.153,761.531 576.457,760.382 C609.996,743.651 642.766,725.67 669.625,698.869 C672.998,695.504 674.743,696.102 677.744,698.976 C691.135,711.802 703.183,725.679 714.118,740.717 C729.177,761.427 743.102,782.705 752.895,806.436 C782.178,877.393 773.81,945.142 735.219,1010.23 C730.715,1017.83 725.691,1025.09 720.321,1032.1 C718.41,1034.59 716.392,1037.01 714.07,1039.9 C711.655,1028.7 709.477,1018.03 707.023,1007.42 C705.223,999.636 703.622,991.734 700.922,984.248 C697.188,973.895 697.303,963.536 698.199,952.828 C701.255,916.3 703.962,879.742 706.802,843.196 C706.828,842.864 706.838,842.529 706.881,842.199 C707.361,838.526 706.212,835.684 702.22,835.375 C698.248,835.068 696.809,837.645 696.538,841.375 C695.487,855.833 694.282,870.279 693.161,884.732 C691.062,911.81 689.024,938.893 686.844,965.964 C686.529,969.877 687.074,973.516 688.176,977.244 C696.402,1005.07 703.42,1033.2 706.225,1062.15 C708.785,1088.57 708.015,1115.1 707.783,1141.59 C707.453,1179.41 706.362,1217.22 705.099,1255.02 C704.972,1258.83 704.092,1259.94 700.135,1259.93 C625.137,1259.8 550.139,1259.82 475.141,1259.9 C472.238,1259.9 470.172,1259.04 468.105,1257.06 C460.397,1249.69 452.552,1242.46 444.711,1235.23 C440.535,1231.38 438.667,1231.4 434.5,1235.24 C426.662,1242.47 418.797,1249.68 411.1,1257.06 C409.029,1259.04 406.984,1259.9 404.095,1259.89 C326.264,1259.82 248.432,1259.8 170.601,1259.93 C166.623,1259.94 165.773,1258.84 165.722,1255 C164.504,1163.19 164.143,1071.37 165.585,979.551 C165.62,977.326 164.174,974.234 166.981,972.865 C170.014,971.385 172.721,972.587 175.565,974.6 C199.486,991.533 226.465,999.597 255.485,1001.17 C290.233,1003.05 323.981,998.781 355.865,983.88 C369.072,977.708 381.225,969.888 391.944,960.008 C394.685,957.483 395.843,957.933 397.752,960.712 C401.428,966.061 405.459,971.167 409.348,976.37 C410.843,978.371 412.573,980.104 415.127,978.141 C417.684,976.176 416.401,974.054 414.921,972.073 C410.635,966.339 406.443,960.531 402.013,954.911 C400.502,952.994 400.358,951.862 402.159,950.011 C407.035,945 411.351,939.494 415.748,933.08" fill="#FEFEFE"/>
    <path d="M707.848,477.305 C706.144,510.164 702.813,541.722 693.832,572.498 C679.801,620.581 650.815,655.487 604.484,675.576 C551.397,698.596 496.33,713.705 438.208,713.79 C384.329,713.87 332.524,702.056 282.68,681.551 C237.552,662.986 208.059,630.011 191.813,584.427 C181.046,554.216 175.846,522.933 173.067,491.15 C172.269,482.024 171.72,472.873 171.248,463.723 C170.701,453.126 173.633,442.92 175.276,432.599 C184.677,373.555 194.33,314.552 203.866,255.53 C204.244,253.19 204.609,251.162 206.883,249.626 C240.721,226.763 276.911,209.333 317.315,201.61 C356.95,194.034 394.092,200.47 428.751,221.32 C444.164,230.592 458.941,240.819 473.788,250.923 C504.74,271.988 539.055,282.737 576.127,285.64 C607.663,288.11 639.06,286.909 670.319,282.263 C673.771,281.75 674.444,282.753 675.032,285.765 C685.94,341.659 696.981,397.527 707.926,453.415 C709.548,461.696 707.43,470.017 707.848,477.305" fill="#FCE9E4"/>
    <path d="M713.759,428.831 C712.539,422.714 711.304,416.599 710.1,410.478 C701.414,366.34 692.734,322.202 684.054,278.063 C682.631,270.823 681.442,270.114 674.312,271.2 C630.008,277.944 585.763,279.364 541.61,269.805 C517.91,264.674 496.921,253.686 476.931,240.456 C465.96,233.194 455.018,225.889 444.117,218.523 C396.66,186.46 345.541,180.776 291.302,197.141 C258.476,207.046 228.303,222.32 200.065,241.64 C196.304,244.213 194.584,247.296 193.876,251.741 C184.836,308.508 175.636,365.25 166.466,421.996 C166.285,423.116 165.972,424.215 164.81,425.375 C162.662,412.171 160.336,398.993 158.401,385.758 C153.55,352.558 151.065,319.199 151.704,285.613 C153.429,194.915 193.186,124.463 266.234,72.327 C309.666,41.329 358.122,22.093 411.271,15.384 C416.875,14.677 422.584,14.845 428.223,14.367 C447.69,12.715 460.269,23.079 469.906,38.336 C472.831,42.966 474.921,48.114 477.603,52.908 C485.232,66.548 496.418,73.768 512.51,71.729 C526.557,69.949 540.558,67.737 554.642,66.339 C572.774,64.54 589.536,67.633 602.706,81.807 C607.809,87.301 611.455,93.519 613.63,100.643 C614.7,104.148 615.661,107.686 616.736,111.189 C621.046,125.228 630.392,134.249 644.438,138.157 C651.486,140.118 658.709,141.504 665.908,142.853 C683.603,146.171 696.008,156.183 704.024,172.12 C713.997,191.948 718.238,213.313 720.833,235.056 C726.472,282.303 724.37,329.56 720.237,376.774 C718.717,394.128 716.632,411.432 714.805,428.76 C714.456,428.783 714.108,428.807 713.759,428.831" fill="#E2E3E3"/>
    <path d="M179.402,739.062 C189.666,725.862 200.955,715.099 212.012,704.11 C214.098,702.036 214.862,704.024 215.909,704.963 C235.361,722.409 256.779,737.029 280.249,748.423 C288.158,752.262 294.641,758.711 303.46,760.73 C306.209,761.36 305.325,763.379 305.203,765.129 C304.414,776.432 303.802,787.751 302.758,799.03 C302.362,803.307 303.956,804.96 307.905,805.875 C317.302,808.053 326.613,810.601 336.477,813.133 C330.645,823.688 325.196,834.134 319.155,844.225 C316.365,848.885 316.443,852.179 319.817,856.625 C339.949,883.152 359.705,909.965 379.75,936.56 C381.992,939.535 382.114,941.107 379.227,943.724 C359.53,961.574 336.317,972.096 310.415,976.875 C280.069,982.473 249.813,983.217 219.947,973.795 C211.567,971.152 203.589,967.614 195.732,962.896 C225.173,943.384 233.999,913.582 237.73,881.285 C239.475,866.18 239.303,851.016 237.808,835.876 C237.727,835.047 237.683,834.214 237.582,833.387 C237.166,829.975 235.496,827.5 231.821,827.896 C227.935,828.314 226.752,831.065 227.194,834.786 C228.774,848.064 228.992,861.378 227.915,874.703 C226.331,894.295 222.564,913.312 212.541,930.577 C206.84,940.397 199.296,948.445 189.494,954.353 C186.908,955.913 185.103,956.135 182.511,954.061 C166.338,941.12 154.334,924.948 144.961,906.651 C144.221,905.207 143.615,904.156 145.594,903.092 C177.108,886.149 187.939,857.242 190.7,823.998 C191.239,817.515 193.022,812.421 197.292,807.521 C204.859,798.839 210.999,789.099 215.642,778.506 C218.474,772.046 220.314,765.326 220.136,758.179 C219.763,743.16 208.663,733.512 193.697,735.148 C189.077,735.653 184.676,736.985 179.402,739.062" fill="#FEFEFE"/>
    <path d="M414.317,1267.81 C419.151,1263.52 423.985,1259.22 429.695,1254.15 C429.277,1261.97 428.972,1268.95 428.516,1275.92 C426.977,1299.51 425.296,1323.08 423.9,1346.67 C423.674,1350.48 423.091,1351.51 418.816,1351 C368.431,1345 318.011,1339.28 267.6,1333.49 C259.006,1332.5 250.421,1331.42 241.816,1330.54 C238.647,1330.21 236.957,1329.34 236.55,1325.6 C234.537,1307.08 232.142,1288.6 229.882,1270.1 C231.358,1268.4 233.32,1269.31 235.013,1269.31 C292.219,1269.25 349.425,1269.25 406.632,1269.27 C409.306,1269.27 411.955,1269.35 414.317,1267.81" fill="#CEABA7"/>
    <path d="M649.872,1270.72 C648.55,1289.49 645.434,1308.06 643.539,1326.76 C643.209,1330.02 640.933,1330.19 638.601,1330.45 C623.39,1332.2 608.174,1333.9 592.965,1335.66 C556.764,1339.87 520.567,1344.11 484.366,1348.32 C476.264,1349.26 468.126,1349.93 460.059,1351.11 C457.15,1351.53 456.656,1350.58 456.518,1348.11 C455.782,1334.98 454.884,1321.86 454.151,1308.73 C453.178,1291.32 452.306,1273.9 451.375,1256.18 C457.569,1260.22 461.547,1266.51 467.821,1270.02 C469.796,1270.47 471.8,1270.25 473.788,1270.25 C530.683,1270.26 587.578,1270.25 644.473,1270.28 C646.271,1270.28 648.135,1269.84 649.872,1270.72" fill="#CEABA7"/>
    <path d="M110.801,708.176 C141.871,707.376 168.74,733.302 169.554,764.869 C170.377,796.791 144.754,823.591 112.644,824.393 C80.977,825.184 54.368,799.685 53.496,767.712 C52.617,735.494 78.1,709.019 110.801,708.176" fill="#C4CCD1"/>
    <path d="M405.867,909.06 C405.741,909.473 405.697,909.82 405.539,910.103 C400.73,918.711 395.125,926.787 388.439,934.016 C386.492,936.122 385.814,932.945 385.078,931.966 C370.66,912.811 356.348,893.576 342.013,874.359 C336.736,867.286 331.545,860.146 326.119,853.188 C324.447,851.045 324.251,849.543 325.667,847.088 C331.815,836.425 337.699,825.61 343.638,814.827 C346.435,809.749 345.77,808.325 340.032,806.841 C331.007,804.508 322.001,802.086 312.929,799.95 C310.436,799.363 309.741,798.396 309.946,795.919 C310.758,786.124 311.464,776.318 312.016,766.506 C312.175,763.668 313.181,763.843 315.414,764.482 C326.95,767.783 338.671,770.31 350.541,772.07 C353.17,772.46 354.446,773.57 355.331,776.168 C370.246,819.982 387.143,863.047 404.643,905.881 C405.082,906.956 405.478,908.048 405.867,909.06" fill="#FEFEFE"/>
    <path d="M746.059,559.599 C748.457,546.886 750.64,535.475 752.755,524.052 C754.821,512.893 750.635,504.186 742.016,497.317 C738.222,494.293 733.958,492.059 728.619,489.965 C732.791,486.903 736.586,484.159 740.333,481.351 C742.526,479.708 745.961,478.13 743.616,474.781 C740.974,471.005 738.341,474.246 736.053,475.856 C731.294,479.205 726.662,482.735 721.953,486.156 C720.915,486.91 719.884,488.257 718.478,487.599 C716.913,486.866 717.877,485.238 717.853,484.032 C717.503,466.78 722.847,450.255 724.385,433.24 C724.4,433.075 724.448,432.913 724.472,432.748 C726.11,421.742 726.11,421.742 737.297,424.115 C762.145,429.385 780.941,451.263 783.887,478.318 C786.863,505.651 776.209,528.009 758.496,547.76 C756.056,550.48 753.336,552.952 750.705,555.498 C749.538,556.627 748.272,557.654 746.059,559.599" fill="#FCE9E4"/>
    <path d="M132.392,556.488 C112.323,537.334 98.679,516.313 97.836,488.907 C96.918,459.031 114.37,433.152 140.461,425.292 C153.487,421.368 153.491,421.367 156.266,434.514 C157.741,441.508 159.81,448.443 160.523,455.514 C161.566,465.862 161.631,476.309 162.151,487.528 C156.119,483.115 150.681,479.141 145.248,475.159 C143.201,473.659 140.959,471.761 138.767,474.488 C136.277,477.585 139.043,479.234 141.179,480.832 C144.745,483.498 148.346,486.116 152.362,489.07 C147.607,491.31 143.181,493.041 139.27,495.773 C127.678,503.868 124.176,513.574 127.233,527.325 C129.283,536.55 130.558,545.948 132.392,556.488" fill="#FCE9E4"/>
    <path d="M746.435,518.699 C744.558,529.241 742.781,539.913 740.744,550.536 C730.099,606.055 705.965,654.471 664.917,693.912 C641.869,716.057 615.456,733.243 586.639,746.889 C584.403,747.948 583.346,748.016 582.1,745.503 C577.464,736.152 577.394,736.28 586.744,731.602 C666.813,691.542 714.095,627.265 728.921,539.026 C729.914,533.115 730.736,527.151 732.193,521.352 C733.033,518.01 732.047,515.848 729.704,513.921 C727.105,511.785 724.158,510.066 720.934,509.272 C717.175,508.345 716.679,506.15 717.501,502.97 C717.917,501.361 718.246,499.73 718.673,498.124 C719.392,495.421 720.649,494.33 723.719,495.536 C729.183,497.682 734.488,500.02 738.976,503.875 C743.472,507.736 746.182,512.545 746.435,518.699" fill="#C4CCD1"/>
    <path d="M132.809,518.933 C132.917,512.424 135.866,507.566 140.512,503.633 C144.893,499.924 150.052,497.652 155.365,495.571 C158.355,494.4 159.726,495.276 160.496,498.037 C160.899,499.48 161.293,500.927 161.627,502.387 C162.418,505.846 162.077,508.479 157.792,509.462 C155.43,510.003 153.231,511.468 151.1,512.75 C147.442,514.95 146.302,517.753 147.255,522.381 C150.546,538.361 152.657,554.577 157.085,570.335 C177.986,644.73 224.227,697.785 293.015,731.867 C301.463,736.053 301.334,735.932 297.623,744.41 C296.232,747.588 294.967,748.113 291.793,746.589 C204.985,704.916 152.848,637.058 136.848,541.824 C135.553,534.115 134.134,526.426 132.809,518.933" fill="#C4CCD1"/>
    <path d="M196.434,745.461 C204.687,745.482 209.449,750.014 209.803,758.327 C210.074,764.674 207.841,770.436 205.247,776.047 C199.891,787.632 192.367,797.776 183.962,807.282 C181.966,809.54 181.045,811.855 180.965,814.89 C180.6,828.786 178.338,842.381 173.712,855.522 C168.009,871.724 157.491,883.943 142.865,892.827 C140.25,894.415 139.216,894.412 138.012,891.312 C131.599,874.798 127.25,857.755 124.045,840.362 C123.365,836.673 125.571,836.739 127.791,836.188 C151.134,830.386 167.765,816.462 177.538,794.539 C183.248,781.732 184.674,768.229 182.217,754.461 C181.563,750.797 182.247,748.941 185.769,747.776 C189.263,746.62 192.696,745.4 196.434,745.461" fill="#FCE9E4"/>
    <path d="M439.267,970.787 C433.094,956.19 427.225,942.244 421.283,928.328 C420.363,926.172 421.155,924.568 422.195,922.755 C438.63,894.106 446.948,863.021 450.094,830.331 C451.419,816.564 452.092,802.795 452.453,788.814 C454.022,794.73 455.624,800.639 457.156,806.565 C463.44,830.873 469.689,855.191 476.007,879.49 C476.441,881.157 476.644,882.59 475.935,884.288 C464.128,912.535 452.391,940.811 440.62,969.073 C440.446,969.492 440.044,969.817 439.267,970.787" fill="#3C86C4"/>
    <path d="M481.017,871.218 C475.774,851.008 470.861,832.057 465.94,813.108 C463.35,803.134 460.738,793.166 458.158,783.19 C457.714,781.469 456.824,779.778 460.071,779.59 C478.964,778.495 497.793,776.642 517.22,773.937 C506.21,806.677 493.955,838.344 481.017,871.218" fill="#FEFEFE"/>
    <path d="M361.933,773.919 C380.813,776.59 399.173,778.35 417.586,779.516 C420.185,779.681 420.05,780.798 419.559,782.697 C412.23,811.04 404.94,839.394 397.343,868.903 C384.642,837.013 372.857,805.918 361.933,773.919" fill="#FEFEFE"/>
    <path d="M569.925,708.479 C569.451,700.566 569.451,700.564 576.914,697.914 C597.785,690.503 618.02,681.721 636.711,669.715 C638.811,668.366 640.16,668.478 641.885,669.962 C643.266,671.151 644.83,672.126 646.298,673.215 C652.08,677.501 652.086,677.513 646.969,682.225 C626.374,701.19 603.182,716.252 577.866,728.105 C573.178,730.299 571.364,729.257 571.035,724.417 C570.673,719.104 570.294,713.792 569.925,708.479" fill="#FEFEFE"/>
    <path d="M83.396,908.162 C96.345,913.323 108.924,914.3 121.759,911.706 C123.557,911.342 124.442,911.867 125.235,913.493 C134.187,931.861 145.659,948.441 160.875,962.623 C125.356,967.549 93.834,942.107 83.396,908.162" fill="#FEFEFE"/>
    <path d="M41.739,784.088 C46.052,799.746 54.14,812.44 66.479,822.314 C76.003,829.935 86.75,835.067 98.83,836.822 C102.684,837.382 103.023,839.501 103.634,842.353 C104.328,845.591 102.118,846.551 100.007,847.365 C93.448,849.895 86.566,849.764 79.819,848.698 C61.357,845.782 46.585,836.677 35.875,821.278 C33.107,817.297 31.317,812.836 30.52,807.975 C28.846,797.761 32.386,789.911 41.739,784.088" fill="#FCE9E4"/>
    <path d="M308.817,715.6 C308.561,718.75 308.308,721.901 308.049,725.051 C307.755,728.634 305.541,730.09 302.116,728.49 C278.202,717.314 256.075,703.359 236.247,685.854 C234.845,684.616 234.271,683.649 236.207,682.493 C236.489,682.325 236.722,682.074 236.973,681.856 C245.996,674.004 245.976,674.039 256.202,679.841 C271.419,688.474 287.409,695.429 304.058,700.704 C308.936,702.25 310.333,704.465 309.261,709.137 C308.784,711.218 308.917,713.439 308.773,715.597 C308.788,715.598 308.802,715.599 308.817,715.6" fill="#FEFEFE"/>
    <path d="M410.186,901.264 C407.259,893.996 404.793,887.851 402.308,881.714 C401.566,879.882 402.067,878.158 402.531,876.359 C410.403,845.786 418.237,815.203 426.091,784.625 C426.38,783.499 426.744,782.389 427.137,781.294 C427.542,780.166 428.478,779.859 429.544,780.078 C430.526,780.279 430.709,781.128 430.762,781.991 C430.782,782.324 430.787,782.657 430.801,782.99 C432.368,820.764 428.59,857.726 414.011,893.034 C413.003,895.476 411.788,897.833 410.186,901.264" fill="#3C85C4"/>
    <path d="M537.828,709.959 C529.843,721.024 522.387,731.335 514.967,741.672 C514.221,742.712 513.284,743.216 512.075,743.361 C511.414,743.44 510.755,743.532 510.094,743.607 C502.666,744.454 494.774,747.235 487.94,745.598 C481.12,743.966 475.347,737.929 469.142,733.783 C464.632,730.77 460.165,727.692 454.735,724.002 C483.28,721.94 510.255,717.059 537.828,709.959" fill="#FEFEFE"/>
    <path d="M425.395,724.054 C415.055,731.681 405.714,738.565 396.385,745.462 C395.417,746.178 394.457,746.631 393.177,746.473 C386.737,745.679 380.292,744.92 373.841,744.225 C372.017,744.028 370.893,743.123 369.894,741.634 C363.89,732.69 357.805,723.8 351.184,714.062 C375.789,719.166 399.766,722.823 425.395,724.054" fill="#FEFEFE"/>
    <path d="M107.943,902.922 C98.022,902.747 88.908,900.043 80.474,894.86 C78.629,893.726 77.437,892.81 79.649,890.952 C80.017,890.643 80.177,890.098 80.516,889.74 C84.67,885.352 81.143,877.743 86.569,874.217 C91.836,870.795 94.473,866.146 96.489,860.434 C97.665,857.101 102.182,857.627 105.139,856.749 C107.194,856.139 106.68,859.483 107.058,861.036 C110.132,873.662 113.652,886.149 118.611,898.174 C119.73,900.889 119.419,902.007 116.386,902.157 C113.566,902.297 110.757,902.659 107.943,902.922" fill="#FCE9E4"/>
    <path d="M439.896,749.519 C434.395,749.977 428.948,749.21 423.497,748.754 C419.114,748.388 417.461,744.483 415.258,741.514 C414.263,740.173 416.116,739.627 416.941,739.009 C422.918,734.532 428.89,730.044 434.966,725.704 C438.078,723.481 441.504,723.602 444.651,725.64 C450.222,729.25 455.621,733.128 461.206,736.716 C463.291,738.054 463.493,738.861 462.261,741.273 C459.043,747.571 454.011,749.772 447.37,749.533 C444.881,749.443 442.386,749.519 439.896,749.519" fill="#3C85C4"/>
    <path d="M85.414,859.936 C84.223,864.355 80.839,865.865 76.931,866.586 C57.281,870.212 32.104,857.315 23.545,839.279 C20.239,832.315 19.999,826.736 22.845,819.938 C36.548,844.543 57.759,857.23 85.414,859.936" fill="#FCE9E4"/>
    <path d="M15.426,847.05 C29.24,866.47 47.235,877.13 70.799,877.483 C73.058,877.517 73.686,878.003 73.123,880.327 C72.172,884.259 70.108,886.769 66.067,887.825 C47.822,892.592 21.02,878.069 15.268,860.151 C13.928,855.977 13.459,851.732 15.426,847.05" fill="#FCE9E4"/>
    <path d="M175.042,577.192 C166.5,576.777 166.116,576.375 163.707,567.929 C159.361,552.689 157.139,537.025 154.289,521.486 C153.52,517.29 157.352,517.27 159.567,516.206 C164.981,513.606 165.008,513.786 165.813,519.674 C168.298,537.834 171.92,555.756 177.16,573.335 C177.754,575.327 179.301,577.852 175.042,577.192" fill="#FCE9E4"/>
    <path d="M562.522,702.833 C563.203,711.894 563.816,720.493 564.52,729.083 C564.661,730.797 564.342,731.935 562.536,732.488 C553.865,735.142 545.128,737.504 535.311,739.256 C539.082,730.443 538.538,721.167 543.839,713.447 C547.025,708.806 550.645,705.593 556.266,704.696 C558.194,704.389 560.043,703.589 562.522,702.833" fill="#FEFEFE"/>
    <path d="M343.317,739.092 C334.095,737.595 325.529,735.125 316.969,732.601 C314.914,731.995 314.606,730.737 314.754,728.855 C315.3,721.902 315.78,714.943 316.181,707.981 C316.318,705.602 317.012,704.905 319.49,705.719 C324.213,707.271 329.015,708.635 333.862,709.735 C336.255,710.278 337.003,711.575 337.475,713.721 C339.293,721.983 341.258,730.212 343.317,739.092" fill="#FEFEFE"/>
    <path d="M707.455,577.043 C703.533,577.954 703.414,576.411 704.237,573.673 C709.656,555.651 712.889,537.187 714.927,518.512 C715.257,515.49 715.715,514.409 718.99,515.778 C723.425,517.631 725.525,519.441 724.371,525.241 C721.325,540.537 718.796,555.922 714.762,571.024 C713.579,575.454 711.578,577.686 707.455,577.043" fill="#FBE9E4"/>
    <path d="M80.027,701.58 C68.216,707.613 58.517,715.946 51.27,727.067 C45.124,717.916 46.17,709.045 54.044,702.313 C62.107,695.419 72.717,695.01 80.027,701.58" fill="#FBE9E4"/>
    <path d="M167.132,1261 C246.996,1261 326.859,1261 406.723,1261 C406.723,1261.15 406.723,1261.31 406.723,1261.47 C326.807,1261.47 246.891,1261.47 166.975,1261.47 C167.027,1261.31 167.08,1261.15 167.132,1261" fill="#321014"/>
    <path d="M703.659,1261.57 C626.464,1261.57 549.27,1261.57 472.076,1261.57 C472.075,1261.42 472.075,1261.27 472.075,1261.12 C549.254,1261.12 626.433,1261.12 703.613,1261.12 C703.628,1261.27 703.643,1261.42 703.659,1261.57" fill="#321014"/>
    <path d="M414.317,1267.81 C412.462,1270.49 409.642,1269.89 407.037,1269.89 C349.811,1269.91 292.585,1269.9 235.359,1269.91 C233.534,1269.91 231.708,1270.04 229.882,1270.1 C231.405,1267.7 233.817,1268.8 235.799,1268.8 C291.689,1268.73 347.579,1268.74 403.47,1268.76 C407.123,1268.76 410.759,1268.79 414.317,1267.81" fill="#301214"/>
    <path d="M649.872,1270.72 C590.795,1270.73 531.719,1270.74 472.642,1270.72 C471.022,1270.72 469.293,1271.17 467.821,1270.02 C482.641,1269.96 497.461,1269.86 512.282,1269.86 C556.252,1269.83 600.222,1269.83 644.192,1269.89 C646.078,1269.89 648.193,1269.04 649.872,1270.72" fill="#A28C90"/>
    <path d="M163.678,1027.1 C163.678,1076.86 163.678,1126.62 163.678,1176.38 C163.518,1176.38 163.358,1176.38 163.198,1176.38 C163.198,1126.56 163.198,1076.73 163.198,1026.9 C163.358,1026.96 163.518,1027.03 163.678,1027.1" fill="#300F12"/>
    <path d="M346.504,719.719 C351.511,727.052 356.517,734.385 361.578,741.797 C352.547,742.369 351.484,741.668 349.263,733.488 C348.052,729.029 346.958,724.539 345.811,720.062 C346.042,719.948 346.273,719.834 346.504,719.719" fill="#FAF9FA"/>
    <path d="M686.496,624.209 C691.902,613.288 697.362,602.493 702.158,591.363 C698.589,603.149 693.005,613.958 686.496,624.209" fill="#887E80"/>
    <path d="M476.459,747.441 C472.533,747.69 469.679,747.872 466.743,748.058 C468.955,741.839 468.955,741.839 476.459,747.441" fill="#F0EEEF"/>
    <path d="M523.798,741.426 C525.635,738.77 527.004,736.77 528.403,734.79 C528.58,734.539 528.91,734.395 529.483,734.413 C528.353,737.039 529.64,741.283 523.798,741.426" fill="#E3E0E1"/>
    <path d="M463.186,1191.54 C463.094,1204.63 452.73,1214.94 439.637,1214.96 C426.4,1214.97 415.839,1204.35 415.937,1191.12 C416.035,1177.93 426.732,1167.55 440.057,1167.72 C453.056,1167.88 463.277,1178.41 463.186,1191.54" fill="#4E3D41"/>
    <path d="M439.769,1047.7 C426.512,1047.76 415.899,1037.21 415.939,1024 C415.978,1010.96 426.368,1000.54 439.419,1000.46 C452.763,1000.38 463.225,1010.8 463.185,1024.14 C463.146,1037.23 452.808,1047.64 439.769,1047.7" fill="#4E3D41"/>
    <path d="M463.184,1107.76 C463.165,1120.83 452.831,1131.24 439.779,1131.36 C426.597,1131.47 415.897,1120.82 415.94,1107.63 C415.983,1094.45 426.799,1083.78 439.908,1083.99 C452.921,1084.19 463.203,1094.69 463.184,1107.76" fill="#4E3D41"/>
    <path d="M354.988,626.802 C349.454,629.615 344.128,632.601 338.218,634.203 C333.849,635.388 329.479,636.377 324.943,635.09 C318.687,633.315 316.615,629.436 318.727,623.339 C320.177,619.151 322.957,615.808 325.829,612.567 C339.05,597.645 354.69,585.44 370.318,573.242 C372.906,571.222 374.013,569.806 372.795,566.033 C369.207,554.919 371.391,543.598 373.096,532.39 C373.571,529.272 375.414,525.792 374.53,523.191 C373.556,520.325 369.109,521.041 366.284,519.849 C351.547,513.629 342.594,499.011 343.809,482.676 C344.964,467.142 356.424,453.898 371.939,450.167 C387.394,446.45 403.691,453.339 411.956,467.088 C412.714,468.349 413.435,469.631 414.189,470.932 C429.804,458.162 443.391,458.153 456.486,470.785 C458.059,470.714 458.014,469.211 458.529,468.305 C466.87,453.623 483.404,446.264 499.338,450.201 C515.664,454.235 526.798,467.862 527.566,484.75 C528.298,500.812 517.911,515.673 501.983,520.724 C498.645,521.783 498.092,522.839 499.084,526.094 C502.465,537.18 504.376,548.512 502.209,560.091 C501.626,563.208 503.598,563.765 505.375,564.836 C520.913,574.205 536.31,583.79 550.765,594.798 C556.602,599.243 562.327,603.849 566.909,609.644 C573.452,617.92 571.252,624.776 561.031,627.603 C553.334,629.732 545.5,629.042 537.705,627.946 C537.059,627.855 536.401,627.844 535.388,627.769 C536.189,630.91 537.214,633.806 537.632,636.786 C538.682,644.275 534.258,649.431 526.672,649.681 C519.114,649.929 512.852,646.378 506.88,642.353 C502.887,639.661 498.941,634.074 495.386,634.392 C492.167,634.68 489.644,641.329 486.573,644.97 C478.145,654.962 471.157,655.264 461.869,645.96 C458.584,642.67 455.509,639.121 452.712,635.408 C450.757,632.814 449.713,632.206 447.508,635.253 C443.792,640.387 439.374,644.978 434.245,648.756 C426.076,654.774 419.381,653.92 412.94,646.077 C409.328,641.679 406.469,636.763 404.331,631.508 C403.287,628.942 402.279,628.864 399.986,630.04 C393.026,633.607 385.838,636.684 378.349,639 C376.443,639.59 374.526,640.186 372.575,640.587 C360.727,643.017 355.556,639.045 354.988,626.802" fill="#4F3E42"/>
    <path d="M601.66,553.717 C592.992,553.507 584.492,552.432 576.704,548.162 C567.184,542.943 565.737,532.924 573.11,524.91 C583.475,513.644 596.959,509.105 611.469,506.768 C623.058,504.901 634.608,504.848 645.841,508.88 C654.692,512.058 659.195,517.533 658.821,524.536 C658.545,529.7 655.67,533.753 652.004,536.848 C640.65,546.431 627.228,551.192 612.555,552.803 C608.932,553.201 605.375,554.203 601.66,553.717" fill="#FAD0C8"/>
    <path d="M264.102,505.67 C279.286,505.916 293.66,509.159 306.756,517.189 C311.327,519.992 315.292,523.463 318.311,527.904 C323.004,534.81 320.332,543.557 312.188,548.042 C302.514,553.369 291.924,554.529 281.26,553.578 C269.165,552.5 257.438,549.588 246.573,543.707 C241.017,540.699 236.519,536.545 232.64,531.794 C227.921,526.016 229.509,517.233 235.651,512.867 C244.188,506.799 253.957,505.522 264.102,505.67" fill="#FAD0C8"/>
    <path d="M570.942,346.051 C557.628,346.118 545.443,350.415 533.649,356.091 C530.208,357.748 526.974,359.837 523.525,361.476 C520.916,362.715 518.285,366.451 515.222,362.999 C512.549,359.985 515.721,357.398 517.212,355.041 C534.103,328.336 566.061,316.364 593.361,326.661 C612.746,333.971 624.993,348.696 633.88,366.73 C634.777,368.55 634.993,370.26 633.338,371.711 C631.635,373.204 630.013,372.563 628.361,371.419 C621.933,366.968 615.633,362.301 608.979,358.212 C597.342,351.063 584.91,346.074 570.942,346.051" fill="#4F3D41"/>
    <path d="M292.928,322.746 C319.42,324.159 338.3,336.305 351.449,357.89 C352.56,359.714 353.284,361.6 351.458,363.321 C349.661,365.016 347.888,364.183 346.021,363.097 C332.583,355.282 318.776,348.448 303.037,346.512 C290.181,344.931 278.236,347.812 266.763,353.359 C256.674,358.238 247.571,364.671 238.605,371.312 C237.016,372.489 235.441,373.237 233.645,371.779 C231.89,370.356 232.058,368.591 232.938,366.828 C243.318,346.019 257.765,329.806 281.525,324.352 C285.558,323.426 289.748,323.179 292.928,322.746" fill="#4E3D41"/>
    <path d="M574.928,459.509 C574.82,466.16 569.442,471.463 562.768,471.499 C555.941,471.536 550.508,465.986 550.602,459.071 C550.693,452.391 556.042,447.083 562.703,447.061 C569.5,447.039 575.039,452.68 574.928,459.509" fill="#4F3E41"/>
    <path d="M297.554,459.274 C297.561,452.552 302.767,447.208 309.445,447.066 C316.26,446.922 321.859,452.435 321.864,459.297 C321.87,466.128 316.227,471.662 309.422,471.5 C302.747,471.342 297.548,465.986 297.554,459.274" fill="#4F3D41"/>
    <path d="M439.387,1207.98 C430.337,1207.88 422.921,1200.4 422.915,1191.36 C422.909,1182.13 430.59,1174.52 439.813,1174.63 C448.817,1174.73 456.281,1182.27 456.312,1191.29 C456.344,1200.5 448.667,1208.07 439.387,1207.98" fill="#FEFEFE"/>
    <path d="M439.87,1007.43 C448.879,1007.53 456.379,1015.12 456.34,1024.09 C456.299,1033.27 448.475,1040.95 439.329,1040.8 C430.348,1040.65 422.911,1033.07 422.908,1024.05 C422.904,1014.79 430.537,1007.31 439.87,1007.43" fill="#FEFEFE"/>
    <path d="M439.786,1124.46 C430.89,1124.58 423.12,1117.08 422.883,1108.14 C422.641,1098.99 430.256,1091.08 439.408,1090.97 C448.517,1090.86 456.385,1098.66 456.351,1107.76 C456.318,1116.66 448.707,1124.33 439.786,1124.46" fill="#FEFEFE"/>
    <path d="M548.469,621.927 C542.268,621.899 536.205,620.806 530.176,619.512 C528.286,619.106 526.527,618.821 525.248,620.675 C523.976,622.519 524.828,624.128 525.854,625.735 C528.016,629.124 529.811,632.704 530.617,636.662 C531.498,640.982 529.725,642.978 525.277,642.8 C521.859,642.663 518.837,641.195 515.882,639.648 C509.338,636.222 503.676,631.584 498.244,626.643 C493.895,622.687 492.715,622.909 489.68,628.127 C486.495,633.603 483.141,638.931 478.476,643.355 C475.52,646.157 472.931,646.296 469.768,643.676 C463.661,638.62 458.998,632.366 454.41,626.016 C450.963,621.246 449.463,621.255 445.867,626.031 C440.952,632.561 435.874,638.897 429.171,643.785 C425.291,646.614 422.286,646.087 419.228,642.603 C414.531,637.252 411.441,631 408.906,624.476 C407.315,620.38 405.235,619.584 401.297,621.633 C391.99,626.475 382.485,630.959 372.241,633.493 C369.315,634.217 365.908,635.915 363.314,632.963 C360.875,630.186 362.514,626.966 363.124,623.903 C363.661,621.2 367.064,618.432 363.752,615.753 C360.227,612.904 357.995,616.792 355.531,618.231 C348.758,622.186 342.013,626.126 334.331,628.08 C333.047,628.407 331.717,628.655 330.397,628.718 C328.583,628.805 326.347,629.14 325.303,627.452 C324.169,625.619 326.079,624.079 326.985,622.629 C330.457,617.074 335.128,612.53 339.825,608.041 C351.399,596.981 363.867,586.979 376.534,577.217 C377.646,576.36 378.531,575.176 380.447,575.882 C395.629,581.476 411.537,581.11 427.333,581.114 C446.012,581.119 464.617,579.882 482.922,575.786 C486.827,574.913 491.066,574.326 494.176,571.901 C498.257,568.72 501.12,570.316 504.707,572.537 C521.554,582.97 538.439,593.329 553.641,606.145 C556.827,608.831 559.762,611.759 562.303,615.104 C564.306,617.742 563.531,619.238 560.763,620.331 C556.795,621.897 552.652,622.058 548.469,621.927" fill="#E2E3E3"/>
    <path d="M426.58,573.487 C414.426,574.178 402.265,574.065 390.282,571.697 C381.041,569.871 378.856,567.505 378.123,558.118 C377.244,546.872 379.341,535.914 381.697,524.986 C382.16,522.839 383.408,522.56 385.142,522.209 C406.301,517.927 417.183,504.486 416.883,482.91 C416.855,480.918 417.464,479.365 418.465,477.816 C426.554,465.306 444.878,465.418 452.852,478.025 C453.839,479.584 454.397,481.114 454.287,483.133 C453.173,503.512 466.491,519.709 486.768,522.295 C490.279,522.743 491.474,524.1 492.323,527.169 C494.866,536.369 496.723,545.622 495.992,555.232 C495.331,563.923 494.256,565.297 485.959,567.775 C473.915,571.372 461.477,572.602 449.025,573.4 C441.572,573.877 434.064,573.487 426.58,573.487" fill="#FCE9E4"/>
    <path d="M517.677,485.856 C517.702,500.598 505.372,512.847 490.614,512.739 C476.066,512.633 463.962,500.462 463.966,485.944 C463.97,471.201 476.34,458.893 491.024,459.022 C505.534,459.149 517.653,471.35 517.677,485.856" fill="#FCE9E4"/>
    <path d="M407.138,485.853 C407.151,500.581 395.213,512.654 380.555,512.736 C365.676,512.82 353.551,500.646 353.631,485.702 C353.708,471.046 365.835,458.983 380.454,459.02 C395.055,459.056 407.125,471.193 407.138,485.853" fill="#FCE9E4"/>
    <path d="M618.578,355.623 C590.678,336.218 561.69,333.725 531.214,349.799 C536.513,339.914 556.608,330.097 571.8,329.937 C592.066,329.725 606.997,339.491 618.578,355.623" fill="#E3E3E4"/>
    <path d="M337.168,350.548 C305.543,333.704 276.292,336.086 248.248,355.846 C272.289,320.503 313.842,324.387 337.168,350.548" fill="#E3E4E4"/>
  </g>
</svg>
