<?xml version="1.0" encoding="UTF-8" standalone="no"?>
<!-- Created with Inkscape (http://www.inkscape.org/) -->

<svg
   version="1.1"
   id="svg4860"
   width="800"
   height="800"
   viewBox="0 0 800 800"
   sodipodi:docname="candy-vector-graphics-pdv.svg"
   inkscape:version="1.2 (dc2aedaf03, 2022-05-15)"
   xmlns:inkscape="http://www.inkscape.org/namespaces/inkscape"
   xmlns:sodipodi="http://sodipodi.sourceforge.net/DTD/sodipodi-0.dtd"
   xmlns="http://www.w3.org/2000/svg"
   xmlns:svg="http://www.w3.org/2000/svg">
  <defs
     id="defs4864">
    <clipPath
       clipPathUnits="userSpaceOnUse"
       id="clipPath4876">
      <path
         d="M 0,600 H 600 V 0 H 0 Z"
         id="path4874" />
    </clipPath>
  </defs>
  <sodipodi:namedview
     id="namedview4862"
     pagecolor="#ffffff"
     bordercolor="#000000"
     borderopacity="0.25"
     inkscape:showpageshadow="2"
     inkscape:pageopacity="0.0"
     inkscape:pagecheckerboard="0"
     inkscape:deskcolor="#d1d1d1"
     showgrid="false"
     inkscape:zoom="1.04625"
     inkscape:cx="400"
     inkscape:cy="400.4779"
     inkscape:window-width="1920"
     inkscape:window-height="1017"
     inkscape:window-x="-8"
     inkscape:window-y="-8"
     inkscape:window-maximized="1"
     inkscape:current-layer="g4868">
    <inkscape:page
       x="0"
       y="0"
       id="page4866"
       width="800"
       height="800" />
  </sodipodi:namedview>
  <g
     id="g4868"
     inkscape:groupmode="layer"
     inkscape:label="Page 1"
     transform="matrix(1.3333333,0,0,-1.3333333,0,800)">
    <g
       id="g4870">
      <g
         id="g4872"
         clip-path="url(#clipPath4876)">
        <g
           id="g4878"
           transform="translate(344.543,339.5371)">
          <path
             d="m 0,0 c 63.988,0 116.178,8.153 116.178,18.147 0,9.996 -52.19,18.148 -116.178,18.148 -63.989,0 -116.179,-8.152 -116.179,-18.148 C -116.179,8.153 -63.989,0 0,0"
             style="fill:#e6e6e6;fill-opacity:1;fill-rule:evenodd;stroke:none"
             id="path4880" />
        </g>
        <g
           id="g4882"
           transform="translate(67.4717,548.2734)">
          <path
             d="m 0,0 c 3.333,-7.083 3.006,-13.747 -0.119,-19.411 -5.619,-10.182 -15.717,-10.538 -18.718,-16.959 -2.958,-6.338 9.55,-14.441 8.605,-23.285 -1.157,-10.824 -15.965,-15.301 -14.275,-22.578 1.586,-6.807 15.573,-4.02 18.652,-10.551 2.959,-6.281 -7.244,-14.782 -4.102,-20.047 4.716,-7.906 17.045,-3.028 21.529,-15.578 2.004,-5.616 0.419,-12.459 -4.7,-18.537 41.876,2.499 75.002,34.404 75.002,73.4 C 81.874,-29.611 41.905,0.73 0,0"
             style="fill:#fc6937;fill-opacity:1;fill-rule:evenodd;stroke:none"
             id="path4884" />
        </g>
        <g
           id="g4886"
           transform="translate(148.0703,461.6289)">
          <path
             d="m 0,0 c 0.835,4.249 1.275,8.625 1.275,13.099 0,5.426 -0.613,10.648 -1.761,15.627 -25.076,11.445 -51.252,27.57 -73.346,21.111 21.473,-3.49 36.908,-15.662 51.668,-28.807 -20.352,1.259 -40.639,2.307 -57.616,-7.829 C -60.158,2.363 -40.536,5.843 -20.913,9.76 -34.441,-0.271 -55.137,-16.465 -72.579,-17.796 -51.387,-24.726 -21.678,-7.112 0,0"
             style="fill:#e6501e;fill-opacity:1;fill-rule:evenodd;stroke:none"
             id="path4888" />
        </g>
        <g
           id="g4890"
           transform="translate(550.5342,548.2734)">
          <path
             d="m 0,0 c -3.333,-7.083 -3.009,-13.747 0.119,-19.411 5.616,-10.182 15.716,-10.538 18.715,-16.959 2.961,-6.338 -9.549,-14.441 -8.604,-23.285 1.157,-10.824 15.965,-15.301 14.274,-22.578 -1.586,-6.807 -15.573,-4.02 -18.652,-10.551 -2.959,-6.281 7.245,-14.782 4.105,-20.047 -4.719,-7.906 -17.048,-3.028 -21.532,-15.578 -2.004,-5.616 -0.418,-12.459 4.7,-18.537 -41.875,2.499 -74.999,34.404 -74.999,73.4 C -81.874,-29.611 -41.908,0.73 0,0"
             style="fill:#e6501e;fill-opacity:1;fill-rule:evenodd;stroke:none"
             id="path4892" />
        </g>
        <g
           id="g4894"
           transform="translate(309.4365,355.1348)">
          <path
             d="m 0,0 c 89.422,0 162.354,53.724 162.354,119.593 0,65.869 -72.932,119.593 -162.354,119.593 -89.422,0 -162.354,-53.724 -162.354,-119.593 C -162.354,53.724 -89.422,0 0,0"
             style="fill:#e6501e;fill-opacity:1;fill-rule:evenodd;stroke:none"
             id="path4896" />
        </g>
        <g
           id="g4898"
           transform="translate(415.4443,565.3086)">
          <path
             d="m 0,0 c 34.504,-21.933 56.347,-54.378 56.347,-90.581 0,-66.05 -72.69,-119.593 -162.355,-119.593 -56.114,0 -105.581,20.974 -134.742,52.855 71.502,-43.444 168.582,-59.17 234.742,-5.176 25.284,20.638 19.839,34.79 -20.354,36.635 47.133,11.259 43.883,22.977 0,35.071 33.436,13.779 47.443,27.557 -4.384,41.333 C 22.259,-45.518 23.815,-26.484 0,0"
             style="fill:#cc3300;fill-opacity:1;fill-rule:evenodd;stroke:none"
             id="path4900" />
        </g>
        <g
           id="g4902"
           transform="translate(469.9355,461.6289)">
          <path
             d="m 0,0 c -0.835,4.249 -1.275,8.625 -1.275,13.099 0,5.426 0.61,10.648 1.761,15.627 C 25.56,40.171 51.735,56.296 73.829,49.837 52.357,46.347 36.921,34.175 22.164,21.03 42.516,22.289 62.803,23.337 79.777,13.201 60.155,2.363 40.533,5.843 20.91,9.76 34.442,-0.271 55.137,-16.465 72.576,-17.796 51.384,-24.726 21.675,-7.112 0,0"
             style="fill:#cc3300;fill-opacity:1;fill-rule:evenodd;stroke:none"
             id="path4904" />
        </g>
        <g
           id="g4906"
           transform="translate(268.1035,576.6699)">
          <path
             d="m 0,0 c 58.557,3.479 106.026,-28.666 106.026,-71.798 0,-43.135 -47.469,-80.924 -106.026,-84.408 -58.56,-3.48 -106.026,28.666 -106.026,71.798 C -106.026,-41.273 -58.56,-3.484 0,0"
             style="fill:#f05724;fill-opacity:1;fill-rule:evenodd;stroke:none"
             id="path4908" />
        </g>
        <g
           id="g4910"
           transform="translate(248.0654,566.9727)">
          <path
             d="m 0,0 c 40.487,2.409 73.309,-19.817 73.309,-49.643 0,-29.825 -32.822,-55.952 -73.309,-58.362 -40.49,-2.406 -73.314,19.82 -73.314,49.646 C -73.314,-28.537 -40.49,-2.407 0,0"
             style="fill:#f7612e;fill-opacity:1;fill-rule:evenodd;stroke:none"
             id="path4912" />
        </g>
        <g
           id="g4914"
           transform="translate(275.1758,422.8545)">
          <path
             d="m 0,0 3.885,-16.341 20.059,-2.925 -17.647,-7.113 3.963,-16.332 -14.793,11.945 -17.612,-7.169 8.506,14.496 -14.843,11.902 20.048,-2.988 z m 87.253,3.503 8.474,-14.5 20.041,3.044 -14.812,-11.942 8.547,-14.471 -17.631,7.118 -14.761,-11.986 3.917,16.342 -17.669,7.062 20.052,2.982 z M 70.721,93.033 79.497,65.845 108.068,65.898 84.921,49.15 93.803,21.996 70.721,38.831 47.641,21.996 56.52,49.15 33.372,65.898 61.946,65.845 Z m -82.258,3.18 -2.942,-22.924 21.354,-7.777 -23.132,-6.308 -2.852,-22.923 -11.357,19.023 -23.112,-6.392 16.113,18.065 -11.434,18.973 21.313,-7.858 z m -62.157,24.597 -2.4,-19 16.643,-6.024 -18.096,-5.646 -2.331,-19.001 -8.785,15.509 -18.082,-5.719 12.669,15.235 -8.85,15.462 16.614,-6.091 z m 46.662,30.758 -2.51,-14.514 15.465,-3.206 -16.985,-5.708 -2.445,-14.509 -7.988,10.983 -16.975,-5.758 12.048,12.496 -8.048,10.948 15.436,-3.261 z m 56.146,-14.436 -8.476,-14.5 -20.044,3.044 14.814,-11.943 -8.547,-14.47 17.629,7.118 14.76,-11.986 -3.914,16.342 17.669,7.062 -20.052,2.982 z m 20.523,30.22 6.226,-8.134 20.271,0.013 -16.424,-5.01 6.305,-8.126 -16.378,5.036 -16.378,-5.036 6.302,8.126 -16.421,5.01 20.27,-0.013 z m 42.743,-23.656 10.999,-13.912 19.88,3.62 -13.1,-12.158 11.066,-13.883 -19.094,6.398 -13.039,-12.199 1.297,16.116 -19.125,6.342 19.894,3.56 z m 41.743,-33.753 2.499,-19.487 -18.15,-6.61 19.663,-5.363 2.426,-19.487 9.654,16.173 19.649,-5.435 -13.701,15.355 9.722,16.132 -18.117,-6.683 z m 20.316,-58.986 6.025,-14.498 14.238,3.042 -10.524,-11.942 6.072,-14.471 -12.525,7.118 -10.487,-11.986 2.783,16.342 -12.556,7.062 14.246,2.982 z m -250.849,-2.914 8.66,-17.364 14.477,4.316 -9.144,-14.973 8.709,-17.327 -14.311,8.11 -9.093,-15.025 0.297,19.988 -14.329,8.036 14.497,4.244 z"
             style="fill:#ffae00;fill-opacity:1;fill-rule:evenodd;stroke:none"
             id="path4916" />
        </g>
        <g
           id="g4918"
           transform="translate(263.6387,519.0674)">
          <path
             d="m 0,0 -2.942,-22.924 21.354,-7.777 -23.132,-6.308 -2.852,-22.923 -11.357,19.023 -23.112,-6.392 16.113,18.065 -11.434,18.973 21.313,-7.858 z M 40.651,40.919 32.175,26.419 12.131,29.463 26.945,17.521 18.398,3.05 36.027,10.168 50.787,-1.818 46.873,14.524 64.542,21.586 44.49,24.568 Z m -56.538,14.031 0.332,0.065 -2.45,-14.174 15.465,-3.206 -16.985,-5.708 -2.445,-14.509 -7.988,10.983 -16.975,-5.758 12.048,12.496 -8.048,10.948 15.436,-3.261 z M -88.876,11.023 c 0.647,0.922 1.323,1.83 2.012,2.732 l 12.089,-4.433 12.618,15.276 -2.4,-19.001 16.643,-6.024 -18.096,-5.646 -2.331,-19.001 -8.785,15.509 -18.082,-5.719 12.669,15.235 z m 20.8,-92.792 c -6.499,4.109 -12.229,8.855 -17.03,14.138 l 0.233,19.461 8.66,-17.364 14.477,4.316 -9.144,-14.973 z m 80.029,-16.192 c -0.508,-0.054 -1.015,-0.108 -1.523,-0.162 l 1.107,1.91 z m 96.305,67.625 c -1.073,-3.854 -2.515,-7.629 -4.304,-11.303 l -7.496,-5.423 1.532,-4.69 c -2.585,-3.712 -5.532,-7.283 -8.811,-10.679 l -6.921,5.049 -23.08,-16.835 8.879,27.155 -23.148,16.748 28.574,-0.054 8.775,27.188 8.776,-27.188 z m -6.716,47.046 c 1.405,-2.264 2.655,-4.603 3.747,-7.002 l -4.66,-4.359 z M 91.431,29.35 c 2.018,-2.007 3.895,-4.098 5.622,-6.27 L 82.801,27.807 Z M 47.557,53.439 c 1.528,-0.413 3.041,-0.85 4.532,-1.315 l -7.293,-2.242 z"
             style="fill:#ffbe33;fill-opacity:1;fill-rule:evenodd;stroke:none"
             id="path4920" />
        </g>
        <g
           id="g4922"
           transform="translate(222.875,562.2041)">
          <path
             d="m 0,0 c 1.602,0.527 3.231,1.014 4.882,1.462 l 8.385,-1.772 4.129,4.311 c 2.165,0.297 4.355,0.524 6.568,0.684 L 22.759,-2.296 38.224,-5.502 21.238,-11.21 18.794,-25.719 10.806,-14.735 -6.169,-20.494 5.879,-7.998 Z m -48.026,-56.39 c -0.065,0.924 -0.098,1.859 -0.098,2.799 0,0.97 0.038,1.937 0.108,2.901 l 6.241,7.505 -3.171,5.539 c 0.912,2.267 2.009,4.482 3.284,6.638 l 7.65,-2.807 12.618,15.276 -2.399,-19.001 16.643,-6.023 -18.096,-5.647 -2.331,-19.001 -8.785,15.509 z m 81.298,-46.036 2.772,22.28 23.132,6.308 -21.355,7.777 2.943,22.924 -16.049,-18.121 -21.314,7.859 11.435,-18.974 -16.113,-18.065 23.112,6.392 11.011,-18.441 c 0.143,0.018 0.286,0.04 0.426,0.061 m 54.654,28.969 c -0.271,-0.343 -0.546,-0.686 -0.827,-1.026 l -1.426,1.032 z M 77.758,-8.474 c 2.266,-1.583 4.379,-3.282 6.321,-5.094 l 1.175,-5 4.004,-0.598 c 1.753,-2.209 3.281,-4.54 4.562,-6.975 l -6.183,-2.471 3.914,-16.343 -14.76,11.986 -17.629,-7.118 8.547,14.471 -14.814,11.942 20.044,-3.044 z"
             style="fill:#ffcb5c;fill-opacity:1;fill-rule:evenodd;stroke:none"
             id="path4924" />
        </g>
        <g
           id="g4926"
           transform="translate(414.8721,488.8066)">
          <path
             d="m 0,0 c 7.426,7.075 5.499,14.149 -12.072,21.228 l 8.998,3.276 -0.867,6.772 c 2.725,0.805 5.134,1.702 7.247,2.688 L 8.071,28.586 26.188,35.269 16.467,19.137 30.168,3.782 10.518,9.217 0.864,-6.956 Z m 4.613,-38.175 c 2.648,2.005 3.874,4.026 3.726,6.06 l 3.676,0.769 2.728,16.351 6.024,-14.498 14.239,3.042 -10.525,-11.943 6.073,-14.47 -12.526,7.118 -10.486,-11.986 2.782,16.342 z"
             style="fill:#eba100;fill-opacity:1;fill-rule:evenodd;stroke:none"
             id="path4928" />
        </g>
        <g
           id="g4930"
           transform="translate(344.543,56.9775)">
          <path
             d="m 0,0 c 63.988,0 116.178,8.149 116.178,18.146 0,9.996 -52.19,18.149 -116.178,18.149 -63.989,0 -116.179,-8.153 -116.179,-18.149 C -116.179,8.149 -63.989,0 0,0"
             style="fill:#e6e6e6;fill-opacity:1;fill-rule:evenodd;stroke:none"
             id="path4932" />
        </g>
        <g
           id="g4934"
           transform="translate(67.4717,265.7109)">
          <path
             d="m 0,0 c 3.333,-7.083 3.006,-13.745 -0.119,-19.412 -5.619,-10.179 -15.717,-10.535 -18.718,-16.956 -2.958,-6.337 9.55,-14.445 8.605,-23.283 -1.157,-10.827 -15.965,-15.305 -14.275,-22.58 1.586,-6.807 15.573,-4.02 18.652,-10.551 2.959,-6.281 -7.244,-14.784 -4.102,-20.047 4.716,-7.906 17.045,-3.026 21.529,-15.581 2.004,-5.613 0.419,-12.453 -4.7,-18.534 41.876,2.499 75.002,34.401 75.002,73.4 C 81.874,-29.609 41.905,0.732 0,0"
             style="fill:#bced5a;fill-opacity:1;fill-rule:evenodd;stroke:none"
             id="path4936" />
        </g>
        <g
           id="g4938"
           transform="translate(148.0703,179.0684)">
          <path
             d="m 0,0 c 0.835,4.252 1.275,8.628 1.275,13.099 0,5.426 -0.613,10.646 -1.761,15.626 -25.076,11.444 -51.252,27.571 -73.346,21.115 21.473,-3.496 36.908,-15.665 51.668,-28.81 -20.352,1.259 -40.639,2.31 -57.616,-7.826 C -60.158,2.361 -40.536,5.843 -20.913,9.757 -34.441,-0.271 -55.137,-16.462 -72.579,-17.796 -51.387,-24.728 -21.678,-7.112 0,0"
             style="fill:#aade42;fill-opacity:1;fill-rule:evenodd;stroke:none"
             id="path4940" />
        </g>
        <g
           id="g4942"
           transform="translate(550.5342,265.7109)">
          <path
             d="m 0,0 c -3.333,-7.083 -3.009,-13.745 0.119,-19.412 5.616,-10.179 15.716,-10.535 18.715,-16.956 2.961,-6.337 -9.549,-14.445 -8.604,-23.283 1.157,-10.827 15.965,-15.305 14.274,-22.58 -1.586,-6.807 -15.573,-4.02 -18.652,-10.551 -2.959,-6.281 7.245,-14.784 4.105,-20.047 -4.719,-7.906 -17.048,-3.026 -21.532,-15.581 -2.004,-5.613 -0.418,-12.453 4.7,-18.534 -41.875,2.499 -74.999,34.401 -74.999,73.4 C -81.874,-29.609 -41.908,0.732 0,0"
             style="fill:#aade42;fill-opacity:1;fill-rule:evenodd;stroke:none"
             id="path4944" />
        </g>
        <g
           id="g4946"
           transform="translate(309.4365,72.5713)">
          <path
             d="m 0,0 c 89.422,0 162.354,53.725 162.354,119.596 0,65.872 -72.932,119.595 -162.354,119.595 -89.422,0 -162.354,-53.723 -162.354,-119.595 C -162.354,53.725 -89.422,0 0,0"
             style="fill:#aade42;fill-opacity:1;fill-rule:evenodd;stroke:none"
             id="path4948" />
        </g>
        <g
           id="g4950"
           transform="translate(415.4443,282.748)">
          <path
             d="m 0,0 c 34.504,-21.933 56.347,-54.375 56.347,-90.581 0,-66.05 -72.69,-119.596 -162.355,-119.596 -56.114,0 -105.581,20.974 -134.742,52.858 71.502,-43.444 168.582,-59.173 234.742,-5.173 25.284,20.635 19.839,34.787 -20.354,36.635 47.133,11.257 43.883,22.977 0,35.068 33.436,13.777 47.443,27.554 -4.384,41.333 C 22.259,-45.52 23.815,-26.481 0,0"
             style="fill:#99cc33;fill-opacity:1;fill-rule:evenodd;stroke:none"
             id="path4952" />
        </g>
        <g
           id="g4954"
           transform="translate(469.9355,179.0684)">
          <path
             d="m 0,0 c -0.835,4.252 -1.275,8.628 -1.275,13.099 0,5.426 0.61,10.646 1.761,15.626 C 25.56,40.169 51.735,56.296 73.829,49.84 52.357,46.344 36.921,34.175 22.164,21.03 42.516,22.289 62.803,23.34 79.777,13.204 60.155,2.361 40.533,5.843 20.91,9.757 34.442,-0.271 55.137,-16.462 72.576,-17.796 51.384,-24.728 21.675,-7.112 0,0"
             style="fill:#99cc33;fill-opacity:1;fill-rule:evenodd;stroke:none"
             id="path4956" />
        </g>
        <g
           id="g4958"
           transform="translate(268.1035,294.1064)">
          <path
             d="m 0,0 c 58.557,3.485 106.026,-28.66 106.026,-71.795 0,-43.135 -47.469,-80.927 -106.026,-84.405 -58.56,-3.486 -106.026,28.66 -106.026,71.795 C -106.026,-41.271 -58.56,-3.479 0,0"
             style="fill:#bced5a;fill-opacity:1;fill-rule:evenodd;stroke:none"
             id="path4960" />
        </g>
        <g
           id="g4962"
           transform="translate(248.0654,284.4141)">
          <path
             d="M 0,0 C 40.487,2.404 73.309,-19.822 73.309,-49.645 73.309,-79.47 40.487,-105.6 0,-108.007 c -40.49,-2.406 -73.314,19.82 -73.314,49.643 C -73.314,-28.536 -40.49,-2.409 0,0"
             style="fill:#c9f76c;fill-opacity:1;fill-rule:evenodd;stroke:none"
             id="path4964" />
        </g>
        <g
           id="g4966"
           transform="translate(182.0693,180.9219)">
          <path
             d="m 0,0 c 9.976,0 19.35,-8.088 20.936,-18.064 1.587,-9.976 -5.211,-18.061 -15.188,-18.061 -9.975,0 -19.35,8.085 -20.937,18.061 C -16.775,-8.088 -9.975,0 0,0 m 92.317,-61.701 c 10.774,0 19.509,-5.292 19.509,-11.823 0,-6.533 -8.735,-11.827 -19.509,-11.827 -10.772,0 -19.503,5.294 -19.503,11.827 0,6.531 8.731,11.823 19.503,11.823 m 88.258,6.248 c 11.192,2.939 21.621,0.157 23.293,-6.213 1.673,-6.372 -6.045,-13.92 -17.237,-16.857 -11.193,-2.938 -21.624,-0.156 -23.296,6.213 -1.672,6.371 6.046,13.918 17.24,16.857 m 80.305,54.748 c 7.796,0 11.861,-6.318 9.082,-14.117 -2.782,-7.796 -11.359,-14.117 -19.155,-14.117 -7.799,0 -11.862,6.321 -9.082,14.117 2.779,7.799 11.359,14.117 19.155,14.117 m -20.433,64.523 c 9.968,0 19.763,-6.555 21.875,-14.638 2.113,-8.085 -4.255,-14.641 -14.219,-14.641 -9.968,0 -19.763,6.556 -21.878,14.641 -2.116,8.083 4.255,14.638 14.222,14.638 m -51.611,36.93 c 11.023,0 19.963,-7.234 19.963,-16.154 0,-8.919 -8.94,-16.151 -19.963,-16.151 -11.027,0 -19.963,7.232 -19.963,16.151 0,8.92 8.936,16.154 19.963,16.154 m -47.765,25.309 c 9.962,0 18.034,-2.877 18.034,-6.432 0,-3.55 -8.072,-6.43 -18.034,-6.43 -9.957,0 -18.034,2.88 -18.034,6.43 0,3.555 8.077,6.432 18.034,6.432 M 119.865,94.07 c 10.728,0 19.423,-7.698 19.423,-17.199 0,-9.501 -8.695,-17.205 -19.423,-17.205 -10.723,0 -19.417,7.704 -19.417,17.205 0,9.501 8.694,17.199 19.417,17.199 m -65.383,14.561 c 8.324,0 15.069,-6.748 15.069,-15.068 0,-8.321 -6.745,-15.069 -15.069,-15.069 -8.319,0 -15.067,6.748 -15.067,15.069 0,8.32 6.748,15.068 15.067,15.068 M 14.695,72.689 c 9.555,0 16.037,-7.745 14.488,-17.296 C 27.629,45.841 18.626,38.094 9.074,38.094 c -9.553,0 -16.041,7.747 -14.487,17.299 1.553,9.551 10.554,17.296 20.108,17.296 M 72.816,48.883 c 12.262,0 21.43,-9.941 20.485,-22.199 C 92.356,14.425 81.648,4.486 69.389,4.486 c -12.259,0 -21.43,9.939 -20.485,22.198 0.949,12.258 11.655,22.199 23.912,22.199 m 95.803,-15.179 c 15.052,0 27.256,-12.202 27.256,-27.256 0,-15.055 -12.204,-27.257 -27.256,-27.257 -15.055,0 -27.257,12.202 -27.257,27.257 0,15.054 12.202,27.256 27.257,27.256"
             style="fill:#608711;fill-opacity:1;fill-rule:evenodd;stroke:none"
             id="path4968" />
        </g>
        <g
           id="g4970"
           transform="translate(301.9346,274.9922)">
          <path
             d="m 0,0 c 10.727,0 19.423,-7.698 19.423,-17.199 0,-9.501 -8.696,-17.205 -19.423,-17.205 -10.724,0 -19.417,7.704 -19.417,17.205 C -19.417,-7.698 -10.724,0 0,0 m -105.17,-21.381 c 9.555,0 16.037,-7.745 14.487,-17.297 -1.553,-9.551 -10.556,-17.299 -20.108,-17.299 -9.553,0 -16.041,7.748 -14.487,17.299 1.552,9.552 10.553,17.297 20.108,17.297 m 58.121,-23.806 c 12.262,0 21.43,-9.941 20.484,-22.2 -0.945,-12.258 -11.653,-22.197 -23.912,-22.197 -12.258,0 -21.429,9.939 -20.484,22.197 0.948,12.259 11.654,22.2 23.912,22.2 m -28.949,55.369 c 4.189,1.59 8.514,2.995 12.966,4.197 7.207,-1.126 12.717,-7.363 12.717,-14.887 0,-8.32 -6.745,-15.068 -15.068,-15.068 -8.319,0 -15.067,6.748 -15.067,15.068 0,4.179 1.702,7.958 4.452,10.69 m -25.068,-133.556 c -12.248,6.677 -22.195,15.479 -28.954,25.781 2.648,2.215 6.143,3.523 10.155,3.523 9.975,0 19.349,-8.088 20.935,-18.064 0.678,-4.25 -0.171,-8.156 -2.136,-11.24 M 49.537,-5.77 c 6.58,-5.767 11.924,-12.361 15.771,-19.584 -9.277,1.393 -16.3,7.971 -16.3,15.877 0,1.276 0.183,2.519 0.529,3.707 m -0.783,-54.596 c 8.363,0 15.846,-3.769 20.848,-9.7 -4.857,-16.165 -16.27,-30.893 -32.039,-42.416 -9.474,4.27 -16.066,13.793 -16.066,24.86 0,15.054 12.202,27.256 27.257,27.256"
             style="fill:#77a31f;fill-opacity:1;fill-rule:evenodd;stroke:none"
             id="path4972" />
        </g>
        <g
           id="g4974"
           transform="translate(196.7646,253.6113)">
          <path
             d="m 0,0 c 9.555,0 16.037,-7.745 14.487,-17.297 -1.553,-9.552 -10.556,-17.299 -20.108,-17.299 -9.553,0 -16.041,7.747 -14.487,17.299 C -18.556,-7.745 -9.555,0 0,0 m 58.121,-23.807 c 12.262,0 21.43,-9.94 20.484,-22.199 -0.945,-12.259 -11.653,-22.197 -23.912,-22.197 -12.258,0 -21.429,9.938 -20.484,22.197 0.948,12.259 11.654,22.199 23.912,22.199 M 25.562,25.844 c 7.959,2.674 16.573,4.397 25.571,4.946 2.318,-2.65 3.722,-6.119 3.722,-9.917 0,-8.32 -6.745,-15.068 -15.068,-15.068 -8.319,0 -15.067,6.748 -15.067,15.068 0,1.742 0.297,3.414 0.842,4.971 m 73.609,-5.3 c 10.792,-6.219 18.836,-14.879 22.764,-25.053 -3.371,-5.092 -9.617,-8.514 -16.765,-8.514 -10.724,0 -19.417,7.704 -19.417,17.205 0,7.644 5.63,14.125 13.418,16.362"
             style="fill:#8dba32;fill-opacity:1;fill-rule:evenodd;stroke:none"
             id="path4976" />
        </g>
        <g
           id="g4978"
           transform="translate(442.9492,180.2168)">
          <path
             d="M 0,0 C 7.796,0 11.861,-6.318 9.082,-14.117 6.3,-21.913 -2.277,-28.234 -10.073,-28.234 c -7.799,0 -11.862,6.321 -9.082,14.117 C -16.376,-6.318 -7.796,0 0,0 m -27.473,40.101 c -0.548,0.497 -1.167,1 -1.852,1.502 -2.61,2.355 -4.528,5.208 -5.33,8.282 -0.641,2.442 -0.503,4.744 0.272,6.766 7.575,1.97 12.993,4.572 16.508,7.729 C -8.839,63.386 -0.492,57.275 1.442,49.885 3.555,41.8 -2.813,35.244 -12.777,35.244 c -5.332,0 -10.614,1.874 -14.696,4.857"
             style="fill:#52750b;fill-opacity:1;fill-rule:evenodd;stroke:none"
             id="path4980" />
        </g>
      </g>
    </g>
  </g>
</svg>
