<?xml version="1.0" encoding="UTF-8" standalone="no"?>
<svg id="svg2" xmlns:rdf="http://www.w3.org/1999/02/22-rdf-syntax-ns#" xmlns="http://www.w3.org/2000/svg" height="1733.8pt" width="1008.6pt" version="1.1" xmlns:cc="http://creativecommons.org/ns#" xmlns:dc="http://purl.org/dc/elements/1.1/" viewBox="0 0 1008.625 1733.7781">
<g id="g4233" transform="translate(-165.57)">
<path id="rect4230" d="m545.35 0c-42.02 179.4-81.419 359.62-123.56 538.92-15.17 1.71-30.241-11.28-46.411-6.1297-19.27 3.66-14.44 25.209-15.7 38.419-0.03 25.53 17.7 47.591 40.88 57.531-11.38 62.18-27.9 123.76-41.06 185.76-2.96 9.19-2.4103 20.11-9.5203 27.52-60.4 72.29-120.57 144.79-181.04 217.01-6.68 8.76-2.5306 23.14 4.5094 30.63 50.53 25.09 101.14 50.15 151.49 75.55-29.49 49.25-49.241 105.97-48.461 163.94 0.47 8.15 8.0397 8.3294 14.43 7.1594-14.44 50.85-32.279 102.37-32.459 155.72-26.46 17.5-53.06 36.671-71.17 63.261-7.52 12.34-14.3 28.579-7.1797 42.539 7.23 6.59 18.65 1.0997 26.85 0.1797 36.98-12.19 72.18-29.289 106.47-47.539 12.52-15.23 7.6203-37.541 3.8703-55.341 5.15-20.95 3.819-43.98 14.939-63.17 22.39 17.34 48.86 34.931 78.8 33.791 5.02 6.42-2.6503 17.59 4.2297 24.02 13.18 12.17 31.541 15.829 47.731 22.309-13.6 38.31-24.22 78.051-28.07 118.49-28.3 23.76-54.681 56.469-54.041 95.259 5.79 9.53 19.531 9.0009 28.911 6.0609 29.38-8.49 49.77-32.99 74.2-49.9 12.76-9.83 29.69-21.061 26.95-39.741 0.92-13.09-13.051-22.97-8.6313-35.8 8.15-26.01 9.1-54.27 21.15-78.97 2.78-4.35 3.79 3.8997 4.25 5.5297 4.43 5.23 12.621 4.2512 18.941 5.2812 33.48 1.44 68.04 2.0488 100.37-7.9812 18.56 7.67 36.01-8.9788 50.87-18.419 9.97-9.02 25.339-16.441 26.819-31.291-1.41-44.55-0.97904-90.279 10.411-133.61 32.13 12.4 64.229 25.269 95.809 39.059 75.1-80.81 148.95-163 224.01-243.94 9.84-8.69 6.3-22.989 9.05-34.519-34.13-20.82-70.911-37.371-106.16-56.411-4.23-2.5-12.69-4.0803-10.45-10.72 8.21-33.81 13.431-68.829 23.361-101.94 17.02 3.59 37.319 2.669 50.509-11.261 17.62-16.82 24.569-40.88 35.309-61.98 10.09-0.07 20.031 8.9303 29.661 2.0203 4.17-6.96 2.7391-15.29 2.6391-22.97-6.31-94.57-16.84-188.79-27.18-282.99-1.24-13.75-4.6-27.811-0.9-41.491 38-173.25 75.501-346.58 113.41-519.85h-4.7609c-36.7 168.13-73.14 336.32-110.02 504.4-1.86 0.39 0.2609 7.43-3.1391 5.35-8.07-56.57-12.1-113.73-20.77-170.22-17.4-65.9-40.7-133.92-89.33-183.71-34.78-35.84-88.45-50.2-136.32-35.8-13.47 6.96-23.56-5.4109-35.75-8.1109-41.45-9.49-83.32 5.0509-121.87 19.261-65.18 48.7-104.55 126.64-115.69 206.37-13.94 99.52 6.1694 200.76 40.159 294.28-15.67 11.93-30.54 26.989-34.73 47.009-23.84 19.32-61.32 35.671-63.53 70.641-1.37 1.93-3.1513-0.37-2.9813-2.05-6.76-47.91-13.56-95.83-20.18-143.77 0.33-22.89-0.84-56.03-28.13-62.98 39.85-180.37 81.44-360.59 122.81-540.67h-4.58zm-137.71 629.08c1.4128-0.11826 2.9582 3.4072 2.9438 5.4125 7.6 61.35 0.03 124.71 14.72 185.19 4.23 20.76 29.049 21.051 44.159 12.761 18.05-6.78 34.201-17.58 50.561-27.42 4.45 2.23 8.299 6.45 11.789 10.2-4.65 26.19-7.8587 52.62-11.669 78.95l-0.81096-0.32968c-52.4-22.18-103.84-47.051-156.89-67.381 12.49-65.36 28.95-130.26 43.7-195.26 0.41056-1.4709 0.94248-2.0756 1.4953-2.1219zm554.24 308.55c4.4114 0.14136 1.135 8.6525 0.66248 11.909-6.44 30.15-13.03 60.27-19.6 90.38-0.96 4.06-5.4113 0.9103-7.5313-0.3297-32.04-17.02-64.479-33.461-96.539-50.331 1.35-13.1 0.93968-26.76 4.1797-39.45 6 10.3 8.6406 26.911 22.691 30.831 24.53 2.64 40.999-20.04 54.069-37.32 13.22 1.63 25.911-2.1403 38.761-4.8203 1.411-0.6344 2.4908-0.89496 3.3078-0.86872z" fill="#191919"/>
<path id="path4" d="m876.7 819.99c-0.38672 0.0309-0.77695 0.17656-1.127 0.46094-34.175 28.8-73.186 54.601-117.59 63.826-20.138 4.875-42.926 0.7125-59.801-8.5-23.238 100.96-41.301 204.31-46.988 308.09-3.925 14.55 9.6891 22.949 17.852 32.074 36.775 33.225 79.349 59.524 123.82 81.137 1.65 1.0875 3.2371-0.625 3.2871-2.25 20.025-157.32 47.676-313.66 76.738-469.57 4.45-1.3 4.0363 2.2383 2.7363 6.5508-25.525 156.22-59.536 310.71-72.924 468.26 70.225 32.838 166.66 41.088 231.04-11.312 12-38.812 8.6617-81.437 16.637-120.66-7.825-29.925-10.336-61.162-14.799-91.438-11.475 0.7375-19.762-8.0887-22.725-18.264-12.025-37.362-17.126-76.586-21.826-115.4-26.162 3.85-54.324-4.3129-71.824-24.713-23.47-26.8-32.06-62.35-40.21-96.09 0-1.3594-1.1387-2.3035-2.2988-2.2109zm-197.56 35.424c-27.788 18.65-61.524 36.939-74.137 69.764 6.125 35.45 37.113 62.561 61.238 85.924 4.65-33.812 15.374-69.475 18.611-104.69 6.3375-14.725 12.262-41.038-5.7129-51zm418.45 15.889c-20.688 37.488-60.513 59.112-100.09 71.762 2 33.288 7.45 66.538 15.5 98.963 3.35 11.8 7.2758 29.224 22.426 30.199 33.812-0.013 69.337-9.925 94.225-33.812 12.188-13.425 6.4004-31.662 4.5254-47.537-9-40.475-16.313-83.187-36.588-119.57zm-217.37 63.73c6.3539 0.12008 9.1832 11.866 2.8848 14.834-10.1 4.425-15.25-12.389-4.9629-14.477 0.72656-0.25899 1.4208-0.36985 2.0781-0.35742zm-14.998 101.87c7.1372-0.068 10.852 11.425 2.5938 13.711-8.4125 3.9625-14.886-9.3641-5.8359-12.914 1.1344-0.5422 2.2226-0.7871 3.2422-0.7969zm-24.871 105.05c7.2298 0.082 10.105 11.973 2.3398 14.762-8.6 4.4375-14.238-10.501-5.6875-14.014 1.1922-0.5312 2.3148-0.7597 3.3477-0.748zm-13.58 101.4c7.2925-0.1837 10.335 12.534 2.3828 14.697-8.6125 3.4125-13.163-10.951-4.7754-14.201 0.83789-0.3211 1.6382-0.4771 2.3926-0.4961z" transform="scale(.8)" fill="#b7ff22"/>
<path id="path8" d="m954.1 292.86c-32.26 21.68-62.61 46.86-99.04 61.14 4.1375 7.1625 23.875 4.4867 24.75 15.699-11.3-2.1125-21.025-11.2-33.213-10.438-71.938 34.238-125.36 108.78-126.66 189.46 0.2375 20.112-0.80039 40.338 1.8496 60.338 29.575 47.238 66.338 98.95 123.38 114.35 16.262 15.562 6.3125 40.651 0.875 58.988-3.5875 6.8625 6.55 10.349 10.25 13.887 23.188 17.5 59.5 16.888 78.438-6.6621 10.375-12.575-10.15-30.988 5-41.338 67.862 7.85 138.85-17.75 182.68-70.85 15.562-6.675 7.5746-30.05 10.162-43.5 5.4-87.975-28.363-175.79-86.426-241.29-12-7.65-26.586-0.8625-39.461 0.3125-5.3125 6.1625-7.4762-3.2262-3.4512-3.3887 10.688-5 25.426-3.2738 34.113-7.8613-27.15-29.888-58.913-58.062-83.238-88.85zm-127.62 157.43c14.646 0.3284 18.195 22.932 3.748 27.752-18.862 5.3-24.812-25.513-5.1992-27.713 0.49531-0.0371 0.97872-0.0497 1.4512-0.0391zm203.62 21.16c15.394 0.0328 16.508 29.539-2.2422 26.68-15.962-0.0875-16.513-25.563-1.0254-26.275 1.1516-0.27813 2.2413-0.40648 3.2676-0.4043zm-135.81 48.99c9.275 2.875-7.275 12.35-9.125 17.275-10.275 17.475 10.875 35.024 27.588 34.574 3.825 0.725 18.55-0.51172 13.812 6.9883-20.05 3.125-45.95-6.9012-50.912-28.701-1.0125-12.7 8.3492-23.849 18.637-30.137zm-62.486 92.488c23.675 16.538 47.024 42.061 78.361 48.174 39.275 12.012 80.4-5.2492 109.9-31.137 2.9625-3.1 6.2867 1.2496 4.5742 4.2871-24.625 22.388-56.974 37.901-90.824 36.988-40.388-1.4-77.188-24.677-102.56-55.039-0.8875-1.35-1.8117-3.0859 0.55078-3.2734zm-351.73 57.203c-2.9066 0.0195-5.6461 0.17187-7.9492 0.35937-23.262 2.2875-18.95 36.499 3.6621 35.486 2.5625-13.838 12.525-27.924 27.725-29.924-4.4906-4.8562-14.718-5.9805-23.438-5.9219zm37.775 9.7695c-4.5715-0.043-9.0848 0.23828-13.275 0.61328-15.65 2.65-26.625 19.164-22.725 34.539 11.4 11.838 32.412-10.126 39.812 8.4492 8.0875 6.9 2.5629 11.499-4.2871 5.2617-7.5375 10.812 11.149 20.126 1.4492 31.201-4.1875 12.575-17.211 13.049-27.861 14.637 6.6875 9.4625 25.274-0.0125 26.824 14 11.4 77.012 0.475 156.39 18.438 232.61 1.9875 13.912 16.325 24.6 30.375 19.475 29.825-5.9375 55.501-23.712 80.863-39.512-15.938-18.975-33.4-37.151-43.975-59.889-16.162 4.3875-27.775 19.626-41.963 25.926 2.475-13.875 22.375-16.862 29.25-26.912-10.575-58.162-16.939-117.1-25.451-175.62-3.975-22.912 1.2016-48.739-11.898-69.352-7.6219-12.244-21.862-15.297-35.576-15.426zm-62.699 21.551c-5.2625 6-1.2137 14.002 5.3613 16.914 13.038 6.9875 25.438 17.537 40.613 19.225 9.35 2.4125 14.788-10.113 8.5625-16.301-9.4625 0.6625-21.55 5.9629-29.438-1.5996-4.8-10.338-17.637-11.488-25.1-18.238zm3.7246 22.438c-8.3 28.625 36.213 47.501 57.238 31.738 0.925-5.85-1-16.676-9.8125-13.238-18.462 1.975-31.313-13.512-47.426-18.5zm12.438 34.738c6.1625 11.775 27.063 13.75 35.988 7.5879-10-2.54-25-1.42-35.98-7.6zm838.21 146.26c-2.6784 0.0711-5.5683 0.70703-8.6484 2.0234-3.525 0.9-8.2246 0.52617-10.85 3.0137 15.225 17.5 20.6 53.348-6.4004 62.523 14.662 11.325 39.213 7.7 55.113-1.5 4.825-9.1125-3.7883-19.261-10.801-24.549-7.575-0.0875-19.3 4.6871-24.562-1.3379 9.125-4.0375 22.488 1.1246 27.926-9.9004 1.0019-14.555-7.3135-30.657-21.777-30.273zm-36.258 5.1035c-1.3588 0.009-2.7635 0.15058-4.2148 0.43359-16.625 3.925-28.088 18.6-39.963 29.912-51.088 56.3-91.813 120.82-133.3 184.24-0.675 1.8875-6.4488 6.6883-5.4863 2.0508 7.3875-15 17.073-29.901 26.711-42.988-10.8 0.1375-3.9371-16.962-7.9746-23.662-20.65 9.7875-43.05 17.587-66.213 16.6 1.4625 39.688 7.3129 80 20.4 117.71 4.35 10.712 9.0629 24.75 22.15 26.812 21.2 0.8875 36.1-17.424 48.85-31.887 29.975-38.1 49.989-82.625 74.576-124.16 7.9625-12.375 15.825-25.926 29.037-33.426 13.55 1.4 27.238 0.7379 40.65-1.6621-1.25-3.6375-8.3875-4.5379-9.0625-9.6504-4.5625-8.5 9.7371-16.2 1.1621-23.312-5.0875-5.8625-5.2629-22.275 4.3496-21.838-9.5 27.812 28.662 33.076 48.074 27.926 12.85-0.275 18.214-13.85 10.451-23.088-21.312 6.5875-47.701 7.0496-63.076-11.65-2.35-5.35-10.587 4.1629-11.412-1.5371 7.875-4.525 7.8121-14.263 12.725-20.65 5.55 3.4-5.1246 22.726 8.4629 21.951 28.796-4.4439 20.732-58.309-6.8965-58.121zm7.1348 95.27c-5.5125 3.425-9.3996 14.263-1.4121 17.051 14.125 3.2625 35.161 8.2129 43.236-7.7246 1.7625-2.05 2.5629-8.1004-1.6621-6.5254-13.35 4.2125-27.237-0.2883-40.162-2.8008zm-910.39 665.7c-10.112 30.05-21.023 60.887-25.961 92.199 16.475 16.362 33.762 39.462 58.912 40.188 3.45-7.675 6.1238-15.949 12.986-21.424-1.4375-11.288-0.19961-22.952 0.52539-34.352-2.625-0.8-5.2238-1.5734-7.7988-2.3359-16.2-6.9875-32.689-17.314-39.977-34.102-3.6375-13.275 3.7875-27.186 1.3125-40.174zm215 219.17c-6.9625 14.775-10.674 30.975-16.174 46.375-1.1125 6.6 8.7617 5.9016 12.387 8.5391 16.975 5.275 35.263 14.488 53.051 9.25 5.3-17.688 7.4746-37.026 18.412-52.576-22.925-1.2375-45.513-5.7129-67.676-11.588z" transform="scale(.8)" fill="#fef0b3"/>
<path id="path26" d="m841.82 754.39c-46.562 7.625-94.361 20.489-131.55 50.889-11.725 12.1-27.388 26.725-25.676 44.963 8.6375 23.212 36.401 34 59.639 31.625 50.262-5.6375 91.675-37.75 130.75-67.213 9.4375-3.725 9.1371 10.362 12.037 15.85 10.05 41.425 25.525 92.512 71.562 105.91 51.6 7.725 104.78-20.888 132.69-63.812 13.988-20.912-4.0871-43.813-22.412-53.963-38.038-22.912-82.326-32.224-125.05-42.262-2.2 7.8625-2.2242 18.226-11.387 22.363-26.425 24.65-69.327 15.538-91.789-9.5625-3-10.888 18.125-34.889 1.1875-34.789zm-500.26 1014.6c-8.8375 36.238-17.7 75.163-10.912 112.84 3.375 14.925 23.112 11.412 32.938 5.4492 11.075-7.2625 29.149-11.862 29.736-27.725 3.1125-16.638 5.6266-33.65 7.5391-50.338-24.812-4.4-42.238-25.837-59.301-40.225zm226.12 176.03c-11.4 32.4-16.663 67.037-18.863 101.26-3.1625 4.6875 0.80078 12.601 6.8008 10.514 22.65-6.9125 42.812-20.675 61.449-34.713 8.3625-19.412 13.526-40.826 15.113-61.889-22.825 2.125-43.512-8.3488-64.5-15.174z" transform="scale(.8)" fill="#fefffe"/>
<path id="path46" d="m456.12 1039.2c-8.2875 5.025-11.575 17.613-12.125 27.213-11 47.8-21.2 95.849-32.787 143.51-0.8625 6.0125-8.9508 0.051-4.3008-4.3613 8.925-43.75 19.875-87.101 29.4-130.74-1.0625-2.55 4.9879-12.201-0.84961-12.238-73.225 89.325-147.91 177.5-221.78 266.33 0.575 3.4875 5.1129 4.2242 7.7129 5.9492 67.212 30.288 133.99 61.5 201.53 91.062 2.425 1.2625 5.6867 2.5129 7.3867-0.5371 14.275-20.312 31.175-38.888 49.787-55.301 67.438-47.65 126.69-108.74 166.86-180.82-0.125-23.875 3.2754-47.65 3.2129-71.537l-1.0137-0.4121c-1.0625 1.3-1.5879 3.1371-3.0879 4.0371-63.675-26.5-126.06-56.263-189.95-82.15zm591.2 199.55c-5.05 21 2.4879 51.648-21.475 62.336 9.2875 83.088-9.2988 169.79-47.986 244.29-28.038 39.575-48.626 84.388-58.926 131.81 38.825 16.488 78.15 31.774 117.15 47.887 4.9625-7.925 2.9738-18.288 5.0488-27.125-37.438-14.088-75.598-26.388-113.27-39.812-2.275-7.6625 6.7988-2.6375 10.299-1.1875 35.762 10.35 71.712 27.225 106.69 35.037 92.738-99.712 183.54-201.34 275.49-301.8 4.625-2.6625 0.8117-6.9641-2.6758-7.7891-45.45-23-90.475-47.988-136.12-69.75-13.488 52.025-21.711 106.92-36.674 157.56 5.1625-53.562 23.287-107 31.475-160.84-42.1-24.762-90.239-42.562-129.01-70.625zm-833.7 97.912c0.1 6.575 0.77422 13.588 4.1367 19.375 63.812 32.588 128.58 63.524 192.11 96.574 4.3375-6.8875 14.075-13.6 13.025-21.6-69.9-30.962-139.51-63.625-209.28-94.35zm1108.5 58.5c-91.112 100.79-182.79 201.06-274.19 301.59-3.6 6.375-4.7367 16.061-3.3242 21.611 85.825-93.188 172.33-187.94 258.21-281.81 12.025-10.338 23.461-24.362 19.299-41.387z" transform="scale(.8)" fill="#a66211"/>
<path id="path50" d="m646.51 1200.1c-40.05 70.188-98.649 128.15-164.11 174.8-78.262 72.738-131.54 176.31-131.89 284.34-0.5125 13.7 14.413 4.6633 21.9 3.3633 27.025-101.4 78.863-200.5 161.05-267.88 50.338-49.45 100.47-103.8 123.32-171.95 3.375-8.75-3.4254-18.536-10.275-22.674zm17.062 18.375c-23.75 72.488-76.337 131.39-130.76 183.11-20.188 18.962-42.425 36.201-58 59.488-50.275 69.15-91.3 148.4-102.21 234.19-4.7375 25.712 22.451 37.425 40.863 47.812-0.1875 2.6125-2.9871 1.7883-4.7871 2.1758 2.575 0.7625 5.1738 1.5359 7.7988 2.3359 5.7625-60.625 28.475-118.09 57.475-171.11 38.062-67.788 83.325-132.68 141.31-184.95 36.488-41.875 65.564-91.486 84.514-143.4-11.9-10.038-24.226-19.688-36.201-29.65zm41.863 34.225c-28.35 59.3-58.34 121-110.14 163.8-66.775 71.825-121.39 155.8-156.2 247.64-6.9875 26.875-17.125 53.387-18.162 81.699-0.875 18.288-7.2012 42.488 13.799 51.938 23.575 14.338 53.887 35.237 81.975 26.475 8.8625-115.21 52.813-228.62 128.28-316.81 16.512-20.212 39.95-33.388 55.787-54.213 36.188-44.775 56.3-99.711 71.838-154.42 3.9375-8.1125 4.7512 5.8363 2.9512 8.9238-18.162 73.1-52 146.58-114.65 191.89-87.512 96.8-139.29 227.8-138.62 358.12 38.85 26.912 88.386 37.462 135.05 39.625-0.3875-106.44 23.827-213.81 75.039-307.54 6.1-9.9 12.012-20.138 21.062-27.676 53.338-52.738 81.762-124.52 105.39-193.72 0.675-14.538 10.137-27.925 8.0371-42.537-58.488-12-112.16-41.876-161.41-73.238zm315.81 52.699c-0.5125 0.013-1.5383 0.051-2.0508 0.076-20.162 9.95-39.737 21.312-61.875 25.949-11.725 86.762-40.886 172.71-86.273 248.38-18.438 45.925-30.15 94.188-43.188 141.81-12.838 61.8-26.325 126.61-12.15 189.2 33.45-5.4 64.55-30.075 85.475-56.375-1.775-94.075 2.8129-194.65 51.338-278.15 53.275-78.562 77.962-176.46 68.725-270.89zm-144.9 23.4c-21.025 76-49.162 152.56-98.662 215.14-13.825 17.088-32.101 30.511-41.551 50.961-51.425 95.812-77.886 205.48-73.148 314.26 0.325 10.362 14.511 6.7125 21.211 9.25 40.3-1.0625 86.163 5.4992 123.18-12.738-9.25-101.59 16.688-202.41 47.15-298.61 5.15-15.35 11.086-30.488 19.299-44.488 41.362-70.45 65.852-150.06 75.352-230.95-24.212 1.525-48.976 2.4988-72.826-2.8262z" transform="scale(.8)" fill="#feef01"/>
</g>
</svg>
