<?xml version="1.0" encoding="UTF-8" standalone="no"?>
<svg id="svg2" xmlns:rdf="http://www.w3.org/1999/02/22-rdf-syntax-ns#" xmlns="http://www.w3.org/2000/svg" height="1706pt" width="1120pt" version="1.1" xmlns:cc="http://creativecommons.org/ns#" xmlns:dc="http://purl.org/dc/elements/1.1/" viewBox="0 0 1120 1706">
<g id="g4231">
<g>
<path id="rect4228" d="m0 0v0.77969c0.19-0.2 0.57968-0.58969 0.77968-0.77969h-0.77968zm967.62 7.3891c-3.891 0.00382-7.8014 0.18828-11.725 0.56094-82.8-5.52-159.79 73.64-152.9 156.1-3.33 47.87 22.239 94.59 59.719 123.17 7.8 6.27 4.7503 17.829 8.9203 26.109 3.06 14.69 12.91 26.641 17.12 40.791-3.44 18.94-8.57 37.759-15.85 55.639-25.96-24.02-64.199-33.129-97.959-22.039-4.75-3.37-9.1912-12.261-17.031-9.2109-2.95 1.41-7.7294 9.2406-9.0094 2.5406-11.97-49.87-45.49-93.99-90.88-118.07-47.51-24.37-101.53-33.159-154.27-36.789-38.77 1.02-79.919 3.8294-113.76 24.809-25.57 14.5-43.14 42.54-44.05 72.02-0.41 7.42-0.071 15.43-3.8609 22.13-12.47 28.04-24.059 57.17-26.739 88.03-1.56 10-14.8 8.6103-22 12.12-16.6 4.21-31.87 21.16-24.85 39.07 3.2 17.2 22.369 26.68 38.789 22.63 7.84 12.58 5.2903 29.429 12.87 41.859 27.93 18.09 63.51-0.17938 93.92 2.1406-8.4 6.74-19.59 12.179-25.97 22.009-8.84 12.88-30.01 1.99-39.15 12.25-4.87 22.49 14.571 42.631 34.341 50.431 15.74 8.03 34.04 5.4997 50.28 11.78 18.75 5.79 33.359 22.769 36.909 41.959 2.4 4.46-2.3994 6.9206-5.5094 8.4906-57.63-37.01-115.66-73.59-171.13-113.77-12.25-7.18-17.51-20.74-24.92-32.08-20.62-32.98-39.19-67.181-59.9-100.11-32.43-53.41-59.379-118.03-39.059-180.93 3.83-10.22 10.52-28.279-4.1703-32.589-17.52 4.04-23.59 23.719-32.78 36.709-13.7-21.6-24.941-45.149-41.261-65.059-5.92-7.06-16.389-0.16-18.619 7.1-7.2 18.05 6.9887 35.899 8.2187 52.909-14.28-17.48-24.529-37.86-34.419-58.05-7.47-6.33-19.981-2.86-22.141 6.85-4.38 18.86 4.2397 37.79 11.28 55.03-8.65-4.93-15.98-20.71-27.5-16.6-9.43 11.05 1.5297 24.771 7.2297 34.591-6.96 11.21 3.871 22.5 10.211 31.05 20.11 16.48 40.18 33.93 63.32 46.67 19.14 14.03 30.46 36.159 41.15 56.859 33.18 66.07 70.729 130.02 103.21 196.34-18.02 25.01-38.87 50.31-44.57 81.5-1.77 8.37 7.1203 12.56 11.72 17.85 37.79 32.13 77.539 61.85 117.06 91.78 7 3.38 4.5303 12.329 5.7203 18.339 10.93 93.39 20.93 187.2 32.65 280.3 6.26 104.42 11.581 209 17.691 313.35 16.28 44.36 52.869 77.171 81.059 114.01 15.4 21.25 36.831 37.35 54.561 56.17-14.08 21.02-36.9 43.009-32.8 70.819 5.97 10.36 17.769 26.42 31.919 18.8 43.81-17.98 85.991-41.749 120.53-74.469 5.02-5.45 13.739-11.451 9.8891-20.031-11.79-15.47-15.529-35.71-29.739-49.8-7.77-27.44-35.141-43.749-43.431-71.419-16.61-55.74-17.659-115.87-16.909-172.85 18.44 29.75 34.05 65.67 52.9 96.85 14.81 29.18 40.42 50.559 66.08 69.939 61.02 43.15 127.05 78.571 192.83 113.66-1.78 30.24-4.7497 60.48-5.1297 90.78-1.54 12.82 9.92 19.08 20.45 22.13 12.86 15.9 31.91-3.3806 39.15-15.241 22.78-48.35 46.8-96.15 68.05-145.2 5.57-14.06-10.229-21.419-21.339-21.909-5.71-5.07-11.131-10.621-16.841-15.691-0.19-5.15 3.7006-11.049-1.9094-14.839-58.27-50.16-120.35-95.91-177.04-147.92-6.15-7.79-7.3194-18.21-10.709-27.3-17.74-64.43-33.691-129.39-47.191-194.84-1.84-85.09-10.79-171.06-19.83-256.14 1.23-7.08-7.64-16.941 0-22.011 35.64-28.18 76.1-49.52 113.05-75.85 3.74-3.41 9.61-6.8197 9.4-12.63-1.79-20.1-11.96-38.93-17.52-57.62 16.64-19.13 32.381-39.069 47.641-59.309 24.55 22.69 49.879 45.469 78.019 63.959 2.95 2.87 6.62 1.5909 9.8 0.11093 4.06 11.63 5.9709 24.59 13.411 34.67 4.8 3.7 7.8291-4.3106 9.7391-7.7906 13.64-32.83 10.871-69.34 12.861-103.95 3.54 0.18 8.1791 2.7597 10.039-1.5703 0.85-51.11-11.89-105.43-48.7-142.81 14.11-38.28 22.69-78.61 31.95-118.38 11.34-4.89 24.6-13.42 25.05-27.15 0.34-1.37 0.59-2.7609 0.7-4.1609 73.85-9.6 134.99-81.12 130.1-156 3.4-79.255-67.4-153.71-146.48-153.63zm-8.1625 40.347c58.902-0.50515 113.44 51.503 113.1 111.18 2.94 48.46-29.52 95.509-74.95 111.59-19.12-0.26-15.321-31.08-37.591-26.2-3.7-12.36-15.429-20.619-28.519-16.559-5.37-6.65-14.59-11.989-22.7-6.0594-7.99 9.55-22.75-2.3603-29.45 8.7297-2.6 2.69-2.82 8.04-6.1 9.5-19.61-21.85-31.19-51.36-29.35-80.9-0.32-56.02 47.849-106.89 103.74-110.47 3.9506-0.51375 7.8966-0.78039 11.823-0.81406zm-202.67 337.65c-0.5218 0.51089-0.9878 1.0446-1.4015 1.6 0.4136-0.55537 0.8782-1.0891 1.4-1.6zm9.5515 113.72c0.7325-0.0288 1.3722 0.11156 1.5672 0.90156 6.94 18.14 14.21 36.181 21.93 53.991-10.14 15.5-21.84 30.72-34.57 44.23-3.38-6.99-9.4491-14.05-17.339-9.4-48.86 27.69-93.27 62.469-140.85 92.239-16.92 14.31-39.221-1.4791-58.741 0.86093-1.92-10.91-5-22.64-1.75-33.63 50.52 3.88 104.26-6.6503 144.15-39.57 34.03-26.1 56.31-64.37 70.6-104.25 1.23-5.95 8.3497-4.5409 12.88-5.2609 0.565 0.115 1.3909-0.0822 2.1234-0.11094z" fill="#3530fe"/>
<path id="path4" d="m0 0v0.97461c0.2375-0.25 0.72461-0.73711 0.97461-0.97461h-0.97461zm1209.5 9.2363c-4.8 0.0048-9.7 0.2354-14.6 0.7012-103.5-6.9-199.77 92.052-191.2 195.12-4.12 59.84 27.8 118.24 74.7 153.97 9.7 7.83 5.9 22.28 11.1 32.63 3.9 18.36 16.2 33.3 21.4 50.99-4.3 23.68-10.7 47.2-19.8 69.55-32.4-30.03-80.2-41.41-122.42-27.55-5.94-4.21-11.49-15.33-21.29-11.51-3.69 1.76-9.67 11.55-11.27 3.17-14.96-62.33-56.86-117.49-113.59-147.59-59.39-30.46-126.92-41.44-192.84-45.98-48.47 1.27-99.9 4.78-142.2 31.01-31.96 18.13-53.93 53.18-55.06 90.03-0.52 9.27-0.09 19.28-4.83 27.66-15.59 35.05-30.07 71.46-33.42 110.03-1.95 12.5-18.5 10.77-27.5 15.15-20.75 5.27-39.84 26.46-31.07 48.84 4 21.5 27.96 33.35 48.49 28.29 9.8 15.73 6.61 36.79 16.09 52.32 34.91 22.62 79.39-0.22 117.4 2.68-10.5 8.43-24.49 15.22-32.47 27.51-11.04 16.1-37.51 2.49-48.93 15.31-6.09 28.12 18.21 53.29 42.92 63.04 19.68 10.04 42.55 6.88 62.85 14.73 23.44 7.24 41.7 28.46 46.14 52.45 3 5.57-3 8.65-6.89 10.61-72.02-46.26-144.56-91.99-213.9-142.21-15.31-8.98-21.89-25.93-31.15-40.1-25.77-41.23-48.99-83.98-74.87-125.14-40.54-66.76-74.23-147.54-48.83-226.16 4.79-12.78 13.15-35.35-5.21-40.74-21.9 5.05-29.49 29.65-40.97 45.89-17.13-27-31.18-56.44-51.58-81.33-7.4-8.82-20.487-0.2-23.274 8.88-9 22.56 8.734 44.87 10.274 66.13-17.851-21.84-30.662-47.32-43.024-72.56-9.338-7.91-24.976-3.57-27.676 8.56-5.475 23.58 5.3 47.24 14.1 68.79-10.813-6.16-19.975-25.89-34.375-20.75-11.788 13.81 1.912 30.97 9.037 43.24-8.7 14.01 4.838 28.13 12.763 38.81 25.138 20.6 50.226 42.42 79.155 58.34 23.92 17.54 38.07 45.2 51.43 71.07 41.48 82.59 88.41 162.53 129.01 245.43-22.52 31.26-48.58 62.89-55.71 101.88-2.21 10.46 8.9 15.7 14.65 22.31 47.24 40.16 96.93 77.31 146.33 114.76 8.75 4.2 5.66 15.4 7.15 22.9 13.66 116.7 26.16 234 40.81 350.4 7.82 130.5 14.48 261.2 22.11 391.6 20.35 55.5 66.09 96.5 101.33 142.6 19.25 26.5 46.04 46.7 68.2 70.2-17.6 26.3-46.13 53.7-41 88.5 7.46 12.9 22.21 33 39.9 23.5 54.76-22.5 107.49-52.2 150.66-93.1 6.28-6.8 17.17-14.3 12.36-25-14.74-19.4-19.41-44.7-37.17-62.3-9.71-34.3-43.93-54.7-54.29-89.2-20.76-69.7-22.07-144.9-21.14-216.1 23.05 37.2 42.57 82.1 66.13 121.1 18.51 36.4 50.52 63.1 82.6 87.4 76.27 53.9 158.81 98.2 241.06 142.1-2.3 37.8-6 75.6-6.4 113.4-2 16.1 12.4 23.9 25.5 27.7 16.1 19.9 39.9-4.2 49-19.1 28.4-60.4 58.5-120.2 85-181.5 7-17.5-12.8-26.7-26.6-27.4-7.2-6.3-14-13.2-21.1-19.6-0.2-6.4 4.6-13.8-2.4-18.5-72.8-62.7-150.4-119.9-221.29-184.9-7.69-9.8-9.15-22.8-13.38-34.1-22.18-80.6-42.12-161.8-58.99-243.6-2.3-106.4-13.49-213.8-24.79-320.2 1.54-8.8-9.55-21.1 0-27.5 44.55-35.2 95.13-61.88 141.35-94.79 4.6-4.26 12-8.52 11.7-15.79-2.2-25.12-14.94-48.66-21.89-72.02 20.79-23.91 40.49-48.84 59.59-74.14 30.7 28.36 62.3 56.84 97.5 79.95 3.7 3.59 8.3 1.99 12.2 0.14 5.1 14.54 7.5 30.74 16.8 43.34 6 4.62 9.8-5.39 12.2-9.74 17-41.04 13.6-86.67 16.1-129.94 4.4 0.23 10.2 3.45 12.5-1.96 1.1-63.89-14.9-131.79-60.9-178.51 17.7-47.85 28.4-98.26 40-147.98 14.1-6.11 30.7-16.77 31.3-33.93-6.1-3.45-7.4 10.01-11.5 12.38-6.4 12.9-28.1 11.34-28.5 27.84-26 150.11-97.1 290.89-198.61 404.04-4.45 2.67-4.46-4.88-6.38-7.22-10.75-28.35-24.61-55.46-36.41-83.27 69.8-89.33 139.6-185.16 166.7-297.23 7.3-17.87-4.9-33.68-11.6-49.46-17-36.15-19-80.56 1.1-115.85 3.9-8.76 15.1-4.25 22.2-4.13 23.4 5.95 48.4 17.13 60.1 39.33 3.8 11.75-6.8 35.65-20.9 25.84-9-4.28-5.3-21.02-13.7-23.45-11.7 17.74-18.1 45.17-6.4 63.95 28.1 3.62 56.5 4.81 84.7 2.02 92.4-12 168.8-101.4 162.7-195 4.3-99.01-84.2-192.08-183.1-191.98zm-11.9 5.0467c66.4-0.551 131.7 37.095 164.1 95.247 27.4 48.21 33.2 109.18 12.5 160.93-24.4 66.34-89.3 116.33-160.2 120.68 1-18.59 25.9-10.19 30-26.68 1.9-6.06 0.3-12.54 1.4-18.74 52.5-17.48 94.3-65.78 100.2-121.31 13.8-74.84-41.1-152.61-115.1-167.38-74.6-18.442-157.2 30.145-176.8 104.19-15.2 51.58-0.4 108.93 36.2 147.83-3.3 13.69-7.2 27.37-6.3 41.7-5.5 1.66-9.3-4.99-13.3-7.41-38.6-36.09-63.8-88.65-60.4-142.14-3.6-92.69 75.6-177.5 167.1-185.5 6.8-0.895 13.7-1.36 20.6-1.417zm1.7 45.387c73.6-0.632 141.8 64.38 141.4 138.98 3.7 60.58-36.9 119.39-93.7 139.49-23.9-0.33-19.2-38.85-47-32.75-4.6-15.45-19.3-25.78-35.6-20.7-6.7-8.31-18.3-14.99-28.4-7.58-10 11.94-28.4-2.95-36.8 10.92-3.3 3.36-3.5 10.05-7.6 11.87-24.6-27.31-39-64.2-36.7-101.12-0.4-70.03 59.8-133.62 129.6-138.09 5-0.645 9.9-0.978 14.8-1.02zm-1093.9 205.54c25.26 22.14 39.31 57.15 56.92 86.32-4.76 16.51-23.41 28.41-23.61 46.9 4.24 1.01 5.52-3.69 7.02-6.57 7.89-19.28 23.55-34.11 31.54-53.36 7.38-12.08 13.64-26.77 27.17-33.14 13.43-2.18 6.73 16.83 4.58 23.65-26.99 74.3-2.18 154.36 35.92 219.81 33.9 56.94 67.71 113.96 101.35 171.04-15.5 18.04-32.62 35.6-48.75 52.64-38.59-72.22-78.24-145.52-116.46-218.57-17.48-32.39-32.01-67.46-59.56-92.96-23.011-14.91-47.723-28.18-66.785-48.23-14.175-7.96-26.362-20.41-31.512-36.06-4.463-7.62 4.3-5.65 5.775-2 6.975 7.27 12.5 15.98 20.287 22.42 5.138 1.27 2.901-7.65-0.412-8.31-13.575-14.39-26.739-29.66-35.226-47.7-1.088-4.41-3.312-12.86 2.588-14.88 18.587 9.73 27.05 31.91 46.687 39.91 3.825 1.3 5.888-3.37 3.4-6.01-17.374-21.97-30.887-48.66-30.849-77.22-1.4-8.93 9.536-22.15 17.799-13.7 14.387 26.61 27.2 54.8 47.588 77.49 2.91 4.26 12.14 7.11 14.14 0.81-8.69-22.46-21.127-44.89-18.84-69.83-0.087-5.62 4.49-10.13 9.24-12.45zm1041 14.79c7.6 0.3 16.7 11.39 15.2 15.9-6-5.26-35.3-8.95-18.4-15.31 1-0.45 2.1-0.63 3.2-0.59zm28.2 9.58c15.4-0.11 20.5 20.24 22.9 32.92 0.5 18.39 7.5 40.5-4.8 56.57-5.3 5.57-12.7-0.86-13.8-6.81 0.9-17.3 20.4-30.65 11.5-48.82-3.3-12.25-26.3-20.61-20.9-33.14 1.8-0.48 3.5-0.71 5.1-0.72zm31.9 23.11c20.9 0.41 17.7 32.31 15.9 47.02-1.5 11.59-12.3 34-24.6 23.17 14.6-21.03 3.6-49.28 5.4-70.02 1.2-0.13 2.3-0.19 3.3-0.17zm23.6 25.01c14.2 4.27 13.6 35.4-4.9 33.51 2.2-11.08 3.2-22.36 4.9-33.51zm-78.9 6.3c6.8 4.92 8.4 20.23 22 17.93 5.3 5.97-6.2 17.33-13.6 15.32-8.2-8.99-6.7-22.05-8.4-33.25zm-4.8 18.62c2.8 7.18 8 25.38 21.2 18.99 5.6-5.21 11-1.55 15.1 3.8 4.3 0.35 16.1 0.29 14.3 7.28-16.6 0.02-33.2-2.13-49.2-6.6-5.4-6.1-2.6-15.98-1.4-23.47zm-687.39 21.22c10.83 16.41 19.99 38.96 38.37 51.27 26.46 22.33 65.6 32.65 79.67 67.07 14.24 3.17 10.61-19.44 17.61-24.46 14.61 29.14 29.19 59.06 36.66 90.89 5.24 4.84 6.07-5.81 8.68-8.62 6.68-16.25 25.94-27.86 43.07-19.9 29.08 21.95 27.68 82.62-14.63 86.97-7.95 26.29-3.24 56.03-6.38 83.6-5.78 29.16-5.97 60.12 4.28 88.12-5.41 21.77-2.08 44.19 2.12 65.86-8.23 23.11-23.02 45.42-44.3 58.27-5.21 2.79-14.37 6.16-17.75-0.62-14.06-26.87-4.23-60.18-21.51-85.94-15.46-28-48.38-38.21-78.33-40.39-30.7-3.55-70.03-27.51-64.06-62.42 24.73-2.45 52.11-6.09 74.84-18.59 10.92-7.34 13.41-35.51-5.06-33.7-32.19 3.09-64.51 11.92-96.95 5.95-25.16-8.39-11.29-44.76-28.58-60.36-9.22-1.49-19.35 3.5-27.92-1.89-22.28-8.78-25.8-44.83-3.94-56.35 13.39-9.2 32.4-6.75 43.86-19.11 6.33-59.11 31.59-114.34 60.25-165.65zm-8.15 50.01c-4.53 0.9-4.82 8.36 0.49 7.53 17.84 0.61 37.04 3.62 49.09 18.34 1.31 3.2 8.76 6.58 8.28 0.84-10.35-20.94-36.51-27.12-57.86-26.71zm499.3 45.16c7.61-0.24 11.76 9.01 14.58 15.09 7.9 39.06 7.64 80.31-4.4 118.5-2.86 6.26-10.27 7.05-16.33 5.95-1.04-33.46 0.68-66.97-0.77-100.43-1.45-12.9-7.88-30.37 6.17-39.06 0.25-0.03 0.5-0.04 0.75-0.05zm-498.12 15.61c-0.71-0.01-1.47 0.03-2.29 0.14-6.84 7.06-10.25 16.7-12.4 26.09 11.71 27.62 36.85-25.97 14.69-26.23zm209.81 57.26c-17.23 1.51-11.85 26.04-7.99 36.59 4.52 7.62 10.58-3.72 16.17 0.35 4.82 4.85-10.14 14.66-0.09 17.29 14.26-6.26 8.2-32.98-9.2-24.06-3.98-4.16-7.19-24.81 5.4-23.15 8.25-0.4 18.18 10.32 25.11 3.79-5.9-8.74-19.54-10.67-29.4-10.81zm296.07 71.99c0.91-0.03 1.71 0.14 1.96 1.13 8.67 22.68 17.76 45.23 27.41 67.49-12.68 19.37-27.3 38.4-43.22 55.29-4.22-8.74-11.81-17.57-21.67-11.75-61.07 34.61-116.59 78.08-176.06 115.29-21.15 17.89-49.03-1.84-73.43 1.08-2.4-13.64-6.25-28.3-2.19-42.04 63.15 4.85 130.33-8.31 180.19-49.46 42.54-32.62 70.39-80.46 88.25-130.31 1.54-7.44 10.44-5.68 16.1-6.58 0.71 0.15 1.74-0.1 2.66-0.14zm-442.47 73.97c13.31 6.12-12.67 23.56-21.4 18.66 5.04-7.28 12.57-15.17 21.4-18.66zm-166.17 28.81c72.4 49.43 147.32 99.35 221.84 147.26 6.92 3.69-3.99 6.94-6.88 9.08-53.58 36.22-96.6 85.27-146.2 126.31-4.68 4.3-12.24 8.3-17.53 2.9-52.69-41.06-107.62-79.69-156.54-125.2-3.11-14.08 5.18-28.9 11.27-41.78 24.12-44.6 57.87-83.39 94.04-118.57zm578.89 14.21c3.22-0.19 5.89 1.99 7.09 5.21 27.23 52.2 50.44 106.66 68.44 162.71 2 7.86 8 19.2-1.5 24.71-48.31 36.59-103.24 63.91-150.77 101.71-34.59-57.86-75-111.91-113.15-167.39-2.7-3.96 2.66-6.36 5.41-7.88 61.7-37.29 118.16-82.87 181.11-118.03 1.16-0.64 2.29-0.97 3.37-1.04zm-251.32 119.21c3.54 1.23 13.96-1.08 10.39 6.97-12.89 40.56-42.41 76.81-81.78 94.05-11.43 1.89-17.7-10.62-20.64-19.7-4.01-19.87-4.18-40.59-0.46-60.53 0.64-2.67 3.05-8.27 6.25-4.95 2.65 18.35 2.6 38.68 14.58 54.02 6.11 4.88 14.45 1.17 20.72-1.53 26.55-13.61 40.26-42.61 50.94-68.33zm17.55 1.38c11.71 0.17 24.06 1.42 35.13 5.19 40.11 55.32 80.62 110.71 115.31 169.66 9.61 13.5 8.84 30.5 11.62 46.1 9.9 93 17.11 186.3 23.26 279.5-40.23 51.8-110.07 71.9-173.44 68.1-60.14 3.6-119.04-12.5-175.88-29.1-27.36-11.3-57.58-17.7-82.11-34.6-13.65-113.3-25.68-226.8-39.13-340.2-0.41-1.6 0.19-3.2 1.22-4.5 58.71-42.6 103.53-103.54 167.48-138.92-1.32 22.71-5.36 47.12 4.65 68.52 4.14 10.6 17.35 20.49 28.55 13.74 41.3-19.9 72.1-59.22 83.34-103.49zm181.44 516.45c4.09 0.1 3.02 8.1 4.46 11.8 2.96 26.9 14.15 52.7 14.46 79.7-37.65 17.6-84.57-7.2-103.26-41.6 30.42-11.1 60.28-27.1 83.93-49.9h0.41zm-424.38 1c13.18 0.3 24.2 9.6 36.58 13.5 0.41 24.4-11.41 48.7-27.2 67.2-1.09 2-5.38 2.7-4.9-0.5-1.14-26.8-4.4-53.4-4.48-80.2zm46.19 16.1c3.13 0 6.03 2.8 8.76 4.1-6.24 33.1-23.62 65.2-49.19 87.2-1.28-5.9-2.52-13.4 2.94-17.5 20.75-19 29.88-46.6 35.29-73.4 0.74-0.3 1.48-0.4 2.2-0.4zm16.49 7.5c10.59-0.1 20.32 5.6 30.58 7.8 73.15 23.9 150.82 30.7 227.16 23.7 15.76 27.3 41.37 48.2 71.51 57.6 23.91 67 41.38 138.1 74.25 202 75.88 62.1 145.56 132.5 222.46 193.9 1.9 4.1 14.3 3.8 9.8 9.8-15.2 20.4-33.3 38.4-51.6 56-6.5 5.2-12.9 13.4-22.4 11-58-31-116.21-62-172.09-96.9-54.01-34.7-113.18-69.4-145.26-127.2-32.76-57.7-61.15-117.9-94.77-175.1-4.7-5.7-7.79-16.1-16.96-15.3-8.55 13.1-8.38 29.3-10.17 44.3-7.81 65.7-2.77 132-1.21 198 2.97 64.8 57.66 109.2 94.57 156.3-26.36 17.7-54.8 36.5-86.72 41.1-19.6-11.9-34.13-30.3-50.53-46-38.32-45.5-79.66-89.6-110.37-140.9-16.3-24.7-8.31-55.7-12.99-83.4-2.94-75.3-9.89-150.4-10.44-225.8 26.69-23.9 44.45-56.4 53.05-90.8 0.72-0.1 1.43-0.1 2.13-0.1zm270.05 26.5c22.56 36 67.7 64.3 110.63 47.1 7.63-4.7 7.29 11.6-0.52 9.5-43.34 12.7-89.5-9.9-113.09-46.7-0.56-3-7.92-7.4-2.71-9.6 1.42-0.1 4.26-0.3 5.69-0.3zm115.11 61.9c1.63 0.1 3.12 0.5 4.34 1.8 12.18 52 25.48 104.1 40.77 155.4 5.25 19.6 23.97 30.3 37.77 43.5 59.72 52.2 122.52 100.7 183.52 151.4 5.2 4.8 16.5 11.4 8.9 19.1-7.3 8.4-9.8 28-23.5 25.8-73.8-58.2-140.4-125-212.51-185.2-19.98-10.6-25.81-33.3-33.59-52.7-19.2-49.2-35.3-99.5-51.6-149.7-3.51-16.3 25.61-3.7 34.8-8.4 3.28 0.6 7.51-1.1 11.1-1zm-250.14 66.9c11.7 10.1 19.85 29 28.62 43.4 3.22 70.9 0.61 143.3 16.72 213.1 6.06 37.1 28.71 68.1 52.94 95.7 10.97 10.5-0.67 29.6-12.97 30.9-37.55-39.2-79.37-80.6-93.06-134.8-3.44-60.1-4.97-120.4-3.56-180.7 3.69-22.4 1.49-46.7 11.31-67.6zm526.14 313.6c12.3 5.4 29.2 18.8 19.3 34.3-8.4 21.2-16.6 42.7-27.6 62.6-36.6 15.5-65.6 46.7-86 79-4.5-21.2-0.4-49.9 0.4-74.4 37.2-26.4 68.5-63.1 93.9-101.5zm33 22.1c9.1-0.1 20.2 7.7 14.9 17-26.6 60.6-55.4 120.2-84.3 179.7-6.2 11.5-26.6 34-38.6 18.3 37.5-51.1 59.8-111.7 86.7-169 7.1-14.7 12.2-30.2 17.6-45.5 1.2-0.4 2.4-0.5 3.7-0.5zm-452.76 39.3c13.2 8.6 24.31 28 25.67 45.3-14.8 21.2-36.19 37.4-57.7 51.4-38.2-7-79.14 0.8-113.75 18.9 7.3-19.1 21.52-35 34.3-50.7 40.96-12.9 82.46-32.3 111.48-64.9zm405.76 45.2c2.2-0.1-0.2 5.5-0.9 7.4-18 38.4-34.4 78.3-60.1 112.4-5.1 9.6-21.3 6.6-23.2-3.8-6-18.4 4.1-36.7 14-51.7 18.2-26 40.7-51.1 70.2-64.3zm-375.7 4.9c7.95 1.7 11.11 17.1 1.56 21.8-43.01 42.7-96.91 73.2-152.67 96.2-6.63 5.1-19.71 2.7-19.3-6.8 62.77-25.5 124.97-60 170.41-111.2zm-83.78 49.4c5.36-0.1 10.71 0.2 15.96 1.3-32.47 21.2-66.56 42.4-103.84 54.3-16.25 6.7-14.95-19.6-8.93-27.8 22.6-18.3 52.4-24.6 80.79-26.9 5.29-0.4 10.66-0.8 16.02-0.9z" transform="scale(.8)" fill="#191919"/>
<path id="path8" d="m1197.6 14.283c-6.9 0.057-13.8 0.522-20.6 1.416-91.5 8-170.7 92.811-167.1 185.5-3.4 53.49 21.8 106.05 60.4 142.14 4 2.42 7.8 9.07 13.3 7.41-0.9-14.33 3-28.01 6.3-41.7-36.6-38.9-51.4-96.25-36.2-147.83 19.6-74.045 102.2-122.63 176.8-104.2 74 14.78 128.9 92.55 115.1 167.39-5.9 55.53-47.7 103.83-100.2 121.31-1.1 6.2 0.5 12.68-1.4 18.74-4.1 16.49-29 8.09-30 26.68 70.9-4.35 135.8-54.34 160.2-120.68 20.7-51.75 14.9-112.72-12.5-160.93-32.4-58.152-97.7-95.798-164.1-95.247zm-51.2 348.34c-1.2 7.49-4 17.37 1.4 23.47 16 4.47 32.6 6.62 49.2 6.6 1.8-6.99-10-6.93-14.3-7.28-4.1-5.35-9.5-9.01-15.1-3.8-13.2 6.39-18.4-11.81-21.2-18.99zm61.9 1530.9c-1.3 0-2.5 0.1-3.7 0.5-5.4 15.3-10.5 30.8-17.6 45.5-26.9 57.3-49.2 117.9-86.7 169 12 15.7 32.4-6.8 38.6-18.3 28.9-59.5 57.7-119.1 84.3-179.7 5.3-9.3-5.8-17.1-14.9-17zm-422.7 89.4c-45.44 51.2-107.64 85.7-170.41 111.2-0.41 9.5 12.67 11.9 19.3 6.8 55.76-23 109.66-53.5 152.67-96.2 9.55-4.7 6.39-20.1-1.56-21.8z" transform="scale(.8)" fill="#a56111"/>
<path id="path10" d="m105.39 265.21c-4.75 2.32-9.327 6.83-9.24 12.45-2.287 24.94 10.15 47.37 18.84 69.83-2 6.3-11.23 3.45-14.14-0.81-20.388-22.69-33.201-50.88-47.588-77.49-8.263-8.45-19.199 4.77-17.799 13.7-0.038 28.56 13.475 55.25 30.849 77.22 2.488 2.64 0.425 7.31-3.4 6.01-19.637-8-28.1-30.18-46.687-39.91-5.9 2.02-3.676 10.47-2.588 14.88 8.487 18.04 21.651 33.31 35.226 47.7 3.313 0.66 5.55 9.58 0.412 8.31-7.787-6.44-13.312-15.15-20.287-22.42-1.475-3.65-10.238-5.62-5.775 2 5.15 15.65 17.337 28.1 31.512 36.06 19.062 20.05 43.774 33.32 66.785 48.23 27.55 25.5 42.08 60.57 59.56 92.96 38.22 73.05 77.87 146.35 116.46 218.57 16.13-17.04 33.25-34.6 48.75-52.64-33.64-57.08-67.45-114.1-101.35-171.04-38.1-65.45-62.91-145.51-35.92-219.81 2.15-6.82 8.85-25.83-4.58-23.65-13.53 6.37-19.79 21.06-27.17 33.14-7.99 19.25-23.65 34.08-31.54 53.36-1.5 2.88-2.78 7.58-7.02 6.57 0.2-18.49 18.85-30.39 23.61-46.9-17.61-29.17-31.66-64.18-56.92-86.32zm1041 14.79c-1.1-0.04-2.2 0.14-3.2 0.59-16.9 6.36 12.4 10.05 18.4 15.31 1.5-4.51-7.6-15.6-15.2-15.9zm-32.6 7.27c-4.2-0.05-8 1.01-9.9 5.39-20.1 35.29-18.1 79.7-1.1 115.85 6.7 15.78 18.9 31.59 11.6 49.46-27.1 112.07-96.9 207.9-166.7 297.23 11.8 27.81 25.66 54.92 36.41 83.27 1.92 2.34 1.93 9.89 6.38 7.22 101.51-113.15 172.61-253.93 198.61-404.04 0.4-16.5 22.1-14.94 28.5-27.84 4.1-2.37 5.4-15.83 11.5-12.38 0.4-1.72 0.7-3.46 0.8-5.21-28.2 2.79-56.6 1.6-84.7-2.02-11.7-18.78-5.3-46.21 6.4-63.95 8.4 2.43 4.7 19.17 13.7 23.45 14.1 9.81 24.7-14.09 20.9-25.84-11.7-22.2-36.7-33.38-60.1-39.33-3.5-0.06-8.1-1.22-12.3-1.26zm60.8 2.31c-1.6 0.01-3.3 0.24-5.1 0.72-5.4 12.53 17.6 20.89 20.9 33.14 8.9 18.17-10.6 31.52-11.5 48.82 1.1 5.95 8.5 12.38 13.8 6.81 12.3-16.07 5.3-38.18 4.8-56.57-2.4-12.68-7.5-33.03-22.9-32.92zm31.9 23.11c-1-0.02-2.1 0.04-3.3 0.17-1.8 20.74 9.2 48.99-5.4 70.02 12.3 10.83 23.1-11.58 24.6-23.17 1.8-14.71 5-46.61-15.9-47.02zm23.6 25.01c-1.7 11.15-2.7 22.43-4.9 33.51 18.5 1.89 19.1-29.24 4.9-33.51zm-78.9 6.3c1.7 11.2 0.2 24.26 8.4 33.25 7.4 2.01 18.9-9.35 13.6-15.32-13.6 2.3-15.2-13.01-22-17.93zm-692.19 39.84c-28.66 51.31-53.92 106.54-60.25 165.65-11.46 12.36-30.47 9.91-43.86 19.11-21.86 11.52-18.34 47.57 3.94 56.35 8.57 5.39 18.7 0.4 27.92 1.89 17.29 15.6 3.42 51.97 28.58 60.36 32.44 5.97 64.76-2.86 96.95-5.95 18.47-1.81 15.98 26.36 5.06 33.7-22.73 12.5-50.11 16.14-74.84 18.59-5.97 34.91 33.36 58.87 64.06 62.42 29.95 2.18 62.87 12.39 78.33 40.39 17.28 25.76 7.45 59.07 21.51 85.94 3.38 6.78 12.54 3.41 17.75 0.62 21.28-12.85 36.07-35.16 44.3-58.27-4.2-21.67-7.53-44.09-2.12-65.86-10.25-28-10.06-58.96-4.28-88.12 3.14-27.57-1.57-57.31 6.38-83.6 42.31-4.35 43.71-65.02 14.63-86.97-17.13-7.96-36.39 3.65-43.07 19.9-2.61 2.81-3.44 13.46-8.68 8.62-7.47-31.83-22.05-61.75-36.66-90.89-7 5.02-3.37 27.63-17.61 24.46-14.07-34.42-53.21-44.74-79.67-67.07-18.38-12.31-27.54-34.86-38.37-51.27zm-8.15 50.01c21.35-0.41 47.51 5.77 57.86 26.71 0.48 5.74-6.97 2.36-8.28-0.84-12.05-14.72-31.25-17.73-49.09-18.34-5.31 0.83-5.02-6.63-0.49-7.53zm1.18 60.77c22.16 0.26-2.98 53.85-14.69 26.23 2.15-9.39 5.56-19.03 12.4-26.09 0.82-0.11 1.58-0.15 2.29-0.14zm209.81 57.26c9.86 0.14 23.5 2.07 29.4 10.81-6.93 6.53-16.86-4.19-25.11-3.79-12.59-1.66-9.38 18.99-5.4 23.15 17.4-8.92 23.46 17.8 9.2 24.06-10.05-2.63 4.91-12.44 0.09-17.29-5.59-4.07-11.65 7.27-16.17-0.35-3.86-10.55-9.24-35.08 7.99-36.59zm513.45 1319.5c-25.4 38.4-56.7 75.1-93.9 101.5-0.8 24.5-4.9 53.2-0.4 74.4 20.4-32.3 49.4-63.5 86-79 11-19.9 19.2-41.4 27.6-62.6 9.9-15.5-7-28.9-19.3-34.3zm-419.76 61.4c-29.02 32.6-70.52 52-111.48 64.9-12.78 15.7-27 31.6-34.3 50.7 34.61-18.1 75.55-25.9 113.75-18.9 21.51-14 42.9-30.2 57.7-51.4-1.36-17.3-12.47-36.7-25.67-45.3zm405.76 45.2c-29.5 13.2-52 38.3-70.2 64.3-9.9 15-20 33.3-14 51.7 1.9 10.4 18.1 13.4 23.2 3.8 25.7-34.1 42.1-74 60.1-112.4 0.7-1.9 3.1-7.5 0.9-7.4zm-459.48 54.3c-5.36 0.1-10.73 0.5-16.02 0.9-28.39 2.3-58.19 8.6-80.79 26.9-6.02 8.2-7.32 34.5 8.93 27.8 37.28-11.9 71.37-33.1 103.84-54.3-5.25-1.1-10.6-1.4-15.96-1.3z" transform="scale(.8)" fill="#f6c870"/>
</g>
<path id="path30" fill="#fb7eaf" d="m759.53 383.25c6.47-0.71 9.93 7.01 12.26 12.03 6.32 31.25 6.11 64.25-3.52 94.8-2.29 5.01-8.21 5.64-13.06 4.76-0.83-26.77 0.54-53.58-0.62-80.34-1.16-10.32-6.3-24.3 4.94-31.25z"/>
<path id="path36" d="m515.45 697.84c-8.83 3.49-16.36 11.38-21.4 18.66 8.73 4.9 34.71-12.54 21.4-18.66zm-166.17 28.81c-36.17 35.18-69.92 73.97-94.04 118.57-6.09 12.88-14.38 27.7-11.27 41.78 48.92 45.51 103.85 84.14 156.54 125.2 5.29 5.4 12.85 1.4 17.53-2.9 49.6-41.04 92.62-90.09 146.2-126.31 2.89-2.14 13.8-5.39 6.88-9.08-74.52-47.91-149.44-97.83-221.84-147.26zm578.89 14.21c-1.08 0.07-2.21 0.4-3.37 1.04-62.95 35.16-119.41 80.74-181.11 118.03-2.75 1.52-8.11 3.92-5.41 7.88 38.15 55.48 78.56 109.53 113.15 167.39 47.53-37.8 102.46-65.12 150.77-101.71 9.5-5.51 3.5-16.85 1.5-24.71-18-56.05-41.21-110.51-68.44-162.71-1.2-3.22-3.87-5.4-7.09-5.21zm-233.77 120.59c-11.24 44.27-42.04 83.59-83.34 103.49-11.2 6.75-24.41-3.14-28.55-13.74-10.01-21.4-5.97-45.81-4.65-68.52-63.95 35.38-108.77 96.32-167.48 138.92-1.03 1.3-1.63 2.9-1.22 4.5 13.45 113.4 25.48 226.9 39.13 340.2 24.53 16.9 54.75 23.3 82.11 34.6 56.84 16.6 115.74 32.7 175.88 29.1 63.37 3.8 133.21-16.3 173.44-68.1-6.15-93.2-13.36-186.5-23.26-279.5-2.78-15.6-2.01-32.6-11.62-46.1-34.69-58.95-75.2-114.34-115.31-169.66-11.07-3.77-23.42-5.02-35.13-5.19z" transform="scale(.8)" fill="#ff9744"/>
<path id="path42" d="m676.85 860.07c-10.68 25.72-24.39 54.72-50.94 68.33-6.27 2.7-14.61 6.41-20.72 1.53-11.98-15.34-11.93-35.67-14.58-54.02-3.2-3.32-5.61 2.28-6.25 4.95-3.72 19.94-3.55 40.66 0.46 60.53 2.94 9.08 9.21 21.59 20.64 19.7 39.37-17.24 68.89-53.49 81.78-94.05 3.57-8.05-6.85-5.74-10.39-6.97zm-179.2 534.93c-0.72 0-1.46 0.1-2.2 0.4-5.41 26.8-14.54 54.4-35.29 73.4-5.46 4.1-4.22 11.6-2.94 17.5 25.57-22 42.95-54.1 49.19-87.2-2.73-1.3-5.63-4.1-8.76-4.1zm286.54 34c-1.43 0-4.27 0.2-5.69 0.3-5.21 2.2 2.15 6.6 2.71 9.6 23.59 36.8 69.75 59.4 113.09 46.7 7.81 2.1 8.15-14.2 0.52-9.5-42.93 17.2-88.07-11.1-110.63-47.1z" transform="scale(.8)" fill="#fcfdfb"/>
</g>
</svg>
