<?xml version="1.0" encoding="UTF-8" standalone="no"?>
<svg xmlns:rdf="http://www.w3.org/1999/02/22-rdf-syntax-ns#" xmlns="http://www.w3.org/2000/svg" height="1727pt" width="1431pt" version="1.1" xmlns:cc="http://creativecommons.org/ns#" xmlns:dc="http://purl.org/dc/elements/1.1/" viewBox="0 0 1431 1727">
<path fill="#040100" d="m773.62 0h32.95c9.46 0.61 19.34 2.62 28.68 0h7.38c112.43 5.12 223.47 29.8 331.37 61 36.1 12.19 70.3 29.29 104.9 45.08 35.4 22.17 68.4 48.96 92.4 83.62 11.3 9.83 16.3 25.27 14.5 40.01-26.2 38.01-76.4 44.48-119 46.8-93.5-0.82-169.2-61.74-251-98.28-50.14-26.31-102.69-49.15-158.68-59.33-106.54-34.87-219.47-61.17-332.07-45.85-19.93 1.74-38.07 10.91-57.28 15.72-31.86 10.42-65.44 19.02-92.67 39.37-6.76 3.98-18.39 4.25-18.98 14.12-61.37 21.42-122.49 50.22-188.3 57.59-2.77 2.14-13.8 2.84-9.36-2.08 67.96-26.35 133.13-61.21 198.57-93.78 16.59-3.24 29.45-14.96 45.62-19.33 9.25-4.1 19.71-5.83 27.71-12.37 23.49-15.42 54.27-13.35 76.79-30.19 85.92-28.13 176.51-38.81 266.47-42.1m11.9 4.55c-11.78 1.42-28-1.13-37.24 2.33 82.75 6.47 164.88 20.98 244.67 44.17 78.45 21.56 156.65 44.46 232.05 74.98 33.3 15.01 67.7 28.52 97.1 50.84 20.9 16.53 49.3 30.32 53 59.82 14.7-16.11-2.9-40.3-16.3-52.45-9.4-15.63-21.5-29.86-36.5-40.52-65.5-53.06-148-77.05-227.7-99.34-64.3-17.54-130.52-28.07-196.73-35.24-37.17-6.13-74.83-5.44-112.35-4.59m-101.96 9c-43.11 0.2-88.89 12.38-129.27 21.41 117.3-17.48 237.19 2.95 348.75 41.04 25.28 6.22 48.54 18.08 72.07 28.87 56.79 22.99 111.69 50.87 164.99 81.07 40 22.87 82.6 40.5 124.6 59.45 33.9 5.87 72.6 18.12 103.5-3.35 5.3-12.33-7.8-21.1-10.4-31.22-19.2-9.85-32.1-28.13-50.5-39.13-90.2-52.01-191.8-78.04-290.6-108.43-46.84-12.11-92.73-29.05-141.09-34.8-62.63-15.27-127.86-15.82-192.05-14.91m-60.82 20.94c-54.38 2.97-109.48 11.3-159.72 33.56-22.72 4.51-41 16.89-62.99 22.99-13.47 4.5-23.1 16.96-37.82 18.12-41.75 18.37-81.85 40.19-122.79 60.28-13.49 6.36-29.34 10.92-41.12 18.65 20.47-3.2 39.93-10.84 60-15.77 32.26-15.1 70.67-19.05 97.87-43.23 20.9-3.79 33.23-22.51 54.27-25.63 29.08-17.16 62.78-22.57 95.06-30.95 106.91-20.81 216.49-0.9 319.53 29.44 57.53 17.12 116.23 32.63 169.06 61.96 53.61 21.71 101.61 55.16 155.11 76.93 57.6 26.66 124.3 39.57 185.9 19.05-29.5-1.44-64.2-1.12-91.2-17.8-34.3-15.69-70.4-27.96-101.8-49.18-158.75-88.43-334.01-164.89-519.36-158.42z"/>
<path fill="#ffff6f" d="m785.52 4.55c37.52-0.85 75.18-1.54 112.35 4.59 66.21 7.17 132.43 17.7 196.73 35.24 79.7 22.29 162.2 46.28 227.7 99.34 15 10.66 27.1 24.89 36.5 40.52 13.4 12.15 31 36.34 16.3 52.45-3.7-29.5-32.1-43.29-53-59.82-29.4-22.32-63.8-35.83-97.1-50.84-75.4-30.52-153.6-53.42-232.05-74.98-79.79-23.19-161.92-37.7-244.67-44.17 9.24-3.46 25.46-0.91 37.24-2.33z"/>
<path fill="#c77f2a" d="m683.56 13.55c64.19-0.91 129.42-0.36 192.05 14.91 48.36 5.75 94.25 22.69 141.09 34.8 98.8 30.39 200.4 56.42 290.6 108.43 18.4 11 31.3 29.28 50.5 39.13 2.6 10.12 15.7 18.89 10.4 31.22-30.9 21.47-69.6 9.22-103.5 3.35-42-18.95-84.6-36.58-124.6-59.45-53.3-30.2-108.2-58.08-164.99-81.07-23.53-10.79-46.79-22.65-72.07-28.87-111.56-38.09-231.45-58.52-348.75-41.04 40.38-9.03 86.16-21.21 129.27-21.41z"/>
<path fill="#ffff80" d="m622.74 34.49c185.35-6.47 360.61 69.99 519.36 158.42 31.4 21.22 67.5 33.49 101.8 49.18 27 16.68 61.7 16.36 91.2 17.8-61.6 20.52-128.3 7.61-185.9-19.05-53.5-21.77-101.5-55.22-155.11-76.93-52.83-29.33-111.53-44.84-169.06-61.96-103.04-30.34-212.62-50.25-319.53-29.44-32.28 8.38-65.98 13.79-95.06 30.95-21.04 3.12-33.37 21.84-54.27 25.63-27.2 24.18-65.61 28.13-97.87 43.23-20.07 4.93-39.53 12.57-60 15.77 11.78-7.73 27.63-12.29 41.12-18.65 40.94-20.09 81.04-41.91 122.79-60.28 14.72-1.16 24.35-13.62 37.82-18.12 21.99-6.1 40.27-18.48 62.99-22.99 50.24-22.26 105.34-30.59 159.72-33.56z"/>
<path fill="#040100" d="m803.76 184.82c9.47-8.21 18.27-17.25 28.24-24.86 3 4.8 2.75 12.65 10.4 12.68 19.76 6.02 22.9 31.91 10.8 46.61 3.74 7.61 16.21 11.26 17.13 21.94-0.08 3.54 0 7.12-0.16 10.67 0.63 6.82-8.69 16.61-0.1 21.04 15.58 7.53 16.92 29.71 6.99 42.23 14.82 4.65 23.42 23.74 13.73 36.83-6.17 8.29 11.2 8.99 13.71 15 2.41 7.64-1.24 15.24-4.37 22.06 8.21 6.17 19.3 14.12 15.1 26.02-0.72-0.81-1.41-1.61-2.09-2.41 1.46-11.17-8.03-22.78-19.95-16.44 0.26 10.14 3.55 19.91 7.44 29.17 1.38 3.08 4.35 0.56 5.67-1.16 0.91 0.24 1.83 0.5 2.77 0.76-2.06 3.33-7.66 6.55-4.95 10.92 7.08 13.28-2.88 32.44-18.09 33.7-7.02-1-12.8-5.7-19.21-8.35-2.25 9.54-4.73 21.02-15.17 24.94-7.32 3.79-14.46-4.34-20.26-5.3-2.29 11.99-18.67 21.93-28.23 12.58 6.98-34.34 5.07-70.36 8.1-105.43-2.21-0.81-2.84 2.87-3.11 4.5-2.58 30.54-4.76 61.19-10.1 91.37-5.09 10.21-3.37 22.05-2.38 32.93 14.08 13.39 34.44 15.61 52.73 19.02 78.25 4.32 152.8-24.02 229.2-36.39 41.6-2.57 64.5-44.46 93-68.85 62.6-57.33 122.6-120.12 193.2-168.67 7.6-5.41 17.1-5.15 25.8-3.33 9.6-13.75 27.7-12.36 41.4-19.16v0.92c-9 19.75-13.2 42.35-30.3 57.39-16.1 10.39-32 21.77-50.6 27.3-55.6 30.35-79.5 92.97-122.1 136.93-28.3 33.32-61.3 62.24-98.1 85.93-27.1 22.24-63.7 21.17-95.1 33-46.36 6.08-92.24 18.79-137.02 30.26 44.15-23.66 95.83-25.86 143.92-36.43 63.3-10.89 118.2-49.75 162.3-94.7 14.2-16.24 32-29.23 43-48.02 28.6-34.49 47.7-78.72 87.3-102.66 9.5-8.11 21.8-10.96 32.7-16.34 27.9-13.05 50.5-38 57.6-68.11-26.3 4.03-42.6 28.73-65.8 39.68 2.8-10.74 15.8-15.63 24-22.3-20.7-0.95-34.2 17.96-48.7 29.84-65.7 44.11-119.7 102.82-175.7 158.35-24.1 32.93-61.3 52.81-100.9 60.13-44.4 4.17-86.85 18.79-130.66 26.26-43.98 6.6-94.08 10.35-132.78-15.85-3.19 16.5-4.38 33.74-0.29 50.16 1.42 3.81-5.23 3.67-5.2 0.24-10.44-36.99 6.86-73.12 7.93-110.03-11.7 5.1-32.37 5.04-36.34-10.96-2.12-10.2 8.4-15.04 16.72-12.74 13.31 1.31 4.17-14.89-2.91-17.12-17.21-3.47-23.12 19.57-38.62 22.77 16.6 24.72 5.47 55.77-9.01 78.93-13.24 16.79-36.89 13.33-55.78 13.1 27.36 14.17 52.91 31.49 80.16 45.89 34.21 28.03 70.04 54.39 99.64 87.56 4-15.27 15.24-27.46 22.28-41.32 0.88 5.74 6 11-2.68 13.47-14.88 35.98-41.31 66.86-49.11 105.64-8.47 19.14-21.14 36.79-34.84 51.99 5.4 0.43 11.26 6.14 17.3 8.11 93.93 35.06 181.02 88.38 254.89 156.07 59 53.42 107.2 119.82 130.4 195.52 15.8 50.4 20.2 104.1 15.3 156.3-11.6 41-22.1 82.9-40.5 120.8-38.1 84.3-105.7 151-180.28 203.7-54.84 29.7-115.53 48.7-177.72 54.2-16.39 3.2-35.08-1-48.57 10.8-29.56 9.5-58.64 23.4-90.4 22.9h-18.92c-32-4.2-64.56-8-94.42-21.1-23.85-11.8-47.84-28.2-56.25-54.9-68.54 41.7-152.1 52.2-230.64 41.9-36.22-12.3-70.72-28.7-105.37-44.7-44.21-24.6-80.08-61.2-114.18-97.9-20.18-39.7-42.64-81.8-46.65-127.9v-18.7c1.35-22.2 8.05-44.2 25.38-59.3 19.57-28.3 60.06-25 86.77-9.6 24.11 11.8 34.7 40.8 59.93 50.8 37.97-32.4 69.73-72.7 105.5-108 12.86-10.6 27.25-22 37.94-33.5-47.3-9.3-89.86-34-132.15-56.5-39.35-30.8-85.42-55.7-113.55-98.4-12.5-23.3-25.61-47.2-29.59-73.7-7.59-39.47 35.59-71.75 72.4-65.97-13.26-33.5-44.24-56.02-57.36-89.79-2.3-8.63-11.49-12.86-13.18-21.83-19.43-49.11-48.34-100.98-31.46-155.28 8.46-20.95 23.91-43.52 47.27-48.84 27.1-16.61 60.44-13 89.03-2.66 35.71 14.29 53.42 50.6 79.9 76.05 13.23 14.64 33.38 21.45 48.04 32.98-34.89 0.08-60.81-36.31-93.24-46.57-18.37 25.35 7.14 52.17 24.64 69.14 26.55 33.28 65.56 51.47 101.13 72.92 27.79 12.19 55.25 26.94 85.67 31.41-34.68-14.67-71.97-38.87-81.01-78.01-6.96-16.43-3.22-34.83 0.24-51.61 8.48-18.7 27.15-30.14 45.41-37.8 43.67-8.68 91.8 11.63 114.17 50.49-10.14 0.37-27.29-13.42-34.04-0.22-12.7 22.67 6.28 46.14 22.81 60.45 28.3 19.59 61.9 28.72 95.1 35.54 27.11-43.58 57.79-85.86 74.88-134.73-1.98-5.2-8.97-5.37-12.39-9.48-33.69-18.75-64.36-43.59-100.2-58.71-37.23-24.84-77.81-43.88-116.1-66.91-15.85-12.75-33.94-22.12-51.09-32.9-39.13-29.69-77.87-60.71-109.01-98.99-47.56-47.74-86.83-108.45-92.91-177.01 1.74-13.1-10.41-21.61-13.69-33.43-6.29-22.42-25.65-38.69-39.07-55.52 22.07 6.2 39.76 22.05 57.57 35.71 0.12-3.59-1.83-11.25 3.84-10.86 2.53 2.67 3.53 7.47 7.84 7.74 23.99 4.46 49.88 8.38 65.83 28.94 59.79 48.97 109.5 109.35 172.91 154.09 21.92 14.06 44.45 27.19 65.7 42.3 42.38 24.77 86.91 45.64 130.02 68.98 26.62 7.62 50.79 24.26 78.96 25.09 6.74 0.87 13.55 1.08 20.31 0.03 31.9-5.62 49.06-50.32 34.96-78.25-3.77-10.59-15.92-2.39-23.42-6.74-24.02-10.58-33.42-36.91-42.68-59.33-3.54-14.71-12.11-29.36-7.02-44.88-15.17 4.8-15.3 26.45-5.88 36.95 10.03 12.74 21.34 29.67 12.93 46.01-16.64 9.5-42.31-7.76-38.45-27.11 3.73-6.33 9.56-3.16 10.57 3 5.86-1.93 5.67-10.81 1.75-14.66-8.16-10.04-24.32-17.49-22.22-32.47 3.45-10.98 9.71-21.07 18.52-28.55 10.53-17.33 7.38-38.9 13.12-57.78 4.11-12.51 18.71-15.44 25.54-25.83-4.12-19.06-2.13-38.66-1.56-57.98 7.49-1.09 8.19 15.49 13.25 17.75 17.99-34.99 69.95-48.47 101.06-23.01 4.09 2.33 8.75 13.3 14.14 7.46m-52.3-15.17c-23.29-1.02-43.62 12.81-56.78 31.07-6.29 5.45 2.2 12.51 7.24 15.18 6.06-18.69 25.89-25.6 41.59-34.33 14.52-5.63 30.89-1.18 45.44 2.49-7.87-11.84-24.19-15.12-37.49-14.41m76.91 0.66c-34.82 20.55-59.28 62.26-102.87 65.33-23.32 4.77-30.69-24.31-44.52-35.53-3.76 16.41-3.92 40.51 11.43 52.54 19.19 10.14 42.47 13.95 63.18 6.04 26.07-19.47 50.72-41.14 79.15-57.19-2.28-9.12 0.71-26.47-6.37-31.19m8.6 5.01c-1.26 9.51 1.84 18.69 4.68 27.31-7.48 4.53 1.6 12.11 2.5 18.32 18.57-9.26 16.4-43.71-7.18-45.63m-46.52 17.03c-21.43 2.39-46.3 12.84-52.32 35.48 20.55-5.93 37.82-20.05 53.38-34.33 0.8-1.35 0.44-1.74-1.06-1.15m-670.3 4.5c18.3 18.52 19.36 46.73 38.39 64.62 22.26 14.81 52.93 11.86 72.59 31.41 19.81 19.74 38.7 40.76 57.65 61.4 7.16 12.35 15.73 24.16 27.93 32 8.19 9.09 13.95 20.75 24.88 27.13 36.7 28.21 66.14 66.58 109.32 85.67 51.81 30.44 106.28 57.02 153.77 94.24 24.25 14.44 39.72 42.08 38.68 70.43-0.7 21.15-0.61 43.44 8.22 64.67 8.94 29.56 8.17 61.03 14.49 91.15 1.48 18.77 0.42 37.58-2.12 56.26 15.26-5.13 29.92-12.54 42.5-22.64 5.86-32.35 1.31-65.17-2.52-97.53-6.08-43.4-14.78-86.83-27.77-128.76-5.93-8.46-5.27-22.53-12.04-28.62-4.23 24.88-11.85 48.92-17.17 73.55-0.38-0.22-1.12-0.66-1.5-0.88 5.46-27.76 11.54-55.47 15.11-83.52-8.29-21.6-18.18-42.64-28.8-63.19-41.72-18.72-84.21-36.95-123.79-60.24-77.49-43.92-153.19-93.59-213.27-160.7-6.23-9.85-17.75-14.13-25.3-22.7-13.73-11.94-24.09-28.6-41.61-35.59-15.11-5.19-32.44 1.36-46.72-7.12-23.98-7.56-38.67-30.27-60.92-41.04m41.8 18.25c9.96 21.88 38.25 20.08 58.23 22.93-14.06-17.49-38.63-16.55-58.23-22.93m668.47 1.03c-12.28 4.49-11.41 25.76-0.52 29.74 1.28-9.46 4.92-22.96 0.52-29.74m7.78 1.81c-3.7 20.36-4.52 41.37 1.49 61.37 13.04 54.09 17.91 110.56 38.43 162.57 6.43-3.94 20.37-1.38 18.48-12.51-26.18-68.63-34.63-142.03-58.4-211.43m-23.8 4.4c-16.11 8.5-29.8 20.85-43.62 32.56-2.57 3.32 3.37 4.38 5.23 6.09 14.67 7.98 22.27 23.27 32.15 35.82 2.74-2.01 7.25-5.25 8.73-8.63-12.97-10.32-16.16-36.1 2.59-41.99-1.33-7.13-2.09-21.08-5.08-23.85m34.03 1.83c-5.49 3.84 0.7 11.7 1.31 17.09 4.72 8.79 2.44 23.67 12.27 28.78 7.61-15.55 7.55-42.15-13.58-45.87m-169.1 26.11c-7.92 21.76-10.48 45.49-13.53 68.42 14.53-7.94 31.74 3.16 34.09 19.04-8.75 9.09-25.17 9.73-32.44-1.42-1.33-2.5-2.97-18.24-3.88-6.45-3.87 38.67 13.63 77.29 39.47 106.11 24.91 14.95 65.4-8.25 62.58-37.21 17.81-14.49 29.96-37.07 28.25-60.49-16.61-0.33-31.46 9.58-48.03 10.59-6.58 3.32-16.95-4.21-12.52-11.42 5.07-8.53 14.81-15.71 25.09-15.26 11.21 3.29 22.65 15.4 34.43 6.71-2.79-7.47-2.6-16.83-8.33-22.78-14.16-0.27-28.47 0.99-42.54 2.71-18.72 6.13-20.22 29.11-21.9 45.43-0.74 5.77 2.95 17.46-5.98 18.04 4.68-17.56 0.36-37.31 9.53-53.69 13.89-18.79 40.57-19.51 61.57-16.7-5.99-16.78-22.25-25.99-36.38-34.9-24.41 5.16-50.82-1.74-69.48-16.73m143.21 0.18c-17.72 2.76-14.07 31.41 1.57 35.39-1.78-11.06 10.96-33.64-1.57-35.39m8.7 12.47c-10.56 38.01-6.11 77.94-13.8 116.14 0.42 28.42-3.99 57.05-2.79 85.35 7.91-47.86 11.5-97.27 28.82-143.01-1.57-19.9-11.57-38.63-12.23-58.48m-677.56 1.51c6.51 50.21 27.95 98.11 58.63 138.25 21.16 25.15 43.71 48.77 66.02 72.99 51.39 51.03 113.59 89.54 176.6 124.36-77.53-57.9-153.62-121.99-207.26-203.68-5.86-6.67-6.87-16.34-14.61-21.56-11.88-31.95-33.33-60.1-39.72-94.09-13.79-3.61-28.23-7.67-39.66-16.27m708.5 10.75c-0.25 13.82 2.57 27.68 6.78 40.83 5.37-5.16 9.58-12.16 12.03-19.27 0.39-10.02-8.2-21.79-18.81-21.56m-660.29 9.16c11.15 42.49 33.39 80.98 57.17 117.59 42.28 68.66 107.43 117.65 167.11 169.91 30.56 18.25 59.09 39.71 89.14 58.85 37.54 26.27 79.94 44.96 116.78 72.22 15.94-38.95 1.84-90.13-36.82-111.2-57.76-39.3-120.17-70.96-179.79-107.19-18.74-15.48-36.7-31.97-54.71-48.29-53.57-37.38-84.95-97.61-133.93-140.1-7.6-5.23-15.6-10.48-24.95-11.79m616.65 11.09c-13.04 2.61-3 19.55-0.62 25.24-1.01-7.03 5.57-24.16 0.62-25.24m55.04 24.82c-2.56 0.89-3.21 3.76-1.92 5.98 4.41 9.67 5.19 20.45 8.6 30.44 18.17-6.22 14.41-37.45-6.68-36.42m-199.84 0.85c-10.05 6.99 10.04 0.77 14.64 5.7-0.75-6.65-9.8-5.21-14.64-5.7m78.83 6.34c-16.94 3.49 7.91 8.68 12.49 2.57-1.95-3.3-8.78-2.75-12.49-2.57m-82.87 0.75c-1.93 17.67 17.44-5.48 0 0m176.53 1.84c-14.24 36.88-21.11 76.31-24.51 115.55 6.79-21.32 20.19-42.62 30.26-63.65 6.09-17.17-3.16-35.33-5.75-51.9m-158.67 3.15c-4.65 3-6.95 11.59 2.46 7.29 7.58-1.88 4.2-9-2.46-7.29m53.12 3.14c-7.98 0.21-4.47 12.75 2.53 10.1 8.55 3.25 6.64-16.25-2.53-10.1m16.59-0.42c-1.62 12.46 11.29 2.87 16.79 0.86-4.11-2.84-11.73 0.14-16.79-0.86m125.25 26.99c0.2 10.48 3.79 20.76 8.54 30.04 5.05-6.19 14.04-12.67 10.34-21.91-2.18-7.99-12.14-8.74-18.88-8.13m-26.02 21.61c-13.56 23.08-26.24 47.19-32.47 73.43 15.67-12.55 24.85-32.29 41.95-43.1-4.1-9.38-3.81-23.92-9.48-30.33m-55.8 13.74c-13.24 5.94-11.06 26.47 0.33 32.86 1.8-9.72 9.08-29.41-0.33-32.86m64.71 22.18c-12.47 14.4-26.98 27.67-37.52 43.42 13.35-8.55 29.5-14.73 43.92-19.07-0.76-7.64-1.5-19.57-6.4-24.35m34 20.92c-10.17 4.26-21.54 4.96-31.36 9.98 2.58 17.22 31.7 16.51 34.07-0.69-1.24-2.32 2.62-10.81-2.71-9.29m-39.03 12.99c-10.84 3.63-21.05 8.95-30.2 15.8 3.12 9.71 14.56 16.26 23.86 9.99 6.01-5.27 14.96-21.91 6.34-25.79m-35.08 19.15c-9.57-0.05-15.88 9.31-18.22 17.48 12.62 7.3 21.81-8.03 18.22-17.48m-181.39 56.58c34 50.99 73.37 99.54 94.03 158.09 17.14 39.37 25.7 82.19 25.95 125 16.7-14.32 31.82-30.22 42.49-49.4 1.24 0.02 1.71-0.56 1.38-1.76 2.1-5.02 5.14-9.82 5.97-15.26l0.23-0.83c1.95-9.65-7.63-17.94-9.02-27.74-17.77-22.51-25.62-51.32-45.79-72.23-31.72-44.89-77.16-76.89-115.24-115.87m20.86 13.14c33.96 27.79 64.95 59.35 92.98 93.09 14.02 19.84 32.13 38.17 39.07 61.75 12.08 8.88 12.11 27.21 22.15 37.95 4.75-22.3 20.32-40.3 26.96-61.95-0.96-3.35-4.94-5.46-7.14-8.13-0.34-0.15-1.02-0.45-1.37-0.6-20.98-22.32-42.94-44.18-67.27-62.43-31.11-24.49-65.69-44.65-102.21-59.93-1.19-0.23-4.92-2.3-3.17 0.25m-13.14 11.07c28.74 61.22 47.71 126.99 55.61 194.09 4.22 33.23 10.95 67.15 3.86 100.59 4.96 3.04 9.09-4.66 13.09-6.8 10.34-10.79 29.49-14.75 33.11-30.93 1.82-39.6-8.42-78.63-22.2-115.47-18.89-49.97-47.06-96.12-78.92-138.89-0.03-1.49-6.84-7.63-4.55-2.59m-545.25 74.41c-33.88-0.99-68.39 16.37-86.82 44.85-10.11 22.17-12.18 51.95 4.42 71.49 7 12.86 15.62 24.83 21.86 38.05 15.63 14.73 31.63 30.43 50.4 41.87 58.52 42.21 129.75 69.24 200.89 82.94 66.09 4.22 134 0.07 196.24-24.58 4.21-1.91 12.87-1.8 14.32-6.36-21.2 3.04-42.28 5.97-63.76 6.68-43.49-8.03-86.73-19.07-126.92-37.87-46.75-22.87-92.86-50.6-125.48-91.9-7.07-13.13-22.56-26.4-21.51-44-2.12-9.2 2.99-22.11 13.76-21.71 12.01 3.94 21.57 12.94 33.12 17.91-5.93-10.25-16.63-17.21-21.83-28.14-19.89-28.59-53.08-49.81-88.69-49.23m210.65 113.3c-7.32 26.39-2.36 60.28 18.73 78.75 49.34 57.38 136.99 62.57 203.19 42.47-21.32-6.25-44.19-6.88-64.71-15.48-33.06-12.91-75.35-26.86-86.03-64.91-8.81-19.17-2.09-46.94 18.67-54.95 13.44-3.75 28.48-4.63 41.08 2.19-14.52-15.09-35.67-22.69-55.8-27.17-30.12-8.56-63.74 10.86-75.13 39.1m322.01-41.26c-5.66 18.35-1.34 38.61-7.54 57.06-0.24 40.34-9.29 79.75-15.51 119.35-2 7-3.26 14.22-3.39 21.52 14.73-6.68 28.8-15.94 45.02-19.13 2.28-17.77 6.48-34.15 3.38-51.89-3.33-42.76-11.18-85.5-21.96-126.91m-212.63 28.65c-10.66 3.42-26.99 4.55-30.53 17.43-5.97 12.39-4.92 27.21-1.91 40.22 14.28 30.44 48.47 40.86 76.51 54.49 20.44 8.59 43.27 8.48 64.05 16.06 6.68 2.44 19.87 1.66 18.18-8.22-44.77-8.54-98.81-20.49-118.82-67.19-9.16-14.5-6.1-41.59 13.36-44.85-6.2-3.81-13.29-8.45-20.84-7.94m202.84-0.18c-17.28 43.55-45.17 81.66-69.83 121.22-10.74 19.29-25.14 47.87-3.33 65.37 17.43 17.94 33.99-6.89 49.76-13.05 5.88-15.07 1.09-31.77 8.49-46.49 9.22-41.28 10.79-86.74 14.91-127.05m-615.47 13.91c3.79 29.62 18.57 56.12 29.84 83.31 0.46 6.78 4.51 11.6 8.65 16.45 13.37 34.38 39.67 61.01 59.36 91.61 2.34 4.51 1.61 12.49 7.54 14.3 7.71 5.64 22.07 2.34 26.85 13.25-1.82 5.99-11.26-0.79-12.81 3.56 22.06 32.32 46.22 63.71 75.87 89.51 35.15 8.1 70.72 15 107.02 15.1 46.56-4.3 93.55-16.6 138.7-22.1-9.12-31.6-8.22-65.83-21.47-96.48-3.29-14.65-9.44-28.19-13.78-42.44-42.6 4.46-85.49 9.23-128.39 3.74-69.51-13.92-135.95-40.94-195.36-79.85-18.91-17.97-46.12-30.7-58.77-55.09-10.59-9.79-13.26-24.75-23.25-34.87m645.59 140.27c-8 2.45 1.63 8.92 4.38 11.91 43.37 48.76 105.55 72.65 162.19 101.77 63.08 27.04 118.15 71.74 164.27 122.04 44.29 51.4 74.49 112.9 99.19 175.6 12.3 46.7 21.8 95.9 20.4 143.2 11.2-19.3 10-45.5 18.2-67 8.3-23.2 7-48.2 11.9-72.1 14.9-132.1-50.7-264.7-151.81-347.78-61.92-56.83-129.69-110.59-206.04-145.86-39.46 28.03-76.15 61.82-122.68 78.22m169.71-60.55c46.55 28.9 90.37 62.31 131.98 98.11 34.8 28.13 67.84 59.54 96.64 95.36 59.6 75.2 94.9 172.2 88.3 268.6-8.9 85.3-30.9 169.4-66.3 247.7-10.4 14.2-17.6 30.4-26.8 45.3 17.9-16.2 33.1-34.9 48.9-53.1 12.3-19.8 31.9-35.3 39.2-57.8 22.6-40.1 39.8-82.9 51.6-127.4 20.1-74.2 2.2-153.1-24.5-222.7-40.5-86-108.2-158.53-187.18-209.79-46.59-33.82-99.43-60.11-151.84-84.28m-287.78 46.41c-12.43 3.13-23.1 10.16-34.51 15.58-25.25 6.38-48.41 20.57-74.98 22.02-5.09-2.78-5.63 2.79-3.8 5.05 5.16 10.78 5.38 22.98 8.67 34.35 14.74 32.1 16.05 68.46 23.71 102.56 28.96 2.1 59.2 3 86.16 14.7 17.03 4.6 35.35 5.4 50.65 14.9 8.65-14.7 13.56-34.4 23.93-49.4 6.35-21.8 11.01-44.05 18.6-65.39 2.68-24.8 14.23-50.53 6.64-74.86-21.12 7.38-40.6 18.6-58.06 32.54-15.75 13.53-41.31 2.26-47.85-15.88-4.97-11.07 2.17-28.6 0.84-36.17m110.73 40.74c-4.16 58.68-20.13 117.52-50.27 167.92-7.02 22.1 0.33 46.3-7.8 68.2-12.75 99.3-23.96 200.9-30.41 299.7 37.13-37 66.87-82.4 86.18-131.1 54.02-128 42.62-274.9 2.3-404.72m7.74 3.27c9.8 38.27 20.24 76.53 27.44 115.55 3.52 46.7 6.94 93.7 2.1 140.5-4.55 46.7-9.77 95.1-31.3 137.7-11.13 30.4-23.66 61.3-45.22 85.8-8.43 16.9-19.89 31.9-31.88 46.4-67.94 58.8-156.26 93.4-245.92 97.7-54.12 6.4-112.43-5.9-153.81-43.1-29.37-19.4-65.33-46.8-58.48-86.8 7.94-15 29.63-12.1 41.24-18.7-15.59-11-26.27-27.2-41.02-39.2-27.01-23.6-81.39-31.2-98.92 6.9-35.22 44.6-13.89 106.9 6.4 153.6 12.32 38.5 45.66 63.3 72.32 91.7 40.51 37.2 92.27 58.7 142.37 79.1 27.65 3.4 54.82-4.4 81.65-7.5 68.32-28.3 142.31-45.7 203.71-88.5 54.65-41.8 103.6-92.4 136.7-153.2 42.08-73.7 65.2-157.1 74.61-241.2-0.84-74.1-9.15-151.3-45.5-217.27-12.92-19.31-24.47-40.08-36.49-59.48m19.95 9.11c32 59.93 72.09 117.24 85.79 185.14 23.09 94.9 22.6 194.5 7.44 290.5-10.48 59.6-25.86 120.4-61.75 170.2-24.73 31.9-62.62 60.2-105.45 56.7-16.69-7.1-33.56-15.1-45.75-28.9-18.69 15.8-32.03 40-55.7 48.4-2.11 8 4.68 14.4 6.52 21.7 24.72 29.5 62.03 45.1 99.17 52 32.81 2.1 65.76 7.9 98.01-2 14.86-7.5 31.53-10.2 46.47-17.5 18.21-16.3 38.07-31.4 50.71-52.4 44.64-60.2 77.78-128 100.72-199.3 20.02-51.4 19.24-108.1 11.62-162-8.82-43.8-25.05-85.8-44.41-126-52.88-87.4-115.93-169.49-193.39-236.54m-633.88 100.84c10.91 24.2 18.89 52.7 37.55 73.4 11.9 7.2 16.76 21.1 28.28 28.7 29.11 22.5 57.78 47.3 91.23 62.6 64.65 33.7 140.95 18.3 208.96 2.9 67.26-20.1 131.46-56.5 178-108.6-15.27-8.1-32.96-8.7-48.73-15.3-28.35-10.5-60.98-6.4-88.69-13.3-44.04 9.1-88.33 18.4-133.24 21.1-56.93-5.5-116.51-9.2-168.13-36.7-12.73-9.7-31.07-15.6-35.2-32.8-7.23-13.37-8.07-34.99 4.66-44.22-0.11-1.78-0.14-3.55-0.02-5.31-35.98-8.21-89.94 24.48-74.67 67.53m677.3-68.33c22.17 26.58 46.77 51.43 69.81 77.23 35.55 47.9 73.05 96 96.16 151.8 12.54 32.2 26.75 64.1 33.02 98.4 10.61 69.9 2.64 143.7-26.18 208.7-11.12 14.7-12.72 33.4-21.97 49-22.32 48.2-51.12 93.2-84.93 134 40.12-22 77-50.2 106.45-85.5 35.75-37.7 56.29-86.5 73.29-134.8 9.31-70.5 3.26-143.1-22.45-209.7-42.81-115.9-121.76-218.4-223.2-289.13m21.91 9.77c91.59 69.76 162.96 165.76 205.11 272.76 26.66 80.4 43.82 170.7 11.43 252.2-15.43 28.8-27.38 60-49.02 85-18.72 24.3-42.64 44.1-63.79 66.2-22.14 18.7-48.03 32.2-71.79 48.5 40 1.4 81.89-6.9 120.65-19.7 50.63-12.8 96.25-40.4 135.06-74.9 27-35.4 51.3-75.1 64.6-118.4 16.9-57.7 1.7-117.2-9.3-174.3-27.2-60.8-51.9-125.8-97.95-174.7-42.95-53.2-101.14-92.5-161.22-124.1-28.61-11.06-56.51-27.85-83.78-38.56m-622.65 1.59c-14.25 15.16-4.09 38.77 8.85 51.57 18.72 16.1 42.14 25.7 65.69 32.3-29.87-22.8-47.82-59.73-74.54-83.87m588.47 24.95c25.09 56.72 33.82 119.82 34.92 181.02 0.68 90.6-33.55 176-71.14 256.7-30.85 51.2-61.79 102.4-100.52 148.2-19.09 18.2 9.34 33.1 24.7 39.1 33.01 15 65.05-8.7 88.45-29.9 52.35-47.4 66.21-119.5 80.73-185.1 13.59-71.9 8.27-147.8 8.11-221.2-9.06-66.4-29.79-132-65.25-188.82m-292.15 204.12c-60.05 16.9-123.81 25-185.48 11.6 7.98 7.3 22.56 8.5 30.98 16.9 26.64 12.7 56.63 14.3 85.39 18.7 37.26 1.7 73.38-8.7 107.57-22.4 58.39-22.7 100.93-73 129.91-127-44.97 49.7-105.88 80.4-168.37 102.2m174.7-100.2c-31.07 54.8-75.1 106.1-134.55 130.8-6.11 3.1-15.94 2-18.07 10-3.73 20.3-5.68 43.3-19.51 59.5-13.45 45.5-43.39 84.9-79.4 114.9-63.15 39.4-151.2 47.7-214.13 4-1.58 25.3 17.81 44.3 35.23 59.7 20.06 20.6 46.09 33.6 71.2 46.8 46.94 15.5 97.66 13 146.13 7.6 49.73-10.6 100.71-23.4 142.46-53.6 15.27-9 35.54-19.1 37.16-39 4.89-85.9 18.28-171.2 23.6-257.1 5.75-27.4 8.99-56.7 9.88-83.6m-269.53 150.9c-46.94 34-83.13 81-123.77 122-8.19 5.9-14.96 13.5-22.24 20.4 4.31 2.6 26.29 1 19.06 9.5-21.25-4.3-44.23-3.8-63.37 6.8-2.64 4.1 3.63 4.6 6.42 5.3-5.47 6.2 4.58 9.7 9.38 11.6 57.28 30.9 128.65 18 182.53-13.7 39.3-20.8 60.05-60.1 80.66-97.3 9.74-25.2 22.74-49.8 24.69-77.4-35.6 16-75.33 13.7-113.36 12.8m286.64 271.5c-30.82 26.7-54.93 62.9-93.56 79.5-60.76 31-122.35 61.5-188.06 80.9-20.61 5.7-42.3 9.1-63.27 8.8 17.57 7.6 36.96 0.3 55.26 1.3 46.19-0.2 92.11-6.6 135.51-22.6 70.55-24.8 113.01-89.5 155.05-147 0.72-1.3 0.41-1.6-0.93-0.9z"/>
<path fill="#bc0102" d="m751.46 169.65c13.3-0.71 29.62 2.57 37.49 14.41-14.55-3.67-30.92-8.12-45.44-2.49-15.7 8.73-35.53 15.64-41.59 34.33-5.04-2.67-13.53-9.73-7.24-15.18 13.16-18.26 33.49-32.09 56.78-31.07z"/>
<path fill="#ba0301" d="m828.37 170.31c7.08 4.72 4.09 22.07 6.37 31.19-28.43 16.05-53.08 37.72-79.15 57.19-20.71 7.91-43.99 4.1-63.18-6.04-15.35-12.03-15.19-36.13-11.43-52.54 13.83 11.22 21.2 40.3 44.52 35.53 43.59-3.07 68.05-44.78 102.87-65.33m-2.34 7.81c-12.53 8.53-22.79 19.89-32.63 31.28-16.71 13.72-35.21 25.15-53.72 36.26-3.15 1.55-5.28 5.98-1.56 8.25 34.06-9.62 60.03-36.11 89.23-54.89 0.1-5.6 3.22-17.2-1.32-20.9m-141.01 38.6c-10.38 23.3 14.4 34.27 32.34 36.98 2.44-0.36 13.28 5.15 10.97-0.96-14.05-11.89-36.16-17.33-43.31-36.02z"/>
<path fill="#fede02" d="m836.97 175.32c23.58 1.92 25.75 36.37 7.18 45.63-0.9-6.21-9.98-13.79-2.5-18.32-2.84-8.62-5.94-17.8-4.68-27.31z"/>
<path fill="#fefd70" d="m826.03 178.12c4.54 3.7 1.42 15.3 1.32 20.9-29.2 18.78-55.17 45.27-89.23 54.89-3.72-2.27-1.59-6.7 1.56-8.25 18.51-11.11 37.01-22.54 53.72-36.26 9.84-11.39 20.1-22.75 32.63-31.28z"/>
<path fill="#0100af" d="m790.45 192.35c1.5-0.59 1.86-0.2 1.06 1.15-15.56 14.28-32.83 28.4-53.38 34.33 6.02-22.64 30.89-33.09 52.32-35.48z"/>
<path fill="#fedfdd" d="m120.15 196.85c22.25 10.77 36.94 33.48 60.92 41.04 14.28 8.48 31.61 1.93 46.72 7.12 17.52 6.99 27.88 23.65 41.61 35.59 7.55 8.57 19.07 12.85 25.3 22.7 60.08 67.11 135.78 116.78 213.27 160.7 39.58 23.29 82.07 41.52 123.79 60.24 10.62 20.55 20.51 41.59 28.8 63.19-3.57 28.05-9.65 55.76-15.11 83.52-1.41 12.47-1.28-3.24-2.09-7.2 1.04-28.35-14.43-55.99-38.68-70.43-47.49-37.22-101.96-63.8-153.77-94.24-43.18-19.09-72.62-57.46-109.32-85.67-10.93-6.38-16.69-18.04-24.88-27.13-12.2-7.84-20.77-19.65-27.93-32-18.95-20.64-37.84-41.66-57.65-61.4-19.66-19.55-50.33-16.6-72.59-31.41-19.03-17.89-20.09-46.1-38.39-64.62z"/>
<path fill="#fdd3c6" d="m161.95 215.1c19.6 6.38 44.17 5.44 58.23 22.93-19.98-2.85-48.27-1.05-58.23-22.93z"/>
<path fill="#fefe9f" d="m830.42 216.13c4.4 6.78 0.76 20.28-0.52 29.74-10.89-3.98-11.76-25.25 0.52-29.74z"/>
<path fill="#fefd70" d="m685.02 216.72c7.15 18.69 29.26 24.13 43.31 36.02 2.31 6.11-8.53 0.6-10.97 0.96-17.94-2.71-42.72-13.68-32.34-36.98z"/>
<path fill="#fefe70" d="m838.2 217.94c23.77 69.4 32.22 142.8 58.4 211.43 1.89 11.13-12.05 8.57-18.48 12.51-20.52-52.01-25.39-108.48-38.43-162.57-6.01-20-5.19-41.01-1.49-61.37z"/>
<path fill="#0100b1" d="m814.4 222.34c2.99 2.77 3.75 16.72 5.08 23.85-18.75 5.89-15.56 31.67-2.59 41.99-1.48 3.38-5.99 6.62-8.73 8.63-9.88-12.55-17.48-27.84-32.15-35.82-1.86-1.71-7.8-2.77-5.23-6.09 13.82-11.71 27.51-24.06 43.62-32.56z"/>
<path fill="#fdbe02" d="m848.43 224.17c21.13 3.72 21.19 30.32 13.58 45.87-9.83-5.11-7.55-19.99-12.27-28.78-0.61-5.39-6.8-13.25-1.31-17.09z"/>
<path fill="#60460f" d="m870.33 241.19c0.95 3.49 0.44 7.17-0.16 10.67 0.16-3.55 0.08-7.13 0.16-10.67z"/>
<path fill="#fedfdd" d="m1358.8 284.59c23.2-10.95 39.5-35.65 65.8-39.68-7.1 30.11-29.7 55.06-57.6 68.11-10.9 5.38-23.2 8.23-32.7 16.34-39.6 23.94-58.7 68.17-87.3 102.66-11 18.79-28.8 31.78-43 48.02-44.1 44.95-99 83.81-162.3 94.7-48.09 10.57-99.77 12.77-143.92 36.43-7.48 7.08-19.18 7.37-25.14 16.33-7.04 13.86-18.28 26.05-22.28 41.32-29.6-33.17-65.43-59.53-99.64-87.56-27.25-14.4-52.8-31.72-80.16-45.89 18.89 0.23 42.54 3.69 55.78-13.1 14.48-23.16 25.61-54.21 9.01-78.93 15.5-3.2 21.41-26.24 38.62-22.77 7.08 2.23 16.22 18.43 2.91 17.12-8.32-2.3-18.84 2.54-16.72 12.74 3.97 16 24.64 16.06 36.34 10.96-1.07 36.91-18.37 73.04-7.93 110.03-0.03 3.43 6.62 3.57 5.2-0.24-4.09-16.42-2.9-33.66 0.29-50.16 38.7 26.2 88.8 22.45 132.78 15.85 43.81-7.47 86.26-22.09 130.66-26.26 39.6-7.32 76.8-27.2 100.9-60.13 56-55.53 110-114.24 175.7-158.35 14.5-11.88 28-30.79 48.7-29.84-8.2 6.67-21.2 11.56-24 22.3z"/>
<path fill="#fedfdd" d="m679.33 250.28c18.66 14.99 45.07 21.89 69.48 16.73 14.13 8.91 30.39 18.12 36.38 34.9-21-2.81-47.68-2.09-61.57 16.7-9.17 16.38-4.85 36.13-9.53 53.69 8.93-0.58 5.24-12.27 5.98-18.04 1.68-16.32 3.18-39.3 21.9-45.43 14.07-1.72 28.38-2.98 42.54-2.71 5.73 5.95 5.54 15.31 8.33 22.78-11.78 8.69-23.22-3.42-34.43-6.71-10.28-0.45-20.02 6.73-25.09 15.26-4.43 7.21 5.94 14.74 12.52 11.42 16.57-1.01 31.42-10.92 48.03-10.59 1.71 23.42-10.44 46-28.25 60.49 2.82 28.96-37.67 52.16-62.58 37.21-25.84-28.82-43.34-67.44-39.47-106.11 0.91-11.79 2.55 3.95 3.88 6.45 7.27 11.15 23.69 10.51 32.44 1.42-2.35-15.88-19.56-26.98-34.09-19.04 3.05-22.93 5.61-46.66 13.53-68.42m-4.71 48.13c-1.07-0.12-4.1 1-1.68 1.67 13.41 3.5 28.84 7.2 34.88 21.1-2.26-15.21-18.72-24.61-33.2-22.77m41.72 98.02c-6.85 2.74-14.66 1.34-21.45 4.47 5.09 4.22 1.37 13.6 9.24 15.09 11.13 6.71 20.85-7.57 24.46-15.85-5.33 1.12-9.16-2.32-12.25-3.71z"/>
<path fill="#fdfeb0" d="m822.54 250.46c12.53 1.75-0.21 24.33 1.57 35.39-15.64-3.98-19.29-32.63-1.57-35.39z"/>
<path fill="#fd9e02" d="m831.24 262.93c0.66 19.85 10.66 38.58 12.23 58.48-17.32 45.74-20.91 95.15-28.82 143.01-1.2-28.3 3.21-56.93 2.79-85.35 7.69-38.2 3.24-78.13 13.8-116.14z"/>
<path fill="#fffe6f" d="m153.68 264.44c11.43 8.6 25.87 12.66 39.66 16.27 6.39 33.99 27.84 62.14 39.72 94.09 7.74 5.22 8.75 14.89 14.61 21.56 53.64 81.69 129.73 145.78 207.26 203.68-63.01-34.82-125.21-73.33-176.6-124.36-22.31-24.22-44.86-47.84-66.02-72.99-30.68-40.14-52.12-88.04-58.63-138.25z"/>
<path fill="#fd9e03" d="m862.18 275.19c10.61-0.23 19.2 11.54 18.81 21.56-2.45 7.11-6.66 14.11-12.03 19.27-4.21-13.15-7.03-27.01-6.78-40.83z"/>
<path fill="#fdfec2" d="m818.54 295.44c4.95 1.08-1.63 18.21-0.62 25.24-2.38-5.69-12.42-22.63 0.62-25.24z"/>
<path fill="#040100" d="m674.62 298.41c14.48-1.84 30.94 7.56 33.2 22.77-6.04-13.9-21.47-17.6-34.88-21.1-2.42-0.67 0.61-1.79 1.68-1.67z"/>
<path fill="#fd7f02" d="m873.58 320.26c21.09-1.03 24.85 30.2 6.68 36.42-3.41-9.99-4.19-20.77-8.6-30.44-1.29-2.22-0.64-5.09 1.92-5.98z"/>
<path fill="#6060e5" d="m673.74 321.11c4.84 0.49 13.89-0.95 14.64 5.7-4.6-4.93-24.69 1.29-14.64-5.7z"/>
<path fill="#5f5ff2" d="m752.57 327.45c3.71-0.18 10.54-0.73 12.49 2.57-4.58 6.11-29.43 0.92-12.49-2.57z"/>
<path fill="#fefefe" d="m669.7 328.2c17.44-5.48-1.93 17.67 0 0z"/>
<path fill="#fd7f01" d="m846.23 330.04c2.59 16.57 11.84 34.73 5.75 51.9-10.07 21.03-23.47 42.33-30.26 63.65 3.4-39.24 10.27-78.67 24.51-115.55z"/>
<path fill="#fefdfe" d="m687.56 333.19c6.66-1.71 10.04 5.41 2.46 7.29-9.41 4.3-7.11-4.29-2.46-7.29z"/>
<path fill="#fefefe" d="m740.68 336.33c9.17-6.15 11.08 13.35 2.53 10.1-7 2.65-10.51-9.89-2.53-10.1z"/>
<path fill="#fefefc" d="m757.27 335.91c5.06 1 12.68-1.98 16.79 0.86-5.5 2.01-18.41 11.6-16.79-0.86z"/>
<path fill="#fd5e02" d="m882.52 362.9c6.74-0.61 16.7 0.14 18.88 8.13 3.7 9.24-5.29 15.72-10.34 21.91-4.75-9.28-8.34-19.56-8.54-30.04z"/>
<path fill="#fd5e02" d="m856.5 384.51c5.67 6.41 5.38 20.95 9.48 30.33-17.1 10.81-26.28 30.55-41.95 43.1 6.23-26.24 18.91-50.35 32.47-73.43z"/>
<path fill="#fd4102" d="m893.19 396.19c11.92-6.34 21.41 5.27 19.95 16.44-2 4.02-4.49 7.76-6.84 11.57-1.32 1.72-4.29 4.24-5.67 1.16-3.89-9.26-7.18-19.03-7.44-29.17z"/>
<path fill="#060001" d="m716.34 396.43c3.09 1.39 6.92 4.83 12.25 3.71-3.61 8.28-13.33 22.56-24.46 15.85-7.87-1.49-4.15-10.87-9.24-15.09 6.79-3.13 14.6-1.73 21.45-4.47m-12.24 5.62c-8.28 12.89 14.37 15.77 15.95 3.04-4.08-7.17-11.75 3.82-15.95-3.04z"/>
<path fill="#0100af" d="m800.7 398.25c9.41 3.45 2.13 23.14 0.33 32.86-11.39-6.39-13.57-26.92-0.33-32.86z"/>
<path fill="#b90303" d="m704.1 402.05c4.2 6.86 11.87-4.13 15.95 3.04-1.58 12.73-24.23 9.85-15.95-3.04z"/>
<path fill="#320f03" d="m913.14 412.63c0.68 0.8 1.37 1.6 2.09 2.41-1.42 3.64-3.92 6.76-6.16 9.92-0.94-0.26-1.86-0.52-2.77-0.76 2.35-3.81 4.84-7.55 6.84-11.57z"/>
<path fill="#fd4002" d="m865.41 420.43c4.9 4.78 5.64 16.71 6.4 24.35-14.42 4.34-30.57 10.52-43.92 19.07 10.54-15.75 25.05-29.02 37.52-43.42z"/>
<path fill="#fd1e02" d="m899.41 441.35c5.33-1.52 1.47 6.97 2.71 9.29-2.37 17.2-31.49 17.91-34.07 0.69 9.82-5.02 21.19-5.72 31.36-9.98z"/>
<path fill="#fd5f5f" d="m860.38 454.34c8.62 3.88-0.33 20.52-6.34 25.79-9.3 6.27-20.74-0.28-23.86-9.99 9.15-6.85 19.36-12.17 30.2-15.8z"/>
<path fill="#fc504f" d="m825.3 473.49c3.59 9.45-5.6 24.78-18.22 17.48 2.34-8.17 8.65-17.53 18.22-17.48z"/>
<path fill="#fefe9d" d="m643.91 530.07c38.08 38.98 83.52 70.98 115.24 115.87-5.12 7.69-7.76 16.52-11.43 24.9-7.52-2.2 5.52 6.26 3.25 8.33-4.7-0.03-17.42 2.96-6.76 3.82-2.88 0.6-4.94 2.64-6.27 5.17-20.66-58.55-60.03-107.1-94.03-158.09m75.36 77.95c-0.29 7.16-4.77 5.96-9.54 2.17 1.48 3.45 9.81 10.16-0.08 8.44-7.99 1.66 11.95 1.67 2.35 5.33-7.29 6.93 10.04-4.14 6.52 5.46 1.94 7.34 1.74-6.81 6.04-3.84 8.08 2.01-5.96-6.24 3.85-5.16 10.59-2.64-9.65-1.06-2.19-5.19 6.64-7.72-11.52 5.19-6.95-7.21z"/>
<path fill="#35310a" d="m678.84 530.21c6.77-0.05 13.52-0.05 20.31 0.03-6.76 1.05-13.57 0.84-20.31-0.03z"/>
<path fill="#d80101" d="m664.77 543.21c-1.75-2.55 1.98-0.48 3.17-0.25 36.52 15.28 71.1 35.44 102.21 59.93 11.76 6.63-1.97 17.88-3.51 26.74-1.45 3.72-3.95 10.95-8.89 6.67-28.03-33.74-59.02-65.3-92.98-93.09z"/>
<path fill="#fe1f1f" d="m651.63 554.28c-2.29-5.04 4.52 1.1 4.55 2.59 31.86 42.77 60.03 88.92 78.92 138.89-9.76 17.23-17.83 35.46-27.86 52.61-7.9-67.1-26.87-132.87-55.61-194.09z"/>
<path fill="#ff1f1f" d="m664.12 598.28c6.77 6.09 6.11 20.16 12.04 28.62 12.99 41.93 21.69 85.36 27.77 128.76-13.31 20.87-24.34 43.14-37.86 63.91-6.32-30.12-5.55-61.59-14.49-91.15-8.83-21.23-8.92-43.52-8.22-64.67 0.81 3.96 0.68 19.67 2.09 7.2 0.38 0.22 1.12 0.66 1.5 0.88 5.32-24.63 12.94-48.67 17.17-73.55z"/>
<path fill="#be0101" d="m770.15 602.89c24.33 18.25 46.29 40.11 67.27 62.43-5.9 2.13-12.04 3.7-18.35 3.56 0.6-2.3 4.96-9.51 0.53-5.25-6.7 6.62-3.05-9.74-6.61-11.5-0.27 7.09 0.6 18.73-7.32 9.96 8.27 13.16-14.22 2.47-17.53 3.82 5.08 3.9 11.96 4.76 17.81 7.32-11.15 1.4-4.03 1.12-0.02 4.54-8.38 3.95-4.57 4.51 2.19 1.34-2.99 4.89-7.59 8.48-11.05 13.01 4.49-2.69 8.02-6.98 13.01-8.81-0.34 1.82-1.84 8.69 0.96 3.49 0.91-11.14 7.74 9.88 6.31-0.08-4.73-10.85 8.7 4.73 12.56 5.38-3.67-4.34-7.43-8.6-10.87-13.12 1.8 0.39 9.18 3.85 5.13 0.74-7.5-4.27 12.41-4.77-1.53-6.3 2.29-2.61 11.64-4.12 16.15-7.5 2.2 2.67 6.18 4.78 7.14 8.13-6.64 21.65-22.21 39.65-26.96 61.95-10.04-10.74-10.07-29.07-22.15-37.95-6.94-23.58-25.05-41.91-39.07-61.75 4.94 4.28 7.44-2.95 8.89-6.67 1.54-8.86 15.27-20.11 3.51-26.74z"/>
<path fill="#4142f3" d="m719.27 608.02c-4.57 12.4 13.59-0.51 6.95 7.21-7.46 4.13 12.78 2.55 2.19 5.19-9.81-1.08 4.23 7.17-3.85 5.16-4.3-2.97-4.1 11.18-6.04 3.84 3.52-9.6-13.81 1.47-6.52-5.46 9.6-3.66-10.34-3.67-2.35-5.33 9.89 1.72 1.56-4.99 0.08-8.44 4.77 3.79 9.25 4.99 9.54-2.17z"/>
<path fill="#fe5e5e" d="m106.38 628.69c35.61-0.58 68.8 20.64 88.69 49.23 5.2 10.93 15.9 17.89 21.83 28.14-11.55-4.97-21.11-13.97-33.12-17.91-10.77-0.4-15.88 12.51-13.76 21.71-1.05 17.6 14.44 30.87 21.51 44-18.96 1.65-36.01 10.67-53.66 17-21.43 10-39.2 29.78-41.63 54.09-18.77-11.44-34.77-27.14-50.4-41.87-6.24-13.22-14.86-25.19-21.86-38.05-16.6-19.54-14.53-49.32-4.42-71.49 18.43-28.48 52.94-45.84 86.82-44.85z"/>
<path fill="#e0dd71" d="m759.15 645.94c20.17 20.91 28.02 49.72 45.79 72.23 1.39 9.8 10.97 18.09 9.02 27.74-6.15-0.91-12.26-2.07-18.28-3.57 3.38-5.1 9.57-7.75 12.48-13.13-5.36 1.63-10.05 4.82-15.2 6.95-2.28-5.4-1.87-11.44-3.04-17.09-5.46 2.02-0.45 13.8-5.86 16.84-5.12-2.01-9.5-5.68-14.93-6.98 3.17 4.42 8.05 7.57 10.81 12.25-1.09 5.69-14.28 0.08-14.77 5.81 4.47 1.63 11.9-1.16 14.82 2.84-3.29 4.07-8.06 7.08-10 12.1 5.61-1.88 10.83-4.72 16.35-6.84 0.61 4.96 0.92 9.97 1.47 14.95 4.77-2.34 2.43-10.32 4.12-14.86 5.37 1.7 10.15 4.97 14.45 8.58-10.67 19.18-25.79 35.08-42.49 49.4-0.25-42.81-8.81-85.63-25.95-125 1.33-2.53 3.39-4.57 6.27-5.17 11.46-1.48 4.89 6.63-0.01 12.13 4.14-1.28 7.78-3.73 11.89-5.1 0.68 4.05 0.91 8.21 1.93 12.23 1.99-3.66 2.25-7.92 3.14-11.9 4.32-0.21 7.72 3.54 11.75 4.79-1.83-4.02-13.27-11.73-2.95-11.1 12.39-1.09-1.06-3.12-5.19-4.52 4.5-3.5 11.63-12.18 1.5-5.3-7.93 8.48-5.09-16.77-8.71-5.5 1.73 10.67-5.57 5.99-9.84 2.12 3.67-8.38 6.31-17.21 11.43-24.9z"/>
<path fill="#fffd9e" d="m812.99 652.13c3.56 1.76-0.09 18.12 6.61 11.5 4.43-4.26 0.07 2.95-0.53 5.25 6.31 0.14 12.45-1.43 18.35-3.56 0.35 0.15 1.03 0.45 1.37 0.6-4.51 3.38-13.86 4.89-16.15 7.5 13.94 1.53-5.97 2.03 1.53 6.3 4.05 3.11-3.33-0.35-5.13-0.74 3.44 4.52 7.2 8.78 10.87 13.12-3.86-0.65-17.29-16.23-12.56-5.38 1.43 9.96-5.4-11.06-6.31 0.08-2.8 5.2-1.3-1.67-0.96-3.49-4.99 1.83-8.52 6.12-13.01 8.81 3.46-4.53 8.06-8.12 11.05-13.01-6.76 3.17-10.57 2.61-2.19-1.34-4.01-3.42-11.13-3.14 0.02-4.54-5.85-2.56-12.73-3.42-17.81-7.32 3.31-1.35 25.8 9.34 17.53-3.82 7.92 8.77 7.05-2.87 7.32-9.96z"/>
<path fill="#4042f6" d="m757.56 668.72c3.62-11.27 0.78 13.98 8.71 5.5 10.13-6.88 3 1.8-1.5 5.3 4.13 1.4 17.58 3.43 5.19 4.52-10.32-0.63 1.12 7.08 2.95 11.1-4.03-1.25-7.43-5-11.75-4.79-0.89 3.98-1.15 8.24-3.14 11.9-1.02-4.02-1.25-8.18-1.93-12.23-4.11 1.37-7.75 3.82-11.89 5.1 4.9-5.5 11.47-13.61 0.01-12.13-10.66-0.86 2.06-3.85 6.76-3.82 2.27-2.07-10.77-10.53-3.25-8.33 4.27 3.87 11.57 8.55 9.84-2.12z"/>
<path fill="#e50000" d="m735.1 695.76c13.78 36.84 24.02 75.87 22.2 115.47-3.62 16.18-22.77 20.14-33.11 30.93-4 2.14-8.13 9.84-13.09 6.8 7.09-33.44 0.36-67.36-3.86-100.59 10.03-17.15 18.1-35.38 27.86-52.61z"/>
<path fill="#e65857" d="m317.03 741.99c11.39-28.24 45.01-47.66 75.13-39.1 20.13 4.48 41.28 12.08 55.8 27.17-12.6-6.82-27.64-5.94-41.08-2.19-20.76 8.01-27.48 35.78-18.67 54.95-19.7 6.74-39.98 20.55-52.45 37.92-21.09-18.47-26.05-52.36-18.73-78.75z"/>
<path fill="#feff5d" d="m639.04 700.73c10.78 41.41 18.63 84.15 21.96 126.91-14.27 16.9-27.53 35.31-45.01 49.5 6.22-39.6 15.27-79.01 15.51-119.35 6.2-18.45 1.88-38.71 7.54-57.06z"/>
<path fill="#4041f9" d="m784.06 735.91c5.41-3.04 0.4-14.82 5.86-16.84 1.17 5.65 0.76 11.69 3.04 17.09 5.15-2.13 9.84-5.32 15.2-6.95-2.91 5.38-9.1 8.03-12.48 13.13 6.02 1.5 12.13 2.66 18.28 3.57l-0.23 0.83c-5.63 0.84-11.45 1.07-16.78 3.21 3.05 4.47 7.06 8.15 10.81 12.05 0.33 1.2-0.14 1.78-1.38 1.76-4.3-3.61-9.08-6.88-14.45-8.58-1.69 4.54 0.65 12.52-4.12 14.86-0.55-4.98-0.86-9.99-1.47-14.95-5.52 2.12-10.74 4.96-16.35 6.84 1.94-5.02 6.71-8.03 10-12.1-2.92-4-10.35-1.21-14.82-2.84 0.49-5.73 13.68-0.12 14.77-5.81-2.76-4.68-7.64-7.83-10.81-12.25 5.43 1.3 9.81 4.97 14.93 6.98z"/>
<path fill="#e28201" d="m426.41 729.38c7.55-0.51 14.64 4.13 20.84 7.94-19.46 3.26-22.52 30.35-13.36 44.85 20.01 46.7 74.05 58.65 118.82 67.19 1.69 9.88-11.5 10.66-18.18 8.22-20.78-7.58-43.61-7.47-64.05-16.06-28.04-13.63-62.23-24.05-76.51-54.49-3.01-13.01-4.06-27.83 1.91-40.22 3.54-12.88 19.87-14.01 30.53-17.43z"/>
<path fill="#fd3030" d="m629.25 729.2c-4.12 40.31-5.69 85.77-14.91 127.05-7.4 14.72-2.61 31.42-8.49 46.49-15.77 6.16-32.33 30.99-49.76 13.05-21.81-17.5-7.41-46.08 3.33-65.37 24.66-39.56 52.55-77.67 69.83-121.22z"/>
<path fill="#fe4f4f" d="m13.78 743.11c9.99 10.12 12.66 25.08 23.25 34.87 12.65 24.39 39.86 37.12 58.77 55.09-2.11 39.72 12.51 78.03 23.37 115.71-5.93-1.81-5.2-9.79-7.54-14.3-19.69-30.6-45.99-57.23-59.36-91.61-4.14-4.85-8.19-9.67-8.65-16.45-11.27-27.19-26.05-53.69-29.84-83.31z"/>
<path fill="#dedd74" d="m796.95 749.95c5.33-2.14 11.15-2.37 16.78-3.21-0.83 5.44-3.87 10.24-5.97 15.26-3.75-3.9-7.76-7.58-10.81-12.05z"/>
<path fill="#db3b3b" d="m137.87 770.86c17.65-6.33 34.7-15.35 53.66-17 32.62 41.3 78.73 69.03 125.48 91.9-14.51 16.66-20.29 39.84-25.14 60.96 1.31 0.3 3.94 0.88 5.26 1.17-71.14-13.7-142.37-40.73-200.89-82.94 2.43-24.31 20.2-44.09 41.63-54.09z"/>
<path fill="#de0000" d="m666.07 819.57c13.52-20.77 24.55-43.04 37.86-63.91 3.83 32.36 8.38 65.18 2.52 97.53-12.58 10.1-27.24 17.51-42.5 22.64 2.54-18.68 3.6-37.49 2.12-56.26z"/>
<path fill="#fe7170" d="m335.76 820.74c12.47-17.37 32.75-31.18 52.45-37.92 10.68 38.05 52.97 52 86.03 64.91 20.52 8.6 43.39 9.23 64.71 15.48-66.2 20.1-153.85 14.91-203.19-42.47z"/>
<path fill="#e50000" d="m659.37 883.38c46.53-16.4 83.22-50.19 122.68-78.22 76.35 35.27 144.12 89.03 206.04 145.86 1.35 7.65 3.53 15.12 4.98 22.74-51.83-49.26-101.25-102.94-163.57-139.27-16.92-9.48-37.83-12.43-56.11-5.09-29.97 9.93-55.82 30.03-75.9 54.07-4.54 5.18-5.99 13.48-0.97 18.94 15.11 17.53 38.22 24 59.49 30.58 48.48 15.93 100.58 9.38 149.8 21.13 33.6 6.87 63.88 24.15 92.23 42.8 2.06 35.68 2.96 71.98-3.44 107.58-2.13 4.4 1.45 12.7-4.39 14.6-46.12-50.3-101.19-95-164.27-122.04-56.64-29.12-118.82-53.01-162.19-101.77-2.75-2.99-12.38-9.46-4.38-11.91z"/>
<path fill="#ffffcf" d="m829.08 822.83c52.41 24.17 105.25 50.46 151.84 84.28 78.98 51.26 146.68 123.79 187.18 209.79 26.7 69.6 44.6 148.5 24.5 222.7-11.8 44.5-29 87.3-51.6 127.4-7.3 22.5-26.9 38-39.2 57.8-15.8 18.2-31 36.9-48.9 53.1 9.2-14.9 16.4-31.1 26.8-45.3 35.4-78.3 57.4-162.4 66.3-247.7 6.6-96.4-28.7-193.4-88.3-268.6-28.8-35.82-61.84-67.23-96.64-95.36-41.61-35.8-85.43-69.21-131.98-98.11z"/>
<path fill="#ff4001" d="m773.39 829.4c18.28-7.34 39.19-4.39 56.11 5.09 62.32 36.33 111.74 90.01 163.57 139.27 19.03 21.69 42.03 39.44 60.83 61.44-18.7-12.8-36.1-27.2-55.86-38.28-28.35-18.65-58.63-35.93-92.23-42.8-49.22-11.75-101.32-5.2-149.8-21.13-21.27-6.58-44.38-13.05-59.49-30.58-5.02-5.46-3.57-13.76 0.97-18.94 20.08-24.04 45.93-44.14 75.9-54.07z"/>
<path fill="#dedc17" d="m615.99 877.14c17.48-14.19 30.74-32.6 45.01-49.5 3.1 17.74-1.1 34.12-3.38 51.89-16.22 3.19-30.29 12.45-45.02 19.13 0.13-7.3 1.39-14.52 3.39-21.52z"/>
<path fill="#e63636" d="m95.8 833.07c59.41 38.91 125.85 65.93 195.36 79.85-10.94 52.64 0.47 109.78 24.94 157.28-36.3-0.1-71.87-7-107.02-15.1-29.65-25.8-53.81-57.19-75.87-89.51 1.55-4.35 10.99 2.43 12.81-3.56-4.78-10.91-19.14-7.61-26.85-13.25-10.86-37.68-25.48-75.99-23.37-115.71z"/>
<path fill="#fd5e5e" d="m291.87 906.72c4.85-21.12 10.63-44.3 25.14-60.96 40.19 18.8 83.43 29.84 126.92 37.87 21.48-0.71 42.56-3.64 63.76-6.68-1.45 4.56-10.11 4.45-14.32 6.36-62.24 24.65-130.15 28.8-196.24 24.58-1.32-0.29-3.95-0.87-5.26-1.17z"/>
<path fill="#e50000" d="m541.3 869.24c1.33 7.57-5.81 25.1-0.84 36.17 6.54 18.14 32.1 29.41 47.85 15.88 17.46-13.94 36.94-25.16 58.06-32.54 7.59 24.33-3.96 50.06-6.64 74.86-7.59 21.34-12.25 43.59-18.6 65.39-10.37 15-15.28 34.7-23.93 49.4-15.3-9.5-33.62-10.3-50.65-14.9-26.96-11.7-57.2-12.6-86.16-14.7-7.66-34.1-8.97-70.46-23.71-102.56-3.29-11.37-3.51-23.57-8.67-34.35-1.83-2.26-1.29-7.83 3.8-5.05 26.57-1.45 49.73-15.64 74.98-22.02 11.41-5.42 22.08-12.45 34.51-15.58m-19.93 18.21c-18.67 22.46-33.52 48.96-40.42 77.63-2.73 23.96-2.58 48.62-8.96 72.02 33.76 6.1 68.37 8.7 101.36 18.9 3.24 0.8 15.27 2.8 10.32-3.6-19.75-15.8-44.69-23.2-66.97-34.1-14.58-22.89-7.07-52.53-5.24-77.86 1.16-17.39 8.33-37.84 9.91-52.99z"/>
<path fill="#a00" d="m521.37 887.45c-1.58 15.15-8.75 35.6-9.91 52.99-1.83 25.33-9.34 54.97 5.24 77.86 22.28 10.9 47.22 18.3 66.97 34.1 4.95 6.4-7.08 4.4-10.32 3.6-32.99-10.2-67.6-12.8-101.36-18.9 6.38-23.4 6.23-48.06 8.96-72.02 6.9-28.67 21.75-55.17 40.42-77.63z"/>
<path fill="#ff4f4f" d="m291.16 912.92c42.9 5.49 85.79 0.72 128.39-3.74 4.34 14.25 10.49 27.79 13.78 42.44 13.25 30.65 12.35 64.88 21.47 96.48-45.15 5.5-92.14 17.8-138.7 22.1-24.47-47.5-35.88-104.64-24.94-157.28z"/>
<path fill="#fe4040" d="m652.03 909.98c40.32 129.82 51.72 276.72-2.3 404.72-19.31 48.7-49.05 94.1-86.18 131.1 6.45-98.8 17.66-200.4 30.41-299.7 8.13-21.9 0.78-46.1 7.8-68.2 30.14-50.4 46.11-109.24 50.27-167.92m2.25 48.93c-3.86 27.46-5 55.49-11.9 82.49-2.51 16.6-6.95 34.4-20.58 45.4-20.45 35.4-16.51 78.8-15.05 117.4 4.72-18.2 7.47-37.1 13.41-55.1 5.36-22.2 20.07-41 22.79-64.1 7.54-41.5 12.13-84.8 11.33-126.09z"/>
<path fill="#fe5e00" d="m659.77 913.25c12.02 19.4 23.57 40.17 36.49 59.48 36.35 65.97 44.66 143.17 45.5 217.27-9.41 84.1-32.53 167.5-74.61 241.2-28.23 3.8-58.92 11.3-86.24 8 11.99-14.5 23.45-29.5 31.88-46.4 21.56-24.5 34.09-55.4 45.22-85.8 21.53-42.6 26.75-91 31.3-137.7 4.84-46.8 1.42-93.8-2.1-140.5-7.2-39.02-17.64-77.28-27.44-115.55m25.03 61.73c8.16 62.22 19.99 125.02 20.92 187.22 6.01-62.7 7.79-129.7-20.92-187.22z"/>
<path fill="#ff4001" d="m679.72 922.36c77.46 67.05 140.51 149.14 193.39 236.54 19.36 40.2 35.59 82.2 44.41 126-36.72 49.7-88.14 88.4-144.57 113.1 15.16-96 15.65-195.6-7.44-290.5-13.7-67.9-53.79-125.21-85.79-185.14m52.19 69.69c13.42 35.95 32.59 69.75 44.81 106.15 15.72 29.6 12.65 66 17.32 96.8 0.03-22.9 0.99-45.7 0.44-68.5 2.5-52.5-37.72-92.1-62.57-134.45z"/>
<path fill="#a00" d="m988.09 951.02c101.11 83.08 166.71 215.68 151.81 347.78-4.9 23.9-3.6 48.9-11.9 72.1-8.2 21.5-7 47.7-18.2 67 1.4-47.3-8.1-96.5-20.4-143.2-24.7-62.7-54.9-124.2-99.19-175.6 5.84-1.9 2.26-10.2 4.39-14.6 6.4-35.6 5.5-71.9 3.44-107.58 19.76 11.08 37.16 25.48 55.86 38.28-18.8-22-41.8-39.75-60.83-61.44-1.45-7.62-3.63-15.09-4.98-22.74z"/>
<path fill="#fe4040" d="m45.84 1023.2c-15.27-43.05 38.69-75.74 74.67-67.53-0.12 1.76-0.09 3.53 0.02 5.31-12.73 9.23-11.89 30.85-4.66 44.22 4.13 17.2 22.47 23.1 35.2 32.8 18.88 49.3 35.05 99.8 51.83 149.9-33.45-15.3-62.12-40.1-91.23-62.6-11.52-7.6-16.38-21.5-28.28-28.7-18.66-20.7-26.64-49.2-37.55-73.4z"/>
<path fill="#ffffcf" d="m723.14 954.87c101.44 70.73 180.39 173.23 223.2 289.13-7.02 13.4-16.65 25.2-24.21 38.3-6.27-34.3-20.48-66.2-33.02-98.4-23.11-55.8-60.61-103.9-96.16-151.8-23.04-25.8-47.64-50.65-69.81-77.23z"/>
<path fill="#df2121" d="m654.28 958.91c0.8 41.29-3.79 84.59-11.33 126.09-2.72 23.1-17.43 41.9-22.79 64.1-5.94 18-8.69 36.9-13.41 55.1-1.46-38.6-5.4-82 15.05-117.4 13.63-11 18.07-28.8 20.58-45.4 6.9-27 8.04-55.03 11.9-82.49z"/>
<path fill="#fe1e01" d="m745.05 964.64c27.27 10.71 55.17 27.5 83.78 38.56 60.08 31.6 118.27 70.9 161.22 124.1-8.51 38.2-22.34 75.2-39.89 110.1-42.15-107-113.52-203-205.11-272.76m97.95 57.36c13.25 12.1 20.61 28.4 29.15 43.8 18.26 35.8 49.13 63.8 77.03 91.1 2.61-19.9-3.03-42.7-11.33-61.7-24.56-32.1-61.74-51.2-94.85-73.2z"/>
<path fill="#d93801" d="m684.8 974.98c28.71 57.52 26.93 124.52 20.92 187.22-0.93-62.2-12.76-125-20.92-187.22z"/>
<path fill="#ffffcf" d="m710.87 991.18c35.46 56.82 56.19 122.42 65.25 188.82 0.16 73.4 5.48 149.3-8.11 221.2-30.34 11.5-61.06 23.6-93.36 27.7 37.59-80.7 71.82-166.1 71.14-256.7-1.1-61.2-9.83-124.3-34.92-181.02z"/>
<path fill="#de2000" d="m731.91 992.05c24.85 42.35 65.07 81.95 62.57 134.45 0.55 22.8-0.41 45.6-0.44 68.5-4.67-30.8-1.6-67.2-17.32-96.8-12.22-36.4-31.39-70.2-44.81-106.15z"/>
<path fill="#de0000" d="m843 1022c33.11 22 70.29 41.1 94.85 73.2 8.3 19 13.94 41.8 11.33 61.7-27.9-27.3-58.77-55.3-77.03-91.1-8.54-15.4-15.9-31.7-29.15-43.8z"/>
<path fill="#e22424" d="m151.07 1038c51.62 27.5 111.2 31.2 168.13 36.7 17.93 45.2 54.7 84.7 92.66 116.1-68.01 15.4-144.31 30.8-208.96-2.9-16.78-50.1-32.95-100.6-51.83-149.9z"/>
<path fill="#fe4040" d="m452.44 1053.6c27.71 6.9 60.34 2.8 88.69 13.3 15.77 6.6 33.46 7.2 48.73 15.3-46.54 52.1-110.74 88.5-178 108.6-37.96-31.4-74.73-70.9-92.66-116.1 44.91-2.7 89.2-12 133.24-21.1z"/>
<path fill="#fefe8f" d="m418.72 1195.3c62.49-21.8 123.4-52.5 168.37-102.2-28.98 54-71.52 104.3-129.91 127-12.75-8.2-27.7-13.9-38.46-24.8z"/>
<path fill="#fe4f4f" d="m593.42 1095.1c-0.89 26.9-4.13 56.2-9.88 83.6-5.32 85.9-18.71 171.2-23.6 257.1-1.56 1.3-4.68 4-6.24 5.4-71.31-2.7-143.21-11.6-211.81-30.9 36.01-30 65.95-69.4 79.4-114.9 13.83-16.2 15.78-39.2 19.51-59.5 2.13-8 11.96-6.9 18.07-10 59.45-24.7 103.48-76 134.55-130.8m-21.14 49.3c-25 33.3-49.36 68.9-84.9 92-34.11 13.2-49.99 49.7-60.77 82.2-7.04 10.8-13.9 21.8-19.71 33.3 32.82-31.7 65.66-64.8 88.18-104.8 6.47-15.9 27.05-13.1 36.95-25.1 20.94-20.2 34.73-51.6 40.25-77.6z"/>
<path fill="#d00000" d="m990.05 1127.3c46.05 48.9 70.75 113.9 97.95 174.7 11 57.1 26.2 116.6 9.3 174.3-13.3 43.3-37.6 83-64.6 118.4-38.81 34.5-84.43 62.1-135.06 74.9-38.76 12.8-80.65 21.1-120.65 19.7 23.76-16.3 49.65-29.8 71.79-48.5 21.15-22.1 45.07-41.9 63.79-66.2 21.64-25 33.59-56.2 49.02-85 32.39-81.5 15.23-171.8-11.43-252.2 17.55-34.9 31.38-71.9 39.89-110.1z"/>
<path fill="#e33333" d="m572.28 1144.4c-5.52 26-19.31 57.4-40.25 77.6-9.9 12-30.48 9.2-36.95 25.1-22.52 40-55.36 73.1-88.18 104.8 5.81-11.5 12.67-22.5 19.71-33.3 10.78-32.5 26.66-69 60.77-82.2 35.54-23.1 59.9-58.7 84.9-92z"/>
<path fill="#e5e674" d="m233.24 1206.9c61.67 13.4 125.43 5.3 185.48-11.6 10.76 10.9 25.71 16.6 38.46 24.8-34.19 13.7-70.31 24.1-107.57 22.4-28.76-4.4-58.75-6-85.39-18.7-8.42-8.4-23-9.6-30.98-16.9z"/>
<path fill="#ff7170" d="m323.89 1246c38.03 0.9 77.76 3.2 113.36-12.8-1.95 27.6-14.95 52.2-24.69 77.4-20.61 37.2-41.36 76.5-80.66 97.3-44.63-10.8-87.88-26.5-131.78-39.9 40.64-41 76.83-88 123.77-122m62.48 5.5c-24.79 4.4-51.15 0.2-75.34 7.4-26.72 25.4-51.93 52.7-74.97 81.2 32.6-19.6 61.91-45 96.38-61.7 26.29-9.8 52.49-19.6 79.65-26.7-8.04-2.1-17.19 0.8-25.72-0.2z"/>
<path fill="#e4e3b3" d="m946.34 1244c25.71 66.6 31.76 139.2 22.45 209.7-17 48.3-37.54 97.1-73.29 134.8-29.45 35.3-66.33 63.5-106.45 85.5 33.81-40.8 62.61-85.8 84.93-134 9.25-15.6 10.85-34.3 21.97-49 28.82-65 36.79-138.8 26.18-208.7 7.56-13.1 17.19-24.9 24.21-38.3z"/>
<path fill="#e05251" d="m386.37 1251.5c8.53 1 17.68-1.9 25.72 0.2-27.16 7.1-53.36 16.9-79.65 26.7-34.47 16.7-63.78 42.1-96.38 61.7 23.04-28.5 48.25-55.8 74.97-81.2 24.19-7.2 50.55-3 75.34-7.4z"/>
<path fill="#de2000" d="m917.52 1284.9c7.62 53.9 8.4 110.6-11.62 162-22.94 71.3-56.08 139.1-100.72 199.3-12.64 21-32.5 36.1-50.71 52.4-14.94 7.3-31.61 10-46.47 17.5-32.25 9.9-65.2 4.1-98.01 2-37.14-6.9-74.45-22.5-99.17-52-1.84-7.3-8.63-13.7-6.52-21.7 23.67-8.4 37.01-32.6 55.7-48.4 12.19 13.8 29.06 21.8 45.75 28.9 42.83 3.5 80.72-24.8 105.45-56.7 35.89-49.8 51.27-110.6 61.75-170.2 56.43-24.7 107.85-63.4 144.57-113.1z"/>
<path fill="#e44201" d="m24 1356c17.53-38.1 71.91-30.5 98.92-6.9 14.75 12 25.43 28.2 41.02 39.2-11.61 6.6-33.3 3.7-41.24 18.7-6.85 40 29.11 67.4 58.48 86.8 41.38 37.2 99.69 49.5 153.81 43.1 89.66-4.3 177.98-38.9 245.92-97.7 27.32 3.3 58.01-4.2 86.24-8-33.1 60.8-82.05 111.4-136.7 153.2-61.4 42.8-135.39 60.2-203.71 88.5-26.83 3.1-54 10.9-81.65 7.5-50.1-20.4-101.86-41.9-142.37-79.1-26.66-28.4-60-53.2-72.32-91.7-20.29-46.7-41.62-109-6.4-153.6z"/>
<path fill="#e22424" d="m177.88 1388.4c7.28-6.9 14.05-14.5 22.24-20.4 43.9 13.4 87.15 29.1 131.78 39.9-53.88 31.7-125.25 44.6-182.53 13.7-4.8-1.9-14.85-5.4-9.38-11.6-2.79-0.7-9.06-1.2-6.42-5.3 19.14-10.6 42.12-11.1 63.37-6.8 7.23-8.5-14.75-6.9-19.06-9.5z"/>
<path fill="#e4e3b3" d="m674.65 1428.9c32.3-4.1 63.02-16.2 93.36-27.7-14.52 65.6-28.38 137.7-80.73 185.1-23.4 21.2-55.44 44.9-88.45 29.9-15.36-6-43.79-20.9-24.7-39.1 38.73-45.8 69.67-97 100.52-148.2z"/>
<path fill="#e63636" d="m127.76 1414.3c62.93 43.7 150.98 35.4 214.13-4 68.6 19.3 140.5 28.2 211.81 30.9 1.56-1.4 4.68-4.1 6.24-5.4-1.62 19.9-21.89 30-37.16 39-41.75 30.2-92.73 43-142.46 53.6-48.47 5.4-99.19 7.9-146.13-7.6-25.11-13.2-51.14-26.2-71.2-46.8-17.42-15.4-36.81-34.4-35.23-59.7z"/>
<path fill="#e50101" d="m610.53 1517.5c1.34-0.7 1.65-0.4 0.93 0.9-42.04 57.5-84.5 122.2-155.05 147-43.4 16-89.32 22.4-135.51 22.6-18.3-1-37.69 6.3-55.26-1.3 20.97 0.3 42.66-3.1 63.27-8.8 65.71-19.4 127.3-49.9 188.06-80.9 38.63-16.6 62.74-52.8 93.56-79.5z"/>
<path d="m773.62 0h32.95c9.46 0.61 19.34 2.62 28.68 0h7.38c112.43 5.12 223.47 29.8 331.37 61 36.1 12.19 70.3 29.29 104.9 45.08 35.4 22.17 68.4 48.96 92.4 83.62 11.3 9.83 16.3 25.27 14.5 40.01-26.2 38.01-76.4 44.48-119 46.8-93.5-0.82-169.2-61.74-251-98.28-50.14-26.31-102.69-49.15-158.68-59.33-106.54-34.87-219.47-61.17-332.07-45.85-19.93 1.74-38.07 10.91-57.28 15.72-31.86 10.42-65.44 19.02-92.67 39.37-6.76 3.98-18.39 4.25-18.98 14.12-61.37 21.42-122.49 50.22-188.3 57.59-2.77 2.14-13.8 2.84-9.36-2.08 67.96-26.35 133.13-61.21 198.57-93.78 16.59-3.24 29.45-14.96 45.62-19.33 9.25-4.1 19.71-5.83 27.71-12.37 23.49-15.42 54.27-13.35 76.79-30.19 85.92-28.13 176.51-38.81 266.47-42.1m11.9 4.55c-11.78 1.42-28-1.13-37.24 2.33 82.75 6.47 164.88 20.98 244.67 44.17 78.45 21.56 156.65 44.46 232.05 74.98 33.3 15.01 67.7 28.52 97.1 50.84 20.9 16.53 49.3 30.32 53 59.82 14.7-16.11-2.9-40.3-16.3-52.45-9.4-15.63-21.5-29.86-36.5-40.52-65.5-53.06-148-77.05-227.7-99.34-64.3-17.54-130.52-28.07-196.73-35.24-37.17-6.13-74.83-5.44-112.35-4.59m-101.96 9c-43.11 0.2-88.89 12.38-129.27 21.41 117.3-17.48 237.19 2.95 348.75 41.04 25.28 6.22 48.54 18.08 72.07 28.87 56.79 22.99 111.69 50.87 164.99 81.07 40 22.87 82.6 40.5 124.6 59.45 33.9 5.87 72.6 18.12 103.5-3.35 5.3-12.33-7.8-21.1-10.4-31.22-19.2-9.85-32.1-28.13-50.5-39.13-90.2-52.01-191.8-78.04-290.6-108.43-46.84-12.11-92.73-29.05-141.09-34.8-62.63-15.27-127.86-15.82-192.05-14.91m-60.82 20.94c-54.38 2.97-109.48 11.3-159.72 33.56-22.72 4.51-41 16.89-62.99 22.99-13.47 4.5-23.1 16.96-37.82 18.12-41.75 18.37-81.85 40.19-122.79 60.28-13.49 6.36-29.34 10.92-41.12 18.65 20.47-3.2 39.93-10.84 60-15.77 32.26-15.1 70.67-19.05 97.87-43.23 20.9-3.79 33.23-22.51 54.27-25.63 29.08-17.16 62.78-22.57 95.06-30.95 106.91-20.81 216.49-0.9 319.53 29.44 57.53 17.12 116.23 32.63 169.06 61.96 53.61 21.71 101.61 55.16 155.11 76.93 57.6 26.66 124.3 39.57 185.9 19.05-29.5-1.44-64.2-1.12-91.2-17.8-34.3-15.69-70.4-27.96-101.8-49.18-158.75-88.43-334.01-164.89-519.36-158.42z" fill="#040100"/>
<path d="m785.52 4.55c37.52-0.85 75.18-1.54 112.35 4.59 66.21 7.17 132.43 17.7 196.73 35.24 79.7 22.29 162.2 46.28 227.7 99.34 15 10.66 27.1 24.89 36.5 40.52 13.4 12.15 31 36.34 16.3 52.45-3.7-29.5-32.1-43.29-53-59.82-29.4-22.32-63.8-35.83-97.1-50.84-75.4-30.52-153.6-53.42-232.05-74.98-79.79-23.19-161.92-37.7-244.67-44.17 9.24-3.46 25.46-0.91 37.24-2.33z" fill="#ffff6f"/>
<path d="m683.56 13.55c64.19-0.91 129.42-0.36 192.05 14.91 48.36 5.75 94.25 22.69 141.09 34.8 98.8 30.39 200.4 56.42 290.6 108.43 18.4 11 31.3 29.28 50.5 39.13 2.6 10.12 15.7 18.89 10.4 31.22-30.9 21.47-69.6 9.22-103.5 3.35-42-18.95-84.6-36.58-124.6-59.45-53.3-30.2-108.2-58.08-164.99-81.07-23.53-10.79-46.79-22.65-72.07-28.87-111.56-38.09-231.45-58.52-348.75-41.04 40.38-9.03 86.16-21.21 129.27-21.41z" fill="#c77f2a"/>
<path d="m622.74 34.49c185.35-6.47 360.61 69.99 519.36 158.42 31.4 21.22 67.5 33.49 101.8 49.18 27 16.68 61.7 16.36 91.2 17.8-61.6 20.52-128.3 7.61-185.9-19.05-53.5-21.77-101.5-55.22-155.11-76.93-52.83-29.33-111.53-44.84-169.06-61.96-103.04-30.34-212.62-50.25-319.53-29.44-32.28 8.38-65.98 13.79-95.06 30.95-21.04 3.12-33.37 21.84-54.27 25.63-27.2 24.18-65.61 28.13-97.87 43.23-20.07 4.93-39.53 12.57-60 15.77 11.78-7.73 27.63-12.29 41.12-18.65 40.94-20.09 81.04-41.91 122.79-60.28 14.72-1.16 24.35-13.62 37.82-18.12 21.99-6.1 40.27-18.48 62.99-22.99 50.24-22.26 105.34-30.59 159.72-33.56z" fill="#ffff80"/>
<path d="m803.76 184.82c9.47-8.21 18.27-17.25 28.24-24.86 3 4.8 2.75 12.65 10.4 12.68 19.76 6.02 22.9 31.91 10.8 46.61 3.74 7.61 16.21 11.26 17.13 21.94-0.08 3.54 0 7.12-0.16 10.67 0.63 6.82-8.69 16.61-0.1 21.04 15.58 7.53 16.92 29.71 6.99 42.23 14.82 4.65 23.42 23.74 13.73 36.83-6.17 8.29 11.2 8.99 13.71 15 2.41 7.64-1.24 15.24-4.37 22.06 8.21 6.17 19.3 14.12 15.1 26.02-0.72-0.81-1.41-1.61-2.09-2.41 1.46-11.17-8.03-22.78-19.95-16.44 0.26 10.14 3.55 19.91 7.44 29.17 1.38 3.08 4.35 0.56 5.67-1.16 0.91 0.24 1.83 0.5 2.77 0.76-2.06 3.33-7.66 6.55-4.95 10.92 7.08 13.28-2.88 32.44-18.09 33.7-7.02-1-12.8-5.7-19.21-8.35-2.25 9.54-4.73 21.02-15.17 24.94-7.32 3.79-14.46-4.34-20.26-5.3-2.29 11.99-18.67 21.93-28.23 12.58 6.98-34.34 5.07-70.36 8.1-105.43-2.21-0.81-2.84 2.87-3.11 4.5-2.58 30.54-4.76 61.19-10.1 91.37-5.09 10.21-3.37 22.05-2.38 32.93 14.08 13.39 34.44 15.61 52.73 19.02 78.25 4.32 152.8-24.02 229.2-36.39 41.6-2.57 64.5-44.46 93-68.85 62.6-57.33 122.6-120.12 193.2-168.67 7.6-5.41 17.1-5.15 25.8-3.33 9.6-13.75 27.7-12.36 41.4-19.16v0.92c-9 19.75-13.2 42.35-30.3 57.39-16.1 10.39-32 21.77-50.6 27.3-55.6 30.35-79.5 92.97-122.1 136.93-28.3 33.32-61.3 62.24-98.1 85.93-27.1 22.24-63.7 21.17-95.1 33-46.36 6.08-92.24 18.79-137.02 30.26 44.15-23.66 95.83-25.86 143.92-36.43 63.3-10.89 118.2-49.75 162.3-94.7 14.2-16.24 32-29.23 43-48.02 28.6-34.49 47.7-78.72 87.3-102.66 9.5-8.11 21.8-10.96 32.7-16.34 27.9-13.05 50.5-38 57.6-68.11-26.3 4.03-42.6 28.73-65.8 39.68 2.8-10.74 15.8-15.63 24-22.3-20.7-0.95-34.2 17.96-48.7 29.84-65.7 44.11-119.7 102.82-175.7 158.35-24.1 32.93-61.3 52.81-100.9 60.13-44.4 4.17-86.85 18.79-130.66 26.26-43.98 6.6-94.08 10.35-132.78-15.85-3.19 16.5-4.38 33.74-0.29 50.16 1.42 3.81-5.23 3.67-5.2 0.24-10.44-36.99 6.86-73.12 7.93-110.03-11.7 5.1-32.37 5.04-36.34-10.96-2.12-10.2 8.4-15.04 16.72-12.74 13.31 1.31 4.17-14.89-2.91-17.12-17.21-3.47-23.12 19.57-38.62 22.77 16.6 24.72 5.47 55.77-9.01 78.93-13.24 16.79-36.89 13.33-55.78 13.1 27.36 14.17 52.91 31.49 80.16 45.89 34.21 28.03 70.04 54.39 99.64 87.56 4-15.27 15.24-27.46 22.28-41.32 0.88 5.74 6 11-2.68 13.47-14.88 35.98-41.31 66.86-49.11 105.64-8.47 19.14-21.14 36.79-34.84 51.99 5.4 0.43 11.26 6.14 17.3 8.11 93.93 35.06 181.02 88.38 254.89 156.07 59 53.42 107.2 119.82 130.4 195.52 15.8 50.4 20.2 104.1 15.3 156.3-11.6 41-22.1 82.9-40.5 120.8-38.1 84.3-105.7 151-180.28 203.7-54.84 29.7-115.53 48.7-177.72 54.2-16.39 3.2-35.08-1-48.57 10.8-29.56 9.5-58.64 23.4-90.4 22.9h-18.92c-32-4.2-64.56-8-94.42-21.1-23.85-11.8-47.84-28.2-56.25-54.9-68.54 41.7-152.1 52.2-230.64 41.9-36.22-12.3-70.72-28.7-105.37-44.7-44.21-24.6-80.08-61.2-114.18-97.9-20.18-39.7-42.64-81.8-46.65-127.9v-18.7c1.35-22.2 8.05-44.2 25.38-59.3 19.57-28.3 60.06-25 86.77-9.6 24.11 11.8 34.7 40.8 59.93 50.8 37.97-32.4 69.73-72.7 105.5-108 12.86-10.6 27.25-22 37.94-33.5-47.3-9.3-89.86-34-132.15-56.5-39.35-30.8-85.42-55.7-113.55-98.4-12.5-23.3-25.61-47.2-29.59-73.7-7.59-39.47 35.59-71.75 72.4-65.97-13.26-33.5-44.24-56.02-57.36-89.79-2.3-8.63-11.49-12.86-13.18-21.83-19.43-49.11-48.34-100.98-31.46-155.28 8.46-20.95 23.91-43.52 47.27-48.84 27.1-16.61 60.44-13 89.03-2.66 35.71 14.29 53.42 50.6 79.9 76.05 13.23 14.64 33.38 21.45 48.04 32.98-34.89 0.08-60.81-36.31-93.24-46.57-18.37 25.35 7.14 52.17 24.64 69.14 26.55 33.28 65.56 51.47 101.13 72.92 27.79 12.19 55.25 26.94 85.67 31.41-34.68-14.67-71.97-38.87-81.01-78.01-6.96-16.43-3.22-34.83 0.24-51.61 8.48-18.7 27.15-30.14 45.41-37.8 43.67-8.68 91.8 11.63 114.17 50.49-10.14 0.37-27.29-13.42-34.04-0.22-12.7 22.67 6.28 46.14 22.81 60.45 28.3 19.59 61.9 28.72 95.1 35.54 27.11-43.58 57.79-85.86 74.88-134.73-1.98-5.2-8.97-5.37-12.39-9.48-33.69-18.75-64.36-43.59-100.2-58.71-37.23-24.84-77.81-43.88-116.1-66.91-15.85-12.75-33.94-22.12-51.09-32.9-39.13-29.69-77.87-60.71-109.01-98.99-47.56-47.74-86.83-108.45-92.91-177.01 1.74-13.1-10.41-21.61-13.69-33.43-6.29-22.42-25.65-38.69-39.07-55.52 22.07 6.2 39.76 22.05 57.57 35.71 0.12-3.59-1.83-11.25 3.84-10.86 2.53 2.67 3.53 7.47 7.84 7.74 23.99 4.46 49.88 8.38 65.83 28.94 59.79 48.97 109.5 109.35 172.91 154.09 21.92 14.06 44.45 27.19 65.7 42.3 42.38 24.77 86.91 45.64 130.02 68.98 26.62 7.62 50.79 24.26 78.96 25.09 6.74 0.87 13.55 1.08 20.31 0.03 31.9-5.62 49.06-50.32 34.96-78.25-3.77-10.59-15.92-2.39-23.42-6.74-24.02-10.58-33.42-36.91-42.68-59.33-3.54-14.71-12.11-29.36-7.02-44.88-15.17 4.8-15.3 26.45-5.88 36.95 10.03 12.74 21.34 29.67 12.93 46.01-16.64 9.5-42.31-7.76-38.45-27.11 3.73-6.33 9.56-3.16 10.57 3 5.86-1.93 5.67-10.81 1.75-14.66-8.16-10.04-24.32-17.49-22.22-32.47 3.45-10.98 9.71-21.07 18.52-28.55 10.53-17.33 7.38-38.9 13.12-57.78 4.11-12.51 18.71-15.44 25.54-25.83-4.12-19.06-2.13-38.66-1.56-57.98 7.49-1.09 8.19 15.49 13.25 17.75 17.99-34.99 69.95-48.47 101.06-23.01 4.09 2.33 8.75 13.3 14.14 7.46m-52.3-15.17c-23.29-1.02-43.62 12.81-56.78 31.07-6.29 5.45 2.2 12.51 7.24 15.18 6.06-18.69 25.89-25.6 41.59-34.33 14.52-5.63 30.89-1.18 45.44 2.49-7.87-11.84-24.19-15.12-37.49-14.41m76.91 0.66c-34.82 20.55-59.28 62.26-102.87 65.33-23.32 4.77-30.69-24.31-44.52-35.53-3.76 16.41-3.92 40.51 11.43 52.54 19.19 10.14 42.47 13.95 63.18 6.04 26.07-19.47 50.72-41.14 79.15-57.19-2.28-9.12 0.71-26.47-6.37-31.19m8.6 5.01c-1.26 9.51 1.84 18.69 4.68 27.31-7.48 4.53 1.6 12.11 2.5 18.32 18.57-9.26 16.4-43.71-7.18-45.63m-46.52 17.03c-21.43 2.39-46.3 12.84-52.32 35.48 20.55-5.93 37.82-20.05 53.38-34.33 0.8-1.35 0.44-1.74-1.06-1.15m-670.3 4.5c18.3 18.52 19.36 46.73 38.39 64.62 22.26 14.81 52.93 11.86 72.59 31.41 19.81 19.74 38.7 40.76 57.65 61.4 7.16 12.35 15.73 24.16 27.93 32 8.19 9.09 13.95 20.75 24.88 27.13 36.7 28.21 66.14 66.58 109.32 85.67 51.81 30.44 106.28 57.02 153.77 94.24 24.25 14.44 39.72 42.08 38.68 70.43-0.7 21.15-0.61 43.44 8.22 64.67 8.94 29.56 8.17 61.03 14.49 91.15 1.48 18.77 0.42 37.58-2.12 56.26 15.26-5.13 29.92-12.54 42.5-22.64 5.86-32.35 1.31-65.17-2.52-97.53-6.08-43.4-14.78-86.83-27.77-128.76-5.93-8.46-5.27-22.53-12.04-28.62-4.23 24.88-11.85 48.92-17.17 73.55-0.38-0.22-1.12-0.66-1.5-0.88 5.46-27.76 11.54-55.47 15.11-83.52-8.29-21.6-18.18-42.64-28.8-63.19-41.72-18.72-84.21-36.95-123.79-60.24-77.49-43.92-153.19-93.59-213.27-160.7-6.23-9.85-17.75-14.13-25.3-22.7-13.73-11.94-24.09-28.6-41.61-35.59-15.11-5.19-32.44 1.36-46.72-7.12-23.98-7.56-38.67-30.27-60.92-41.04m41.8 18.25c9.96 21.88 38.25 20.08 58.23 22.93-14.06-17.49-38.63-16.55-58.23-22.93m668.47 1.03c-12.28 4.49-11.41 25.76-0.52 29.74 1.28-9.46 4.92-22.96 0.52-29.74m7.78 1.81c-3.7 20.36-4.52 41.37 1.49 61.37 13.04 54.09 17.91 110.56 38.43 162.57 6.43-3.94 20.37-1.38 18.48-12.51-26.18-68.63-34.63-142.03-58.4-211.43m-23.8 4.4c-16.11 8.5-29.8 20.85-43.62 32.56-2.57 3.32 3.37 4.38 5.23 6.09 14.67 7.98 22.27 23.27 32.15 35.82 2.74-2.01 7.25-5.25 8.73-8.63-12.97-10.32-16.16-36.1 2.59-41.99-1.33-7.13-2.09-21.08-5.08-23.85m34.03 1.83c-5.49 3.84 0.7 11.7 1.31 17.09 4.72 8.79 2.44 23.67 12.27 28.78 7.61-15.55 7.55-42.15-13.58-45.87m-169.1 26.11c-7.92 21.76-10.48 45.49-13.53 68.42 14.53-7.94 31.74 3.16 34.09 19.04-8.75 9.09-25.17 9.73-32.44-1.42-1.33-2.5-2.97-18.24-3.88-6.45-3.87 38.67 13.63 77.29 39.47 106.11 24.91 14.95 65.4-8.25 62.58-37.21 17.81-14.49 29.96-37.07 28.25-60.49-16.61-0.33-31.46 9.58-48.03 10.59-6.58 3.32-16.95-4.21-12.52-11.42 5.07-8.53 14.81-15.71 25.09-15.26 11.21 3.29 22.65 15.4 34.43 6.71-2.79-7.47-2.6-16.83-8.33-22.78-14.16-0.27-28.47 0.99-42.54 2.71-18.72 6.13-20.22 29.11-21.9 45.43-0.74 5.77 2.95 17.46-5.98 18.04 4.68-17.56 0.36-37.31 9.53-53.69 13.89-18.79 40.57-19.51 61.57-16.7-5.99-16.78-22.25-25.99-36.38-34.9-24.41 5.16-50.82-1.74-69.48-16.73m143.21 0.18c-17.72 2.76-14.07 31.41 1.57 35.39-1.78-11.06 10.96-33.64-1.57-35.39m8.7 12.47c-10.56 38.01-6.11 77.94-13.8 116.14 0.42 28.42-3.99 57.05-2.79 85.35 7.91-47.86 11.5-97.27 28.82-143.01-1.57-19.9-11.57-38.63-12.23-58.48m-677.56 1.51c6.51 50.21 27.95 98.11 58.63 138.25 21.16 25.15 43.71 48.77 66.02 72.99 51.39 51.03 113.59 89.54 176.6 124.36-77.53-57.9-153.62-121.99-207.26-203.68-5.86-6.67-6.87-16.34-14.61-21.56-11.88-31.95-33.33-60.1-39.72-94.09-13.79-3.61-28.23-7.67-39.66-16.27m708.5 10.75c-0.25 13.82 2.57 27.68 6.78 40.83 5.37-5.16 9.58-12.16 12.03-19.27 0.39-10.02-8.2-21.79-18.81-21.56m-660.29 9.16c11.15 42.49 33.39 80.98 57.17 117.59 42.28 68.66 107.43 117.65 167.11 169.91 30.56 18.25 59.09 39.71 89.14 58.85 37.54 26.27 79.94 44.96 116.78 72.22 15.94-38.95 1.84-90.13-36.82-111.2-57.76-39.3-120.17-70.96-179.79-107.19-18.74-15.48-36.7-31.97-54.71-48.29-53.57-37.38-84.95-97.61-133.93-140.1-7.6-5.23-15.6-10.48-24.95-11.79m616.65 11.09c-13.04 2.61-3 19.55-0.62 25.24-1.01-7.03 5.57-24.16 0.62-25.24m55.04 24.82c-2.56 0.89-3.21 3.76-1.92 5.98 4.41 9.67 5.19 20.45 8.6 30.44 18.17-6.22 14.41-37.45-6.68-36.42m-199.84 0.85c-10.05 6.99 10.04 0.77 14.64 5.7-0.75-6.65-9.8-5.21-14.64-5.7m78.83 6.34c-16.94 3.49 7.91 8.68 12.49 2.57-1.95-3.3-8.78-2.75-12.49-2.57m-82.87 0.75c-1.93 17.67 17.44-5.48 0 0m176.53 1.84c-14.24 36.88-21.11 76.31-24.51 115.55 6.79-21.32 20.19-42.62 30.26-63.65 6.09-17.17-3.16-35.33-5.75-51.9m-158.67 3.15c-4.65 3-6.95 11.59 2.46 7.29 7.58-1.88 4.2-9-2.46-7.29m53.12 3.14c-7.98 0.21-4.47 12.75 2.53 10.1 8.55 3.25 6.64-16.25-2.53-10.1m16.59-0.42c-1.62 12.46 11.29 2.87 16.79 0.86-4.11-2.84-11.73 0.14-16.79-0.86m125.25 26.99c0.2 10.48 3.79 20.76 8.54 30.04 5.05-6.19 14.04-12.67 10.34-21.91-2.18-7.99-12.14-8.74-18.88-8.13m-26.02 21.61c-13.56 23.08-26.24 47.19-32.47 73.43 15.67-12.55 24.85-32.29 41.95-43.1-4.1-9.38-3.81-23.92-9.48-30.33m-55.8 13.74c-13.24 5.94-11.06 26.47 0.33 32.86 1.8-9.72 9.08-29.41-0.33-32.86m64.71 22.18c-12.47 14.4-26.98 27.67-37.52 43.42 13.35-8.55 29.5-14.73 43.92-19.07-0.76-7.64-1.5-19.57-6.4-24.35m34 20.92c-10.17 4.26-21.54 4.96-31.36 9.98 2.58 17.22 31.7 16.51 34.07-0.69-1.24-2.32 2.62-10.81-2.71-9.29m-39.03 12.99c-10.84 3.63-21.05 8.95-30.2 15.8 3.12 9.71 14.56 16.26 23.86 9.99 6.01-5.27 14.96-21.91 6.34-25.79m-35.08 19.15c-9.57-0.05-15.88 9.31-18.22 17.48 12.62 7.3 21.81-8.03 18.22-17.48m-181.39 56.58c34 50.99 73.37 99.54 94.03 158.09 17.14 39.37 25.7 82.19 25.95 125 16.7-14.32 31.82-30.22 42.49-49.4 1.24 0.02 1.71-0.56 1.38-1.76 2.1-5.02 5.14-9.82 5.97-15.26l0.23-0.83c1.95-9.65-7.63-17.94-9.02-27.74-17.77-22.51-25.62-51.32-45.79-72.23-31.72-44.89-77.16-76.89-115.24-115.87m20.86 13.14c33.96 27.79 64.95 59.35 92.98 93.09 14.02 19.84 32.13 38.17 39.07 61.75 12.08 8.88 12.11 27.21 22.15 37.95 4.75-22.3 20.32-40.3 26.96-61.95-0.96-3.35-4.94-5.46-7.14-8.13-0.34-0.15-1.02-0.45-1.37-0.6-20.98-22.32-42.94-44.18-67.27-62.43-31.11-24.49-65.69-44.65-102.21-59.93-1.19-0.23-4.92-2.3-3.17 0.25m-13.14 11.07c28.74 61.22 47.71 126.99 55.61 194.09 4.22 33.23 10.95 67.15 3.86 100.59 4.96 3.04 9.09-4.66 13.09-6.8 10.34-10.79 29.49-14.75 33.11-30.93 1.82-39.6-8.42-78.63-22.2-115.47-18.89-49.97-47.06-96.12-78.92-138.89-0.03-1.49-6.84-7.63-4.55-2.59m-545.25 74.41c-33.88-0.99-68.39 16.37-86.82 44.85-10.11 22.17-12.18 51.95 4.42 71.49 7 12.86 15.62 24.83 21.86 38.05 15.63 14.73 31.63 30.43 50.4 41.87 58.52 42.21 129.75 69.24 200.89 82.94 66.09 4.22 134 0.07 196.24-24.58 4.21-1.91 12.87-1.8 14.32-6.36-21.2 3.04-42.28 5.97-63.76 6.68-43.49-8.03-86.73-19.07-126.92-37.87-46.75-22.87-92.86-50.6-125.48-91.9-7.07-13.13-22.56-26.4-21.51-44-2.12-9.2 2.99-22.11 13.76-21.71 12.01 3.94 21.57 12.94 33.12 17.91-5.93-10.25-16.63-17.21-21.83-28.14-19.89-28.59-53.08-49.81-88.69-49.23m210.65 113.3c-7.32 26.39-2.36 60.28 18.73 78.75 49.34 57.38 136.99 62.57 203.19 42.47-21.32-6.25-44.19-6.88-64.71-15.48-33.06-12.91-75.35-26.86-86.03-64.91-8.81-19.17-2.09-46.94 18.67-54.95 13.44-3.75 28.48-4.63 41.08 2.19-14.52-15.09-35.67-22.69-55.8-27.17-30.12-8.56-63.74 10.86-75.13 39.1m322.01-41.26c-5.66 18.35-1.34 38.61-7.54 57.06-0.24 40.34-9.29 79.75-15.51 119.35-2 7-3.26 14.22-3.39 21.52 14.73-6.68 28.8-15.94 45.02-19.13 2.28-17.77 6.48-34.15 3.38-51.89-3.33-42.76-11.18-85.5-21.96-126.91m-212.63 28.65c-10.66 3.42-26.99 4.55-30.53 17.43-5.97 12.39-4.92 27.21-1.91 40.22 14.28 30.44 48.47 40.86 76.51 54.49 20.44 8.59 43.27 8.48 64.05 16.06 6.68 2.44 19.87 1.66 18.18-8.22-44.77-8.54-98.81-20.49-118.82-67.19-9.16-14.5-6.1-41.59 13.36-44.85-6.2-3.81-13.29-8.45-20.84-7.94m202.84-0.18c-17.28 43.55-45.17 81.66-69.83 121.22-10.74 19.29-25.14 47.87-3.33 65.37 17.43 17.94 33.99-6.89 49.76-13.05 5.88-15.07 1.09-31.77 8.49-46.49 9.22-41.28 10.79-86.74 14.91-127.05m-615.47 13.91c3.79 29.62 18.57 56.12 29.84 83.31 0.46 6.78 4.51 11.6 8.65 16.45 13.37 34.38 39.67 61.01 59.36 91.61 2.34 4.51 1.61 12.49 7.54 14.3 7.71 5.64 22.07 2.34 26.85 13.25-1.82 5.99-11.26-0.79-12.81 3.56 22.06 32.32 46.22 63.71 75.87 89.51 35.15 8.1 70.72 15 107.02 15.1 46.56-4.3 93.55-16.6 138.7-22.1-9.12-31.6-8.22-65.83-21.47-96.48-3.29-14.65-9.44-28.19-13.78-42.44-42.6 4.46-85.49 9.23-128.39 3.74-69.51-13.92-135.95-40.94-195.36-79.85-18.91-17.97-46.12-30.7-58.77-55.09-10.59-9.79-13.26-24.75-23.25-34.87m645.59 140.27c-8 2.45 1.63 8.92 4.38 11.91 43.37 48.76 105.55 72.65 162.19 101.77 63.08 27.04 118.15 71.74 164.27 122.04 44.29 51.4 74.49 112.9 99.19 175.6 12.3 46.7 21.8 95.9 20.4 143.2 11.2-19.3 10-45.5 18.2-67 8.3-23.2 7-48.2 11.9-72.1 14.9-132.1-50.7-264.7-151.81-347.78-61.92-56.83-129.69-110.59-206.04-145.86-39.46 28.03-76.15 61.82-122.68 78.22m169.71-60.55c46.55 28.9 90.37 62.31 131.98 98.11 34.8 28.13 67.84 59.54 96.64 95.36 59.6 75.2 94.9 172.2 88.3 268.6-8.9 85.3-30.9 169.4-66.3 247.7-10.4 14.2-17.6 30.4-26.8 45.3 17.9-16.2 33.1-34.9 48.9-53.1 12.3-19.8 31.9-35.3 39.2-57.8 22.6-40.1 39.8-82.9 51.6-127.4 20.1-74.2 2.2-153.1-24.5-222.7-40.5-86-108.2-158.53-187.18-209.79-46.59-33.82-99.43-60.11-151.84-84.28m-287.78 46.41c-12.43 3.13-23.1 10.16-34.51 15.58-25.25 6.38-48.41 20.57-74.98 22.02-5.09-2.78-5.63 2.79-3.8 5.05 5.16 10.78 5.38 22.98 8.67 34.35 14.74 32.1 16.05 68.46 23.71 102.56 28.96 2.1 59.2 3 86.16 14.7 17.03 4.6 35.35 5.4 50.65 14.9 8.65-14.7 13.56-34.4 23.93-49.4 6.35-21.8 11.01-44.05 18.6-65.39 2.68-24.8 14.23-50.53 6.64-74.86-21.12 7.38-40.6 18.6-58.06 32.54-15.75 13.53-41.31 2.26-47.85-15.88-4.97-11.07 2.17-28.6 0.84-36.17m110.73 40.74c-4.16 58.68-20.13 117.52-50.27 167.92-7.02 22.1 0.33 46.3-7.8 68.2-12.75 99.3-23.96 200.9-30.41 299.7 37.13-37 66.87-82.4 86.18-131.1 54.02-128 42.62-274.9 2.3-404.72m7.74 3.27c9.8 38.27 20.24 76.53 27.44 115.55 3.52 46.7 6.94 93.7 2.1 140.5-4.55 46.7-9.77 95.1-31.3 137.7-11.13 30.4-23.66 61.3-45.22 85.8-8.43 16.9-19.89 31.9-31.88 46.4-67.94 58.8-156.26 93.4-245.92 97.7-54.12 6.4-112.43-5.9-153.81-43.1-29.37-19.4-65.33-46.8-58.48-86.8 7.94-15 29.63-12.1 41.24-18.7-15.59-11-26.27-27.2-41.02-39.2-27.01-23.6-81.39-31.2-98.92 6.9-35.22 44.6-13.89 106.9 6.4 153.6 12.32 38.5 45.66 63.3 72.32 91.7 40.51 37.2 92.27 58.7 142.37 79.1 27.65 3.4 54.82-4.4 81.65-7.5 68.32-28.3 142.31-45.7 203.71-88.5 54.65-41.8 103.6-92.4 136.7-153.2 42.08-73.7 65.2-157.1 74.61-241.2-0.84-74.1-9.15-151.3-45.5-217.27-12.92-19.31-24.47-40.08-36.49-59.48m19.95 9.11c32 59.93 72.09 117.24 85.79 185.14 23.09 94.9 22.6 194.5 7.44 290.5-10.48 59.6-25.86 120.4-61.75 170.2-24.73 31.9-62.62 60.2-105.45 56.7-16.69-7.1-33.56-15.1-45.75-28.9-18.69 15.8-32.03 40-55.7 48.4-2.11 8 4.68 14.4 6.52 21.7 24.72 29.5 62.03 45.1 99.17 52 32.81 2.1 65.76 7.9 98.01-2 14.86-7.5 31.53-10.2 46.47-17.5 18.21-16.3 38.07-31.4 50.71-52.4 44.64-60.2 77.78-128 100.72-199.3 20.02-51.4 19.24-108.1 11.62-162-8.82-43.8-25.05-85.8-44.41-126-52.88-87.4-115.93-169.49-193.39-236.54m-633.88 100.84c10.91 24.2 18.89 52.7 37.55 73.4 11.9 7.2 16.76 21.1 28.28 28.7 29.11 22.5 57.78 47.3 91.23 62.6 64.65 33.7 140.95 18.3 208.96 2.9 67.26-20.1 131.46-56.5 178-108.6-15.27-8.1-32.96-8.7-48.73-15.3-28.35-10.5-60.98-6.4-88.69-13.3-44.04 9.1-88.33 18.4-133.24 21.1-56.93-5.5-116.51-9.2-168.13-36.7-12.73-9.7-31.07-15.6-35.2-32.8-7.23-13.37-8.07-34.99 4.66-44.22-0.11-1.78-0.14-3.55-0.02-5.31-35.98-8.21-89.94 24.48-74.67 67.53m677.3-68.33c22.17 26.58 46.77 51.43 69.81 77.23 35.55 47.9 73.05 96 96.16 151.8 12.54 32.2 26.75 64.1 33.02 98.4 10.61 69.9 2.64 143.7-26.18 208.7-11.12 14.7-12.72 33.4-21.97 49-22.32 48.2-51.12 93.2-84.93 134 40.12-22 77-50.2 106.45-85.5 35.75-37.7 56.29-86.5 73.29-134.8 9.31-70.5 3.26-143.1-22.45-209.7-42.81-115.9-121.76-218.4-223.2-289.13m21.91 9.77c91.59 69.76 162.96 165.76 205.11 272.76 26.66 80.4 43.82 170.7 11.43 252.2-15.43 28.8-27.38 60-49.02 85-18.72 24.3-42.64 44.1-63.79 66.2-22.14 18.7-48.03 32.2-71.79 48.5 40 1.4 81.89-6.9 120.65-19.7 50.63-12.8 96.25-40.4 135.06-74.9 27-35.4 51.3-75.1 64.6-118.4 16.9-57.7 1.7-117.2-9.3-174.3-27.2-60.8-51.9-125.8-97.95-174.7-42.95-53.2-101.14-92.5-161.22-124.1-28.61-11.06-56.51-27.85-83.78-38.56m-622.65 1.59c-14.25 15.16-4.09 38.77 8.85 51.57 18.72 16.1 42.14 25.7 65.69 32.3-29.87-22.8-47.82-59.73-74.54-83.87m588.47 24.95c25.09 56.72 33.82 119.82 34.92 181.02 0.68 90.6-33.55 176-71.14 256.7-30.85 51.2-61.79 102.4-100.52 148.2-19.09 18.2 9.34 33.1 24.7 39.1 33.01 15 65.05-8.7 88.45-29.9 52.35-47.4 66.21-119.5 80.73-185.1 13.59-71.9 8.27-147.8 8.11-221.2-9.06-66.4-29.79-132-65.25-188.82m-292.15 204.12c-60.05 16.9-123.81 25-185.48 11.6 7.98 7.3 22.56 8.5 30.98 16.9 26.64 12.7 56.63 14.3 85.39 18.7 37.26 1.7 73.38-8.7 107.57-22.4 58.39-22.7 100.93-73 129.91-127-44.97 49.7-105.88 80.4-168.37 102.2m174.7-100.2c-31.07 54.8-75.1 106.1-134.55 130.8-6.11 3.1-15.94 2-18.07 10-3.73 20.3-5.68 43.3-19.51 59.5-13.45 45.5-43.39 84.9-79.4 114.9-63.15 39.4-151.2 47.7-214.13 4-1.58 25.3 17.81 44.3 35.23 59.7 20.06 20.6 46.09 33.6 71.2 46.8 46.94 15.5 97.66 13 146.13 7.6 49.73-10.6 100.71-23.4 142.46-53.6 15.27-9 35.54-19.1 37.16-39 4.89-85.9 18.28-171.2 23.6-257.1 5.75-27.4 8.99-56.7 9.88-83.6m-269.53 150.9c-46.94 34-83.13 81-123.77 122-8.19 5.9-14.96 13.5-22.24 20.4 4.31 2.6 26.29 1 19.06 9.5-21.25-4.3-44.23-3.8-63.37 6.8-2.64 4.1 3.63 4.6 6.42 5.3-5.47 6.2 4.58 9.7 9.38 11.6 57.28 30.9 128.65 18 182.53-13.7 39.3-20.8 60.05-60.1 80.66-97.3 9.74-25.2 22.74-49.8 24.69-77.4-35.6 16-75.33 13.7-113.36 12.8m286.64 271.5c-30.82 26.7-54.93 62.9-93.56 79.5-60.76 31-122.35 61.5-188.06 80.9-20.61 5.7-42.3 9.1-63.27 8.8 17.57 7.6 36.96 0.3 55.26 1.3 46.19-0.2 92.11-6.6 135.51-22.6 70.55-24.8 113.01-89.5 155.05-147 0.72-1.3 0.41-1.6-0.93-0.9z" fill="#040100"/>
<path d="m751.46 169.65c13.3-0.71 29.62 2.57 37.49 14.41-14.55-3.67-30.92-8.12-45.44-2.49-15.7 8.73-35.53 15.64-41.59 34.33-5.04-2.67-13.53-9.73-7.24-15.18 13.16-18.26 33.49-32.09 56.78-31.07z" fill="#bc0102"/>
<path d="m828.37 170.31c7.08 4.72 4.09 22.07 6.37 31.19-28.43 16.05-53.08 37.72-79.15 57.19-20.71 7.91-43.99 4.1-63.18-6.04-15.35-12.03-15.19-36.13-11.43-52.54 13.83 11.22 21.2 40.3 44.52 35.53 43.59-3.07 68.05-44.78 102.87-65.33m-2.34 7.81c-12.53 8.53-22.79 19.89-32.63 31.28-16.71 13.72-35.21 25.15-53.72 36.26-3.15 1.55-5.28 5.98-1.56 8.25 34.06-9.62 60.03-36.11 89.23-54.89 0.1-5.6 3.22-17.2-1.32-20.9m-141.01 38.6c-10.38 23.3 14.4 34.27 32.34 36.98 2.44-0.36 13.28 5.15 10.97-0.96-14.05-11.89-36.16-17.33-43.31-36.02z" fill="#ba0301"/>
<path d="m836.97 175.32c23.58 1.92 25.75 36.37 7.18 45.63-0.9-6.21-9.98-13.79-2.5-18.32-2.84-8.62-5.94-17.8-4.68-27.31z" fill="#fede02"/>
<path d="m826.03 178.12c4.54 3.7 1.42 15.3 1.32 20.9-29.2 18.78-55.17 45.27-89.23 54.89-3.72-2.27-1.59-6.7 1.56-8.25 18.51-11.11 37.01-22.54 53.72-36.26 9.84-11.39 20.1-22.75 32.63-31.28z" fill="#fefd70"/>
<path d="m790.45 192.35c1.5-0.59 1.86-0.2 1.06 1.15-15.56 14.28-32.83 28.4-53.38 34.33 6.02-22.64 30.89-33.09 52.32-35.48z" fill="#0100af"/>
<path d="m120.15 196.85c22.25 10.77 36.94 33.48 60.92 41.04 14.28 8.48 31.61 1.93 46.72 7.12 17.52 6.99 27.88 23.65 41.61 35.59 7.55 8.57 19.07 12.85 25.3 22.7 60.08 67.11 135.78 116.78 213.27 160.7 39.58 23.29 82.07 41.52 123.79 60.24 10.62 20.55 20.51 41.59 28.8 63.19-3.57 28.05-9.65 55.76-15.11 83.52-1.41 12.47-1.28-3.24-2.09-7.2 1.04-28.35-14.43-55.99-38.68-70.43-47.49-37.22-101.96-63.8-153.77-94.24-43.18-19.09-72.62-57.46-109.32-85.67-10.93-6.38-16.69-18.04-24.88-27.13-12.2-7.84-20.77-19.65-27.93-32-18.95-20.64-37.84-41.66-57.65-61.4-19.66-19.55-50.33-16.6-72.59-31.41-19.03-17.89-20.09-46.1-38.39-64.62z" fill="#fedfdd"/>
<path d="m161.95 215.1c19.6 6.38 44.17 5.44 58.23 22.93-19.98-2.85-48.27-1.05-58.23-22.93z" fill="#fdd3c6"/>
<path d="m830.42 216.13c4.4 6.78 0.76 20.28-0.52 29.74-10.89-3.98-11.76-25.25 0.52-29.74z" fill="#fefe9f"/>
<path d="m685.02 216.72c7.15 18.69 29.26 24.13 43.31 36.02 2.31 6.11-8.53 0.6-10.97 0.96-17.94-2.71-42.72-13.68-32.34-36.98z" fill="#fefd70"/>
<path d="m838.2 217.94c23.77 69.4 32.22 142.8 58.4 211.43 1.89 11.13-12.05 8.57-18.48 12.51-20.52-52.01-25.39-108.48-38.43-162.57-6.01-20-5.19-41.01-1.49-61.37z" fill="#fefe70"/>
<path d="m814.4 222.34c2.99 2.77 3.75 16.72 5.08 23.85-18.75 5.89-15.56 31.67-2.59 41.99-1.48 3.38-5.99 6.62-8.73 8.63-9.88-12.55-17.48-27.84-32.15-35.82-1.86-1.71-7.8-2.77-5.23-6.09 13.82-11.71 27.51-24.06 43.62-32.56z" fill="#0100b1"/>
<path d="m848.43 224.17c21.13 3.72 21.19 30.32 13.58 45.87-9.83-5.11-7.55-19.99-12.27-28.78-0.61-5.39-6.8-13.25-1.31-17.09z" fill="#fdbe02"/>
<path d="m870.33 241.19c0.95 3.49 0.44 7.17-0.16 10.67 0.16-3.55 0.08-7.13 0.16-10.67z" fill="#60460f"/>
<path d="m1358.8 284.59c23.2-10.95 39.5-35.65 65.8-39.68-7.1 30.11-29.7 55.06-57.6 68.11-10.9 5.38-23.2 8.23-32.7 16.34-39.6 23.94-58.7 68.17-87.3 102.66-11 18.79-28.8 31.78-43 48.02-44.1 44.95-99 83.81-162.3 94.7-48.09 10.57-99.77 12.77-143.92 36.43-7.48 7.08-19.18 7.37-25.14 16.33-7.04 13.86-18.28 26.05-22.28 41.32-29.6-33.17-65.43-59.53-99.64-87.56-27.25-14.4-52.8-31.72-80.16-45.89 18.89 0.23 42.54 3.69 55.78-13.1 14.48-23.16 25.61-54.21 9.01-78.93 15.5-3.2 21.41-26.24 38.62-22.77 7.08 2.23 16.22 18.43 2.91 17.12-8.32-2.3-18.84 2.54-16.72 12.74 3.97 16 24.64 16.06 36.34 10.96-1.07 36.91-18.37 73.04-7.93 110.03-0.03 3.43 6.62 3.57 5.2-0.24-4.09-16.42-2.9-33.66 0.29-50.16 38.7 26.2 88.8 22.45 132.78 15.85 43.81-7.47 86.26-22.09 130.66-26.26 39.6-7.32 76.8-27.2 100.9-60.13 56-55.53 110-114.24 175.7-158.35 14.5-11.88 28-30.79 48.7-29.84-8.2 6.67-21.2 11.56-24 22.3z" fill="#fedfdd"/>
<path d="m679.33 250.28c18.66 14.99 45.07 21.89 69.48 16.73 14.13 8.91 30.39 18.12 36.38 34.9-21-2.81-47.68-2.09-61.57 16.7-9.17 16.38-4.85 36.13-9.53 53.69 8.93-0.58 5.24-12.27 5.98-18.04 1.68-16.32 3.18-39.3 21.9-45.43 14.07-1.72 28.38-2.98 42.54-2.71 5.73 5.95 5.54 15.31 8.33 22.78-11.78 8.69-23.22-3.42-34.43-6.71-10.28-0.45-20.02 6.73-25.09 15.26-4.43 7.21 5.94 14.74 12.52 11.42 16.57-1.01 31.42-10.92 48.03-10.59 1.71 23.42-10.44 46-28.25 60.49 2.82 28.96-37.67 52.16-62.58 37.21-25.84-28.82-43.34-67.44-39.47-106.11 0.91-11.79 2.55 3.95 3.88 6.45 7.27 11.15 23.69 10.51 32.44 1.42-2.35-15.88-19.56-26.98-34.09-19.04 3.05-22.93 5.61-46.66 13.53-68.42m-4.71 48.13c-1.07-0.12-4.1 1-1.68 1.67 13.41 3.5 28.84 7.2 34.88 21.1-2.26-15.21-18.72-24.61-33.2-22.77m41.72 98.02c-6.85 2.74-14.66 1.34-21.45 4.47 5.09 4.22 1.37 13.6 9.24 15.09 11.13 6.71 20.85-7.57 24.46-15.85-5.33 1.12-9.16-2.32-12.25-3.71z" fill="#fedfdd"/>
<path d="m822.54 250.46c12.53 1.75-0.21 24.33 1.57 35.39-15.64-3.98-19.29-32.63-1.57-35.39z" fill="#fdfeb0"/>
<path d="m831.24 262.93c0.66 19.85 10.66 38.58 12.23 58.48-17.32 45.74-20.91 95.15-28.82 143.01-1.2-28.3 3.21-56.93 2.79-85.35 7.69-38.2 3.24-78.13 13.8-116.14z" fill="#fd9e02"/>
<path d="m153.68 264.44c11.43 8.6 25.87 12.66 39.66 16.27 6.39 33.99 27.84 62.14 39.72 94.09 7.74 5.22 8.75 14.89 14.61 21.56 53.64 81.69 129.73 145.78 207.26 203.68-63.01-34.82-125.21-73.33-176.6-124.36-22.31-24.22-44.86-47.84-66.02-72.99-30.68-40.14-52.12-88.04-58.63-138.25z" fill="#fffe6f"/>
<path d="m862.18 275.19c10.61-0.23 19.2 11.54 18.81 21.56-2.45 7.11-6.66 14.11-12.03 19.27-4.21-13.15-7.03-27.01-6.78-40.83z" fill="#fd9e03"/>
<path d="m818.54 295.44c4.95 1.08-1.63 18.21-0.62 25.24-2.38-5.69-12.42-22.63 0.62-25.24z" fill="#fdfec2"/>
<path d="m674.62 298.41c14.48-1.84 30.94 7.56 33.2 22.77-6.04-13.9-21.47-17.6-34.88-21.1-2.42-0.67 0.61-1.79 1.68-1.67z" fill="#040100"/>
<path d="m873.58 320.26c21.09-1.03 24.85 30.2 6.68 36.42-3.41-9.99-4.19-20.77-8.6-30.44-1.29-2.22-0.64-5.09 1.92-5.98z" fill="#fd7f02"/>
<path d="m673.74 321.11c4.84 0.49 13.89-0.95 14.64 5.7-4.6-4.93-24.69 1.29-14.64-5.7z" fill="#6060e5"/>
<path d="m752.57 327.45c3.71-0.18 10.54-0.73 12.49 2.57-4.58 6.11-29.43 0.92-12.49-2.57z" fill="#5f5ff2"/>
<path d="m669.7 328.2c17.44-5.48-1.93 17.67 0 0z" fill="#fefefe"/>
<path d="m846.23 330.04c2.59 16.57 11.84 34.73 5.75 51.9-10.07 21.03-23.47 42.33-30.26 63.65 3.4-39.24 10.27-78.67 24.51-115.55z" fill="#fd7f01"/>
<path d="m687.56 333.19c6.66-1.71 10.04 5.41 2.46 7.29-9.41 4.3-7.11-4.29-2.46-7.29z" fill="#fefdfe"/>
<path d="m740.68 336.33c9.17-6.15 11.08 13.35 2.53 10.1-7 2.65-10.51-9.89-2.53-10.1z" fill="#fefefe"/>
<path d="m757.27 335.91c5.06 1 12.68-1.98 16.79 0.86-5.5 2.01-18.41 11.6-16.79-0.86z" fill="#fefefc"/>
<path d="m882.52 362.9c6.74-0.61 16.7 0.14 18.88 8.13 3.7 9.24-5.29 15.72-10.34 21.91-4.75-9.28-8.34-19.56-8.54-30.04z" fill="#fd5e02"/>
<path d="m856.5 384.51c5.67 6.41 5.38 20.95 9.48 30.33-17.1 10.81-26.28 30.55-41.95 43.1 6.23-26.24 18.91-50.35 32.47-73.43z" fill="#fd5e02"/>
<path d="m893.19 396.19c11.92-6.34 21.41 5.27 19.95 16.44-2 4.02-4.49 7.76-6.84 11.57-1.32 1.72-4.29 4.24-5.67 1.16-3.89-9.26-7.18-19.03-7.44-29.17z" fill="#fd4102"/>
<path d="m716.34 396.43c3.09 1.39 6.92 4.83 12.25 3.71-3.61 8.28-13.33 22.56-24.46 15.85-7.87-1.49-4.15-10.87-9.24-15.09 6.79-3.13 14.6-1.73 21.45-4.47m-12.24 5.62c-8.28 12.89 14.37 15.77 15.95 3.04-4.08-7.17-11.75 3.82-15.95-3.04z" fill="#060001"/>
<path d="m800.7 398.25c9.41 3.45 2.13 23.14 0.33 32.86-11.39-6.39-13.57-26.92-0.33-32.86z" fill="#0100af"/>
<path d="m704.1 402.05c4.2 6.86 11.87-4.13 15.95 3.04-1.58 12.73-24.23 9.85-15.95-3.04z" fill="#b90303"/>
<path d="m913.14 412.63c0.68 0.8 1.37 1.6 2.09 2.41-1.42 3.64-3.92 6.76-6.16 9.92-0.94-0.26-1.86-0.52-2.77-0.76 2.35-3.81 4.84-7.55 6.84-11.57z" fill="#320f03"/>
<path d="m865.41 420.43c4.9 4.78 5.64 16.71 6.4 24.35-14.42 4.34-30.57 10.52-43.92 19.07 10.54-15.75 25.05-29.02 37.52-43.42z" fill="#fd4002"/>
<path d="m899.41 441.35c5.33-1.52 1.47 6.97 2.71 9.29-2.37 17.2-31.49 17.91-34.07 0.69 9.82-5.02 21.19-5.72 31.36-9.98z" fill="#fd1e02"/>
<path d="m860.38 454.34c8.62 3.88-0.33 20.52-6.34 25.79-9.3 6.27-20.74-0.28-23.86-9.99 9.15-6.85 19.36-12.17 30.2-15.8z" fill="#fd5f5f"/>
<path d="m825.3 473.49c3.59 9.45-5.6 24.78-18.22 17.48 2.34-8.17 8.65-17.53 18.22-17.48z" fill="#fc504f"/>
<path d="m643.91 530.07c38.08 38.98 83.52 70.98 115.24 115.87-5.12 7.69-7.76 16.52-11.43 24.9-7.52-2.2 5.52 6.26 3.25 8.33-4.7-0.03-17.42 2.96-6.76 3.82-2.88 0.6-4.94 2.64-6.27 5.17-20.66-58.55-60.03-107.1-94.03-158.09m75.36 77.95c-0.29 7.16-4.77 5.96-9.54 2.17 1.48 3.45 9.81 10.16-0.08 8.44-7.99 1.66 11.95 1.67 2.35 5.33-7.29 6.93 10.04-4.14 6.52 5.46 1.94 7.34 1.74-6.81 6.04-3.84 8.08 2.01-5.96-6.24 3.85-5.16 10.59-2.64-9.65-1.06-2.19-5.19 6.64-7.72-11.52 5.19-6.95-7.21z" fill="#fefe9d"/>
<path d="m678.84 530.21c6.77-0.05 13.52-0.05 20.31 0.03-6.76 1.05-13.57 0.84-20.31-0.03z" fill="#35310a"/>
<path d="m664.77 543.21c-1.75-2.55 1.98-0.48 3.17-0.25 36.52 15.28 71.1 35.44 102.21 59.93 11.76 6.63-1.97 17.88-3.51 26.74-1.45 3.72-3.95 10.95-8.89 6.67-28.03-33.74-59.02-65.3-92.98-93.09z" fill="#d80101"/>
<path d="m651.63 554.28c-2.29-5.04 4.52 1.1 4.55 2.59 31.86 42.77 60.03 88.92 78.92 138.89-9.76 17.23-17.83 35.46-27.86 52.61-7.9-67.1-26.87-132.87-55.61-194.09z" fill="#fe1f1f"/>
<path d="m664.12 598.28c6.77 6.09 6.11 20.16 12.04 28.62 12.99 41.93 21.69 85.36 27.77 128.76-13.31 20.87-24.34 43.14-37.86 63.91-6.32-30.12-5.55-61.59-14.49-91.15-8.83-21.23-8.92-43.52-8.22-64.67 0.81 3.96 0.68 19.67 2.09 7.2 0.38 0.22 1.12 0.66 1.5 0.88 5.32-24.63 12.94-48.67 17.17-73.55z" fill="#ff1f1f"/>
<path d="m770.15 602.89c24.33 18.25 46.29 40.11 67.27 62.43-5.9 2.13-12.04 3.7-18.35 3.56 0.6-2.3 4.96-9.51 0.53-5.25-6.7 6.62-3.05-9.74-6.61-11.5-0.27 7.09 0.6 18.73-7.32 9.96 8.27 13.16-14.22 2.47-17.53 3.82 5.08 3.9 11.96 4.76 17.81 7.32-11.15 1.4-4.03 1.12-0.02 4.54-8.38 3.95-4.57 4.51 2.19 1.34-2.99 4.89-7.59 8.48-11.05 13.01 4.49-2.69 8.02-6.98 13.01-8.81-0.34 1.82-1.84 8.69 0.96 3.49 0.91-11.14 7.74 9.88 6.31-0.08-4.73-10.85 8.7 4.73 12.56 5.38-3.67-4.34-7.43-8.6-10.87-13.12 1.8 0.39 9.18 3.85 5.13 0.74-7.5-4.27 12.41-4.77-1.53-6.3 2.29-2.61 11.64-4.12 16.15-7.5 2.2 2.67 6.18 4.78 7.14 8.13-6.64 21.65-22.21 39.65-26.96 61.95-10.04-10.74-10.07-29.07-22.15-37.95-6.94-23.58-25.05-41.91-39.07-61.75 4.94 4.28 7.44-2.95 8.89-6.67 1.54-8.86 15.27-20.11 3.51-26.74z" fill="#be0101"/>
<path d="m719.27 608.02c-4.57 12.4 13.59-0.51 6.95 7.21-7.46 4.13 12.78 2.55 2.19 5.19-9.81-1.08 4.23 7.17-3.85 5.16-4.3-2.97-4.1 11.18-6.04 3.84 3.52-9.6-13.81 1.47-6.52-5.46 9.6-3.66-10.34-3.67-2.35-5.33 9.89 1.72 1.56-4.99 0.08-8.44 4.77 3.79 9.25 4.99 9.54-2.17z" fill="#4142f3"/>
<path d="m106.38 628.69c35.61-0.58 68.8 20.64 88.69 49.23 5.2 10.93 15.9 17.89 21.83 28.14-11.55-4.97-21.11-13.97-33.12-17.91-10.77-0.4-15.88 12.51-13.76 21.71-1.05 17.6 14.44 30.87 21.51 44-18.96 1.65-36.01 10.67-53.66 17-21.43 10-39.2 29.78-41.63 54.09-18.77-11.44-34.77-27.14-50.4-41.87-6.24-13.22-14.86-25.19-21.86-38.05-16.6-19.54-14.53-49.32-4.42-71.49 18.43-28.48 52.94-45.84 86.82-44.85z" fill="#fe5e5e"/>
<path d="m759.15 645.94c20.17 20.91 28.02 49.72 45.79 72.23 1.39 9.8 10.97 18.09 9.02 27.74-6.15-0.91-12.26-2.07-18.28-3.57 3.38-5.1 9.57-7.75 12.48-13.13-5.36 1.63-10.05 4.82-15.2 6.95-2.28-5.4-1.87-11.44-3.04-17.09-5.46 2.02-0.45 13.8-5.86 16.84-5.12-2.01-9.5-5.68-14.93-6.98 3.17 4.42 8.05 7.57 10.81 12.25-1.09 5.69-14.28 0.08-14.77 5.81 4.47 1.63 11.9-1.16 14.82 2.84-3.29 4.07-8.06 7.08-10 12.1 5.61-1.88 10.83-4.72 16.35-6.84 0.61 4.96 0.92 9.97 1.47 14.95 4.77-2.34 2.43-10.32 4.12-14.86 5.37 1.7 10.15 4.97 14.45 8.58-10.67 19.18-25.79 35.08-42.49 49.4-0.25-42.81-8.81-85.63-25.95-125 1.33-2.53 3.39-4.57 6.27-5.17 11.46-1.48 4.89 6.63-0.01 12.13 4.14-1.28 7.78-3.73 11.89-5.1 0.68 4.05 0.91 8.21 1.93 12.23 1.99-3.66 2.25-7.92 3.14-11.9 4.32-0.21 7.72 3.54 11.75 4.79-1.83-4.02-13.27-11.73-2.95-11.1 12.39-1.09-1.06-3.12-5.19-4.52 4.5-3.5 11.63-12.18 1.5-5.3-7.93 8.48-5.09-16.77-8.71-5.5 1.73 10.67-5.57 5.99-9.84 2.12 3.67-8.38 6.31-17.21 11.43-24.9z" fill="#e0dd71"/>
<path d="m812.99 652.13c3.56 1.76-0.09 18.12 6.61 11.5 4.43-4.26 0.07 2.95-0.53 5.25 6.31 0.14 12.45-1.43 18.35-3.56 0.35 0.15 1.03 0.45 1.37 0.6-4.51 3.38-13.86 4.89-16.15 7.5 13.94 1.53-5.97 2.03 1.53 6.3 4.05 3.11-3.33-0.35-5.13-0.74 3.44 4.52 7.2 8.78 10.87 13.12-3.86-0.65-17.29-16.23-12.56-5.38 1.43 9.96-5.4-11.06-6.31 0.08-2.8 5.2-1.3-1.67-0.96-3.49-4.99 1.83-8.52 6.12-13.01 8.81 3.46-4.53 8.06-8.12 11.05-13.01-6.76 3.17-10.57 2.61-2.19-1.34-4.01-3.42-11.13-3.14 0.02-4.54-5.85-2.56-12.73-3.42-17.81-7.32 3.31-1.35 25.8 9.34 17.53-3.82 7.92 8.77 7.05-2.87 7.32-9.96z" fill="#fffd9e"/>
<path d="m757.56 668.72c3.62-11.27 0.78 13.98 8.71 5.5 10.13-6.88 3 1.8-1.5 5.3 4.13 1.4 17.58 3.43 5.19 4.52-10.32-0.63 1.12 7.08 2.95 11.1-4.03-1.25-7.43-5-11.75-4.79-0.89 3.98-1.15 8.24-3.14 11.9-1.02-4.02-1.25-8.18-1.93-12.23-4.11 1.37-7.75 3.82-11.89 5.1 4.9-5.5 11.47-13.61 0.01-12.13-10.66-0.86 2.06-3.85 6.76-3.82 2.27-2.07-10.77-10.53-3.25-8.33 4.27 3.87 11.57 8.55 9.84-2.12z" fill="#4042f6"/>
<path d="m735.1 695.76c13.78 36.84 24.02 75.87 22.2 115.47-3.62 16.18-22.77 20.14-33.11 30.93-4 2.14-8.13 9.84-13.09 6.8 7.09-33.44 0.36-67.36-3.86-100.59 10.03-17.15 18.1-35.38 27.86-52.61z" fill="#e50000"/>
<path d="m317.03 741.99c11.39-28.24 45.01-47.66 75.13-39.1 20.13 4.48 41.28 12.08 55.8 27.17-12.6-6.82-27.64-5.94-41.08-2.19-20.76 8.01-27.48 35.78-18.67 54.95-19.7 6.74-39.98 20.55-52.45 37.92-21.09-18.47-26.05-52.36-18.73-78.75z" fill="#e65857"/>
<path d="m639.04 700.73c10.78 41.41 18.63 84.15 21.96 126.91-14.27 16.9-27.53 35.31-45.01 49.5 6.22-39.6 15.27-79.01 15.51-119.35 6.2-18.45 1.88-38.71 7.54-57.06z" fill="#feff5d"/>
<path d="m784.06 735.91c5.41-3.04 0.4-14.82 5.86-16.84 1.17 5.65 0.76 11.69 3.04 17.09 5.15-2.13 9.84-5.32 15.2-6.95-2.91 5.38-9.1 8.03-12.48 13.13 6.02 1.5 12.13 2.66 18.28 3.57l-0.23 0.83c-5.63 0.84-11.45 1.07-16.78 3.21 3.05 4.47 7.06 8.15 10.81 12.05 0.33 1.2-0.14 1.78-1.38 1.76-4.3-3.61-9.08-6.88-14.45-8.58-1.69 4.54 0.65 12.52-4.12 14.86-0.55-4.98-0.86-9.99-1.47-14.95-5.52 2.12-10.74 4.96-16.35 6.84 1.94-5.02 6.71-8.03 10-12.1-2.92-4-10.35-1.21-14.82-2.84 0.49-5.73 13.68-0.12 14.77-5.81-2.76-4.68-7.64-7.83-10.81-12.25 5.43 1.3 9.81 4.97 14.93 6.98z" fill="#4041f9"/>
<path d="m426.41 729.38c7.55-0.51 14.64 4.13 20.84 7.94-19.46 3.26-22.52 30.35-13.36 44.85 20.01 46.7 74.05 58.65 118.82 67.19 1.69 9.88-11.5 10.66-18.18 8.22-20.78-7.58-43.61-7.47-64.05-16.06-28.04-13.63-62.23-24.05-76.51-54.49-3.01-13.01-4.06-27.83 1.91-40.22 3.54-12.88 19.87-14.01 30.53-17.43z" fill="#e28201"/>
<path d="m629.25 729.2c-4.12 40.31-5.69 85.77-14.91 127.05-7.4 14.72-2.61 31.42-8.49 46.49-15.77 6.16-32.33 30.99-49.76 13.05-21.81-17.5-7.41-46.08 3.33-65.37 24.66-39.56 52.55-77.67 69.83-121.22z" fill="#fd3030"/>
<path d="m13.78 743.11c9.99 10.12 12.66 25.08 23.25 34.87 12.65 24.39 39.86 37.12 58.77 55.09-2.11 39.72 12.51 78.03 23.37 115.71-5.93-1.81-5.2-9.79-7.54-14.3-19.69-30.6-45.99-57.23-59.36-91.61-4.14-4.85-8.19-9.67-8.65-16.45-11.27-27.19-26.05-53.69-29.84-83.31z" fill="#fe4f4f"/>
<path d="m796.95 749.95c5.33-2.14 11.15-2.37 16.78-3.21-0.83 5.44-3.87 10.24-5.97 15.26-3.75-3.9-7.76-7.58-10.81-12.05z" fill="#dedd74"/>
<path d="m137.87 770.86c17.65-6.33 34.7-15.35 53.66-17 32.62 41.3 78.73 69.03 125.48 91.9-14.51 16.66-20.29 39.84-25.14 60.96 1.31 0.3 3.94 0.88 5.26 1.17-71.14-13.7-142.37-40.73-200.89-82.94 2.43-24.31 20.2-44.09 41.63-54.09z" fill="#db3b3b"/>
<path d="m666.07 819.57c13.52-20.77 24.55-43.04 37.86-63.91 3.83 32.36 8.38 65.18 2.52 97.53-12.58 10.1-27.24 17.51-42.5 22.64 2.54-18.68 3.6-37.49 2.12-56.26z" fill="#de0000"/>
<path d="m335.76 820.74c12.47-17.37 32.75-31.18 52.45-37.92 10.68 38.05 52.97 52 86.03 64.91 20.52 8.6 43.39 9.23 64.71 15.48-66.2 20.1-153.85 14.91-203.19-42.47z" fill="#fe7170"/>
<path d="m659.37 883.38c46.53-16.4 83.22-50.19 122.68-78.22 76.35 35.27 144.12 89.03 206.04 145.86 1.35 7.65 3.53 15.12 4.98 22.74-51.83-49.26-101.25-102.94-163.57-139.27-16.92-9.48-37.83-12.43-56.11-5.09-29.97 9.93-55.82 30.03-75.9 54.07-4.54 5.18-5.99 13.48-0.97 18.94 15.11 17.53 38.22 24 59.49 30.58 48.48 15.93 100.58 9.38 149.8 21.13 33.6 6.87 63.88 24.15 92.23 42.8 2.06 35.68 2.96 71.98-3.44 107.58-2.13 4.4 1.45 12.7-4.39 14.6-46.12-50.3-101.19-95-164.27-122.04-56.64-29.12-118.82-53.01-162.19-101.77-2.75-2.99-12.38-9.46-4.38-11.91z" fill="#e50000"/>
<path d="m829.08 822.83c52.41 24.17 105.25 50.46 151.84 84.28 78.98 51.26 146.68 123.79 187.18 209.79 26.7 69.6 44.6 148.5 24.5 222.7-11.8 44.5-29 87.3-51.6 127.4-7.3 22.5-26.9 38-39.2 57.8-15.8 18.2-31 36.9-48.9 53.1 9.2-14.9 16.4-31.1 26.8-45.3 35.4-78.3 57.4-162.4 66.3-247.7 6.6-96.4-28.7-193.4-88.3-268.6-28.8-35.82-61.84-67.23-96.64-95.36-41.61-35.8-85.43-69.21-131.98-98.11z" fill="#ffffcf"/>
<path d="m773.39 829.4c18.28-7.34 39.19-4.39 56.11 5.09 62.32 36.33 111.74 90.01 163.57 139.27 19.03 21.69 42.03 39.44 60.83 61.44-18.7-12.8-36.1-27.2-55.86-38.28-28.35-18.65-58.63-35.93-92.23-42.8-49.22-11.75-101.32-5.2-149.8-21.13-21.27-6.58-44.38-13.05-59.49-30.58-5.02-5.46-3.57-13.76 0.97-18.94 20.08-24.04 45.93-44.14 75.9-54.07z" fill="#ff4001"/>
<path d="m615.99 877.14c17.48-14.19 30.74-32.6 45.01-49.5 3.1 17.74-1.1 34.12-3.38 51.89-16.22 3.19-30.29 12.45-45.02 19.13 0.13-7.3 1.39-14.52 3.39-21.52z" fill="#dedc17"/>
<path d="m95.8 833.07c59.41 38.91 125.85 65.93 195.36 79.85-10.94 52.64 0.47 109.78 24.94 157.28-36.3-0.1-71.87-7-107.02-15.1-29.65-25.8-53.81-57.19-75.87-89.51 1.55-4.35 10.99 2.43 12.81-3.56-4.78-10.91-19.14-7.61-26.85-13.25-10.86-37.68-25.48-75.99-23.37-115.71z" fill="#e63636"/>
<path d="m291.87 906.72c4.85-21.12 10.63-44.3 25.14-60.96 40.19 18.8 83.43 29.84 126.92 37.87 21.48-0.71 42.56-3.64 63.76-6.68-1.45 4.56-10.11 4.45-14.32 6.36-62.24 24.65-130.15 28.8-196.24 24.58-1.32-0.29-3.95-0.87-5.26-1.17z" fill="#fd5e5e"/>
<path d="m541.3 869.24c1.33 7.57-5.81 25.1-0.84 36.17 6.54 18.14 32.1 29.41 47.85 15.88 17.46-13.94 36.94-25.16 58.06-32.54 7.59 24.33-3.96 50.06-6.64 74.86-7.59 21.34-12.25 43.59-18.6 65.39-10.37 15-15.28 34.7-23.93 49.4-15.3-9.5-33.62-10.3-50.65-14.9-26.96-11.7-57.2-12.6-86.16-14.7-7.66-34.1-8.97-70.46-23.71-102.56-3.29-11.37-3.51-23.57-8.67-34.35-1.83-2.26-1.29-7.83 3.8-5.05 26.57-1.45 49.73-15.64 74.98-22.02 11.41-5.42 22.08-12.45 34.51-15.58m-19.93 18.21c-18.67 22.46-33.52 48.96-40.42 77.63-2.73 23.96-2.58 48.62-8.96 72.02 33.76 6.1 68.37 8.7 101.36 18.9 3.24 0.8 15.27 2.8 10.32-3.6-19.75-15.8-44.69-23.2-66.97-34.1-14.58-22.89-7.07-52.53-5.24-77.86 1.16-17.39 8.33-37.84 9.91-52.99z" fill="#e50000"/>
<path d="m521.37 887.45c-1.58 15.15-8.75 35.6-9.91 52.99-1.83 25.33-9.34 54.97 5.24 77.86 22.28 10.9 47.22 18.3 66.97 34.1 4.95 6.4-7.08 4.4-10.32 3.6-32.99-10.2-67.6-12.8-101.36-18.9 6.38-23.4 6.23-48.06 8.96-72.02 6.9-28.67 21.75-55.17 40.42-77.63z" fill="#a00"/>
<path d="m291.16 912.92c42.9 5.49 85.79 0.72 128.39-3.74 4.34 14.25 10.49 27.79 13.78 42.44 13.25 30.65 12.35 64.88 21.47 96.48-45.15 5.5-92.14 17.8-138.7 22.1-24.47-47.5-35.88-104.64-24.94-157.28z" fill="#ff4f4f"/>
<path d="m652.03 909.98c40.32 129.82 51.72 276.72-2.3 404.72-19.31 48.7-49.05 94.1-86.18 131.1 6.45-98.8 17.66-200.4 30.41-299.7 8.13-21.9 0.78-46.1 7.8-68.2 30.14-50.4 46.11-109.24 50.27-167.92m2.25 48.93c-3.86 27.46-5 55.49-11.9 82.49-2.51 16.6-6.95 34.4-20.58 45.4-20.45 35.4-16.51 78.8-15.05 117.4 4.72-18.2 7.47-37.1 13.41-55.1 5.36-22.2 20.07-41 22.79-64.1 7.54-41.5 12.13-84.8 11.33-126.09z" fill="#fe4040"/>
<path d="m659.77 913.25c12.02 19.4 23.57 40.17 36.49 59.48 36.35 65.97 44.66 143.17 45.5 217.27-9.41 84.1-32.53 167.5-74.61 241.2-28.23 3.8-58.92 11.3-86.24 8 11.99-14.5 23.45-29.5 31.88-46.4 21.56-24.5 34.09-55.4 45.22-85.8 21.53-42.6 26.75-91 31.3-137.7 4.84-46.8 1.42-93.8-2.1-140.5-7.2-39.02-17.64-77.28-27.44-115.55m25.03 61.73c8.16 62.22 19.99 125.02 20.92 187.22 6.01-62.7 7.79-129.7-20.92-187.22z" fill="#fe5e00"/>
<path d="m679.72 922.36c77.46 67.05 140.51 149.14 193.39 236.54 19.36 40.2 35.59 82.2 44.41 126-36.72 49.7-88.14 88.4-144.57 113.1 15.16-96 15.65-195.6-7.44-290.5-13.7-67.9-53.79-125.21-85.79-185.14m52.19 69.69c13.42 35.95 32.59 69.75 44.81 106.15 15.72 29.6 12.65 66 17.32 96.8 0.03-22.9 0.99-45.7 0.44-68.5 2.5-52.5-37.72-92.1-62.57-134.45z" fill="#ff4001"/>
<path d="m988.09 951.02c101.11 83.08 166.71 215.68 151.81 347.78-4.9 23.9-3.6 48.9-11.9 72.1-8.2 21.5-7 47.7-18.2 67 1.4-47.3-8.1-96.5-20.4-143.2-24.7-62.7-54.9-124.2-99.19-175.6 5.84-1.9 2.26-10.2 4.39-14.6 6.4-35.6 5.5-71.9 3.44-107.58 19.76 11.08 37.16 25.48 55.86 38.28-18.8-22-41.8-39.75-60.83-61.44-1.45-7.62-3.63-15.09-4.98-22.74z" fill="#a00"/>
<path d="m45.84 1023.2c-15.27-43.05 38.69-75.74 74.67-67.53-0.12 1.76-0.09 3.53 0.02 5.31-12.73 9.23-11.89 30.85-4.66 44.22 4.13 17.2 22.47 23.1 35.2 32.8 18.88 49.3 35.05 99.8 51.83 149.9-33.45-15.3-62.12-40.1-91.23-62.6-11.52-7.6-16.38-21.5-28.28-28.7-18.66-20.7-26.64-49.2-37.55-73.4z" fill="#fe4040"/>
<path d="m723.14 954.87c101.44 70.73 180.39 173.23 223.2 289.13-7.02 13.4-16.65 25.2-24.21 38.3-6.27-34.3-20.48-66.2-33.02-98.4-23.11-55.8-60.61-103.9-96.16-151.8-23.04-25.8-47.64-50.65-69.81-77.23z" fill="#ffffcf"/>
<path d="m654.28 958.91c0.8 41.29-3.79 84.59-11.33 126.09-2.72 23.1-17.43 41.9-22.79 64.1-5.94 18-8.69 36.9-13.41 55.1-1.46-38.6-5.4-82 15.05-117.4 13.63-11 18.07-28.8 20.58-45.4 6.9-27 8.04-55.03 11.9-82.49z" fill="#df2121"/>
<path d="m745.05 964.64c27.27 10.71 55.17 27.5 83.78 38.56 60.08 31.6 118.27 70.9 161.22 124.1-8.51 38.2-22.34 75.2-39.89 110.1-42.15-107-113.52-203-205.11-272.76m97.95 57.36c13.25 12.1 20.61 28.4 29.15 43.8 18.26 35.8 49.13 63.8 77.03 91.1 2.61-19.9-3.03-42.7-11.33-61.7-24.56-32.1-61.74-51.2-94.85-73.2z" fill="#fe1e01"/>
<path d="m684.8 974.98c28.71 57.52 26.93 124.52 20.92 187.22-0.93-62.2-12.76-125-20.92-187.22z" fill="#d93801"/>
<path d="m710.87 991.18c35.46 56.82 56.19 122.42 65.25 188.82 0.16 73.4 5.48 149.3-8.11 221.2-30.34 11.5-61.06 23.6-93.36 27.7 37.59-80.7 71.82-166.1 71.14-256.7-1.1-61.2-9.83-124.3-34.92-181.02z" fill="#ffffcf"/>
<path d="m731.91 992.05c24.85 42.35 65.07 81.95 62.57 134.45 0.55 22.8-0.41 45.6-0.44 68.5-4.67-30.8-1.6-67.2-17.32-96.8-12.22-36.4-31.39-70.2-44.81-106.15z" fill="#de2000"/>
<path d="m843 1022c33.11 22 70.29 41.1 94.85 73.2 8.3 19 13.94 41.8 11.33 61.7-27.9-27.3-58.77-55.3-77.03-91.1-8.54-15.4-15.9-31.7-29.15-43.8z" fill="#de0000"/>
<path d="m151.07 1038c51.62 27.5 111.2 31.2 168.13 36.7 17.93 45.2 54.7 84.7 92.66 116.1-68.01 15.4-144.31 30.8-208.96-2.9-16.78-50.1-32.95-100.6-51.83-149.9z" fill="#e22424"/>
<path d="m452.44 1053.6c27.71 6.9 60.34 2.8 88.69 13.3 15.77 6.6 33.46 7.2 48.73 15.3-46.54 52.1-110.74 88.5-178 108.6-37.96-31.4-74.73-70.9-92.66-116.1 44.91-2.7 89.2-12 133.24-21.1z" fill="#fe4040"/>
<path d="m418.72 1195.3c62.49-21.8 123.4-52.5 168.37-102.2-28.98 54-71.52 104.3-129.91 127-12.75-8.2-27.7-13.9-38.46-24.8z" fill="#fefe8f"/>
<path d="m593.42 1095.1c-0.89 26.9-4.13 56.2-9.88 83.6-5.32 85.9-18.71 171.2-23.6 257.1-1.56 1.3-4.68 4-6.24 5.4-71.31-2.7-143.21-11.6-211.81-30.9 36.01-30 65.95-69.4 79.4-114.9 13.83-16.2 15.78-39.2 19.51-59.5 2.13-8 11.96-6.9 18.07-10 59.45-24.7 103.48-76 134.55-130.8m-21.14 49.3c-25 33.3-49.36 68.9-84.9 92-34.11 13.2-49.99 49.7-60.77 82.2-7.04 10.8-13.9 21.8-19.71 33.3 32.82-31.7 65.66-64.8 88.18-104.8 6.47-15.9 27.05-13.1 36.95-25.1 20.94-20.2 34.73-51.6 40.25-77.6z" fill="#fe4f4f"/>
<path d="m990.05 1127.3c46.05 48.9 70.75 113.9 97.95 174.7 11 57.1 26.2 116.6 9.3 174.3-13.3 43.3-37.6 83-64.6 118.4-38.81 34.5-84.43 62.1-135.06 74.9-38.76 12.8-80.65 21.1-120.65 19.7 23.76-16.3 49.65-29.8 71.79-48.5 21.15-22.1 45.07-41.9 63.79-66.2 21.64-25 33.59-56.2 49.02-85 32.39-81.5 15.23-171.8-11.43-252.2 17.55-34.9 31.38-71.9 39.89-110.1z" fill="#d00000"/>
<path d="m572.28 1144.4c-5.52 26-19.31 57.4-40.25 77.6-9.9 12-30.48 9.2-36.95 25.1-22.52 40-55.36 73.1-88.18 104.8 5.81-11.5 12.67-22.5 19.71-33.3 10.78-32.5 26.66-69 60.77-82.2 35.54-23.1 59.9-58.7 84.9-92z" fill="#e33333"/>
<path d="m233.24 1206.9c61.67 13.4 125.43 5.3 185.48-11.6 10.76 10.9 25.71 16.6 38.46 24.8-34.19 13.7-70.31 24.1-107.57 22.4-28.76-4.4-58.75-6-85.39-18.7-8.42-8.4-23-9.6-30.98-16.9z" fill="#e5e674"/>
<path d="m323.89 1246c38.03 0.9 77.76 3.2 113.36-12.8-1.95 27.6-14.95 52.2-24.69 77.4-20.61 37.2-41.36 76.5-80.66 97.3-44.63-10.8-87.88-26.5-131.78-39.9 40.64-41 76.83-88 123.77-122m62.48 5.5c-24.79 4.4-51.15 0.2-75.34 7.4-26.72 25.4-51.93 52.7-74.97 81.2 32.6-19.6 61.91-45 96.38-61.7 26.29-9.8 52.49-19.6 79.65-26.7-8.04-2.1-17.19 0.8-25.72-0.2z" fill="#ff7170"/>
<path d="m946.34 1244c25.71 66.6 31.76 139.2 22.45 209.7-17 48.3-37.54 97.1-73.29 134.8-29.45 35.3-66.33 63.5-106.45 85.5 33.81-40.8 62.61-85.8 84.93-134 9.25-15.6 10.85-34.3 21.97-49 28.82-65 36.79-138.8 26.18-208.7 7.56-13.1 17.19-24.9 24.21-38.3z" fill="#e4e3b3"/>
<path d="m386.37 1251.5c8.53 1 17.68-1.9 25.72 0.2-27.16 7.1-53.36 16.9-79.65 26.7-34.47 16.7-63.78 42.1-96.38 61.7 23.04-28.5 48.25-55.8 74.97-81.2 24.19-7.2 50.55-3 75.34-7.4z" fill="#e05251"/>
<path d="m917.52 1284.9c7.62 53.9 8.4 110.6-11.62 162-22.94 71.3-56.08 139.1-100.72 199.3-12.64 21-32.5 36.1-50.71 52.4-14.94 7.3-31.61 10-46.47 17.5-32.25 9.9-65.2 4.1-98.01 2-37.14-6.9-74.45-22.5-99.17-52-1.84-7.3-8.63-13.7-6.52-21.7 23.67-8.4 37.01-32.6 55.7-48.4 12.19 13.8 29.06 21.8 45.75 28.9 42.83 3.5 80.72-24.8 105.45-56.7 35.89-49.8 51.27-110.6 61.75-170.2 56.43-24.7 107.85-63.4 144.57-113.1z" fill="#de2000"/>
<path d="m24 1356c17.53-38.1 71.91-30.5 98.92-6.9 14.75 12 25.43 28.2 41.02 39.2-11.61 6.6-33.3 3.7-41.24 18.7-6.85 40 29.11 67.4 58.48 86.8 41.38 37.2 99.69 49.5 153.81 43.1 89.66-4.3 177.98-38.9 245.92-97.7 27.32 3.3 58.01-4.2 86.24-8-33.1 60.8-82.05 111.4-136.7 153.2-61.4 42.8-135.39 60.2-203.71 88.5-26.83 3.1-54 10.9-81.65 7.5-50.1-20.4-101.86-41.9-142.37-79.1-26.66-28.4-60-53.2-72.32-91.7-20.29-46.7-41.62-109-6.4-153.6z" fill="#e44201"/>
<path d="m177.88 1388.4c7.28-6.9 14.05-14.5 22.24-20.4 43.9 13.4 87.15 29.1 131.78 39.9-53.88 31.7-125.25 44.6-182.53 13.7-4.8-1.9-14.85-5.4-9.38-11.6-2.79-0.7-9.06-1.2-6.42-5.3 19.14-10.6 42.12-11.1 63.37-6.8 7.23-8.5-14.75-6.9-19.06-9.5z" fill="#e22424"/>
<path d="m674.65 1428.9c32.3-4.1 63.02-16.2 93.36-27.7-14.52 65.6-28.38 137.7-80.73 185.1-23.4 21.2-55.44 44.9-88.45 29.9-15.36-6-43.79-20.9-24.7-39.1 38.73-45.8 69.67-97 100.52-148.2z" fill="#e4e3b3"/>
<path d="m127.76 1414.3c62.93 43.7 150.98 35.4 214.13-4 68.6 19.3 140.5 28.2 211.81 30.9 1.56-1.4 4.68-4.1 6.24-5.4-1.62 19.9-21.89 30-37.16 39-41.75 30.2-92.73 43-142.46 53.6-48.47 5.4-99.19 7.9-146.13-7.6-25.11-13.2-51.14-26.2-71.2-46.8-17.42-15.4-36.81-34.4-35.23-59.7z" fill="#e63636"/>
<path d="m610.53 1517.5c1.34-0.7 1.65-0.4 0.93 0.9-42.04 57.5-84.5 122.2-155.05 147-43.4 16-89.32 22.4-135.51 22.6-18.3-1-37.69 6.3-55.26-1.3 20.97 0.3 42.66-3.1 63.27-8.8 65.71-19.4 127.3-49.9 188.06-80.9 38.63-16.6 62.74-52.8 93.56-79.5z" fill="#e50101"/>
</svg>
