<?xml version="1.0" encoding="UTF-8" standalone="no"?>
<!-- Created with Inkscape (http://www.inkscape.org/) -->

<svg
   version="1.1"
   id="svg6931"
   width="800"
   height="800"
   viewBox="0 0 800 800"
   sodipodi:docname="fairy-crescent-color-publicdomainvectors.org.svg"
   inkscape:version="1.2 (dc2aedaf03, 2022-05-15)"
   xmlns:inkscape="http://www.inkscape.org/namespaces/inkscape"
   xmlns:sodipodi="http://sodipodi.sourceforge.net/DTD/sodipodi-0.dtd"
   xmlns="http://www.w3.org/2000/svg"
   xmlns:svg="http://www.w3.org/2000/svg">
  <defs
     id="defs6935">
    <clipPath
       clipPathUnits="userSpaceOnUse"
       id="clipPath6947">
      <path
         d="M 0,600 H 600 V 0 H 0 Z"
         id="path6945" />
    </clipPath>
  </defs>
  <sodipodi:namedview
     id="namedview6933"
     pagecolor="#ffffff"
     bordercolor="#000000"
     borderopacity="0.25"
     inkscape:showpageshadow="2"
     inkscape:pageopacity="0.0"
     inkscape:pagecheckerboard="0"
     inkscape:deskcolor="#d1d1d1"
     showgrid="false"
     inkscape:zoom="1.04625"
     inkscape:cx="400"
     inkscape:cy="400.4779"
     inkscape:window-width="1920"
     inkscape:window-height="1017"
     inkscape:window-x="-8"
     inkscape:window-y="-8"
     inkscape:window-maximized="1"
     inkscape:current-layer="g6939">
    <inkscape:page
       x="0"
       y="0"
       id="page6937"
       width="800"
       height="800" />
  </sodipodi:namedview>
  <g
     id="g6939"
     inkscape:groupmode="layer"
     inkscape:label="Page 1"
     transform="matrix(1.3333333,0,0,-1.3333333,0,800)">
    <g
       id="g6941">
      <g
         id="g6943"
         clip-path="url(#clipPath6947)">
        <g
           id="g6949"
           transform="translate(481.3096,521.2451)">
          <path
             d="M 0,0 8.961,9.605 C -9.743,26.03 -30.961,39.658 -54.038,49.849 l 0.892,-29.734 C -34.293,15.93 -16.44,9.088 0,0"
             style="fill:#df2200;fill-opacity:1;fill-rule:nonzero;stroke:none"
             id="path6951" />
        </g>
        <g
           id="g6953"
           transform="translate(530.1553,205.5498)">
          <path
             d="M 0,0 -2.267,0.462 C -21.552,-19.296 -44.887,-35.08 -70.93,-45.551 l 8.259,-16.87 C -38.213,-45.56 -16.958,-24.386 0,0"
             style="fill:#14b4ec;fill-opacity:1;fill-rule:nonzero;stroke:none"
             id="path6955" />
        </g>
        <g
           id="g6957"
           transform="translate(537.127,475.5957)">
          <path
             d="m 0,0 c -12.843,20.661 -28.662,39.278 -46.857,55.255 l -8.96,-9.606 C -34.548,33.892 -15.643,18.379 0,0"
             style="fill:#dc2b00;fill-opacity:1;fill-rule:nonzero;stroke:none"
             id="path6959" />
        </g>
        <g
           id="g6961"
           transform="translate(537.127,216.1406)">
          <path
             d="m 0,0 c -2.964,-3.482 -6.047,-6.858 -9.238,-10.129 l 2.266,-0.462 C -4.561,-7.124 -2.234,-3.594 0,0"
             style="fill:#67d7ef;fill-opacity:1;fill-rule:nonzero;stroke:none"
             id="path6963" />
        </g>
        <g
           id="g6965"
           transform="translate(395.4658,105.8955)">
          <path
             d="m 0,0 c -0.233,1.02 -0.466,2.041 -0.697,3.063 26.286,7.396 50.787,19.051 72.716,34.17 L 63.76,54.103 C 41.892,45.312 18.116,40.267 -6.774,39.765 -6.768,47.324 -6.772,59.669 -6.86,68.261 L -50.357,8.178 Z"
             style="fill:#31bded;fill-opacity:1;fill-rule:nonzero;stroke:none"
             id="path6967" />
        </g>
        <g
           id="g6969"
           transform="translate(411.4414,8.0967)">
          <path
             d="m 0,0 c 2.065,-1.433 4.317,-2.559 6.532,-3.723 1.465,-0.726 2.415,-2.115 3.767,-3.004 1.02,-0.681 2.14,-1.35 3.379,-1.501 0.675,-0.038 1.063,0.588 1.464,1.027 0.888,-0.263 1.795,-0.119 2.609,0.287 0.87,-0.788 1.295,-2.026 2.435,-2.509 h 1.313 c 0.313,0.269 0.563,0.607 0.788,0.932 0.613,-0.212 1.339,-0.438 1.89,0.025 0.625,0.376 0.638,1.152 0.576,1.79 0.926,-0.176 1.889,0.026 2.621,0.625 0.838,0.676 1.846,1.528 1.758,2.71 -0.012,0.744 -0.4,1.596 -1.208,1.739 -2.515,0.594 -4.798,1.833 -6.994,3.166 -1.258,0.745 -2.34,1.758 -3.673,2.372 -1.07,0.513 -2.247,0.925 -3.041,1.852 -1.045,1.194 -1.609,2.715 -2.165,4.173 -1.258,3.436 -1.495,7.089 -2.054,10.676 L -5.195,7.728 C -4.445,6.226 -3.664,4.736 -2.79,3.297 -2.033,2.071 -1.207,0.832 0,0"
             style="fill:#0069d5;fill-opacity:1;fill-rule:nonzero;stroke:none"
             id="path6971" />
        </g>
        <g
           id="g6973"
           transform="translate(420.5518,32.9111)">
          <path
             d="m 0,0 c -1.164,4.073 -2.69,8.027 -4.005,12.044 -2.853,8.09 -7.051,15.604 -10.448,23.463 -1.734,3.979 -3.034,8.121 -4.261,12.288 -2.407,8.324 -4.439,16.745 -6.372,25.189 l -50.357,8.178 2.005,-13.619 c 0.022,0.023 0.043,0.046 0.065,0.069 7.15,0.552 14.217,1.404 21.184,2.554 1.211,-2.454 2.462,-4.891 3.712,-7.323 4.83,-9.355 9.922,-18.614 13.827,-28.412 0.8,-1.902 1.864,-3.703 2.44,-5.701 0.776,-2.558 0.65,-5.373 -0.263,-7.883 -0.813,-1.896 -2.09,-3.547 -3.085,-5.349 -1.37,-2.391 -2.571,-5.08 -2.258,-7.909 0.188,-1.927 1.464,-3.503 2.778,-4.83 2.578,-2.515 5.669,-4.43 8.785,-6.195 1.107,-0.644 2.039,-1.526 3.01,-2.352 2.12,-1.833 4.092,-3.854 5.849,-6.057 0.744,-0.913 1.477,-1.87 1.97,-2.964 0.369,-0.76 0.74,-1.521 1.118,-2.278 L 0.887,-4.178 C 0.668,-2.77 0.4,-1.371 0,0"
             style="fill:#0181dd;fill-opacity:1;fill-rule:nonzero;stroke:none"
             id="path6975" />
        </g>
        <g
           id="g6977"
           transform="translate(345.1084,114.0732)">
          <path
             d="m 0,0 43.497,60.083 c -0.058,5.636 -0.151,9.656 -0.301,9.649 -0.863,0.55 -1.452,1.476 -2.014,2.321 -0.251,0.708 -0.426,1.439 -0.94,2.009 v 0.826 c -0.344,0.118 -0.687,0.244 -1.038,0.362 0.226,0.226 0.456,0.451 0.676,0.677 -0.488,0.061 -0.977,0.105 -1.477,0.162 0.239,0.406 0.463,0.813 0.689,1.225 -1.226,-0.5 -2.453,-1.25 -3.83,-1.137 0.137,0.387 0.269,0.788 0.401,1.163 -0.157,-0.087 -0.47,-0.276 -0.626,-0.363 -0.013,0.164 -0.037,0.476 -0.05,0.638 -0.238,-0.35 -0.35,-0.894 -0.863,-0.938 0.006,0.751 0.062,1.502 0.101,2.247 -0.064,-0.195 -0.189,-0.57 -0.251,-0.771 -0.326,-0.068 -0.652,-0.143 -0.977,-0.237 0.044,0.175 0.138,0.525 0.183,0.701 -0.345,-0.013 -0.696,-0.025 -1.039,-0.038 -0.009,0.083 -0.02,0.204 -0.03,0.326 L -10.147,50.1 Z"
             style="fill:#8bebdb;fill-opacity:1;fill-rule:nonzero;stroke:none"
             id="path6979" />
        </g>
        <g
           id="g6981"
           transform="translate(384.5762,546.1221)">
          <path
             d="m 0,0 c 7.933,0 15.757,-0.466 23.449,-1.362 l 9.385,30.437 C 15.43,35.868 -2.94,40.732 -22.009,43.415 l 5.374,-44.101 C -11.149,-0.234 -5.603,0 0,0"
             style="fill:#ef3500;fill-opacity:1;fill-rule:nonzero;stroke:none"
             id="path6983" />
        </g>
        <g
           id="g6985"
           transform="translate(428.1641,541.3604)">
          <path
             d="m 0,0 -0.893,29.733 c -3.252,1.436 -6.538,2.806 -9.861,4.104 L -20.139,3.399 C -13.315,2.604 -6.597,1.464 0,0"
             style="fill:#f43800;fill-opacity:1;fill-rule:nonzero;stroke:none"
             id="path6987" />
        </g>
        <g
           id="g6989"
           transform="translate(367.9414,545.4365)">
          <path
             d="m 0,0 -5.374,44.101 c -6.527,0.919 -13.136,1.581 -19.816,1.976 L -69.842,-18.898 C -48.399,-8.617 -24.843,-2.042 0,0"
             style="fill:#fb6100;fill-opacity:1;fill-rule:nonzero;stroke:none"
             id="path6991" />
        </g>
        <g
           id="g6993"
           transform="translate(358.1689,245.835)">
          <path
             d="m 0,0 c -0.576,2.296 -1.623,4.492 -2.926,6.45 -0.487,-1.57 -1.325,-2.997 -1.92,-4.516 -0.268,1.175 -0.958,2.22 -1.176,3.403 1.17,3.235 2.897,6.237 4.223,9.41 1.126,2.527 1.789,5.462 0.881,8.165 -0.856,2.74 -3.121,4.768 -5.574,6.094 -0.939,0.563 -2.052,0.82 -2.916,1.502 -1.012,0.887 -1.863,1.925 -2.682,2.99 L -61.575,17.27 Z"
             style="fill:#d8f890;fill-opacity:1;fill-rule:nonzero;stroke:none"
             id="path6995" />
        </g>
        <g
           id="g6997"
           transform="translate(334.9619,164.1729)">
          <path
             d="m 0,0 42.258,28.806 c -0.011,0.135 -0.021,0.273 -0.028,0.362 -0.256,-0.113 -0.519,-0.238 -0.776,-0.363 0,0.388 0.013,0.769 0.025,1.151 -0.125,-0.075 -0.375,-0.226 -0.494,-0.294 0.038,0.176 0.107,0.52 0.144,0.694 -0.3,-0.112 -0.606,-0.225 -0.913,-0.349 0.187,0.274 0.375,0.537 0.551,0.813 -0.626,-0.088 -1.251,-0.175 -1.877,-0.276 0.443,0.213 0.887,0.426 1.332,0.626 -0.307,-0.063 -0.92,-0.188 -1.227,-0.25 l 0.295,0.601 c -0.251,-0.138 -0.501,-0.276 -0.752,-0.419 0.007,0.13 0.014,0.406 0.014,0.544 -0.545,-0.201 -1.095,-0.388 -1.646,-0.588 0.081,0.174 0.256,0.531 0.337,0.713 -0.418,0.038 -0.844,0.062 -1.258,0.093 -0.306,-0.332 -0.612,-0.67 -0.912,-1.008 -0.113,0.189 -0.238,0.364 -0.35,0.545 -0.163,-0.181 -0.314,-0.356 -0.483,-0.531 -0.193,0.3 -0.393,0.588 -0.593,0.875 -0.188,-0.275 -0.389,-0.562 -0.577,-0.844 l -0.031,0.625 c -0.595,-0.582 -1.176,-1.176 -1.746,-1.783 0.064,0.663 0.113,1.32 0.139,1.984 -1.214,-0.419 -2.241,-1.258 -3.51,-1.508 0.3,0.657 0.632,1.302 0.956,1.939 -0.6,-0.407 -1.194,-0.813 -1.808,-1.201 0.119,0.439 0.245,0.876 0.37,1.295 -0.32,-0.344 -0.651,-0.694 -0.976,-1.044 0,0.162 -0.013,0.487 -0.013,0.649 -0.514,-0.174 -1.039,-0.336 -1.564,-0.5 0.007,0.363 0.011,0.726 0.018,1.089 -0.325,-0.475 -0.657,-0.95 -0.994,-1.414 -0.138,0.125 -0.42,0.388 -0.563,0.52 -0.276,-0.144 -0.558,-0.294 -0.838,-0.445 -0.126,1.077 -0.233,2.153 -0.363,3.229 -0.263,-1.227 -0.539,-2.453 -0.789,-3.686 -0.043,0.201 -0.131,0.601 -0.175,0.801 -0.314,-0.331 -0.632,-0.669 -0.951,-1.007 -0.269,0.269 -0.539,0.526 -0.814,0.788 -0.037,-0.331 -0.088,-0.663 -0.131,-1.013 -0.031,0.15 -0.106,0.444 -0.132,0.588 -0.25,-0.338 -0.501,-0.682 -0.751,-1.026 -0.112,0.188 -0.343,0.563 -0.463,0.757 -0.275,-1.007 -0.549,-2.015 -0.8,-3.028 -0.269,0.3 -0.538,0.606 -0.814,0.894 -0.437,-0.112 -0.876,-0.224 -1.314,-0.35 0.225,1.295 0.482,2.584 0.638,3.891 -0.638,-1.151 -1.032,-2.445 -1.838,-3.497 0.037,0.795 0.193,1.565 0.35,2.334 -0.438,-0.907 -0.863,-1.821 -1.252,-2.754 -0.187,0.376 -0.375,0.74 -0.562,1.102 -0.282,-0.3 -0.565,-0.588 -0.838,-0.901 0.137,0.626 0.249,1.251 0.343,1.877 -0.138,-0.056 -0.419,-0.163 -0.564,-0.225 -0.355,0.801 -0.706,1.615 -1.05,2.415 C 10.146,32.265 9.958,32.202 9.87,32.171 9.833,32.665 9.789,33.146 9.746,33.635 9.245,33.335 8.744,33.047 8.287,32.672 8.375,33.06 8.456,33.447 8.525,33.829 8.357,33.578 8.193,33.328 8.031,33.065 7.918,33.322 7.806,33.578 7.692,33.835 7.644,33.647 7.543,33.285 7.493,33.109 7.205,33.297 6.992,33.71 6.63,33.697 6.142,33.347 5.791,32.866 5.403,32.421 4.728,33.68 4.027,34.924 3.439,36.226 c -0.507,1.05 -0.101,2.226 0.012,3.315 0.313,2.265 1.038,4.493 0.901,6.801 -0.056,0.846 0.188,1.652 0.507,2.416 1.758,4.472 3.716,8.866 5.637,13.27 0.325,0.801 1.076,1.277 1.739,1.765 3.154,2.152 6.483,4.205 8.96,7.17 1.251,1.488 2.203,3.291 2.403,5.256 0.217,1.832 0.054,3.668 -0.391,5.443 l -61.575,17.271 z"
             style="fill:#c5f5c1;fill-opacity:1;fill-rule:nonzero;stroke:none"
             id="path6999" />
        </g>
        <g
           id="g7001"
           transform="translate(298.0991,526.5381)">
          <path
             d="m 0,0 44.652,64.976 c -4.891,0.29 -9.817,0.445 -14.78,0.445 -21.797,0 -42.93,-2.839 -63.055,-8.158 l 4.582,-74.029 C -19.585,-10.425 -10.024,-4.807 0,0"
             style="fill:#f55a00;fill-opacity:1;fill-rule:nonzero;stroke:none"
             id="path7003" />
        </g>
        <g
           id="g7005"
           transform="translate(317.8545,78.5283)">
          <path
             d="m 0,0 c 0.581,-0.849 1.13,-1.719 1.632,-2.614 0.535,-0.989 1.085,-2.04 1.066,-3.198 -0.009,-3.035 -0.869,-6.001 -2.014,-8.791 -0.541,-1.301 -1.041,-2.646 -1.152,-4.067 -0.212,-2.164 0.757,-4.435 2.519,-5.73 1.711,-1.289 3.607,-2.316 5.415,-3.46 0.535,-0.32 1.089,-0.707 1.737,-0.721 1.501,-0.036 2.931,0.57 4.429,0.563 0.982,0.114 1.202,-1.225 2.121,-1.282 1.064,-0.094 2.065,0.357 3.103,0.476 0.513,0.426 0.614,1.039 0.501,1.658 0.194,1.151 -0.475,2.184 -1.158,3.034 -1.482,1.583 -3.196,3.06 -3.991,5.137 -0.632,1.189 -0.481,2.553 -0.432,3.842 0.087,0.964 -0.46,1.834 -0.575,2.778 -0.252,1.732 0.272,3.466 1.032,5.018 1.446,2.921 1.828,6.244 1.764,9.472 0.013,0.864 -0.224,1.79 0.226,2.578 0.569,1.064 1.219,2.09 1.676,3.203 0.702,1.734 1.946,3.16 3.097,4.606 2.215,2.69 4.556,5.268 6.833,7.902 0.475,0.509 0.954,1.014 1.431,1.522 l -2.006,13.619 z"
             style="fill:#6cb0c4;fill-opacity:1;fill-rule:nonzero;stroke:none"
             id="path7007" />
        </g>
        <g
           id="g7009"
           transform="translate(349.4619,359.3955)">
          <path
             d="M 0,0 C -0.601,1.051 -1.182,2.133 -2.026,3.015 -2.865,3.747 -2.977,4.93 -3.554,5.843 -2.539,5.418 -1.426,4.974 -0.808,4.011 -0.012,2.84 0.013,1.363 0,0 m -10.955,10.68 c -0.957,0.844 -2.272,1.006 -3.504,1.032 0.907,1.739 2.259,3.454 4.198,4.066 1.746,0.552 3.53,-0.663 4.33,-2.158 0.438,-0.744 0.226,-1.708 -0.401,-2.259 -0.888,-0.826 -2.064,-1.289 -3.253,-1.451 -0.6,-0.143 -0.938,0.483 -1.37,0.77 M -11.85,7.676 c -0.326,0.845 -0.801,1.771 -0.519,2.684 0.357,0.276 0.72,-0.149 0.97,-0.362 0.631,-0.739 1.545,-1.302 1.795,-2.303 -0.745,0 -1.501,0 -2.246,-0.019 m -2.045,-0.218 c -0.307,1.213 -0.12,2.478 -0.395,3.703 0.557,-0.037 1.114,-0.074 1.677,-0.112 -0.926,-0.989 -0.087,-2.347 0.257,-3.416 -0.507,-0.05 -1.027,-0.113 -1.539,-0.175 m -5.294,-2.241 c -0.225,1.127 -0.556,2.228 -0.995,3.292 0.178,0.237 0.351,0.468 0.529,0.7 0.67,-0.412 1.357,-0.863 2.162,-0.95 0.575,-0.095 1.126,0.175 1.664,0.338 -1.133,-0.189 -2.681,-0.057 -3.316,0.988 1.213,0.801 2.64,1.183 4.042,1.483 -0.076,-1.277 -0.013,-2.559 0.163,-3.824 -1.528,-0.4 -2.979,-1.088 -4.249,-2.027 m -3.419,-4.166 c 0.463,2.264 0.867,4.642 0.309,6.92 -0.227,1.114 -1.252,2.083 -2.446,1.851 -2.321,-0.206 -3.77,-2.302 -4.836,-4.154 -0.926,-2.402 -3.285,-3.717 -5.144,-5.318 -0.512,0.844 -0.541,1.851 -0.437,2.802 0.222,2.229 0.719,4.431 1.633,6.47 0.788,1.789 2.236,3.267 3.935,4.218 1.37,0.775 3.138,0.775 4.467,-0.088 2.006,-1.258 3.244,-3.392 4.228,-5.482 -0.335,-1.307 0.271,-2.571 1.113,-3.541 -1.111,-1.088 -2.062,-2.321 -2.822,-3.678 m 1.583,11.224 c -0.072,0.689 0.481,1.264 1.107,1.452 1.18,0.369 2.58,0.25 3.564,-0.538 0.538,-0.407 0.838,-1.014 1.164,-1.578 -1.578,-0.362 -3.115,-0.937 -4.461,-1.839 -0.627,0.713 -1.327,1.501 -1.374,2.503 M -40.255,-22.9 c -2.625,1.239 -5.272,2.44 -7.837,3.803 0.444,1.039 1.017,2.015 1.555,3.004 0.51,-0.769 1.191,-1.402 2.03,-1.783 -0.05,-0.407 -0.463,-0.97 -0.038,-1.295 1.271,-0.945 2.875,-1.239 4.359,-1.689 0.184,-0.683 0.296,-1.402 -0.069,-2.04 m -6.56,-0.188 c -1.308,0.544 -1.39,2.177 -1.43,3.392 2.399,-1.065 4.758,-2.24 7.001,-3.605 -1.826,-0.325 -3.808,-0.457 -5.571,0.213 m -5.823,6.32 c -1.263,0.925 -1.752,2.745 -1.257,4.216 0.328,0.92 1.341,1.227 2.224,1.289 0.334,-1.113 0.56,-2.314 1.308,-3.241 0.747,-0.851 2.131,-0.05 2.909,-0.832 -0.091,-1.232 -0.804,-2.283 -1.245,-3.41 -1.298,0.688 -2.743,1.101 -3.939,1.978 m 2.785,10.236 c 0.203,-0.639 0.35,-1.302 0.647,-1.915 0.285,-0.676 1.249,-0.582 1.574,-1.213 0.584,-1.083 0.754,-2.322 0.92,-3.524 -1.121,1.358 -2.506,2.709 -4.362,2.841 -0.034,1.37 0.304,2.759 1.221,3.811 m 3.19,-7.871 c -1.122,0.237 -2.327,0.338 -3.322,0.963 -0.689,0.413 -0.766,1.276 -0.961,1.977 1.618,-0.664 3.008,-1.765 4.283,-2.94 M -47.626,0.8 c 0.923,1.051 2.168,1.746 3.375,2.416 -1.051,-0.914 -1.96,-2.015 -2.439,-3.342 -0.351,-0.813 -0.288,-1.827 -1.051,-2.422 -0.342,1.059 -0.676,2.398 0.115,3.348 m -0.009,-29.945 c -1.039,0.013 -2.115,0.226 -3.126,-0.087 -0.757,-0.282 -0.703,-1.264 -0.732,-1.934 -0.003,-0.781 0.745,-1.182 1.267,-1.633 -0.55,-0.025 -1.304,0.013 -1.382,0.714 -0.304,1.689 -0.088,3.792 1.439,4.855 0.922,0.719 2.14,0.8 3.26,0.651 -0.295,-0.838 -0.538,-1.689 -0.726,-2.566 M 13.19,-4.631 c -0.463,0.989 -0.951,2.003 -1.026,3.104 -0.051,0.65 0.35,1.226 0.406,1.865 -0.106,0.312 -0.256,0.599 -0.394,0.888 0.651,0.038 1.307,0 1.952,-0.088 -0.775,0.238 -1.551,0.713 -2.396,0.551 -0.294,-0.726 0.025,-1.54 -0.213,-2.278 -0.281,-1.101 -0.169,-2.239 0.157,-3.322 -0.99,0.745 -1.815,1.677 -2.766,2.472 -0.964,0.637 -2.151,1.044 -3.316,0.75 C 5.168,-0.025 4.605,0.537 3.917,0.937 4.049,2.076 4.468,3.409 5.631,3.879 6.62,4.292 7.74,3.666 8.229,2.777 8.923,1.663 8.848,0.311 8.811,-0.951 9.023,0.374 9.229,1.839 8.56,3.078 7.733,4.604 5.557,5.036 4.099,4.191 3.117,3.547 2.872,2.302 2.679,1.226 1.752,1.057 1.089,0.399 0.57,-0.345 0.564,1.251 0.464,2.965 -0.506,4.304 c -0.745,1.101 -2.046,1.633 -3.323,1.821 -1.314,1.389 -3.316,1.444 -5.093,1.532 -0.088,0.226 -0.18,0.451 -0.275,0.671 1.408,-0.207 3.041,0.067 3.955,1.263 1.288,1.908 0.988,4.962 -1.058,6.225 -1.634,0.983 -3.685,0.77 -5.443,0.276 -1.677,-0.482 -2.735,-2.065 -3.123,-3.692 -1.22,1.69 -3.485,2.19 -5.449,1.902 -0.77,-0.106 -1.542,-0.7 -1.49,-1.551 0.05,-1.315 0.967,-2.365 1.84,-3.267 -0.149,-0.156 -0.303,-0.312 -0.456,-0.475 -1.164,2.328 -2.963,4.468 -5.426,5.468 -1.685,0.714 -3.744,0.576 -5.243,-0.513 -1.932,-1.395 -2.959,-3.678 -3.61,-5.9 -0.494,-1.939 -1.067,-3.929 -0.869,-5.95 0.055,-0.7 0.366,-1.345 0.71,-1.952 -0.791,-0.601 -1.62,-1.157 -2.493,-1.64 -0.382,0.213 -0.767,0.426 -1.155,0.626 -0.091,1.409 -0.275,2.904 -1.132,4.074 -0.526,0.744 -1.496,1.131 -2.39,0.907 -1.993,-0.413 -4.193,-0.794 -5.675,-2.321 -1.208,-1.295 -1.089,-3.247 -0.613,-4.836 -0.92,-1.641 -2.528,-2.828 -3.144,-4.644 -0.357,-0.9 -0.385,-1.876 -0.37,-2.834 -1.395,-0.694 -2.439,-2.008 -2.906,-3.485 -0.325,-1.026 0.082,-2.158 0.876,-2.853 1.389,-1.251 3.207,-1.852 4.902,-2.564 -0.519,-1.59 0.466,-3.166 1.696,-4.106 1.123,-0.795 2.565,-0.675 3.864,-0.563 -1.033,-0.513 -2.034,-1.095 -2.976,-1.764 -1.204,0.188 -2.531,0.213 -3.601,-0.463 -1.508,-0.939 -2.189,-2.74 -2.43,-4.417 -0.134,-0.927 0.125,-2.084 1.069,-2.478 0.736,-0.375 1.524,-0.025 2.272,0.088 0.851,-0.288 0.813,-1.289 1.058,-1.99 0.956,-1.027 2.283,-1.602 3.343,-2.503 0.495,0.219 0.867,0.526 0.545,1.095 0.92,-0.112 1.839,-0.031 2.76,0.057 0.337,-0.595 0.694,-1.265 1.384,-1.502 0.802,-0.27 1.662,-0.263 2.498,-0.301 -0.564,-1.376 -0.98,-2.902 -0.635,-4.392 0.244,-1.076 1.075,-1.852 1.769,-2.646 1.039,-1.12 2.066,-2.309 3.454,-2.997 -0.475,-0.608 -0.691,-1.34 -0.721,-2.103 1.053,-0.725 2.189,-1.514 3.5,-1.62 0.722,0.245 1.255,0.814 1.814,1.295 0.169,-0.2 0.335,-0.387 0.498,-0.589 0.006,-0.863 -0.122,-1.757 0.184,-2.584 0.586,-1.132 1.712,-1.844 2.477,-2.846 0.195,-0.691 0.327,-1.44 0.535,-2.155 L 15.757,-5.49 c -0.596,0.739 -1.671,0.847 -2.567,0.859"
             style="fill:#ffd100;fill-opacity:1;fill-rule:nonzero;stroke:none"
             id="path7011" />
        </g>
        <g
           id="g7013"
           transform="translate(311.4131,282.7129)">
          <path
             d="m 0,0 c -1.497,-0.637 -3.009,-1.237 -4.524,-1.815 -2.225,-0.889 -3.852,-2.704 -5.801,-4.017 -1.402,-1.064 -2.522,-2.44 -3.882,-3.541 -0.182,0.926 -0.591,1.789 -0.948,2.652 -0.932,0.23 -1.869,0.437 -2.806,0.65 l 3.142,-13.536 z"
             style="fill:#ffd100;fill-opacity:1;fill-rule:nonzero;stroke:none"
             id="path7015" />
        </g>
        <g
           id="g7017"
           transform="translate(373.5381,342.4951)">
          <path
             d="M 0,0 C 0.113,0.413 0.238,0.82 0.376,1.232 0.494,0.97 0.613,0.72 0.714,0.451 0.488,0.282 0.244,0.145 0,0 M -5.681,7.94 C -5.556,8.716 -4.61,8.753 -3.998,8.666 -1.908,8.378 0.045,7.489 1.921,6.564 3.447,5.851 4.593,4.273 4.593,2.56 4.618,0.732 3.573,-0.895 2.428,-2.233 1.227,-3.598 0.051,-5.043 -1.576,-5.912 c 0.055,1.007 0.037,2.027 -0.288,2.99 0.45,0.583 0.819,1.239 1.327,1.777 0.7,0.463 1.788,0.55 2.076,1.464 C 1.814,1.283 1.07,2.109 0.338,2.622 -0.337,4.905 -2.81,5.814 -4.917,6.282 -5.305,6.751 -5.85,7.258 -5.681,7.94 m 2.679,-10.155 c 0.562,0.264 1.125,0.52 1.688,0.764 -0.275,-0.407 -0.563,-0.819 -0.85,-1.221 -0.276,0.151 -0.551,0.301 -0.838,0.457 m -1.59,7.828 c 1.69,-0.351 3.491,-1.165 4.217,-2.84 -1.151,0.538 -2.221,1.25 -3.298,1.945 -0.369,0.225 -0.669,0.544 -0.919,0.895 m 0.75,-7.176 c -0.237,0.2 -0.475,0.4 -0.719,0.593 0.557,1.552 0.97,3.192 0.669,4.843 C -2.64,3.147 -1.395,2.409 -0.206,1.577 -0.311,0.995 -0.45,0.419 -0.6,-0.15 -1.677,-0.632 -2.765,-1.07 -3.842,-1.563 m -0.149,-12.001 c 0.701,0.419 1.513,0.945 2.364,0.745 0.014,-0.138 0.025,-0.402 0.025,-0.538 -0.544,-1.127 -1.952,-1.752 -3.153,-1.64 -0.294,0.588 0.325,1.126 0.764,1.433 m -23.468,-49.598 c -0.035,0.046 -0.072,0.092 -0.108,0.139 1.195,3.003 2.278,6.043 3.498,9.04 0.694,0.857 1.645,1.47 2.446,2.221 0.937,0.776 1.84,1.615 2.828,2.327 0.588,0.414 1.326,0.063 1.965,-0.049 1.833,-0.476 3.741,-0.489 5.619,-0.632 1.325,-0.075 2.677,0.006 3.972,0.269 1.57,0.35 2.76,1.795 2.91,3.378 0,0.94 -0.263,1.865 -0.689,2.691 -0.35,0.714 -0.431,1.726 0.25,2.264 0.482,0.432 1.233,0.238 1.728,0.608 0.124,0.757 -0.407,1.357 -0.982,1.763 0.45,0.507 1.088,1.021 1.082,1.759 -0.327,0.52 -0.751,0.963 -1.152,1.427 0.05,0.281 0.114,0.562 0.188,0.832 0.701,0.632 1.765,0.845 2.284,1.69 0.381,0.644 -0.007,1.432 -0.463,1.926 -1.313,1.346 -2.56,2.753 -3.723,4.224 -0.814,0.957 -0.714,2.284 -0.807,3.454 -0.043,2.233 -0.032,4.498 -0.632,6.669 0.437,-0.238 0.863,-0.538 1.377,-0.569 2.459,-0.181 4.992,1.382 5.825,3.722 0.256,0.788 0.331,2.103 -0.682,2.371 -1.152,0.107 -2.215,-0.555 -3.266,-0.944 -0.601,0.15 -1.176,0.4 -1.609,0.863 0.47,0.895 1.433,1.233 2.222,1.752 0.787,0.902 1.101,2.103 1.576,3.173 2.716,1.007 5.225,2.902 6.469,5.587 0.714,1.514 1.052,3.267 0.702,4.93 -0.363,1.933 -1.64,3.63 -3.292,4.68 -2.178,1.409 -4.942,1.721 -7.451,1.195 -0.82,-0.124 -1.483,-0.695 -1.708,-1.495 -0.401,0.163 -0.814,0.313 -1.227,0.469 0.401,0.807 0.676,1.809 0.138,2.627 -0.045,0.076 -0.096,0.146 -0.148,0.211 l -40.36,-53.401 c 0.254,-0.88 0.618,-1.709 1.347,-2.314 0.957,-0.587 2.175,-0.268 3.241,-0.355 -0.866,-2.066 -1.63,-4.267 -3.194,-5.938 -0.822,-0.914 -1.852,-1.614 -2.862,-2.303 -0.605,-0.4 -0.949,-1.088 -1.581,-1.457 -3.275,-2.154 -6.793,-3.893 -10.397,-5.424 L -76.944,-79.39 Z"
             style="fill:#f9ed2d;fill-opacity:1;fill-rule:nonzero;stroke:none"
             id="path7019" />
        </g>
        <g
           id="g7021"
           transform="translate(296.5938,263.1055)">
          <path
             d="m 0,0 -5.204,-48.678 c 0.502,1.095 1.007,2.188 1.518,3.277 0.841,-0.326 1.726,-0.538 2.531,-0.957 0.822,-0.601 1.498,-1.383 2.267,-2.059 -0.003,-0.851 -0.006,-1.695 -0.006,-2.547 -0.657,-0.744 -1.311,-1.482 -1.97,-2.214 0.449,-0.826 0.906,-1.646 1.363,-2.471 -2.339,-2.147 -4.229,-4.749 -5.609,-7.609 -0.848,-1.724 -1.58,-3.501 -2.22,-5.311 l -2.5,-23.387 48.198,-6.977 z"
             style="fill:#cbf387;fill-opacity:1;fill-rule:nonzero;stroke:none"
             id="path7023" />
        </g>
        <g
           id="g7025"
           transform="translate(281.5498,104.1504)">
          <path
             d="m 0,0 c 15.033,-2.87 30.552,-4.373 46.421,-4.373 0.464,0 0.925,0.009 1.388,0.011 -0.494,-0.504 -1.002,-0.995 -1.533,-1.463 -2.033,-1.808 -4.254,-3.391 -6.478,-4.955 -2.577,-1.752 -5.049,-4.03 -5.979,-7.095 -0.481,-1.715 -0.528,-3.773 0.632,-5.232 0.643,-0.818 1.265,-1.656 1.854,-2.515 L 63.559,9.923 Z"
             style="fill:#8bcfa3;fill-opacity:1;fill-rule:nonzero;stroke:none"
             id="path7027" />
        </g>
        <g
           id="g7029"
           transform="translate(286.7637,171.1494)">
          <path
             d="M 0,0 58.345,-57.076 48.198,-6.977 Z"
             style="fill:#96eaa2;fill-opacity:1;fill-rule:nonzero;stroke:none"
             id="path7031" />
        </g>
        <g
           id="g7033"
           transform="translate(286.7637,171.1494)">
          <path
             d="m 0,0 -15.809,-64.729 c 3.504,-0.831 7.035,-1.59 10.595,-2.27 l 63.559,9.923 z"
             style="fill:#9ae292;fill-opacity:1;fill-rule:nonzero;stroke:none"
             id="path7035" />
        </g>
        <g
           id="g7037"
           transform="translate(293.4517,276.6416)">
          <path
             d="m 0,0 c -0.24,0.055 -0.48,0.107 -0.72,0.164 0.741,-1.014 0.517,-2.277 0.879,-3.41 -0.879,-1.119 -1.851,-2.221 -3.071,-2.972 -1.174,-0.376 -1.871,-1.577 -3.154,-1.708 -0.066,-0.356 -0.144,-0.707 -0.219,-1.07 -0.357,0.125 -0.722,0.244 -1.086,0.363 0.051,-0.463 0.104,-0.926 0.15,-1.395 -0.6,0.056 -1.2,0.106 -1.804,0.156 0.124,-0.119 0.255,-0.236 0.389,-0.355 l 11.778,-3.309 z"
             style="fill:#ffce00;fill-opacity:1;fill-rule:nonzero;stroke:none"
             id="path7039" />
        </g>
        <g
           id="g7041"
           transform="translate(191.4722,292.6514)">
          <path
             d="M 0,0 C -0.246,0.895 -0.486,1.793 -0.72,2.693 L -2.055,0.577 Z"
             style="fill:#ffce00;fill-opacity:1;fill-rule:nonzero;stroke:none"
             id="path7043" />
        </g>
        <g
           id="g7045"
           transform="translate(158.9766,175.5879)">
          <path
             d="m 0,0 127.787,-4.439 -14.95,18.749 c -0.439,-2.167 -0.896,-4.329 -1.396,-6.48 -0.148,-0.571 -0.405,-1.101 -0.677,-1.624 -36.77,25.781 -64.472,63.61 -77.387,107.752 l -2.937,3.683 z"
             style="fill:#f0d03c;fill-opacity:1;fill-rule:nonzero;stroke:none"
             id="path7047" />
        </g>
        <g
           id="g7049"
           transform="translate(289.2637,194.5361)">
          <path
             d="m 0,0 c -1.038,-2.939 -1.83,-5.97 -2.472,-9.017 -0.376,0.913 -0.604,1.877 -0.648,2.866 -0.551,-0.425 -1.104,-0.851 -1.661,-1.277 -0.792,0.163 -1.58,0.325 -2.371,0.489 -0.701,-1.264 -1.424,-2.516 -2.19,-3.754 0.885,3.015 1.926,5.968 2.946,8.934 1.365,3.943 2.444,7.985 4.011,11.851 1.54,3.248 3.013,6.531 4.511,9.8 l 5.204,48.677 -11.778,3.31 c 0.878,-0.769 1.883,-1.529 2.101,-2.724 -0.517,-0.037 -1.032,-0.062 -1.549,-0.088 0.184,-0.156 0.369,-0.312 0.551,-0.475 C -3.564,68.555 -4,68.473 -4.221,68.43 c 0.494,-0.125 1.107,-0.05 1.438,-0.514 -0.963,-0.3 -1.946,-0.537 -2.94,-0.706 0.41,-0.019 0.817,-0.057 1.217,-0.095 0.147,-0.236 0.298,-0.474 0.457,-0.707 -0.338,-0.018 -0.682,-0.055 -1.026,-0.088 0.075,-0.23 0.225,-0.694 0.3,-0.924 -0.288,-0.108 -0.579,-0.22 -0.87,-0.327 0.179,-0.18 0.351,-0.375 0.523,-0.562 -0.417,-0.113 -0.829,-0.233 -1.245,-0.37 0.103,-0.15 0.21,-0.3 0.306,-0.45 -0.297,-0.012 -0.6,-0.025 -0.91,-0.038 0.144,-0.2 0.429,-0.587 0.569,-0.781 -0.519,0.269 -1.051,0.519 -1.551,0.819 0.641,-0.664 0.932,-1.558 1.382,-2.34 -0.431,0.42 -0.885,0.813 -1.335,1.214 0.247,-0.375 0.494,-0.751 0.74,-1.139 -0.221,0.013 -0.662,0.038 -0.884,0.051 0.184,-0.139 0.553,-0.401 0.738,-0.538 -0.191,-0.026 -0.576,-0.095 -0.77,-0.126 0.423,-0.451 0.842,-0.895 1.258,-1.339 -0.344,0.012 -0.695,0.038 -1.045,0.05 0.066,-0.401 0.126,-0.795 0.184,-1.202 0.536,-0.143 1.068,-0.288 1.596,-0.443 -0.163,-0.133 -0.488,-0.407 -0.651,-0.545 0.217,-0.05 0.645,-0.15 0.861,-0.2 -0.31,-0.287 -0.622,-0.575 -0.936,-0.876 0.411,-0.051 0.817,-0.112 1.223,-0.175 -0.303,-0.113 -0.607,-0.225 -0.913,-0.338 0.964,-0.301 1.928,-0.613 2.888,-0.927 -0.87,-0.212 -1.737,-0.425 -2.61,-0.637 0.939,-0.864 2.124,-1.489 2.797,-2.615 -0.944,0.024 -1.889,0.093 -2.838,0.15 0.671,-0.395 1.339,-0.789 2.01,-1.177 -0.582,-0.056 -1.167,-0.112 -1.756,-0.162 0.532,-0.176 1.061,-0.338 1.583,-0.507 -0.265,-0.095 -0.526,-0.181 -0.801,-0.282 0.333,-0.4 0.66,-0.801 0.986,-1.201 -0.445,-0.125 -0.888,-0.263 -1.336,-0.401 0.663,-0.137 1.329,-0.25 1.996,-0.376 -0.15,-0.237 -0.3,-0.48 -0.454,-0.725 0.282,-0.199 0.554,-0.412 0.829,-0.613 -1.401,-0.519 -2.809,-1.026 -4.213,-1.539 1.704,0.187 3.4,0.438 5.105,0.638 -0.257,-0.113 -0.767,-0.338 -1.023,-0.451 0.441,-0.124 0.87,-0.262 1.301,-0.394 -1.445,-3.41 -2.755,-6.876 -4.436,-10.172 -1.148,-2.272 -2.609,-4.393 -3.51,-6.784 -3.594,-10.46 -5.275,-21.397 -7.463,-32.205 L -2.5,-23.387 Z"
             style="fill:#f6e63a;fill-opacity:1;fill-rule:nonzero;stroke:none"
             id="path7051" />
        </g>
        <g
           id="g7053"
           transform="translate(192.3535,289.5459)">
          <path
             d="M 0,0 C -0.302,1.032 -0.596,2.066 -0.881,3.105 L -2.936,3.683 Z"
             style="fill:#f6e63a;fill-opacity:1;fill-rule:nonzero;stroke:none"
             id="path7055" />
        </g>
        <g
           id="g7057"
           transform="translate(238.7046,483.0645)">
          <path
             d="m 0,0 c 9.321,9.905 19.638,18.861 30.793,26.708 l -4.581,74.028 c -0.197,-0.051 -0.395,-0.103 -0.591,-0.156 L -64.508,-7.826 Z"
             style="fill:#fb6800;fill-opacity:1;fill-rule:nonzero;stroke:none"
             id="path7059" />
        </g>
        <g
           id="g7061"
           transform="translate(158.9766,175.5879)">
          <path
             d="m 0,0 100.008,-66.005 c 3.95,-1.151 7.941,-2.206 11.97,-3.162 l 15.809,64.728 z"
             style="fill:#c7df6f;fill-opacity:1;fill-rule:nonzero;stroke:none"
             id="path7063" />
        </g>
        <g
           id="g7065"
           transform="translate(189.417,293.2285)">
          <path
             d="m 0,0 1.335,2.116 c -4.196,16.14 -6.434,33.07 -6.434,50.524 0,15.393 1.739,30.381 5.028,44.778 L -58.979,82.443 Z"
             style="fill:#feb200;fill-opacity:1;fill-rule:nonzero;stroke:none"
             id="path7067" />
        </g>
        <g
           id="g7069"
           transform="translate(264.3252,583.6445)">
          <path
             d="m 0,0 c -36.17,-9.657 -69.059,-27.349 -96.64,-51.045 l 6.512,-57.361 z"
             style="fill:#f35c00;fill-opacity:1;fill-rule:nonzero;stroke:none"
             id="path7071" />
        </g>
        <g
           id="g7073"
           transform="translate(156.7266,169.1387)">
          <path
             d="M 0,0 C 28.359,-27.485 63.312,-48.204 102.258,-59.556 L 2.25,6.449 Z"
             style="fill:#d3bf53;fill-opacity:1;fill-rule:nonzero;stroke:none"
             id="path7075" />
        </g>
        <g
           id="g7077"
           transform="translate(211.812,447.1953)">
          <path
             d="M 0,0 C 7.618,12.961 16.654,24.987 26.893,35.869 L -37.615,28.043 Z"
             style="fill:#ff8500;fill-opacity:1;fill-rule:nonzero;stroke:none"
             id="path7079" />
        </g>
        <g
           id="g7081"
           transform="translate(130.438,375.6719)">
          <path
             d="m 0,0 58.908,14.975 c 4.61,20.18 12.268,39.201 22.466,56.548 L 43.759,99.566 Z"
             style="fill:#fe9400;fill-opacity:1;fill-rule:nonzero;stroke:none"
             id="path7083" />
        </g>
        <g
           id="g7085"
           transform="translate(167.6855,532.5996)">
          <path
             d="M 0,0 C -10.745,-9.232 -20.687,-19.374 -29.7,-30.31 L 6.511,-57.361 Z"
             style="fill:#f04f00;fill-opacity:1;fill-rule:nonzero;stroke:none"
             id="path7087" />
        </g>
        <g
           id="g7089"
           transform="translate(137.9854,502.29)">
          <path
             d="m 0,0 c -7.016,-8.512 -13.469,-17.504 -19.307,-26.919 l 55.518,-0.133 z"
             style="fill:#f64e00;fill-opacity:1;fill-rule:nonzero;stroke:none"
             id="path7091" />
        </g>
        <g
           id="g7093"
           transform="translate(189.417,293.2285)">
          <path
             d="m 0,0 -102.01,0.56 c 2.321,-10.774 5.349,-21.285 9.03,-31.483 l 62.54,-86.718 z"
             style="fill:#fb9b00;fill-opacity:1;fill-rule:nonzero;stroke:none"
             id="path7095" />
        </g>
        <g
           id="g7097"
           transform="translate(130.438,375.6719)">
          <path
             d="m 0,0 -45.887,-66.139 c 0.785,-5.305 1.738,-10.555 2.856,-15.745 l 102.01,-0.559 z"
             style="fill:#ffa300;fill-opacity:1;fill-rule:nonzero;stroke:none"
             id="path7099" />
        </g>
        <g
           id="g7101"
           transform="translate(174.1968,475.2383)">
          <path
             d="m 0,0 -55.519,0.133 c -10.996,-17.735 -19.801,-36.97 -26.037,-57.328 l 37.797,-42.371 z"
             style="fill:#fd7700;fill-opacity:1;fill-rule:nonzero;stroke:none"
             id="path7103" />
        </g>
        <g
           id="g7105"
           transform="translate(96.4375,262.3057)">
          <path
             d="m 0,0 c 11.72,-32.467 30.07,-61.764 53.422,-86.25 l 9.117,-0.468 z"
             style="fill:#f56500;fill-opacity:1;fill-rule:nonzero;stroke:none"
             id="path7107" />
        </g>
        <g
           id="g7109"
           transform="translate(149.8599,176.0557)">
          <path
             d="m 0,0 c 2.243,-2.352 4.533,-4.656 6.867,-6.917 l 2.25,6.449 z"
             style="fill:#e07000;fill-opacity:1;fill-rule:nonzero;stroke:none"
             id="path7111" />
        </g>
        <g
           id="g7113"
           transform="translate(83.1274,370.7607)">
          <path
             d="m 0,0 c -0.822,-8.186 -1.245,-16.49 -1.245,-24.893 0,-12.345 0.913,-24.477 2.668,-36.335 L 47.311,4.911 Z"
             style="fill:#ff8800;fill-opacity:1;fill-rule:nonzero;stroke:none"
             id="path7115" />
        </g>
        <g
           id="g7117"
           transform="translate(92.6406,418.043)">
          <path
             d="m 0,0 c -4.653,-15.189 -7.878,-31.001 -9.513,-47.282 l 47.31,4.911 z"
             style="fill:#fd7400;fill-opacity:1;fill-rule:nonzero;stroke:none"
             id="path7119" />
        </g>
      </g>
    </g>
  </g>
</svg>
