<?xml version="1.0" encoding="UTF-8"?>
<!DOCTYPE svg PUBLIC "-//W3C//DTD SVG 1.1//EN" "http://www.w3.org/Graphics/SVG/1.1/DTD/svg11.dtd">
<svg version="1.1" xmlns="http://www.w3.org/2000/svg" xmlns:xlink="http://www.w3.org/1999/xlink" x="0" y="0" width="406.298" height="500" viewBox="0, 0, 406.298, 500">
  <g id="Layer_1">
    <path d="M216.225,499.126 C211.741,497.64 206.109,495.814 203.856,491.91 C202.673,489.806 202.613,489.123 202.609,477.548 C202.601,456.865 204.707,440.379 209.223,425.758 C209.874,423.651 210.213,421.489 210.016,420.704 C209.499,418.644 210.682,415.762 212.481,414.699 C213.886,413.869 214.185,413.191 215.028,408.921 C216.141,403.285 216.79,380.239 216.133,369.721 C215.655,362.072 215.906,361.943 210.51,372.597 C208.51,376.546 205.382,382.139 203.559,385.025 C201.736,387.912 198.43,393.152 196.213,396.67 C193.996,400.188 190.942,405.534 189.426,408.55 C186.745,413.884 183.66,422.844 183.737,425.073 C183.85,428.342 184.304,432.533 184.597,433.007 C185.704,434.799 186.117,441.731 186.278,461.253 C186.47,484.551 186.332,486.173 183.736,491.033 C181.954,494.368 181.551,493.917 177.008,495.759 C171.153,498.134 152.26,499.005 146.827,495.997 C143.543,494.179 143.777,495.091 141.797,492.842 C138.953,489.611 138.314,487.081 138.701,480.587 C139.078,474.255 140.914,467.255 144.63,457.978 C146.501,453.308 147.2,450.932 146.817,450.549 C146.507,450.239 146.253,449.404 146.253,448.695 C146.253,447.591 146.407,447.487 147.321,447.977 C148.958,448.853 149.014,448.769 149.032,445.373 C149.048,442.613 149.146,442.323 149.784,443.163 C150.669,444.329 151.224,444.404 151.224,443.355 C151.224,442.93 153.767,438.766 156.875,434.103 C159.983,429.44 162.904,424.507 163.366,423.139 C164.12,420.907 164.466,420.57 166.765,419.834 C169.032,419.108 169.66,418.514 172.24,414.663 C175.981,409.079 179.391,401.372 184.376,387.235 C191.147,368.032 196.774,357.532 204.803,349.121 L208.757,344.978 L208.414,339.609 C208.049,333.9 206.924,326.304 205.777,321.813 L205.081,319.085 L201.137,318.423 C192.564,316.985 185.941,313.551 182.35,308.684 C179.912,305.38 180.438,303.204 186.059,293.331 C187.53,290.749 189.581,286.274 190.619,283.388 C193.277,275.993 195.954,269.632 197.36,267.369 C198.979,264.762 201.197,256.393 199.873,250.798 C198.371,244.457 197.051,241.686 193.102,234.548 C189.048,227.22 187.825,222.33 186.284,218.828 C181.376,207.672 180.597,200.275 184.812,190.828 C181.326,189.485 178.993,187.866 175.738,186.17 C175.427,187.375 175.529,188.354 175.529,189.691 C170.379,185.284 167.658,179.416 165.545,175.186 C162.104,168.287 157.808,162.561 146.998,150.466 C143.702,146.778 136.145,138.327 130.205,131.685 C113.309,112.794 110.955,109.745 103.401,96.971 L98.507,88.695 L97.661,93.614 C97.183,96.395 96.515,98.631 96.125,98.759 C95.745,98.884 95.434,98.661 95.434,98.263 C95.434,97.865 94.378,99.628 93.087,102.181 C89.928,108.426 87.749,109.866 88.889,104.955 C89.932,100.459 88.37,90.324 86.451,89.138 C86.078,88.908 85.984,89.104 86.199,89.663 C86.387,90.154 86.834,93.156 87.192,96.335 C87.963,103.194 87.28,109.339 85.158,114.609 C83.584,118.517 78.688,125.408 77.485,125.408 C76.468,125.408 76.468,125.319 77.482,121.542 C79.455,114.193 77.85,105.864 73.186,99.247 C71.818,97.307 71.424,97.859 70.913,102.429 C69.76,112.74 65.676,121.706 61.041,124.103 C59.456,124.923 59.391,124.914 59.795,123.945 C60.03,123.383 60.834,121.058 61.583,118.78 C63.015,114.42 64.014,105.629 63.006,106.252 C62.698,106.442 62.314,108.232 62.154,110.229 C61.714,115.707 59.995,118.632 55.917,120.835 C52.648,122.601 51.386,122.825 51.666,121.587 C51.772,121.12 51.521,121.098 50.759,121.506 C49.833,122.002 49.66,121.825 49.326,120.045 C48.941,117.995 46.653,113.161 44.727,110.33 L43.676,108.785 L43.346,112.715 C42.937,117.593 41.725,119.793 38.565,121.395 C37.225,122.074 36.049,122.55 35.951,122.452 C35.853,122.354 36.055,121.463 36.401,120.472 C37.256,118.02 36.689,113.573 34.679,106.952 C33.764,103.94 33.016,100.846 33.016,100.075 C33.016,99.187 32.823,98.866 32.49,99.2 C31.456,100.233 30.664,107.963 31.007,113.67 C31.408,120.33 30.922,120.795 27.419,117.113 C24.744,114.301 23.537,110.352 23.115,103.037 L22.797,97.513 L20.428,102.693 C19.125,105.542 18.2,108.015 18.374,108.188 C18.547,108.362 18.126,108.805 17.438,109.173 C16.27,109.798 16.104,109.672 14.94,107.268 C14.254,105.853 13.69,103.685 13.688,102.452 C13.681,99.563 15.598,91.999 17.555,87.19 C18.397,85.121 18.917,83.428 18.711,83.428 C17.885,83.428 13.041,88.901 10.69,92.491 C8.583,95.709 8.124,96.142 7.761,95.253 C7.204,93.89 7.204,85.457 7.761,82.599 L8.191,80.39 L6.525,82.323 C5.14,83.93 4.767,84.117 4.315,83.428 C3.066,81.522 2.923,74.452 4.053,70.399 C4.313,69.466 4.134,69.255 3.118,69.294 C1.132,69.37 0.324,67.226 0.741,62.99 C1.461,55.687 4.391,49.416 8.877,45.576 C10.11,44.52 10.764,43.662 10.33,43.669 C8.903,43.691 5.086,45.688 3.043,47.482 L1.037,49.243 L0.4,46.878 C-1.436,40.057 3.326,29.588 8.948,28.084 L11.221,27.476 L9.69,24.441 C7.403,19.907 7.659,16.57 10.537,13.41 L11.673,12.163 L13.003,14.791 C13.735,16.236 15.241,18.528 16.351,19.884 L18.368,22.349 L18.795,19.385 C19.03,17.754 19.982,14.925 20.911,13.096 C23.135,8.72 27.459,2.695 28.094,3.088 C28.371,3.259 28.611,5.186 28.629,7.37 C28.646,9.555 28.837,12.337 29.053,13.552 L29.445,15.762 L30.43,13.184 C32.605,7.491 38.138,3.441 47.516,0.674 C51.845,-0.603 52.886,-0.033 50.144,2.113 C48.471,3.422 46.313,7.12 46.285,8.725 C46.278,9.108 47.652,8.299 49.338,6.926 C57.875,-0.028 66.1,-1.144 71.202,3.958 C72.378,5.133 73.339,6.311 73.339,6.576 C73.339,6.84 72.192,7.185 70.79,7.343 C68.118,7.645 65.995,8.886 64.625,10.95 C63.86,12.102 64.038,12.071 67.47,10.465 C72.502,8.111 76.604,7.777 80.406,9.413 C83.786,10.867 85.972,13.175 88.258,17.703 C90.318,21.785 90.335,22.461 88.338,20.985 C86.076,19.312 82.463,18.947 80.205,20.163 C78.488,21.088 76.68,23.982 77.382,24.683 C77.56,24.862 79.405,24.591 81.482,24.082 C84.147,23.429 85.664,23.312 86.639,23.682 C88.698,24.465 91.63,27.989 94.322,32.917 C95.64,35.33 97.225,38.033 97.843,38.925 C98.767,40.255 98.806,40.483 98.064,40.198 C94.919,38.991 89.358,38.034 89.358,38.699 C89.358,38.995 89.901,39.238 90.565,39.238 C94.505,39.238 98.725,43.445 99.604,48.249 C99.979,50.3 98.949,56.926 98.259,56.902 C98.072,56.895 97.174,55.76 96.263,54.379 C94.881,52.285 92.031,49.686 92.775,51.198 C92.901,51.456 93.544,52.803 94.203,54.194 C94.862,55.584 96.004,56.996 96.742,57.332 C100.047,58.838 102.685,64.853 103.72,73.246 C104.55,79.966 104.683,80.444 106.844,84.454 C112.775,95.462 121.797,104.878 144.596,123.852 L156.472,133.736 L156.856,129.158 C157.734,118.669 159.491,113.773 167.787,98.682 C169.373,95.797 170.012,94.099 169.679,93.655 C169.403,93.285 168.369,91.914 167.381,90.608 C166.394,89.302 165.586,88.022 165.586,87.764 C165.586,87.506 166.394,87.292 167.381,87.289 C170.512,87.28 174.384,84.447 181.222,77.16 C186.46,71.577 188.424,69.874 191.205,68.505 C194.791,66.74 201.086,65.49 203.43,66.079 C204.281,66.292 205.797,65.905 207.679,64.993 C216.021,60.952 225.338,60.904 232.101,64.867 C237.506,68.034 243.445,76.681 246.941,86.471 C247.701,88.601 249.247,93.697 250.377,97.795 C251.507,101.893 253.015,106.399 253.729,107.808 C255.477,111.259 258.676,113.869 263.047,115.412 C265.268,116.196 266.671,117.003 266.671,117.497 C266.671,118.052 266.326,118.193 265.56,117.949 C264.949,117.756 262.199,118.259 259.449,119.068 C256.535,119.925 253.887,120.398 253.103,120.201 C251.432,119.782 251.433,119.833 253.212,123.355 C255.437,127.76 257.685,130.792 259.788,132.22 C260.836,132.933 261.529,133.68 261.329,133.881 C261.128,134.082 259.729,134.246 258.221,134.246 L255.479,134.246 L255.804,136.248 C256.215,138.78 256.491,139.039 257.692,138.016 C258.225,137.562 262.514,133.988 267.224,130.075 C282.435,117.435 292.477,106.857 298.4,97.237 C301.29,92.543 301.737,91.166 302.565,84.408 C302.89,81.757 303.669,77.904 304.297,75.846 C305.243,72.741 305.935,71.629 308.357,69.316 C311.09,66.706 314.218,61.885 313.178,61.885 C312.527,61.885 310.64,64.011 309.288,66.27 L308.151,68.169 L307.477,66.546 C306.352,63.84 306.586,58.072 307.923,55.533 C309.575,52.396 310.912,51.377 314.854,50.25 C317.459,49.505 317.904,49.249 316.649,49.22 C315.731,49.198 313.299,49.646 311.245,50.216 L307.51,51.252 L308.466,49.802 C308.991,49.004 310.522,46.363 311.867,43.933 C316.669,35.253 318.811,33.593 323.779,34.699 C325.333,35.045 327.2,35.5 327.928,35.711 C329.16,36.068 329.226,35.983 328.874,34.49 C328.666,33.607 327.839,32.299 327.036,31.583 C325.774,30.458 325.143,30.313 322.382,30.512 C320.308,30.662 318.793,31.101 318.059,31.765 C316.292,33.364 316.148,32.398 317.66,29.095 C319.503,25.069 323.056,21.295 326.096,20.134 C329.422,18.864 334.594,19.309 338.779,21.225 C340.53,22.026 342.057,22.587 342.173,22.472 C342.289,22.356 341.512,21.496 340.447,20.56 C338.426,18.786 335.095,17.545 333.744,18.063 C332.446,18.561 332.849,17.304 334.639,15.264 C339.521,9.704 349.281,10.902 357.214,18.034 C358.759,19.423 360.021,20.35 360.02,20.094 C360.007,18.077 358.571,15.3 356.639,13.555 C353.584,10.795 354.416,10.183 359.21,11.664 C368.134,14.42 372.99,17.882 375.522,23.291 C376.857,26.143 376.874,26.155 377.219,24.557 C377.411,23.669 377.598,20.892 377.633,18.385 C377.671,15.795 377.934,13.828 378.245,13.828 C379.063,13.828 383.596,20.26 385.515,24.144 C386.441,26.019 387.368,28.878 387.573,30.496 L387.947,33.438 L390.46,30.055 C391.843,28.194 393.299,25.886 393.697,24.927 C394.398,23.234 394.452,23.212 395.506,24.166 C398.562,26.932 398.891,30.711 396.488,35.441 L394.839,38.685 L396.35,38.689 C402.09,38.703 407.909,50.455 405.888,57.953 L405.236,60.372 L403.206,58.394 C401.227,56.466 397.903,54.704 396.245,54.704 C395.787,54.704 396.596,55.802 398.065,57.176 C402.646,61.461 405.413,68.181 405.531,75.31 C405.582,78.401 405.406,79.234 404.573,79.843 C404.012,80.254 403.164,80.441 402.689,80.258 C402,79.994 401.9,80.197 402.195,81.263 C403.34,85.408 403.26,92.464 402.047,94.412 C401.673,95.012 401.188,94.773 399.802,93.307 C398.58,92.014 398.154,91.778 398.42,92.542 C399.209,94.807 399.392,103.116 398.7,105.215 L398.014,107.292 L396.611,104.888 C394.8,101.786 391.031,97.142 388.804,95.267 L387.056,93.796 L388.263,96.759 C390.256,101.651 392.096,108.348 392.44,111.96 C392.709,114.789 392.554,115.792 391.518,117.932 C390.66,119.703 390.021,120.408 389.464,120.195 C389.02,120.024 388.436,119.884 388.166,119.884 C387.897,119.884 387.798,119.568 387.947,119.18 C388.095,118.793 387.111,116.245 385.759,113.518 L383.302,108.561 L383.262,112.814 C383.188,120.772 380.935,127.104 377.4,129.289 C376.43,129.889 375.516,130.38 375.371,130.38 C375.226,130.38 375.131,126.962 375.16,122.784 C375.215,114.894 374.69,109.942 373.799,109.942 C373.513,109.942 373.28,110.39 373.28,110.937 C373.28,111.485 372.41,115.014 371.347,118.78 C369.36,125.814 368.964,129.612 370.01,131.568 C370.339,132.182 370.493,132.799 370.352,132.94 C369.79,133.502 367.161,132.396 365.779,131.015 C363.889,129.128 363.321,127.602 362.873,123.207 L362.509,119.625 L360.161,123.58 C358.87,125.756 357.522,128.797 357.166,130.338 C356.533,133.08 356.495,133.12 355.415,132.175 C354.386,131.273 354.335,131.272 354.658,132.157 C354.848,132.679 354.809,133.226 354.571,133.373 C354.038,133.702 349.176,131.284 347.716,129.964 C345.862,128.287 344.419,124.733 344.13,121.129 C343.976,119.213 343.598,117.489 343.29,117.299 C342.92,117.07 342.832,118.435 343.03,121.318 C343.283,124.994 344.54,129.909 346.53,135 C347.298,136.963 342.492,133.189 340.746,130.456 C338.642,127.166 336.542,120.805 335.705,115.189 C334.68,108.313 334.561,108.157 332.513,110.985 C328.474,116.56 326.873,125.719 328.787,132.303 C330.059,136.676 329.271,137.181 326.347,133.866 C322.194,129.158 319.548,122.72 318.849,115.622 C318.517,112.251 319.23,103.241 320.029,100.712 C320.305,99.842 320.236,99.852 319.463,100.802 C317.504,103.208 316.402,111.089 317.413,115.465 C318.69,120.993 315.58,118.944 312.708,112.365 C311.61,109.849 310.999,109.049 310.314,109.228 C309.546,109.429 309.278,108.689 308.69,104.734 C308.302,102.13 307.825,100.009 307.628,100.022 C307.432,100.034 305.283,103.529 302.852,107.788 C296.572,118.792 290.468,126.607 272.784,146.282 L257.25,163.564 L255.422,168.679 C251.713,179.057 244.924,187.221 238.224,190.874 C233.321,193.547 229.396,197.413 224.415,200.922 C224.709,202.934 225.271,211.292 224.52,216.572 C223.856,221.241 222.056,229.419 221.984,234.009 C221.862,241.683 222.315,242.547 223.579,246.103 C224.665,249.159 230.338,254.093 232.994,256.015 C237.041,258.942 237.462,260.148 242.538,268.206 C245.485,272.884 249.454,278.218 252.603,281.731 C255.462,284.921 258.365,288.583 259.055,289.87 L260.308,292.209 L256.171,296.403 C251.824,300.81 244.946,306.242 240.65,308.66 L238.106,310.093 L237.77,315.935 C237.585,319.149 236.796,325.98 236.016,331.115 C235.236,336.25 234.354,344.328 234.056,349.067 C233.413,359.278 232.915,363.604 230.775,377.568 C228.162,394.612 227.291,403.914 227.696,410.427 C227.99,415.155 228.261,416.436 229.17,417.403 C229.782,418.055 230.641,419.777 231.078,421.231 C231.516,422.685 232.463,424.89 233.182,426.131 C235.602,430.302 238.412,438.244 242.388,452.139 C248.618,473.914 250.136,480.015 250.43,484.453 C250.681,488.242 250.573,488.828 249.159,491.31 C246.876,495.32 244.417,498.112 238.077,499.222 C233.395,500.042 220.603,500.493 216.225,499.125 z" fill="#000000" id="path34151"/>
    <path d="M235.644,497.735 C241.743,497.008 245.589,494.311 247.695,490.717 C248.982,488.52 249.109,487.837 248.863,484.4 C248.711,482.281 248.447,480.407 248.275,480.235 C248.104,480.064 247.411,480.438 246.735,481.067 C244.055,483.565 234.488,485.568 225.341,485.547 C219.179,485.533 209.092,484.191 206.889,483.093 C205.948,482.623 205.106,482.31 205.019,482.398 C204.932,482.485 204.708,484.164 204.523,486.129 C204.094,490.667 205.255,492.744 211.355,495.685 C217.455,498.627 224.628,499.049 235.644,497.735 z" fill="#E6E6E6" id="path34149"/>
    <path d="M171.693,495.285 C179.026,493.552 181.484,492.992 183.178,488.567 C183.811,486.913 184.499,484.273 184.708,482.7 L185.087,479.84 L183.208,480.996 C179.145,483.494 174.947,484.146 162.824,484.161 C150.848,484.175 148.034,483.738 142.742,481.039 C140.38,479.833 139.65,480.207 139.633,482.631 C139.594,488.165 142.854,493.109 147.003,494.464 C153.045,496.438 163.041,497.33 171.693,495.285 z" fill="#E6E6E6" id="path34147"/>
    <path d="M237.148,483.084 C242.539,482.053 246.023,480.385 247.087,478.328 C247.87,476.815 247.809,476.531 245.894,472.722 C243.684,468.329 239.827,462.66 237.889,460.957 C236.668,459.884 236.659,459.884 237.051,460.953 C237.841,463.106 238.066,466.663 237.478,467.676 C236.928,468.623 236.875,468.593 236.857,467.33 L236.838,465.949 L235.473,467.606 C234.649,468.607 233.938,469.045 233.68,468.711 C233.445,468.407 232.778,467.786 232.197,467.33 C231.205,466.551 231.159,466.593 231.43,468.02 C231.591,468.869 231.395,469.965 230.984,470.506 C230.365,471.322 230.247,471.339 230.232,470.615 C230.222,470.143 229.303,468.9 228.189,467.853 L226.162,465.949 L227.66,468.573 C228.967,470.865 229.035,471.197 228.193,471.197 C227.663,471.197 226.377,470.389 225.335,469.402 L223.441,467.606 L223.8,469.125 C224.07,470.265 223.954,470.644 223.335,470.644 C222.392,470.645 220.825,467.924 220.825,466.286 C220.825,465.681 220.576,465.033 220.272,464.845 C219.942,464.641 219.713,465.349 219.702,466.607 L219.686,468.711 L218.349,467.192 C217.613,466.357 216.76,465.673 216.452,465.673 C216.145,465.673 215.606,465.114 215.256,464.43 C214.906,463.747 214.158,462.815 213.594,462.359 C213.03,461.903 212.236,460.564 211.829,459.383 L211.091,457.236 L209.077,460.27 C205.965,464.959 204.718,468.639 204.39,474.106 C204.143,478.221 204.246,479.111 205.073,480.025 C206.345,481.431 209.794,482.705 213.921,483.294 C219.525,484.094 232.485,483.977 237.149,483.085 z" fill="#FFFFFF" id="path34145"/>
    <path d="M178.567,481.419 C182.723,479.917 184.367,478.583 184.367,476.711 C184.367,473.982 181.627,466.098 180.79,466.419 C180.343,466.591 179.783,466.057 179.372,465.064 C178.735,463.526 176.437,461.253 175.519,461.253 C175.292,461.253 175.439,462.186 175.846,463.325 C176.728,465.797 176.814,467.853 176.081,468.987 C175.632,469.682 175.544,469.646 175.537,468.768 C175.53,467.853 175.356,467.907 174.162,469.196 L172.794,470.671 L171.676,469.553 C170.092,467.969 169.642,468.158 169.893,470.302 C170.013,471.33 169.838,472.339 169.506,472.544 C169.173,472.75 168.9,472.616 168.9,472.248 C168.9,471.328 166.219,467.882 165.503,467.882 C165.185,467.882 165.446,468.766 166.084,469.847 C166.722,470.928 167.243,472.023 167.243,472.281 C167.243,473.238 164.974,472.113 163.593,470.472 C162.194,468.809 162.167,468.802 162.28,470.124 C162.468,472.344 162.323,472.519 161.165,471.47 C160.556,470.919 159.761,469.451 159.398,468.208 L158.739,465.949 L158.419,468.158 L158.099,470.368 L156.873,468.434 C156.199,467.371 155.647,466.726 155.645,467.001 C155.644,467.276 155.146,467.051 154.539,466.501 C153.931,465.951 153.434,465.167 153.434,464.758 C153.434,464.35 153.048,464.015 152.577,464.015 C152.106,464.015 151.344,463.114 150.884,462.013 L150.047,460.011 L148.384,461.599 C145.58,464.276 142.433,469.49 141.229,473.454 C140.599,475.529 140.246,477.49 140.445,477.812 C141.054,478.797 146.097,481.125 149.442,481.964 C154.257,483.173 174.778,482.789 178.567,481.419 z" fill="#FFFFFF" id="path34143"/>
    <path d="M164.771,469.207 C163.894,467.525 163.637,465.091 164.343,465.161 C164.571,465.183 165.814,466.435 167.105,467.943 C169.734,471.013 170.194,470.887 168.023,467.691 C167.236,466.534 166.773,465.419 166.994,465.215 C167.214,465.011 167.508,465.161 167.646,465.549 C167.983,466.493 172.215,468.631 172.215,467.857 C172.215,467.528 171.684,466.024 171.035,464.515 C170.386,463.007 169.993,461.634 170.161,461.465 C170.516,461.111 171.533,462.792 172.872,465.949 C173.388,467.164 173.824,467.711 173.841,467.164 C173.858,466.617 173.481,465.413 173.002,464.489 C171.832,462.226 172.544,461.714 174.195,463.632 C175.771,465.463 175.82,465.318 174.631,462.346 C174.137,461.112 173.866,459.971 174.027,459.809 C174.53,459.307 177.582,461.157 178.794,462.698 L179.948,464.164 L179.948,462.771 C179.948,462.004 179.078,460.113 178.015,458.567 C176.951,457.021 176.081,455.626 176.081,455.467 C176.081,454.776 177.493,455.273 178.669,456.378 C180.634,458.224 180.186,456.646 178.192,454.697 C176.475,453.017 176.325,451.566 178.015,452.968 C179.451,454.16 179.408,453.329 177.912,451.003 C177.131,449.787 175.529,448.068 174.353,447.183 C171.913,445.348 171.679,444.69 173.457,444.665 C174.626,444.648 174.641,444.602 173.705,443.892 C173.074,443.414 171.861,443.232 170.391,443.395 L168.072,443.653 L169.423,442.472 C170.54,441.496 170.636,441.203 169.976,440.786 C168.764,440.019 166.908,440.164 166.144,441.086 C165.768,441.538 165.241,441.772 164.971,441.605 C164.135,441.089 164.433,438.688 165.4,438.147 C166.216,437.69 166.188,437.591 165.145,437.26 C163.602,436.771 162.008,437.672 160.801,439.715 C160.264,440.624 159.629,441.368 159.391,441.368 C158.77,441.368 158.856,439.275 159.529,438.017 C160.18,436.802 159.911,436.695 158.333,437.54 C157.725,437.865 156.728,439.295 156.117,440.716 C155.033,443.24 154.991,443.271 154.319,442.021 C153.685,440.841 153.571,440.813 152.863,441.667 C152.41,442.212 152.134,443.646 152.19,445.156 L152.287,447.72 L150.927,446.17 L149.567,444.621 L149.567,446.241 C149.567,447.132 149.951,448.179 150.419,448.568 C151.863,449.767 150.442,450.448 148.509,449.483 C147.572,449.016 146.805,448.857 146.805,449.129 C146.805,449.402 147.551,450.011 148.462,450.482 C150.389,451.478 150.571,452.168 149.015,452.575 C148.216,452.784 147.91,453.329 147.91,454.541 C147.91,456.682 148.603,457.101 149.855,455.717 C150.885,454.579 152.329,454.245 152.329,455.145 C152.329,455.431 152.081,455.818 151.777,456.006 C151.473,456.194 151.224,457.561 151.224,459.044 C151.224,460.527 151.473,461.894 151.777,462.082 C152.081,462.27 152.338,461.974 152.349,461.424 C152.376,460.021 153.758,457.676 154.168,458.338 C154.354,458.64 154.281,459.675 154.004,460.638 C153.67,461.805 153.719,462.983 154.152,464.169 L154.801,465.949 L155.084,463.782 C155.24,462.591 155.658,461.52 156.014,461.403 C156.424,461.268 156.553,461.604 156.366,462.32 C155.983,463.785 156.668,467.444 157.257,467.08 C157.506,466.926 157.86,466.049 158.044,465.132 C158.563,462.538 159.305,463.151 160.015,466.76 C160.82,470.855 161.508,471.449 161.252,467.83 C161.056,465.06 161.879,464.074 162.477,466.363 C162.887,467.934 165.008,471.406 165.35,471.064 C165.491,470.924 165.23,470.088 164.771,469.207 z" fill="#FE0000" id="path34141"/>
    <path d="M156.813,458.293 C156.092,457.424 154.553,452.595 154.545,451.173 C154.532,449.063 155.416,450.391 156.201,453.658 C156.823,456.247 157.34,457.247 158.27,457.656 C158.952,457.956 159.51,458.391 159.51,458.623 C159.51,459.337 157.472,459.088 156.813,458.293 z" fill="#000000" id="path34139"/>
    <path d="M161.867,457.249 C161.097,456.263 160.059,453.009 160.08,451.642 C160.101,450.269 161.542,448.187 162.091,448.736 C162.302,448.947 162.18,449.414 161.821,449.773 C160.856,450.738 160.968,453.162 161.96,452.782 C162.396,452.614 162.874,452.774 163.021,453.137 C163.169,453.5 163.309,453.361 163.333,452.83 C163.396,451.442 164.304,451.637 164.622,453.106 C164.77,453.789 165.075,454.784 165.298,455.315 C165.562,455.944 165.457,456.282 164.998,456.282 C164.61,456.282 163.807,455.847 163.213,455.315 C162.161,454.373 162.143,454.393 162.523,456.144 C162.936,458.051 162.746,458.372 161.867,457.249 z" fill="#000000" id="path34137"/>
    <path d="M171.578,453.58 C169.721,452.254 168.912,450.189 170.261,450.218 C171.732,450.25 175.003,454.237 174.011,454.79 C173.783,454.917 172.688,454.373 171.578,453.58 z" fill="#000000" id="path34135"/>
    <path d="M163.195,446.408 C162.369,445.459 161.167,443.311 161.167,442.785 C161.167,441.994 162.163,442.598 162.702,443.715 C163.18,444.705 163.309,444.761 163.339,443.992 C163.36,443.46 163.563,443.027 163.791,443.028 C164.125,443.03 165.719,445.293 166.562,446.961 C166.955,447.737 163.917,447.238 163.195,446.408 z" fill="#000000" id="path34133"/>
    <path d="M226.297,467.909 C225.12,465.473 224.973,464.247 225.795,463.739 C226.099,463.551 226.348,463.671 226.348,464.004 C226.348,464.337 227.342,465.645 228.557,466.91 C231.029,469.482 231.499,469.223 229.386,466.452 C228.626,465.456 228.005,464.376 228.005,464.052 C228.005,463.209 228.938,463.323 229.277,464.208 C229.434,464.617 230.455,465.479 231.546,466.122 C233.331,467.176 233.527,467.198 233.516,466.344 C233.51,465.823 233.013,464.313 232.412,462.988 C231.151,460.211 231.139,460.149 231.858,460.149 C232.319,460.149 233.766,462.87 234.794,465.672 C235.03,466.314 235.108,466.277 235.142,465.507 C235.166,464.96 234.806,463.779 234.343,462.883 C233.672,461.585 233.649,461.253 234.232,461.253 C234.635,461.253 235.297,461.564 235.703,461.944 C236.466,462.658 236.444,462.453 235.384,458.993 L235.03,457.837 L237.257,458.973 C238.482,459.598 239.998,460.802 240.627,461.648 L241.77,463.187 L241.194,460.977 C240.877,459.762 239.892,457.85 239.006,456.729 C236.513,453.574 236.838,452.655 239.721,454.708 C241.25,455.796 241.342,455.807 240.824,454.84 C240.514,454.259 239.739,453.313 239.103,452.738 C237.496,451.283 237.654,450.439 239.328,451.536 C240.088,452.034 240.709,452.306 240.709,452.141 C240.709,451.115 237.565,447.168 235.742,445.906 C233.553,444.392 233.144,443.234 234.85,443.381 C235.607,443.446 235.653,443.312 235.099,442.644 C234.596,442.038 233.804,441.919 232.041,442.183 C229.348,442.587 228.982,442.036 231.093,440.755 L232.525,439.887 L230.803,439.173 C229.306,438.553 228.944,438.585 228.025,439.416 C227.445,439.941 226.705,440.208 226.382,440.008 C225.64,439.549 225.616,437.677 226.348,437.225 C227.338,436.613 226.93,435.844 225.615,435.844 C224.34,435.844 222.64,437.315 221.468,439.434 C220.943,440.384 220.855,440.209 220.841,438.192 C220.833,436.9 220.618,435.844 220.368,435.844 C219.536,435.844 217.597,438.306 217.214,439.849 C216.757,441.693 216.212,441.777 215.441,440.125 C214.875,438.912 214.841,438.928 214.033,440.792 C213.45,442.135 213.356,443.099 213.715,444.044 C214.418,445.892 213.76,446.325 212.54,444.82 C211.986,444.137 211.386,443.577 211.207,443.577 C210.631,443.577 210.859,445.767 211.551,446.874 C212.48,448.362 211.815,448.785 209.666,448.07 L207.843,447.464 L209.5,448.832 C210.411,449.585 211.406,450.205 211.71,450.211 C212.013,450.217 211.64,450.537 210.881,450.922 C209.558,451.593 209.449,451.986 209.71,455.142 C209.755,455.683 210.303,455.432 211.428,454.354 C213.212,452.645 214.098,452.742 213.135,454.541 C212.446,455.829 212.411,458.818 213.066,460.425 C213.47,461.416 213.556,461.359 213.902,459.872 C214.526,457.189 214.685,456.834 215.257,456.834 C215.584,456.834 215.672,457.922 215.478,459.561 C215.069,463.008 215.895,465.387 216.367,462.125 C216.54,460.934 217.018,459.848 217.429,459.712 C217.977,459.532 218.074,459.792 217.791,460.684 C217.341,462.102 217.899,465.672 218.57,465.672 C218.822,465.672 219.178,464.927 219.36,464.015 C219.861,461.512 220.675,462.02 221.352,465.258 C222.215,469.388 223.155,470.585 222.708,466.986 C222.318,463.842 223.252,462.341 223.864,465.128 C224.169,466.516 226.554,470.091 227.175,470.091 C227.272,470.091 226.878,469.109 226.297,467.909 z" fill="#FE0000" id="path34131"/>
    <path d="M218.474,456.985 C216.895,455.24 215.245,449.101 216.355,449.101 C216.659,449.101 217.082,450.033 217.295,451.173 C217.952,454.679 219.121,456.97 220.069,456.606 C220.581,456.41 220.83,456.541 220.697,456.938 C220.339,458.011 219.421,458.031 218.474,456.985 z" fill="#000000" id="path34129"/>
    <path d="M222.838,454.989 C221.803,452.716 221.769,447.95 222.785,447.616 C223.141,447.499 223.282,448.147 223.148,449.289 C222.908,451.352 224.299,452.554 224.967,450.861 C225.239,450.172 225.549,450.555 226.156,452.331 C227.101,455.092 226.814,455.77 225.285,454.387 C224.249,453.45 224.209,453.477 224.01,455.265 L223.804,457.111 L222.838,454.989 z" fill="#000000" id="path34127"/>
    <path d="M232.445,451.841 C231.343,450.899 230.874,450.202 231.34,450.197 C232.045,450.189 232.044,450.124 231.336,449.675 C229.783,448.693 231.253,448.447 232.892,449.415 C234.545,450.392 235.954,452.569 235.334,453.189 C234.8,453.722 234.463,453.565 232.445,451.841 z" fill="#000000" id="path34125"/>
    <path d="M227.191,445.811 C227.011,445.52 226.55,445.403 226.165,445.551 C225.036,445.984 222.906,443.321 223.194,441.836 L223.445,440.539 L223.868,441.829 C224.185,442.793 224.406,442.933 224.748,442.381 C225.093,441.825 225.612,442.119 226.859,443.577 C227.768,444.641 228.522,445.697 228.535,445.925 C228.567,446.52 227.577,446.436 227.191,445.811 z" fill="#000000" id="path34123"/>
    <path d="M182.684,456.878 C181.033,454.195 179.86,452.948 181.012,455.101 C181.315,455.667 181.432,457.469 181.271,459.105 C181.027,461.597 181.232,462.608 182.535,465.341 L184.091,468.602 L184.25,464.143 C184.4,459.977 184.296,459.498 182.684,456.878 z" fill="#FE0000" id="path34121"/>
    <path d="M243.672,463.142 C242.553,459.765 241.655,458.649 242.412,461.577 C243.012,463.897 244.094,466.339 244.391,466.041 C244.491,465.941 244.168,464.637 243.672,463.142 z" fill="#FE0000" id="path34119"/>
    <path d="M207.938,458.957 C209.134,457.187 209.234,456.683 208.743,454.905 C208.424,453.749 208.38,452.353 208.641,451.666 C208.983,450.767 208.781,450.058 207.851,448.891 C207.021,447.851 206.469,447.539 206.207,447.962 C205.888,448.478 204.264,462.807 204.293,464.844 C204.297,465.148 204.812,464.402 205.436,463.187 C206.061,461.971 207.186,460.068 207.938,458.957 z" fill="#FE0000" id="path34117"/>
    <path d="M147.894,457.634 L147.115,456.177 L146.212,458.303 C145.715,459.473 145.123,461.05 144.897,461.808 C144.522,463.062 144.674,463.001 146.579,461.138 C148.572,459.19 148.636,459.019 147.894,457.634 z" fill="#FE0000" id="path34115"/>
    <path d="M182.582,447.168 C179.958,441.921 180.029,442.011 179.361,443.041 C177.954,445.209 178.19,446.296 181.125,451.146 L184.065,456.006 L184.428,453.796 C184.738,451.913 184.465,450.934 182.582,447.168 z" fill="#FFFFFF" id="path34113"/>
    <path d="M184.534,442.887 C184.398,440.38 184.016,437.46 183.686,436.396 L183.085,434.463 L182.11,436.673 C181.573,437.888 181.116,439.24 181.094,439.678 C181.059,440.346 184.327,447.444 184.669,447.444 C184.731,447.444 184.67,445.393 184.534,442.887 z" fill="#FE0000" id="path34111"/>
    <path d="M238.405,445.841 C238.007,445.203 237.325,444.682 236.89,444.682 C236.336,444.682 236.488,445.098 237.393,446.061 C238.891,447.655 239.461,447.531 238.405,445.841 z" fill="#FE0000" id="path34109"/>
    <path d="M176.662,445.198 C176.863,444.459 178.224,441.25 179.685,438.069 C182.874,431.129 183.366,427.975 181.607,425.748 C179.532,423.119 173.668,420.93 168.703,420.93 C165.626,420.93 164.961,421.887 163.868,427.889 C162.243,436.809 162.472,437.768 165.501,434.739 C167.448,432.792 169.807,432.568 172.756,434.05 C175.748,435.553 178.478,440.263 176.357,440.263 C175.902,440.263 175.529,439.865 175.529,439.379 C175.529,438.893 174.684,437.65 173.651,436.617 C172.145,435.111 171.338,434.739 169.576,434.739 C166.647,434.739 165.525,435.999 167.227,437.377 L168.445,438.364 L167.204,438.457 C166.009,438.547 165.06,439.439 165.042,440.487 C165.038,440.762 165.488,440.575 166.044,440.072 C166.599,439.57 167.532,439.166 168.115,439.176 C169.075,439.19 174.125,441.911 173.206,441.917 C172.992,441.919 173.453,442.556 174.229,443.332 C175.151,444.254 175.541,445.129 175.352,445.85 C175.177,446.52 175.306,446.874 175.68,446.749 C176.02,446.636 176.462,445.938 176.662,445.198 z" fill="#FFFFFF" id="path34107"/>
    <path d="M177.461,430.177 C176.071,427.967 174.235,427.025 171.297,427.014 C169.416,427.008 168.745,427.307 167.604,428.663 C165.501,431.163 164.092,430.806 165.896,428.231 C167.042,426.595 169.546,425.349 171.689,425.349 C175.142,425.349 179.396,428.439 179.396,430.947 C179.396,432.447 178.72,432.178 177.461,430.177 z" fill="#000000" id="path34105"/>
    <path d="M209.977,446.066 C209.803,445.612 209.434,445.381 209.157,445.552 C208.578,445.91 209.043,446.892 209.792,446.892 C210.068,446.892 210.151,446.52 209.977,446.066 z" fill="#FE0000" id="path34103"/>
    <path d="M209.667,442.801 C211.617,440.755 211.986,440.008 211.986,438.106 C211.986,436.862 211.799,435.867 211.571,435.896 C211.344,435.925 210.235,436.997 209.109,438.279 C207.131,440.53 205.593,445.234 206.834,445.234 C207.116,445.234 208.391,444.139 209.667,442.801 z" fill="#FFFFFF" id="path34101"/>
    <path d="M235.689,436.062 C234.737,433.36 233.514,430.279 232.971,429.217 L231.983,427.285 L231.789,430.827 C231.596,434.348 231.611,434.389 234.337,437.843 C235.844,439.753 237.155,441.24 237.249,441.146 C237.343,441.051 236.641,438.764 235.689,436.062 z" fill="#FE0000" id="path34099"/>
    <path d="M216.957,438.405 C216.957,437.991 217.633,436.976 218.458,436.151 C219.736,434.873 220.29,434.693 222.187,434.938 C223.412,435.097 224.911,435.029 225.519,434.786 C226.558,434.372 226.514,434.243 224.789,432.627 C221.492,429.538 217.257,429.789 216.592,433.112 C216.413,434.007 215.92,434.739 215.497,434.739 C214.38,434.739 215.125,432.022 216.687,430.393 C219.469,427.493 225.788,429.639 227.783,434.161 C228.326,435.39 228.949,436.397 229.169,436.397 C229.76,436.397 230.377,428.654 230.115,424.53 C229.871,420.704 228.953,418.925 226.135,416.821 C224.821,415.84 223.806,415.682 218.805,415.682 C210.483,415.682 210.713,415.122 212.808,430.32 C214.039,439.254 213.949,438.997 215.385,437.715 C216.538,436.685 216.547,436.687 216.165,437.916 C215.93,438.67 216.01,439.158 216.367,439.158 C216.692,439.158 216.957,438.819 216.957,438.405 z" fill="#FFFFFF" id="path34097"/>
    <path d="M213.897,424.935 C214.871,420.973 218.358,419.077 222.43,420.297 C224.443,420.9 228.005,424.14 228.005,425.368 C228.005,426.402 226.526,425.885 225.845,424.614 C224.141,421.429 219.049,420.445 216.656,422.838 C215.91,423.584 215.3,424.702 215.3,425.324 C215.3,425.994 214.938,426.454 214.412,426.454 C213.72,426.454 213.606,426.117 213.897,424.935 z" fill="#000000" id="path34095"/>
    <path d="M228.406,438.054 C229.648,437.077 229.687,436.949 228.742,436.949 C227.655,436.949 226.348,437.914 226.348,438.716 C226.348,439.418 226.897,439.24 228.406,438.054 z" fill="#FE0000" id="path34093"/>
    <path d="M232.623,438.33 C232.277,437.427 231.319,437.19 231.319,438.008 C231.319,438.427 231.706,438.712 232.821,439.115 C232.887,439.139 232.798,438.785 232.623,438.33 z" fill="#FE0000" id="path34091"/>
    <path d="M160.122,435.656 C160.944,435.407 162.111,431.08 161.516,430.485 C161.263,430.232 157.3,435.976 157.3,436.596 C157.3,436.795 157.735,436.726 158.267,436.441 C158.799,436.157 159.634,435.804 160.122,435.656 z" fill="#FE0000" id="path34089"/>
    <path d="M211.221,429.899 L210.649,426.745 L209.912,429.223 C209.507,430.586 208.966,432.779 208.71,434.097 L208.244,436.492 L210.018,434.773 C211.78,433.065 211.788,433.032 211.221,429.899 z" fill="#FE0000" id="path34087"/>
    <path d="M183.895,418.379 C185.402,412.471 189.674,404.168 197.729,391.498 C201.44,385.659 206.626,376.781 209.253,371.768 C211.88,366.756 214.969,361.066 216.117,359.125 C223.011,347.472 224.56,340.723 223.862,325.383 L223.466,316.667 L220.626,317.407 C217.756,318.155 208.545,319.357 207.373,319.136 C207.024,319.07 206.824,319.389 206.928,319.845 C209.296,330.184 210.84,345.564 209.783,348.292 C209.186,349.834 209.09,349.88 208.408,348.951 C207.733,348.032 207.406,348.263 204.358,351.804 C196.119,361.377 192.402,368.823 184.067,392.452 C180.356,402.973 177.053,410.205 173.56,415.46 C172.144,417.59 171.076,419.388 171.186,419.456 C171.296,419.523 173.094,420.008 175.181,420.533 C177.268,421.057 179.629,421.966 180.428,422.552 C181.227,423.138 182.085,423.418 182.333,423.175 C182.582,422.932 183.285,420.773 183.895,418.379 z" fill="#F8D2B5" id="path34085"/>
    <path d="M226.24,407.259 C226.284,399.645 227.095,392.251 230.184,371.293 C231.096,365.107 232.108,355.803 232.434,350.616 C232.759,345.429 233.76,336.198 234.656,330.101 C236.23,319.407 236.759,311.269 235.855,311.651 C235.616,311.753 233.13,312.82 230.331,314.024 L225.241,316.212 L225.314,328.109 C225.4,342.122 224.828,345.1 220.198,354.722 L217.371,360.6 L217.759,376.817 C218.158,393.495 217.654,404.345 216.191,410.573 L215.445,413.749 L219.101,413.804 C221.112,413.834 223.378,414.058 224.138,414.301 C224.897,414.545 225.671,414.768 225.858,414.799 C226.044,414.829 226.216,411.436 226.24,407.259 z" fill="#F8D2B5" id="path34083"/>
    <path d="M232.506,257.566 C231.446,258.972 230.172,260.336 228.732,261.615 L230.736,264.596 C231.862,266.273 234.485,270.504 236.566,273.998 C241.337,282.007 244.177,286.262 247.008,289.645 C249.312,292.397 253.168,295.541 254.242,295.541 C254.578,295.541 255.675,294.692 256.68,293.656 L258.506,291.773 L256.842,289.375 C255.926,288.057 253.456,285.114 251.354,282.836 C247.427,278.581 243.399,273.041 238.854,265.646 C237.431,263.332 235.362,260.508 234.258,259.371 z" fill="#FFFFFF" id="path34967"/>
    <path d="M227.309,262.803 C225.5,264.231 223.49,265.505 221.344,266.553 C225.068,274.95 227.655,282.865 229.938,289.74 C232.571,297.691 236.818,308.797 237.225,308.797 C237.351,308.797 239.49,307.435 241.98,305.771 C244.471,304.108 247.982,301.586 249.781,300.166 L253.053,297.584 L251.715,296.533 C246.005,292.052 242.153,287.118 235.199,275.379 C232.68,271.126 229.886,266.622 228.992,265.369 z" fill="#FE0000" id="path34965"/>
    <path d="M199.648,266.805 C198.304,268.425 196.305,272.982 193.48,280.67 C190.74,288.131 189.65,290.492 185.479,298.025 C181.988,304.329 181.923,305.759 184.984,309.08 C187.092,311.367 191.053,314.137 192.4,314.266 C192.717,314.296 193.264,312.891 193.613,311.145 C194.851,304.958 195.366,301.28 195.721,296.094 C196.122,290.232 197.334,283.501 199.717,273.9 C200.462,270.898 201.258,268.926 201.74,267.859 C201.034,267.554 200.335,267.206 199.648,266.805 z" fill="#FFFFFF" id="path34963"/>
    <path d="M220.107,267.137 C217.329,268.346 214.371,269.16 211.381,269.389 L211.729,285.736 C211.925,294.927 212.31,303.937 212.584,305.76 C212.858,307.583 213.084,310.711 213.086,312.711 C213.088,314.711 213.237,316.493 213.416,316.672 C213.916,317.172 217.312,316.563 222.367,315.07 C227.123,313.666 235.186,310.232 235.186,309.609 C235.186,309.414 234.037,306.354 232.635,302.811 C231.232,299.268 228.391,291.398 226.32,285.322 C224.25,279.246 222.021,272.762 221.367,270.914 z" fill="#FFFFFF" id="path34961"/>
    <path d="M202.967,268.342 C202.943,268.388 202.923,268.403 202.891,268.484 C202.699,268.966 201.732,273.666 200.676,278.047 C199.62,282.428 198.501,288.467 198.189,291.467 C196.99,303.029 196.396,307.533 195.65,310.73 C195.225,312.553 194.876,314.324 194.871,314.664 C194.85,316.228 208.833,318.39 210.822,317.131 L210.824,317.131 C211.482,316.714 211.461,314.995 210.682,305.4 C210.179,299.218 209.746,288.505 209.719,281.594 L209.67,269.453 C207.411,269.455 205.154,269.112 202.967,268.342 z" fill="#FE0000" id="path34073"/>
    <path d="M219.061,195.588 C219.022,195.579 218.994,195.581 218.98,195.598 C217.106,201.172 204.627,214.168 202.852,213.67 C195.511,208.454 190.164,201.998 185.293,194.52 C181.276,203.426 185.911,214.222 188.708,221.004 C193.757,233.242 194.948,234.98 196.118,236.975 C203.248,249.13 202.462,255.438 200.137,265.007 C211.521,271.547 224.426,264.833 231.209,256.343 C220.319,249.752 220.039,239.322 220.922,230.913 C221.444,225.938 222.727,220.566 223.334,216.198 C223.942,211.829 223.695,205.332 223.151,202.672 C222.554,199.753 221.929,197.438 219.061,195.588 z" fill="#FE0000" id="path34067"/>
    <path d="M217.763,193.224 C217.84,192.315 217.389,191.516 216.752,190.095 C215.509,187.326 215.3,186.095 215.3,181.544 C215.3,176.817 215.191,176.227 214.318,176.227 C211.844,176.227 209.259,179.087 207.327,183.96 C206.545,185.935 205.123,188.911 204.168,190.575 L202.432,193.598 L199.011,186.432 C197.13,182.49 195.044,178.783 194.377,178.194 C193.17,177.129 193.155,177.131 191.873,178.47 C190.778,179.614 186.01,191.14 186.031,192.59 C191.28,200.959 195.358,205.385 202.872,211.5 C206.041,208.824 216.428,199.619 217.763,193.224 z" fill="#FFFFFF" id="path34065"/>
    <path d="M232.773,192.567 C230.979,192.865 228.42,193.398 226.832,193.284 C228.63,190.009 230.855,186.841 232.97,183.961 C235.189,180.94 237.673,177.767 237.226,177.464 C236.846,177.207 232.279,179.216 228.696,182.307 C224.609,185.834 221.155,190.49 219.863,193.908 C221.826,195.396 223.199,196.888 224.142,199.206 C226.885,197.405 230.206,194.61 232.773,192.567 z" fill="#F8D2B5" id="path34063"/>
    <path d="M221.255,188.794 C223.488,184.848 228.281,180.466 232.642,178.382 C234.631,177.432 236.481,176.372 236.753,176.027 C237.025,175.681 237.794,173.734 238.461,171.701 C239.359,168.963 239.884,168.083 240.481,168.312 C241.083,168.543 241.196,169.131 240.924,170.629 C240.034,175.55 238.53,178.443 232.185,187.442 C230.728,189.508 229.019,191.625 229.215,191.821 C229.691,192.297 234.561,190.882 237.813,189.384 C241.94,187.481 247.707,181.237 250.738,175.389 C254.733,167.678 256.279,162.205 256.586,154.684 C256.794,149.592 256.626,147.401 255.74,143.637 C255.132,141.054 254.469,137.926 254.267,136.686 C253.945,134.707 253.621,134.307 251.626,133.427 C247.786,131.732 244.899,128.361 243.904,124.409 C243.101,121.223 243.312,119.932 244.513,120.674 C244.783,120.841 245.174,121.912 245.383,123.055 C246.297,128.052 251.162,132.589 255.607,132.589 L257.373,132.589 L255.666,130.434 C253.318,127.468 247.793,115.894 248.425,115.263 C248.725,114.963 249.687,115.568 250.821,116.771 C252.968,119.047 253.947,119.191 258.199,117.85 C261.415,116.837 261.843,116.312 259.858,115.814 C257.673,115.266 253.553,111.171 252.123,108.127 C251.379,106.543 250.006,102.368 249.072,98.851 C245.321,84.727 241.477,76.25 236.212,70.499 C231.847,65.73 228.134,63.97 221.754,63.649 C217.533,63.436 216.264,63.606 212.226,64.919 C209.663,65.753 207.579,66.592 207.593,66.784 C207.608,66.976 209.009,68.003 210.708,69.066 C212.406,70.129 215.029,72.528 216.537,74.397 C219,77.451 219.538,77.833 221.846,78.171 C227.018,78.929 233.122,82.733 235.003,86.371 C236.348,88.972 236.107,92.483 234.406,95.052 C233.079,97.058 232.977,97.661 232.982,103.44 C232.99,111.302 234.258,123.379 235.868,130.916 C236.633,134.496 237.112,138.655 237.115,141.732 C237.119,146.431 236.989,146.994 234.976,151.068 C231.434,158.235 223.681,165.12 212.853,170.715 C210.705,171.825 208.641,172.836 208.266,172.961 C207.735,173.139 207.724,173.646 208.217,175.25 L208.85,177.311 L210.658,176.194 C211.652,175.58 213.505,174.9 214.776,174.683 C216.873,174.325 217.171,174.066 217.989,171.887 C218.485,170.566 219.139,169.573 219.443,169.68 C220.146,169.928 220.066,170.428 218.307,176.779 C217.028,181.397 216.919,182.425 217.4,185.341 C217.936,188.582 218.904,191.694 219.376,191.694 C219.507,191.694 220.352,190.389 221.255,188.794 z" fill="#AA8374" id="path34061"/>
    <path d="M204.815,186.032 C207.547,180.003 207.62,173.507 204.957,173.441 C204.417,173.428 203.044,173.084 201.905,172.677 C200.429,172.151 199.832,172.118 199.828,172.564 C199.825,172.908 199.22,174.485 198.482,176.068 L197.142,178.947 L199.731,184.49 C201.154,187.538 202.472,190.034 202.66,190.035 C202.847,190.036 203.817,188.234 204.815,186.032 z" fill="#F8D2B5" id="path34059"/>
    <path d="M187.241,184.668 C188.086,182.35 188.717,180.416 188.644,180.37 C188.57,180.323 187.588,179.732 186.462,179.055 C182.429,176.63 177.202,169.286 175.212,163.246 C174.372,160.699 174.302,164.161 175.001,173.593 L175.734,183.473 L177.667,185.17 C179.679,186.937 184.943,189.644 185.427,189.161 C185.58,189.008 186.396,186.986 187.241,184.668 z" fill="#F8D2B5" id="path34057"/>
    <path d="M173.59,175.303 C173.076,169.583 172.814,163.536 173.008,161.865 C173.798,155.046 175.711,152.358 175.901,157.801 C176.094,163.31 179.855,171.138 184.271,175.222 C185.585,176.438 186.754,177.338 186.869,177.224 C186.983,177.109 186.474,175.353 185.736,173.321 C184.057,168.694 183.273,163.894 183.737,161.082 C184.213,158.2 185.472,157.766 185.472,160.483 C185.472,164.045 194.932,178.551 196.338,177.145 C196.527,176.956 197.121,175.504 197.657,173.919 L198.633,171.036 L194.797,166.928 C190.251,162.061 186.121,155.557 183.692,149.442 C181.382,143.626 181.291,137.498 183.406,130.38 C184.174,127.797 184.975,124.865 185.186,123.864 L185.571,122.043 L182.875,122.401 C180.993,122.65 179.561,122.5 178.13,121.902 C175.666,120.872 175.555,120.185 177.675,119.089 C181.176,117.278 185.323,111.273 188.283,103.727 L189.42,100.828 L187.584,102.535 C184.733,105.187 182.532,106.532 179.885,107.24 C177.746,107.812 177.153,107.753 174.972,106.753 C172.75,105.735 172.647,105.611 173.991,105.569 C176.114,105.504 179.189,102.587 181.075,98.851 L182.679,95.673 L178.966,95.765 C176.924,95.815 174.383,95.666 173.319,95.433 L171.386,95.009 L166.871,103.442 C159.402,117.392 158.073,122.953 158.554,138.249 C159.063,154.475 161.246,163.423 167.813,176.208 C170.731,181.89 173.747,186.479 174.238,185.987 C174.395,185.83 174.104,181.022 173.59,175.303 z" fill="#AA8374" id="path34055"/>
    <path d="M190.61,173.647 C189.701,172.484 188.273,170.351 187.438,168.908 C186.603,167.465 185.787,166.284 185.626,166.284 C185.097,166.284 185.953,169.449 187.724,174.042 L189.466,178.56 L190.865,177.161 L192.263,175.763 z" fill="#F8D2B5" id="path34053"/>
    <path d="M211.012,169.97 C216.206,167.429 224.309,161.732 228.046,157.995 C235.503,150.538 236.913,144.796 234.43,131.985 C232.715,123.133 231.319,110.561 231.319,103.975 L231.319,99.23 L229.524,100.911 C228.536,101.835 226.734,103.298 225.519,104.162 C224.304,105.025 222.382,106.601 221.248,107.663 C219.324,109.466 217.719,109.717 218.91,108.029 C225.155,99.175 225.961,97.754 226.212,95.14 C226.464,92.519 225.738,90.056 224.713,90.056 C223.451,90.056 220.515,93.44 215.873,100.245 C213.088,104.328 209.861,108.526 208.701,109.573 L206.592,111.478 L208.026,112.912 C209.049,113.935 209.29,114.516 208.866,114.94 C208.442,115.363 207.779,115.041 206.553,113.815 C205.16,112.422 204.637,112.203 203.787,112.657 C202.12,113.549 198.198,114.291 197.879,113.774 C197.719,113.515 198.312,112.929 199.196,112.472 C200.824,111.629 201.232,110.996 202.071,108.009 C202.525,106.39 202.494,106.403 200.77,108.551 C197.383,112.771 192.428,117.72 189.937,119.37 L187.427,121.032 L185.378,129.158 C184.251,133.628 183.314,138.597 183.296,140.202 C183.242,144.861 186.284,152.613 190.928,159.65 C193.596,163.694 199.704,170.129 201.767,171.069 C204.019,172.096 207.516,171.68 211.012,169.97 z" fill="#F8D2B5" id="path34051"/>
    <path d="M208.119,142.532 C208.119,142.228 208.492,141.98 208.948,141.98 C209.403,141.98 209.776,142.228 209.776,142.532 C209.776,142.836 209.403,143.084 208.948,143.084 C208.492,143.084 208.119,142.836 208.119,142.532 z" fill="#000000" id="path34047"/>
    <path d="M204.597,140.577 C204.407,140.084 204.255,139.141 204.258,138.482 C204.266,137.014 208.42,127.978 209.208,127.715 C210.243,127.37 209.8,129.136 207.823,133.235 C206.511,135.955 205.919,137.905 206.022,139.174 C206.181,141.15 205.191,142.125 204.597,140.577 z" fill="#000000" id="path34045"/>
    <path d="M215.842,127.564 C215.439,127.758 215.136,127.909 214.748,128.01 C213.016,128.463 213.444,127.374 215.854,125.196 C219.177,122.194 220.662,122.422 225.014,126.601 C226.963,128.472 228.557,130.212 228.557,130.467 C228.557,131.491 227.113,130.825 225.128,128.887 C223.939,127.725 223.41,127.271 223.186,127.371 C224.354,133.017 215.583,134.19 215.842,127.564 z" fill="#000000" id="path34043"/>
    <path d="M198.099,119.931 L195.355,121.013 C192.115,122.29 192.098,122.292 192.106,121.404 C192.114,120.513 198.741,117.675 200.814,117.675 C202.686,117.675 204.384,119.296 205.625,122.264 C206.553,124.486 206.303,125.87 205.147,124.911 C204.922,124.724 204.783,124.612 204.539,124.423 C200.651,129.509 195.288,124.172 198.099,119.931 z" fill="#000000" id="path34041"/>
    <path d="M226.71,119.111 C226.232,118.381 224.76,117.371 223.439,116.867 C221.257,116.033 220.814,116.027 218.591,116.793 C216.05,117.668 214.64,117.254 216.083,116.055 C217.182,115.144 220.818,114.686 223.283,115.148 C226.29,115.712 230.536,120.437 228.036,120.437 C227.785,120.437 227.188,119.84 226.71,119.111 z" fill="#000000" id="path34039"/>
    <path d="M159.428,159.241 C158.287,154.527 156.748,142.641 156.748,138.551 L156.748,135.944 L143.629,125.043 C124.659,109.28 114.822,99.442 108.185,89.597 C104.478,84.099 103.236,80.86 102.404,74.523 C101.451,67.267 100.088,62.919 98.051,60.636 C96.983,59.44 96.588,59.213 96.859,59.952 C99.226,66.412 100.356,76.437 99.431,82.773 L98.922,86.261 L104.032,95.06 C112.094,108.943 113.837,111.189 133.742,133.366 C141.079,141.539 150.04,151.669 153.656,155.875 C157.272,160.081 160.283,163.522 160.347,163.522 C160.411,163.522 159.997,161.596 159.428,159.241 z" fill="#F8D2B5" id="path34037"/>
    <path d="M271.3,145.65 C292.337,122.171 294.431,119.47 302.552,105.348 L307.336,97.029 L306.845,93.681 C306.095,88.558 306.738,79.953 308.262,74.728 C308.993,72.221 309.441,70.172 309.259,70.175 C308.561,70.182 306.325,74.065 305.549,76.617 C305.103,78.084 304.376,82.019 303.934,85.361 C303.334,89.892 302.697,92.32 301.427,94.911 C296.773,104.403 284.138,118.105 266.947,132.301 C261.479,136.817 256.94,140.555 256.861,140.607 C256.782,140.659 257.12,142.649 257.612,145.028 C258.212,147.93 258.434,151.14 258.288,154.781 C258.168,157.766 258.112,160.208 258.163,160.208 C258.214,160.208 264.126,153.657 271.3,145.65 z" fill="#F8D2B5" id="path34035"/>
    <path d="M326.613,125.546 C326.619,120.575 326.837,119.069 327.95,116.294 C330.258,110.535 335.342,103.713 335.935,105.578 C336.07,106.003 336.449,108.589 336.777,111.323 C337.753,119.47 340.007,126.839 342.522,130.104 C343.202,130.987 343.152,130.432 342.273,127.342 C340.811,122.2 341.063,116.222 342.897,112.551 C343.611,111.12 344.292,110.046 344.409,110.163 C344.526,110.28 344.946,113.492 345.343,117.3 C346.12,124.767 347.117,127.559 349.694,129.483 C351.601,130.906 351.924,130.5 350.996,127.842 C349.563,123.739 348.798,117.923 348.748,110.77 C348.707,104.734 348.831,103.59 349.528,103.59 C350.145,103.59 350.311,104.104 350.181,105.604 C349.941,108.371 351.009,117.534 351.987,121.097 C353.424,126.334 353.576,126.77 354.493,128.286 L355.398,129.782 L356.135,127.733 C356.541,126.606 357.868,124.069 359.085,122.094 C362.537,116.492 363.173,114.909 363.593,110.877 C363.914,107.787 364.148,107.148 364.903,107.291 C366.199,107.536 366.348,110.342 365.308,114.915 C363.88,121.193 364.457,127.566 366.633,129.535 C367.55,130.364 367.622,130.202 367.904,126.669 C368.068,124.608 368.856,120.934 369.655,118.504 C371.344,113.365 372.03,107.868 371.18,106.28 C370.841,105.646 370.793,104.866 371.067,104.423 C371.436,103.826 371.909,104.056 373.24,105.481 C375.8,108.22 376.765,112.3 376.822,120.616 L376.87,127.701 L378.33,125.955 C380.535,123.32 381.294,119.873 381.248,112.704 C381.215,107.559 380.981,105.778 380.013,103.333 C379.243,101.385 379.009,100.125 379.355,99.779 C379.649,99.485 379.966,99.352 380.06,99.484 C381.602,101.652 383.718,105.465 386.434,110.974 C389.352,116.892 389.848,117.608 390.365,116.643 C391.811,113.94 390.131,105.497 386.424,96.838 C384.432,92.186 384.17,90.609 385.392,90.609 C386.482,90.609 391.799,95.48 394.56,99.009 L397.584,102.874 L397.584,99.425 C397.584,95.79 396.012,89.631 394.135,85.913 C393.521,84.698 392.036,82.79 390.834,81.673 C389.601,80.526 388.731,79.246 388.836,78.732 C389.201,76.949 392.72,80.22 396.691,86.033 C398.806,89.129 400.775,91.514 401.067,91.333 C401.74,90.917 401.189,83.323 400.283,80.535 C399.914,79.399 399.218,78.027 398.736,77.485 C391.352,69.176 390.323,67.862 390.613,67.106 C391.394,65.072 396.739,69.65 399.994,75.141 C403.289,80.699 404.9,78.965 403.473,71.398 C402.525,66.375 400.625,62.256 397.825,59.157 C395.815,56.932 391.805,54.704 389.811,54.704 C387.653,54.704 389.067,53.331 391.769,52.801 C394.009,52.362 395.014,52.48 398.08,53.544 C400.086,54.24 402.146,55.182 402.659,55.639 C404.178,56.993 404.915,55.993 404.513,53.12 C403.86,48.456 402.507,45.282 400.101,42.772 C397.35,39.901 395.706,39.67 393.174,41.8 C391.972,42.812 391.265,43.082 390.865,42.683 C390.466,42.283 390.958,41.118 392.476,38.877 C396.531,32.888 397.439,29.712 395.832,27.139 C395.245,26.198 394.999,26.39 393.169,29.222 C392.06,30.938 389.954,33.396 388.49,34.685 C384.628,38.085 383.253,37.693 385.219,33.753 C386.731,30.723 385.44,26.394 381.121,20.015 L379.513,17.639 L379.144,21.948 C378.58,28.541 377.681,32.134 376.646,31.935 C376.052,31.821 375.641,30.813 375.343,28.743 C374.448,22.523 371.087,18.333 364.65,15.414 C359.726,13.182 359.289,13.263 360.545,16.176 C361.102,17.467 361.725,19.706 361.929,21.151 C362.237,23.326 362.14,23.841 361.37,24.137 C360.763,24.369 360.242,24.127 359.875,23.442 C358.663,21.176 353.917,17.197 350.307,15.42 C347.159,13.871 345.898,13.554 342.91,13.562 C339.47,13.571 336.27,14.774 336.27,16.057 C336.27,16.302 336.954,16.659 337.789,16.851 C339.629,17.274 341.829,19.054 343.237,21.261 C344.378,23.048 345.736,26.642 345.398,26.979 C345.282,27.096 343.994,26.372 342.537,25.369 C333.935,19.451 326.192,19.676 321.427,25.981 L319.548,28.466 L323.25,28.79 C327.979,29.203 330.154,31.048 330.602,35.028 C330.876,37.452 330.822,37.581 329.525,37.581 C328.774,37.581 326.94,37.21 325.449,36.758 C323.957,36.306 322.082,35.933 321.281,35.929 C319.291,35.921 316.487,38.924 313.705,44.043 L311.461,48.173 L314.208,47.795 C317.273,47.373 323.566,47.937 323.566,48.633 C323.566,49.377 319.041,51.259 316.367,51.628 C313.019,52.091 310.701,53.59 309.535,56.048 C308.371,58.501 307.832,61.498 308.325,62.781 C308.639,63.599 308.923,63.497 310.464,62.01 C312.372,60.17 315.045,58.915 316.151,59.339 C316.623,59.521 316.17,60.866 314.672,63.723 C310.398,71.879 308.067,80.277 308.127,87.294 C308.145,89.6 309.28,99.611 309.753,101.656 C309.788,101.808 310.282,100.158 310.851,97.99 C311.919,93.915 314.246,88.762 315.318,88.1 C316.811,87.177 316.896,88.908 315.507,91.942 C312.257,99.04 311.689,104.978 313.746,110.335 L314.973,113.532 L315.342,109.577 C315.545,107.402 316.119,104.393 316.618,102.891 C317.786,99.373 320.636,94.878 321.508,95.177 C322.36,95.469 322.292,97.106 321.111,104.694 C319.712,113.676 320.594,121.499 323.611,126.87 C324.703,128.814 326.392,131.485 326.529,131.484 C326.57,131.484 326.608,128.812 326.612,125.546 z" fill="#FE0000" id="path34033"/>
    <path d="M326.548,87.985 C325.029,84.486 325.321,80.316 327.366,76.291 C330.127,70.858 331.587,68.908 332.268,69.744 C332.687,70.256 332.192,71.552 330.442,74.527 C327.892,78.864 326.626,83.098 327.457,84.517 C327.874,85.23 327.954,85.201 327.968,84.335 C327.994,82.724 331.09,76.636 332.607,75.211 C334.938,73.021 335.321,74.39 333.229,77.432 C331.3,80.236 329.09,86.271 329.09,88.734 C329.09,90.78 327.567,90.331 326.548,87.985 z" fill="#000000" id="path34031"/>
    <path d="M363.47,77.027 C363.11,75.311 362.016,72.66 361.039,71.138 L359.264,68.371 L358.568,71.782 C357.673,76.17 355.517,79.659 353.763,79.556 C353.712,79.553 353.621,77.529 353.562,75.058 C353.462,70.939 353.311,70.39 351.737,68.431 C350.164,66.474 349.948,65.199 351.189,65.199 C352.206,65.199 354.495,68.962 355.234,71.849 C355.812,74.11 356.087,74.572 356.354,73.732 C356.866,72.119 356.929,68.51 356.48,66.495 C355.681,62.91 357.95,63.738 361.255,68.237 L362.878,70.447 L362.486,68.237 C362.271,67.022 361.299,64.284 360.326,62.153 C358.487,58.123 356.187,55.681 352.958,54.328 C351.048,53.528 351.023,52.495 352.913,52.495 C354.396,52.495 358.554,55.404 360.026,57.471 C362.795,61.36 365.159,69.65 365.616,77.071 C365.745,79.18 365.59,79.867 364.955,79.989 C364.352,80.105 363.945,79.294 363.47,77.027 z" fill="#000000" id="path34029"/>
    <path d="M374.799,76.48 C373.794,75.468 374.46,74.59 376.232,74.59 C379.001,74.59 379.908,73.23 379.908,69.082 C379.908,65.669 379.269,62.979 376,52.626 C375.111,49.812 374.384,47.14 374.384,46.688 C374.384,45.695 376,45.581 376.26,46.557 C376.776,48.497 380.099,59.549 380.454,60.504 C381.377,62.993 382.244,69.603 381.892,71.476 C381.685,72.578 380.968,74.111 380.298,74.882 C379.085,76.278 375.604,77.289 374.799,76.48 z" fill="#000000" id="path34027"/>
    <path d="M335.1,57.052 C335.064,56.824 335.088,56.389 335.154,56.085 C335.81,53.058 336.805,44.976 336.813,42.622 C336.825,39.182 337.324,39.307 340.058,43.434 L341.667,45.864 L342.046,42.833 C342.458,39.534 342.134,37.84 340.803,36.325 C339.465,34.802 340.738,33.957 342.375,35.282 C343.486,36.183 343.707,36.915 343.838,40.138 C344.028,44.805 341.994,53.323 340.69,53.323 C340.068,53.323 339.903,52.795 340.028,51.21 C340.12,50.048 339.882,48.184 339.499,47.067 L338.803,45.038 L338.41,48.076 C337.669,53.806 336.698,57.466 335.919,57.466 C335.505,57.466 335.136,57.28 335.1,57.052 z" fill="#000000" id="path34025"/>
    <path d="M82.603,116.278 C85.895,109.791 86.658,100.287 84.699,90.15 C83.937,86.208 83.855,84.843 84.351,84.35 C84.846,83.857 85.25,84.031 86.061,85.085 C89.045,88.962 91.001,95.03 91.028,100.489 L91.04,103.037 L91.804,101.38 C94.732,95.025 94.425,88.838 90.788,80.894 C89.737,78.598 89.499,77.545 89.934,77.117 C91.089,75.98 93.783,80.929 95.472,87.294 C96.537,91.305 96.571,91.248 97.6,83.704 C98.407,77.795 98.354,74.085 97.389,68.79 C96.241,62.488 95.795,61.206 92.439,54.566 C89.467,48.686 89.451,48.628 90.806,48.628 C92.629,48.628 95.087,49.946 96.417,51.636 C97.011,52.392 97.654,52.852 97.847,52.66 C98.616,51.891 98.126,48.172 96.953,45.877 C95.326,42.693 93.724,41.605 89.3,40.682 C85.518,39.893 82.515,38.375 83.043,37.52 C83.514,36.759 93.439,36.911 94.219,37.691 C95.978,39.45 93.697,34.668 90.292,29.458 C87.288,24.862 86.207,24.461 80.806,25.943 C78.48,26.581 76.317,26.943 75.999,26.746 C75.205,26.256 75.792,22.392 76.923,20.666 C78.153,18.789 81.275,17.556 84.207,17.789 C85.521,17.894 86.596,17.91 86.596,17.825 C86.596,17.741 85.971,16.726 85.206,15.571 C80.581,8.582 72.737,8.344 63.12,14.901 C62.209,15.522 61.278,16.032 61.051,16.034 C60.253,16.041 62.822,10.321 64.318,8.76 C65.15,7.891 66.78,6.762 67.939,6.25 C69.999,5.342 70.024,5.296 69.015,4.287 C67.049,2.321 62.059,2.045 57.596,3.655 C55.088,4.561 49.198,8.915 47.654,11.006 C45.997,13.249 44.986,13.77 44.334,12.716 C43.885,11.988 45.069,6.258 46.074,4.3 C46.552,3.369 46.629,2.781 46.275,2.781 C45.073,2.781 38.383,6.126 36.324,7.757 C33.723,9.817 31.369,14.413 30.885,18.373 C30.634,20.436 30.288,21.285 29.701,21.285 C28.64,21.285 27.724,17.636 27.197,11.313 L26.797,6.504 L24.492,10.086 C22.175,13.687 20.294,18.466 20.331,20.658 C20.341,21.307 20.705,22.459 21.14,23.219 C24.488,29.075 17.089,24.439 12.988,18.111 C11.4,15.66 11.172,15.5 10.527,16.382 C8.861,18.66 10.059,22.754 14.025,28.33 C16.82,32.26 16.328,33.289 12.903,30.676 C11.907,29.916 10.642,29.295 10.092,29.295 C7.007,29.295 2.513,36.085 1.793,41.836 C1.332,45.523 1.736,46.182 3.64,44.854 C6.45,42.893 9.957,41.932 13.657,42.108 C18.17,42.322 18.556,43.286 14.591,44.438 C8.878,46.099 4.061,52.735 2.696,60.826 C1.957,65.208 1.942,66.331 2.61,67.387 C3.044,68.074 3.297,68.033 4.317,67.111 C4.976,66.515 6.012,65.052 6.621,63.86 C8.871,59.451 15.892,53.814 15.892,56.417 C15.892,56.751 13.9,59.34 11.465,62.171 C8.964,65.078 6.661,68.359 6.173,69.711 C5.145,72.558 4.438,80.666 5.218,80.666 C5.511,80.666 7.217,78.506 9.01,75.867 C12.607,70.572 15.497,67.409 16.739,67.409 C18.111,67.409 17.643,68.759 15.579,70.753 C12.959,73.285 11.71,75.388 10.307,79.625 C9.289,82.701 8.109,92.464 8.847,91.713 C8.996,91.562 10.301,89.973 11.747,88.182 C16.128,82.758 20.359,79.388 21.435,80.464 C21.858,80.888 21.545,82.116 20.341,84.742 C19.413,86.769 18.654,88.744 18.654,89.131 C18.654,89.518 18.432,90.072 18.16,90.36 C17.415,91.152 15.34,100.17 15.34,102.615 C15.34,103.794 15.699,105.242 16.138,105.832 C16.9,106.855 16.967,106.815 17.607,104.97 C18.485,102.436 23.766,92.186 25.313,90.014 C27.027,87.607 27.993,88.714 26.648,91.543 C25.12,94.756 24.398,101.986 25.112,106.937 C25.682,110.894 27.722,116.005 28.884,116.388 C29.217,116.498 29.453,113.749 29.499,109.249 C29.58,101.131 30.656,96.952 33.305,94.463 C34.967,92.901 36.292,93.588 35.276,95.484 C34.944,96.105 34.679,97.561 34.686,98.72 C34.7,100.974 34.917,101.949 37.12,109.662 C37.901,112.394 38.539,115.687 38.539,116.981 C38.539,119.775 39.044,119.944 40.422,117.612 C41.755,115.355 42.146,109.945 41.276,105.799 C40.894,103.976 40.47,101.157 40.335,99.534 C40.116,96.917 40.201,96.605 41.085,96.775 C42.216,96.993 42.823,98.711 42.904,101.932 C42.946,103.551 43.719,105.397 45.798,108.837 C47.359,111.419 49.202,114.741 49.893,116.219 L51.151,118.906 L52.005,117.253 C53.282,114.784 55.023,108.092 55.393,104.233 C55.862,99.334 56.881,93.732 57.414,93.122 C58.04,92.405 57.985,100.877 57.325,106.628 C57.029,109.211 56.3,113.181 55.704,115.451 C55.108,117.721 54.734,119.692 54.874,119.832 C55.013,119.971 55.988,119.251 57.04,118.232 C59.366,115.977 60.439,112.803 60.936,106.711 C61.142,104.175 61.502,101.441 61.735,100.635 C62.147,99.214 62.197,99.252 63.439,101.932 C65.077,105.465 65.418,110.73 64.317,115.462 C63.858,117.435 63.57,119.138 63.678,119.246 C63.786,119.354 64.513,118.181 65.294,116.64 C67.087,113.103 69.282,104.34 69.777,98.748 C69.985,96.389 70.353,94.338 70.594,94.189 C71.292,93.757 75.553,99.41 77.279,103.058 C79.331,107.394 80.163,112.006 79.794,117.007 C79.503,120.956 79.516,121.01 80.485,119.769 C81.028,119.073 81.981,117.502 82.603,116.278 z" fill="#FE0000" id="path34023"/>
    <path d="M77.497,78.871 C77.373,78.491 76.992,76.757 76.65,75.018 C75.985,71.635 73.974,67.368 72.083,65.33 C71.202,64.38 71.077,63.926 71.566,63.437 C72.054,62.949 72.478,63.039 73.335,63.814 C74.614,64.972 78.302,72.068 78.327,73.421 C78.342,74.22 78.397,74.223 78.848,73.453 C79.341,72.611 78.601,68.324 77.758,67.133 C75.929,64.551 73.446,59.122 73.951,58.81 C74.821,58.273 75.733,59.412 78.375,64.336 C80.427,68.16 80.723,69.148 80.693,72.069 C80.646,76.709 78.374,81.545 77.497,78.871 z" fill="#000000" id="path34021"/>
    <path d="M40.911,64.86 C41.521,55.917 44.096,48.751 48.137,44.75 C50.356,42.553 53.501,41.07 54.557,41.722 C55.423,42.258 54.798,42.89 52.114,44.189 C48.348,46.012 45.533,50.374 43.794,57.08 C43.045,59.966 43.119,61.335 43.913,59.292 C44.618,57.479 48.939,52.923 49.578,53.318 C49.95,53.547 50.027,54.448 49.783,55.714 C49.343,57.997 49.359,58.894 49.902,62.437 L50.283,64.923 L51.006,61.465 C51.763,57.849 53.546,54.704 54.84,54.704 C56.022,54.704 56.292,55.61 55.344,56.397 C53.558,57.879 52.738,60.458 52.681,64.776 C52.65,67.133 52.482,69.063 52.307,69.064 C51.738,69.068 49.738,66.624 48.814,64.795 C48.317,63.812 47.756,61.879 47.567,60.498 C47.242,58.128 47.168,58.037 46.235,58.882 C44.899,60.09 43.44,63.241 42.685,66.546 C42.342,68.046 41.728,69.384 41.319,69.52 C40.717,69.721 40.64,68.834 40.911,64.86 z" fill="#000000" id="path34019"/>
    <path d="M26.751,64.617 C23.34,61.934 23.535,57.561 27.676,43.869 C30.091,35.882 30.527,34.819 31.391,34.819 C32.259,34.819 31.988,36.517 30.29,41.723 C27.568,50.068 26.387,55.09 26.387,58.321 C26.387,62.391 27.024,63.454 29.719,63.885 C31.038,64.096 31.911,64.538 31.911,64.994 C31.911,66.179 28.412,65.923 26.751,64.617 z" fill="#000000" id="path34017"/>
    <path d="M69.777,46.271 C69.663,45.897 69.315,44.791 69.004,43.814 C68.693,42.837 68.257,40.227 68.036,38.014 C67.644,34.087 67.616,34.03 66.904,35.647 C66.503,36.559 66.233,38.423 66.304,39.79 C66.402,41.646 66.233,42.276 65.639,42.276 C64.042,42.276 61.757,31.488 62.507,27.491 C62.943,25.168 64.926,22.87 65.768,23.712 C66.18,24.124 66.072,24.608 65.404,25.347 C64.193,26.685 63.783,29.461 64.344,32.536 L64.783,34.949 L66.615,32.122 C67.622,30.567 68.678,29.295 68.96,29.295 C69.242,29.295 69.477,30.6 69.482,32.195 C69.492,35.107 70.739,43.707 71.395,45.381 C71.611,45.934 71.409,46.405 70.864,46.614 C70.38,46.8 69.89,46.646 69.777,46.271 z" fill="#000000" id="path34015"/>
    <path d="M188.104,118.658 C191.422,116.664 197.376,110.607 200.548,105.998 C201.669,104.37 202.969,101.564 203.438,99.763 C205.496,91.853 209.836,85.706 214.193,84.533 C216.749,83.845 218.614,84.214 218.614,85.409 C218.614,85.986 218.231,86.115 217.248,85.868 C215.245,85.365 211.278,87.491 209.541,89.997 C207.642,92.738 204.983,99.119 204.568,101.932 C204.251,104.085 204.283,104.056 205.827,100.828 C207.579,97.165 209.424,95.115 210.052,96.131 C210.264,96.474 210.033,97.2 209.54,97.745 C208.373,99.035 203.104,111.047 203.706,111.047 C205.324,111.047 209.473,106.589 213.99,99.995 C221.317,89.302 224.825,86.5 227.964,88.834 C229.02,89.618 229.429,90.481 229.555,92.183 C229.747,94.765 228.769,95.341 228.243,92.956 C227.626,90.157 227.453,90.308 227.754,93.383 C228.01,95.992 227.825,96.886 226.477,99.558 L224.901,102.682 L226.591,101.273 C229.518,98.833 233.524,93.75 234.065,91.791 C235.064,88.172 232.093,84.041 226.628,81.449 C222.761,79.615 220.007,79.334 213.602,80.119 C209.599,80.609 207.865,80.632 207.434,80.201 C206.599,79.367 209.129,78.475 213.487,78.068 C215.395,77.89 216.957,77.571 216.957,77.359 C216.957,76.29 209.472,69.97 206.705,68.703 C203.963,67.448 203.13,67.315 200.018,67.634 C192.787,68.374 190.997,69.452 182.434,78.215 C176.275,84.518 174.054,86.424 171.524,87.58 C169.777,88.379 168.348,89.237 168.348,89.487 C168.348,90.423 172.261,93.331 174.271,93.89 C177.035,94.657 178.58,94.624 182.052,93.724 C183.646,93.31 185.075,93.176 185.23,93.426 C185.603,94.029 182.5,100.167 180.161,103.451 C179.133,104.895 178.424,106.075 178.586,106.075 C179.479,106.075 182.949,104.276 184.647,102.932 C187.516,100.663 191.486,95.405 192.436,92.619 C192.89,91.286 193.863,89.63 194.6,88.939 C196.742,86.926 196.954,88.879 194.973,92.384 C194.066,93.99 192.042,98.576 190.477,102.576 C187.452,110.305 184.668,115.098 181.401,118.198 C180.298,119.245 179.396,120.336 179.396,120.622 C179.396,121.74 185.124,120.448 188.104,118.658 z" fill="#AA8374" id="path34002"/>
    <g id="path34229">
      <path d="M199.204,152.757 C199.774,152.697 200.271,152.566 201.252,152.918 C202.682,151.361 204.529,150.768 205.876,152.918 C208.024,151.436 210.07,153.753 209.857,155.816 C210.407,155.986 210.954,156.036 211.743,157.105 C211.491,157.811 210.794,158.073 209.995,158.232 C205.307,166.93 199.715,160.152 200.102,154.827 C198.974,153.99 199.174,153.381 199.204,152.757 z" fill="#FE0000"/>
      <path d="M199.204,152.757 C199.774,152.697 200.271,152.566 201.252,152.918 C202.682,151.361 204.529,150.768 205.876,152.918 C208.024,151.436 210.07,153.753 209.857,155.816 C210.407,155.986 210.954,156.036 211.743,157.105 C211.491,157.811 210.794,158.073 209.995,158.232 C205.307,166.93 199.715,160.152 200.102,154.827 C198.974,153.99 199.174,153.381 199.204,152.757 z" fill-opacity="0" stroke="#000000" stroke-width="1" stroke-linecap="round" stroke-linejoin="round"/>
    </g>
  </g>
</svg>
