<?xml version="1.0" encoding="UTF-8"?>
<!DOCTYPE svg PUBLIC "-//W3C//DTD SVG 1.1//EN" "http://www.w3.org/Graphics/SVG/1.1/DTD/svg11.dtd">
<svg version="1.1" xmlns="http://www.w3.org/2000/svg" xmlns:xlink="http://www.w3.org/1999/xlink" x="0" y="0" width="434.351" height="394.048" viewBox="0, 0, 434.351, 394.048">
  <defs>
    <clipPath id="Clip_1">
      <path d="M195.682,13.862 L237.449,13.862 L237.449,55.633 L195.682,55.633 z"/>
    </clipPath>
    <clipPath id="Clip_2">
      <path d="M296.504,14.647 L338.272,14.647 L338.272,56.418 L296.504,56.418 z"/>
    </clipPath>
    <clipPath id="Clip_3">
      <path d="M254.287,86.508 L296.054,86.508 L296.054,128.278 L254.287,128.278 z"/>
    </clipPath>
    <clipPath id="Clip_4">
      <path d="M343.514,89.668 L385.289,89.668 L385.289,131.438 L343.514,131.438 z"/>
    </clipPath>
    <clipPath id="Clip_5">
      <path d="M382.207,159.772 L423.982,159.772 L423.982,201.543 L382.207,201.543 z"/>
    </clipPath>
  </defs>
  <g id="layer1">
    <path d="M270.932,336.277 C257.609,336.277 244.954,337.183 233.547,338.812 C215.212,326.785 171.932,318.334 121.457,318.334 C54.38,318.334 0,333.259 0,351.668 C0,370.078 54.38,385.003 121.457,385.003 C147.3,385.003 171.255,382.786 190.946,379.009 C206.414,387.97 236.433,394.048 270.932,394.048 C321.255,394.048 362.052,381.115 362.052,365.162 C362.052,349.21 321.255,336.277 270.932,336.277" fill="#89DAF8" id="path33000"/>
    <path d="M332.047,356.191 C332.047,356.191 333.289,364.188 321.192,368.014 C309.094,371.839 294.32,373.752 294.32,373.752 C294.32,373.752 301.73,381.402 321.192,378.534 C340.654,375.664 352.128,363.494 332.047,356.191" fill="#37CEF7" id="path33002"/>
    <g id="g33008">
      <path d="M153.229,242.539 C153.229,242.539 93.601,246.971 96.235,180.658 C98.867,114.346 191.041,61.999 191.041,61.999 C191.041,61.999 286.463,116.092 290.41,178.54 C294.358,240.987 249.264,240.191 240.281,240.961 C231.299,241.729 153.229,242.539 153.229,242.539" fill="#FFF203" id="path33004"/>
      <path d="M153.229,242.539 C153.229,242.539 93.601,246.971 96.235,180.658 C98.867,114.346 191.041,61.999 191.041,61.999 C191.041,61.999 286.463,116.092 290.41,178.54 C294.358,240.987 249.264,240.191 240.281,240.961 C231.299,241.729 153.229,242.539 153.229,242.539" fill-opacity="0" stroke="#5A3200" stroke-width="3.75" id="path33006"/>
    </g>
    <path d="M244.81,262.382 C243.888,264.413 242.491,265.771 241.692,265.407 L236.176,262.903 C235.377,262.54 235.477,260.596 236.399,258.565 L285.146,151.152 C286.069,149.119 287.464,147.766 288.264,148.129 L293.78,150.633 C294.58,150.994 294.481,152.936 293.556,154.97 z" fill="#999999" id="path33010"/>
    <path d="M244.81,262.382 C243.888,264.413 242.491,265.771 241.692,265.407 L236.176,262.903 C235.377,262.54 235.477,260.596 236.399,258.565 L285.146,151.152 C286.069,149.119 287.464,147.766 288.264,148.129 L293.78,150.633 C294.58,150.994 294.481,152.936 293.556,154.97 z" fill-opacity="0" stroke="#5A3200" stroke-width="3" id="path33012"/>
    <path d="M210.555,332.862 L194.995,326.128 L202.997,307.643 L218.555,314.377 z" fill="#FFF7E6" id="path33014"/>
    <path d="M210.555,332.862 L194.995,326.128 L202.997,307.643 L218.555,314.377 z" fill-opacity="0" stroke="#5A3200" stroke-width="3.75" stroke-linecap="round" stroke-linejoin="round" id="path33016"/>
    <path d="M215.527,326.729 L198.092,318.812 L190.064,336.487 C190.064,336.487 179.657,331.761 174.322,332.448 C168.988,333.135 165.142,341.604 167.408,343.524 C169.677,345.442 200.195,358.414 200.195,358.414 z" fill="#FF7843" id="path33018"/>
    <path d="M215.527,326.729 L198.092,318.812 L190.064,336.487 C190.064,336.487 179.657,331.761 174.322,332.448 C168.988,333.135 165.142,341.604 167.408,343.524 C169.677,345.442 200.195,358.414 200.195,358.414 z" fill-opacity="0" stroke="#5A3200" stroke-width="3.75" stroke-linecap="round" stroke-linejoin="round" id="path33020"/>
    <path d="M120.458,258.598 C118.634,257.103 116.672,255.861 113.979,256.163 C109.208,256.962 111.816,260.47 115.107,261.089 C112.213,261.205 105.604,261.055 103.886,263.92 C101.312,268.219 111.066,266.261 113.338,266.313 C110.43,266.972 101.479,269.857 101.605,273.489 C101.93,277.49 110.452,275.14 113.158,274.294 C110.873,274.787 101.297,278.02 104.114,281.351 C106.321,284.305 114.068,279.759 116.567,278.908 C113.207,281.192 109.531,288.551 117.031,285.817 C120.578,284.263 125.648,279.294 127.985,276.442 C130.532,273.415 131.245,269.257 129.466,265.769 C127.882,262.646 126.772,261.24 123.48,260.621 z" fill="#FFF7E6" id="path33022"/>
    <path d="M120.458,258.598 C118.634,257.103 116.672,255.861 113.979,256.163 C109.208,256.962 111.816,260.47 115.107,261.089 C112.213,261.205 105.604,261.055 103.886,263.92 C101.312,268.219 111.066,266.261 113.338,266.313 C110.43,266.972 101.479,269.857 101.605,273.489 C101.93,277.49 110.452,275.14 113.158,274.294 C110.873,274.787 101.297,278.02 104.114,281.351 C106.321,284.305 114.068,279.759 116.567,278.908 C113.207,281.192 109.531,288.551 117.031,285.817 C120.578,284.263 125.648,279.294 127.985,276.442 C130.532,273.415 131.245,269.257 129.466,265.769 C127.882,262.646 126.772,261.24 123.48,260.621 z" fill-opacity="0" stroke="#5A3200" stroke-width="3.75" stroke-linecap="round" stroke-linejoin="round" id="path33024"/>
    <path d="M159.722,333.213 L148.15,321.54 L168.604,301.27 L180.173,312.943 z" fill="#FFF7E6" id="path33026"/>
    <path d="M159.722,333.213 L148.15,321.54 L168.604,301.27 L180.173,312.943 z" fill-opacity="0" stroke="#5A3200" stroke-width="3.75" stroke-linecap="round" stroke-linejoin="round" id="path33028"/>
    <path d="M58.559,291.196 C58.559,291.196 58.496,268.147 47.685,275.765 C36.873,283.383 58.559,291.196 58.559,291.196" fill="#89DAF8" id="path33030"/>
    <path d="M60.989,306.361 C60.989,306.361 40.019,296.792 42.426,309.797 C44.834,322.802 60.989,306.361 60.989,306.361" fill="#89DAF8" id="path33032"/>
    <path d="M284.931,318.358 C284.931,318.358 303.787,305.101 303.809,318.325 C303.832,331.551 284.931,318.358 284.931,318.358" fill="#89DAF8" id="path33034"/>
    <path d="M266.845,310.158 C266.845,310.158 273.668,288.142 281.768,298.596 C289.867,309.051 266.845,310.158 266.845,310.158" fill="#89DAF8" id="path33036"/>
    <path d="M242.441,249.904 C242.441,241.321 236.654,234.361 229.515,234.361 C227.648,234.361 225.874,234.838 224.272,235.695 C223.99,234.373 223.83,233.638 223.83,233.638 L171.63,233.638 C171.63,233.638 171.439,234.276 171.101,235.428 C169.302,234.286 170.581,241.305 168.404,241.305 C161.265,241.305 100.564,247.132 119.507,271.745 C138.958,297.021 156.865,263.355 163.037,264.529 C158.514,281.931 141.467,304.853 143.464,307.792 C153.223,322.16 246.003,322.696 250.846,306.658 C252.363,301.633 232.909,281.513 230.073,265.43 C236.954,265.078 242.441,258.263 242.441,249.904" fill="#FFF203" id="path33038"/>
    <path d="M242.441,249.904 C242.441,241.321 236.654,234.361 229.515,234.361 C227.648,234.361 225.874,234.838 224.272,235.695 C223.99,234.373 223.83,233.638 223.83,233.638 L171.63,233.638 C171.63,233.638 171.439,234.276 171.101,235.428 C169.302,234.286 170.581,241.305 168.404,241.305 C161.265,241.305 100.564,247.132 119.507,271.745 C138.958,297.021 156.865,263.355 163.037,264.529 C158.514,281.931 141.467,304.853 143.464,307.792 C153.223,322.16 246.003,322.696 250.846,306.658 C252.363,301.633 232.909,281.513 230.073,265.43 C236.954,265.078 242.441,258.263 242.441,249.904 z" fill-opacity="0" stroke="#5A3200" stroke-width="3.75" id="path33040"/>
    <path d="M163.196,285.127 C163.196,285.127 170.428,279.006 171.854,280.114 C173.282,281.221 173.759,297.349 172.286,296.809 C170.813,296.269 161.587,292.884 161.697,290.872 C161.807,288.861 163.196,285.127 163.196,285.127" fill="#FF7843" id="path33042"/>
    <path d="M163.196,285.127 C163.196,285.127 170.428,279.006 171.854,280.114 C173.282,281.221 173.759,297.349 172.286,296.809 C170.813,296.269 161.587,292.884 161.697,290.872 C161.807,288.861 163.196,285.127 163.196,285.127 z" fill-opacity="0" stroke="#5A3200" stroke-width="2.25" stroke-linecap="round" stroke-linejoin="round" id="path33044"/>
    <path d="M157.723,285.661 C157.723,285.661 150.489,279.541 149.063,280.648 C147.636,281.756 147.158,297.883 148.632,297.343 C150.104,296.803 159.33,293.419 159.218,291.406 C159.11,289.396 157.723,285.661 157.723,285.661" fill="#FF7843" id="path33046"/>
    <path d="M157.723,285.661 C157.723,285.661 150.489,279.541 149.063,280.648 C147.636,281.756 147.158,297.883 148.632,297.343 C150.104,296.803 159.33,293.419 159.218,291.406 C159.11,289.396 157.723,285.661 157.723,285.661 z" fill-opacity="0" stroke="#5A3200" stroke-width="2.25" stroke-linecap="round" stroke-linejoin="round" id="path33048"/>
    <path d="M163.472,292.422 C163.472,292.682 163.262,292.891 163.003,292.891 L157.753,292.891 C157.494,292.891 157.285,292.682 157.285,292.422 L157.285,286.292 C157.285,286.032 157.494,285.823 157.753,285.823 L163.003,285.823 C163.262,285.823 163.472,286.032 163.472,286.292 z" fill="#FF7843" id="path33050"/>
    <path d="M163.472,292.422 C163.472,292.682 163.262,292.891 163.003,292.891 L157.753,292.891 C157.494,292.891 157.285,292.682 157.285,292.422 L157.285,286.292 C157.285,286.032 157.494,285.823 157.753,285.823 L163.003,285.823 C163.262,285.823 163.472,286.032 163.472,286.292 z" fill-opacity="0" stroke="#5A3200" stroke-width="2.25" stroke-linecap="round" stroke-linejoin="round" id="path33052"/>
    <path d="M275.17,178.539 C275.17,216.087 256.641,246.526 193.865,246.526 C131.529,246.526 112.559,216.087 112.559,178.539 C112.559,140.992 148.961,110.553 193.865,110.553 C238.769,110.553 275.17,140.992 275.17,178.539" fill="#FFF7E6" id="path33054"/>
    <path d="M275.17,178.539 C275.17,216.087 256.641,246.526 193.865,246.526 C131.529,246.526 112.559,216.087 112.559,178.539 C112.559,140.992 148.961,110.553 193.865,110.553 C238.769,110.553 275.17,140.992 275.17,178.539 z" fill-opacity="0" stroke="#5A3200" stroke-width="4.5" id="path33056"/>
    <path d="M275.17,171.449 C275.17,182.326 242.404,149.863 239.645,148.954 C237.749,148.329 236.87,170.956 221.842,170.514 C207.002,170.077 202.319,144.67 202.319,144.67 C202.319,144.67 212.285,173.269 192.098,173.019 C166.385,172.698 177.43,147.402 177.43,147.402 C176.599,147.328 173.798,173.355 159.122,174.12 C143.403,174.939 140.612,152.866 138.797,152.664 C136.692,152.431 112.559,183.183 112.559,171.449 C112.559,133.901 148.961,110.553 193.865,110.553 C238.769,110.553 275.17,133.901 275.17,171.449" fill="#EAA72D" id="path33058"/>
    <path d="M275.17,171.449 C275.17,182.326 242.404,149.863 239.645,148.954 C237.749,148.329 236.87,170.956 221.842,170.514 C207.002,170.077 202.319,144.67 202.319,144.67 C202.319,144.67 212.285,173.269 192.098,173.019 C166.385,172.698 177.43,147.402 177.43,147.402 C176.599,147.328 173.798,173.355 159.122,174.12 C143.403,174.939 140.612,152.866 138.797,152.664 C136.692,152.431 112.559,183.183 112.559,171.449 C112.559,133.901 148.961,110.553 193.865,110.553 C238.769,110.553 275.17,133.901 275.17,171.449 z" fill-opacity="0" stroke="#5A3200" stroke-width="3.75" stroke-linecap="round" stroke-linejoin="round" id="path33060"/>
    <path d="M245.887,195.89 C245.887,201.898 241.298,206.767 235.638,206.767 C229.976,206.767 225.384,201.898 225.384,195.89 C225.384,189.884 229.976,185.013 235.638,185.013 C241.298,185.013 245.887,189.884 245.887,195.89" fill="#40210F" id="path33062"/>
    <path d="M231.761,183.763 C231.761,185.48 231.158,186.871 230.417,186.871 C229.675,186.871 229.073,185.48 229.073,183.763 C229.073,182.047 229.675,180.657 230.417,180.657 C231.158,180.657 231.761,182.047 231.761,183.763" fill="#40210F" id="path33064"/>
    <path d="M167.433,197.278 C167.433,203.318 162.819,208.215 157.128,208.215 C151.433,208.215 146.816,203.318 146.816,197.278 C146.816,191.239 151.433,186.34 157.128,186.34 C162.819,186.34 167.433,191.239 167.433,197.278" fill="#40210F" id="path33066"/>
    <path d="M153.229,185.084 C153.229,186.81 152.622,188.209 151.877,188.209 C151.13,188.209 150.525,186.81 150.525,185.084 C150.525,183.358 151.13,181.96 151.877,181.96 C152.622,181.96 153.229,183.358 153.229,185.084" fill="#40210F" id="path33068"/>
    <path d="M195.86,197.141 C195.86,197.141 194.991,195.632 193.489,195.548 C191.984,195.465 191.021,197.103 191.021,197.103" fill="#40210F" id="path33070"/>
    <path d="M181.477,211.921 L209.225,211.009 C209.225,211.009 209.225,226.495 195.601,226.495 C181.477,226.495 181.477,211.921 181.477,211.921" fill="#FFC3A6" id="path33072"/>
    <path d="M181.477,211.921 L209.225,211.009 C209.225,211.009 209.225,226.495 195.601,226.495 C181.477,226.495 181.477,211.921 181.477,211.921 z" fill-opacity="0" stroke="#5A3200" stroke-width="3" stroke-linecap="round" stroke-linejoin="round" id="path33074"/>
    <path d="M157.125,220.582 C157.125,227.503 151.515,233.114 144.592,233.114 C137.671,233.114 132.06,227.503 132.06,220.582 C132.06,213.66 137.671,208.048 144.592,208.048 C151.515,208.048 157.125,213.66 157.125,220.582" fill="#FFC3A6" id="path33076"/>
    <path d="M152.613,217.24 C152.613,219.013 151.173,220.453 149.399,220.453 C147.624,220.453 146.186,219.013 146.186,217.24 C146.186,215.465 147.624,214.025 149.399,214.025 C151.173,214.025 152.613,215.465 152.613,217.24" fill="#FFFFFF" id="path33078"/>
    <path d="M256.827,220.45 C256.827,227.372 251.215,232.984 244.294,232.984 C237.371,232.984 231.76,227.372 231.76,220.45 C231.76,213.529 237.371,207.918 244.294,207.918 C251.215,207.918 256.827,213.529 256.827,220.45" fill="#FFC3A6" id="path33080"/>
    <path d="M252.315,217.109 C252.315,218.884 250.875,220.323 249.101,220.323 C247.326,220.323 245.887,218.884 245.887,217.109 C245.887,215.334 247.326,213.895 249.101,213.895 C250.875,213.895 252.315,215.334 252.315,217.109" fill="#FFFFFF" id="path33082"/>
    <path d="M237.586,251.127 C236.461,251.484 234.761,258.703 232.253,264.22 C230.444,268.201 228.693,271.474 224.158,269.811 C213.177,265.79 227.123,254.689 219.479,251.89 C210.533,248.612 209.596,259.838 209.502,262.341 C209.306,267.636 212.948,272.716 221.893,275.992 C233.547,280.261 238.195,277.516 241.934,271.152 C244.973,265.975 249.145,256.753 248.603,255.162 C248.144,253.826 237.586,251.127 237.586,251.127" fill="#FF9933" id="path33084"/>
    <path d="M237.586,251.127 C236.461,251.484 234.761,258.703 232.253,264.22 C230.444,268.201 228.693,271.474 224.158,269.811 C213.177,265.79 227.123,254.689 219.479,251.89 C210.533,248.612 209.596,259.838 209.502,262.341 C209.306,267.636 212.948,272.716 221.893,275.992 C233.547,280.261 238.195,277.516 241.934,271.152 C244.973,265.975 249.145,256.753 248.603,255.162 C248.144,253.826 237.586,251.127 237.586,251.127 z" fill-opacity="0" stroke="#5A3200" stroke-width="3" id="path33086"/>
    <path d="M358.635,24.837 C355.499,29.969 350.622,32.701 347.741,30.941 C344.86,29.18 345.066,23.592 348.203,18.462 C351.338,13.329 356.216,10.597 359.098,12.358 C361.978,14.119 361.772,19.705 358.635,24.837" fill="#0099CC" id="path33088"/>
    <path d="M358.635,24.837 C355.499,29.969 350.622,32.701 347.741,30.941 C344.86,29.18 345.066,23.592 348.203,18.462 C351.338,13.329 356.216,10.597 359.098,12.358 C361.978,14.119 361.772,19.705 358.635,24.837 z" fill-opacity="0" stroke="#5A3200" stroke-width="3" id="path33090"/>
    <path d="M190.118,87.714 C203.124,95.029 211.938,106.239 214.755,117.373 C225.732,113.998 239.891,115.708 252.898,123.024 C265.265,129.98 273.844,140.46 277.076,151.047 C287.805,148.312 301.213,150.199 313.582,157.156 C326.588,164.471 335.402,175.68 338.221,186.817 C349.198,183.439 363.354,185.149 376.361,192.464 C391.857,201.181 401.407,215.423 401.947,228.481 C408.68,221.86 414.529,214.294 419.297,205.82 C452.543,146.711 420.68,65.715 348.128,24.909 C275.576,-15.896 189.813,-1.058 156.569,58.05 C151.835,66.464 148.424,75.322 146.26,84.444 C157.697,78.248 174.715,79.05 190.118,87.714" fill="#FF7843" id="path33092"/>
    <path d="M190.118,87.714 C203.124,95.029 211.938,106.239 214.755,117.373 C225.732,113.998 239.891,115.708 252.898,123.024 C265.265,129.98 273.844,140.46 277.076,151.047 C287.805,148.312 301.213,150.199 313.582,157.156 C326.588,164.471 335.402,175.68 338.221,186.817 C349.198,183.439 363.354,185.149 376.361,192.464 C391.857,201.181 401.407,215.423 401.947,228.481 C408.68,221.86 414.529,214.294 419.297,205.82 C452.543,146.711 420.68,65.715 348.128,24.909 C275.576,-15.896 189.813,-1.058 156.569,58.05 C151.835,66.464 148.424,75.322 146.26,84.444 C157.697,78.248 174.715,79.05 190.118,87.714 z" fill-opacity="0" stroke="#5A3200" stroke-width="3.75" stroke-linecap="round" stroke-linejoin="round" id="path33094"/>
    <g clip-path="url(#Clip_1)" id="g33098" opacity="0.5">
      <path d="M237.453,34.747 C237.453,46.282 228.101,55.633 216.567,55.633 C205.032,55.633 195.681,46.282 195.681,34.747 C195.681,23.213 205.032,13.862 216.567,13.862 C228.101,13.862 237.453,23.213 237.453,34.747" fill="#FFC800" id="path33096"/>
    </g>
    <g clip-path="url(#Clip_2)" id="g33102" opacity="0.5">
      <path d="M338.27,35.533 C338.27,47.067 328.92,56.418 317.384,56.418 C305.85,56.418 296.501,47.067 296.501,35.533 C296.501,23.998 305.85,14.647 317.384,14.647 C328.92,14.647 338.27,23.998 338.27,35.533" fill="#FFC800" id="path33100"/>
    </g>
    <g clip-path="url(#Clip_3)" id="g33106" opacity="0.5">
      <path d="M296.055,107.392 C296.055,118.927 286.705,128.278 275.169,128.278 C263.635,128.278 254.285,118.927 254.285,107.392 C254.285,95.858 263.635,86.507 275.169,86.507 C286.705,86.507 296.055,95.858 296.055,107.392" fill="#FFC800" id="path33104"/>
    </g>
    <g clip-path="url(#Clip_4)" id="g33110" opacity="0.5">
      <path d="M385.288,110.551 C385.288,122.087 375.936,131.438 364.402,131.438 C352.868,131.438 343.517,122.087 343.517,110.551 C343.517,99.018 352.868,89.667 364.402,89.667 C375.936,89.667 385.288,99.018 385.288,110.551" fill="#FFC800" id="path33108"/>
    </g>
    <g clip-path="url(#Clip_5)" id="g33114" opacity="0.5">
      <path d="M423.98,180.657 C423.98,192.193 414.629,201.543 403.094,201.543 C391.56,201.543 382.209,192.193 382.209,180.657 C382.209,169.123 391.56,159.772 403.094,159.772 C414.629,159.772 423.98,169.123 423.98,180.657" fill="#FFC800" id="path33112"/>
    </g>
    <path d="M259.736,264.588 C259.736,272.236 253.536,278.436 245.887,278.436 C238.241,278.436 232.04,272.236 232.04,264.588 C232.04,256.941 238.241,250.74 245.887,250.74 C253.536,250.74 259.736,256.941 259.736,264.588" fill="#FFF7E6" id="path33116"/>
    <path d="M259.736,264.588 C259.736,272.236 253.536,278.436 245.887,278.436 C238.241,278.436 232.04,272.236 232.04,264.588 C232.04,256.941 238.241,250.74 245.887,250.74 C253.536,250.74 259.736,256.941 259.736,264.588 z" fill-opacity="0" stroke="#5A3200" stroke-width="3.75" stroke-linecap="round" stroke-linejoin="round" id="path33118"/>
    <path d="M168.67,326.074 L155.659,312.467 L141.627,325.884 C141.627,325.884 133.862,317.763 128.708,316.469 C123.554,315.178 116.832,321.607 118.188,324.196 C119.546,326.787 142.654,349.782 142.654,349.782 z" fill="#FF7843" id="path33120"/>
    <path d="M168.67,326.074 L155.659,312.467 L141.627,325.884 C141.627,325.884 133.862,317.763 128.708,316.469 C123.554,315.178 116.832,321.607 118.188,324.196 C119.546,326.787 142.654,349.782 142.654,349.782 z" fill-opacity="0" stroke="#5A3200" stroke-width="3.75" stroke-linecap="round" stroke-linejoin="round" id="path33122"/>
  </g>
</svg>
