<?xml version="1.0" encoding="UTF-8"?>
<!DOCTYPE svg PUBLIC "-//W3C//DTD SVG 1.1//EN" "http://www.w3.org/Graphics/SVG/1.1/DTD/svg11.dtd">
<svg version="1.1" xmlns="http://www.w3.org/2000/svg" xmlns:xlink="http://www.w3.org/1999/xlink" x="0" y="0" width="511.249" height="558.818" viewBox="0, 0, 511.249, 558.818">
  <defs>
    <clipPath id="Clip_1">
      <path d="M153.16,342.626 L45.148,382.968 L52.955,408.994 L144.054,390.781 L116.725,512.236 L144.488,523.515 L215.631,470.585 L290.245,529.589 L324.093,521.777 L308.029,384.267 L397.823,405.097 L408.234,381.669 L304.122,334.814 z"/>
    </clipPath>
  </defs>
  <g id="Layer_1">
    <path d="M45.148,382.968 C45.148,382.968 15.66,349.56 6.979,359.97 C-1.703,370.38 20.865,397.285 20.865,397.285 C20.865,397.285 6.979,393.808 7.853,403.359 C8.707,412.9 19.991,426.767 52.955,408.994" fill="#F8DCBB" id="path838"/>
    <path d="M45.148,382.968 C45.148,382.968 15.66,349.56 6.979,359.97 C-1.703,370.38 20.865,397.285 20.865,397.285 C20.865,397.285 6.979,393.808 7.853,403.359 C8.707,412.9 19.991,426.767 52.955,408.994" fill-opacity="0" stroke="#3C2C1E" stroke-width="10" stroke-linecap="round" stroke-linejoin="round" id="path840"/>
    <path d="M407.115,380.79 C407.115,380.79 436.622,347.392 445.294,357.802 C453.966,368.212 431.417,395.107 431.417,395.107 C431.417,395.107 445.284,391.64 444.43,401.191 C443.556,410.722 432.291,424.599 399.308,406.826" fill="#F8DCBB" id="path842"/>
    <path d="M407.115,380.79 C407.115,380.79 436.622,347.392 445.294,357.802 C453.966,368.212 431.417,395.107 431.417,395.107 C431.417,395.107 445.284,391.64 444.43,401.191 C443.556,410.722 432.291,424.599 399.308,406.826" fill-opacity="0" stroke="#3C2C1E" stroke-width="10" stroke-linecap="round" stroke-linejoin="round" id="path844"/>
    <path d="M153.16,342.626 L45.148,382.968 L52.955,408.994 L144.054,390.781 L116.725,512.236 L144.488,523.515 L215.631,470.585 L290.245,529.589 L324.093,521.777 L308.029,384.267 L397.823,405.097 L408.234,381.669 L304.122,334.814" fill="#87C37A" id="path846"/>
    <path d="M153.16,342.626 L45.148,382.968 L52.955,408.994 L144.054,390.781 L116.725,512.236 L144.488,523.515 L215.631,470.585 L290.245,529.589 L324.093,521.777 L308.029,384.267 L397.823,405.097 L408.234,381.669 L304.122,334.814" fill-opacity="0" stroke="#3C2C1E" stroke-width="10" stroke-linecap="round" stroke-linejoin="round" id="path848"/>
    <g clip-path="url(#Clip_1)" id="g854">
      <path d="M95.909,439.355 L357.052,439.355 L338.873,547.812 L123.19,546.074 L95.909,439.355" fill="#EC934D" id="path850"/>
      <path d="M95.909,439.355 L357.052,439.355 L338.873,547.812 L123.19,546.074 z" fill-opacity="0" stroke="#3C2C1E" stroke-width="10" stroke-linecap="round" stroke-linejoin="round" id="path852"/>
    </g>
    <path d="M304.122,334.814 L408.234,381.669 L397.823,405.097 L308.029,384.267 L324.093,521.777 L290.245,529.589 L215.631,470.585 L144.488,523.515 L116.725,512.236 L144.054,390.781 L52.955,408.994 L45.148,382.968 L153.16,342.626" fill-opacity="0" stroke="#3C2C1E" stroke-width="10" stroke-linecap="round" stroke-linejoin="round" id="path856"/>
    <path d="M117.037,515.058 C117.037,515.058 81.178,511.367 85.489,526.982 C90.958,546.757 131.251,562.46 146.227,525.244" fill="#3C2C1E" id="path858"/>
    <path d="M117.037,515.058 C117.037,515.058 81.178,511.367 85.489,526.982 C90.958,546.757 131.251,562.46 146.227,525.244" fill-opacity="0" stroke="#3C2C1E" stroke-width="10" stroke-linecap="round" stroke-linejoin="round" id="path860"/>
    <path d="M323.961,523.622 C323.961,523.622 360.817,520.995 352.052,536.66 C341.437,555.615 298.927,565.156 291.119,531.318" fill="#3C2C1E" id="path862"/>
    <path d="M323.961,523.622 C323.961,523.622 360.817,520.995 352.052,536.66 C341.437,555.615 298.927,565.156 291.119,531.318" fill-opacity="0" stroke="#3C2C1E" stroke-width="10" stroke-linecap="round" stroke-linejoin="round" id="path864"/>
    <path d="M208.068,360.732 C458.82,333.076 503.995,190.195 503.995,190.195 C515.983,95.253 476.339,59.277 476.339,59.277 C476.339,59.277 442.228,60.195 408.116,52.831 C374.005,45.449 216.368,-24.6 129.713,19.648" fill="#AD9684" id="path866"/>
    <path d="M208.068,360.732 C458.82,333.076 503.995,190.195 503.995,190.195 C515.983,95.253 476.339,59.277 476.339,59.277 C476.339,59.277 442.228,60.195 408.116,52.831 C374.005,45.449 216.368,-24.6 129.713,19.648" fill-opacity="0" stroke="#3C2C1E" stroke-width="10" stroke-linecap="round" stroke-linejoin="round" id="path868"/>
    <path d="M368.478,185.576 C368.478,283.339 287.164,362.587 186.871,362.587 C86.569,362.587 5.255,283.339 5.255,185.576 C5.255,87.831 86.569,8.583 186.871,8.583 C287.164,8.583 368.478,87.831 368.478,185.576" fill="#F6C69E" id="path870"/>
    <path d="M368.478,185.576 C368.478,283.339 287.164,362.587 186.871,362.587 C86.569,362.587 5.255,283.339 5.255,185.576 C5.255,87.831 86.569,8.583 186.871,8.583 C287.164,8.583 368.478,87.831 368.478,185.576 z" fill-opacity="0" stroke="#3C2C1E" stroke-width="10" stroke-linecap="round" stroke-linejoin="round" id="path872"/>
    <path d="M142.804,155.341 C132.316,170.361 105.372,169.677 82.613,153.808 C59.85,137.929 49.899,112.88 60.392,97.831 C70.88,82.802 97.823,83.495 120.587,99.374 C143.341,115.234 153.292,140.292 142.804,155.341" fill="#C5A085" id="path874"/>
    <path d="M262.809,89.775 C258.473,112.773 225.284,125.81 188.688,118.896 C152.086,111.982 125.929,87.744 130.275,64.745 C134.615,41.728 167.809,28.691 204.415,35.634 C241.012,42.519 267.159,66.777 262.809,89.775" fill="#C5A085" id="path876"/>
    <path d="M139.825,216.113 C140.46,234.433 118.492,250.058 90.763,251.005 C63.024,251.962 40.03,237.919 39.396,219.57 C38.761,201.249 60.734,185.634 88.468,184.677 C116.193,183.72 139.186,197.792 139.825,216.113" fill="#C5A085" id="path878"/>
    <path d="M185.055,243.828 C200.47,253.779 200.753,280.722 185.729,304.042 C170.69,327.363 146.017,338.222 130.602,328.281 C115.187,318.359 114.904,291.415 129.943,268.066 C144.972,244.765 169.645,233.906 185.055,243.828" fill="#C5A085" id="path880"/>
    <path d="M234.2,237.529 C248.888,232.831 266.407,246.62 273.361,268.31 C280.328,290.048 274.073,311.464 259.386,316.162 C244.713,320.859 227.194,307.089 220.231,285.351 C213.282,263.662 219.528,242.245 234.2,237.529" fill="#C5A085" id="path882"/>
    <path d="M252.325,185.126 C252.325,211.845 230.655,233.525 203.927,233.525 C177.203,233.525 155.529,211.845 155.529,185.126 C155.529,158.388 177.203,136.728 203.927,136.728 C230.655,136.728 252.325,158.388 252.325,185.126" fill="#C5A085" id="path884"/>
    <path d="M334.371,133.964 C334.371,153.808 318.278,169.921 298.419,169.921 C278.566,169.921 262.462,153.808 262.462,133.964 C262.462,114.101 278.566,98.017 298.419,98.017 C318.278,98.017 334.371,114.101 334.371,133.964" fill="#C5A085" id="path886"/>
    <path d="M340.826,220.634 C340.826,240.478 324.728,256.581 304.869,256.581 C285.016,256.581 268.922,240.478 268.922,220.634 C268.922,200.761 285.016,184.677 304.869,184.677 C324.728,184.677 340.826,200.761 340.826,220.634" fill="#C5A085" id="path888"/>
    <path d="M149.532,189.482 C149.532,219.619 125.104,244.042 94.967,244.042 C64.821,244.042 40.392,219.619 40.392,189.482 C40.392,159.335 64.821,134.902 94.967,134.902 C125.104,134.902 149.532,159.335 149.532,189.482" fill="#EA8B52" id="path890"/>
    <path d="M85.758,156.63 C87.589,160.693 83.834,166.337 77.394,169.238 C70.929,172.119 64.22,171.162 62.394,167.079 C60.577,163.017 64.322,157.363 70.773,154.472 C77.228,151.581 83.947,152.548 85.758,156.63" fill="#FFFFFE" id="path892"/>
    <path d="M343.561,189.482 C343.561,219.619 319.137,244.042 288.99,244.042 C258.849,244.042 234.415,219.619 234.415,189.482 C234.415,159.335 258.849,134.902 288.99,134.902 C319.137,134.902 343.561,159.335 343.561,189.482" fill="#EA8B52" id="path894"/>
    <path d="M279.781,156.63 C281.613,160.693 277.858,166.337 271.417,169.238 C264.962,172.119 258.243,171.162 256.422,167.079 C254.601,163.017 258.351,157.363 264.801,154.472 C271.256,151.581 277.97,152.548 279.781,156.63" fill="#FFFFFE" id="path896"/>
    <path d="M157.613,145.693 C157.613,160.566 149.928,172.636 140.436,172.636 C130.948,172.636 123.258,160.566 123.258,145.693 C123.258,130.8 130.948,118.74 140.436,118.74 C149.928,118.74 157.613,130.8 157.613,145.693" fill="#3C2C1E" id="path898"/>
    <path d="M253.287,145.693 C253.287,160.566 245.602,172.636 236.11,172.636 C226.617,172.636 218.927,160.566 218.927,145.693 C218.927,130.8 226.617,118.74 236.11,118.74 C245.602,118.74 253.287,130.8 253.287,145.693" fill="#3C2C1E" id="path900"/>
    <path d="M125.28,197.558 L245.865,196.22 C245.865,196.22 237.794,260.888 182.55,258.867 C127.301,256.845 125.28,197.558 125.28,197.558" fill="#E05659" id="path902"/>
    <path d="M125.28,197.558 L245.865,196.22 C245.865,196.22 237.794,260.888 182.55,258.867 C127.301,256.845 125.28,197.558 125.28,197.558 z" fill-opacity="0" stroke="#3C2C1E" stroke-width="10" stroke-linecap="round" stroke-linejoin="round" id="path904"/>
  </g>
</svg>
