<?xml version="1.0" encoding="UTF-8" standalone="no"?>
<svg xmlns:rdf="http://www.w3.org/1999/02/22-rdf-syntax-ns#" xmlns="http://www.w3.org/2000/svg" height="560pt" width="516.09pt" version="1.1" xmlns:cc="http://creativecommons.org/ns#" xmlns:dc="http://purl.org/dc/elements/1.1/" viewBox="0 0 516.09241 560">
<g transform="matrix(1.3417 0 0 1.3417 -5.637 -5.3824)">
<path fill="#0c0102" d="m354.8 25.78c6.27-9.54 14.2-23.48 27.65-21.58 6.94 2.93 4.12 12.46 1.52 17.81-5.57 19.64-19.75 35.08-32.7 50.13 10.87-3.99 21.47-14.5 34.01-9.55 6 1.62 3.42 9.62-0.24 12.46-8.02 12.17-22.06 17.82-31.95 28.07 8.99-0.19 22.78-9.37 28.9 0.17-3.74 14.19-22.4 14.69-33.83 18.85 1.68 4.79 12.09 3.51 11.85 10.78-3.5 5.25-11.88 4.69-17.02 7.94 4.86 3.3 13.23 5.54 10.63 13.35-5.69 3.78-12.83 2.5-19.3 2.67-0.8 3.74 6.08 6.55 1.89 10.61-2.65 0.59-12.4-1.17-7.56 4.03 2.7 9.99-22.14-1.29-13.94 7.82 5.22 3.94 9.48 11.06 6.47 17.57-3.99 5.95-14.43-1.58-15.67 6.87-12.07-5.77-4.19 13.23-15.28 13.61 2.36 7.01 0.27 12.02-6.93 13.2 2.36 11.28-12.66 11.06-8.49 21.1-2.82 7.98-1.54 18.65-7.36 26.05-14.62 14.93-40.8 17.02-58.12 11.17-0.58 3.21 1.63 8.27-2.05 10.3 3.61-14.21-8.06-27.82-21.77-30.15 2.17 7.1 1.66 8.54-4.59 4.34-7.22 11.52 11.62 30.54 22.22 17.55-0.65 6.63-6.44 8.45-12.29 8.89 4.48 1.64 9.27 2.29 13.96 1.3-3.56 5.6-10.38-0.57-13.04 2.94-8.23-1.04-11.89-10.53-20.85-9.7-12.73-5.95-8.97-31.79 8.72-25.48-2.56-6.14-6.26-12.69-5.36-20.24-16.31 1.8-32.39-4.07-48.18-7.79-1.95-5.26-2.56-11.54-10.24-10.55-0.62 9.75 8.5 17.02 7.83 26.47-23.75-2.53-56.05-19.87-48.69-48.66 7.13-11.28-14.9-4.32-9.26-15.29 5.17-10.49-16.73 0.35-11.98-13.43 19.24-9.22-16.48-0.3-11.26-12.74 0.31-3.6 3.84-4.64 6.58-5.98-6.67-1.59-19.49-2.44-17.94-12.17 1.33-4.64 9.45-1.02 9.66-5.29-8.9-3.79-21.49-5.59-24.81-16.31 0-7 8.72-4.46 13.3-5.35-9.36-7.07-23.34-13.02-25.07-26.15 5.92-13.82 22.24 3.83 28.32 5.07-12.84-17.62-16.79-39.81-17.47-61.08 5.18-5.54 14.09-1.39 16.87 4.73 20.05 32.29 26.61 76.41 63.42 95.51 11.86 3.63 21.52 11.88 29.15 21.49 7.95-13.4-18.14-25.36-3.95-38.91-14.14-21.97-33.8-42.08-60.23-47.63-2.63-4.73 5.81-2.97 7.91-4.51 23.34 1.04 46.84 10.97 62.63 27.96-5.03-19.52-18.51-35.79-35.27-46.56-2.06-1.88-6.44-2.8-5.46-6.34 29.63 2.34 51.59 26.49 63.37 52.02 2.61-10.64-4.07-19.88-5.35-29.98 14.61 8.44 22.83 27.58 23.93 44.5 8.61-2.51 0.28-18.92 2.87-24.58 12.02 13.86 12.07 36.19 8.56 54.22 10.15 4.53 26.49 9.22 24.59 24.48 1.9 10.84 9.57 32.2 23.36 24.78 14.31-10.56 19.95-30.57 18.51-47.66-4.67-14.75 11.04-23.53 19.88-32.07 27.63-29.04 59.42-54.06 84.94-85.08m0.67 6.72c-33.47 33.81-69.89 65.14-101.9 100.3 2.22 22.61-0.3 54-24.75 64.12-14.7 5.9-17.69-14.42-23.31-23.53 1.49-13.91-9.68-26.57-23.57-27.1-6.75-6.08 0.71-15.82 1.06-23.31-0.01-6.38 0.31-13.41-3.16-19.06-3 2.87-3.35 9.36-4.06 13.93-3.96 1.65-7.16 1.18-7.05-3.44 0.07-13.98-5.3-28.2-14.65-38.45 2.84 9.35 3.86 19.1 3.92 28.87-2.28 12.87-7.95-5.65-9.89-9.68-9.3-17.52-22.11-36.06-41.95-42.23 13.32 13.04 23.85 29.14 30.08 47.03 0.48 3.11 3.96 9.66-0.93 10.11-3.85-4.17-6.49-11-11.33-13.74-12.57-15.08-35.6-21.44-53.83-22.69 14.34 5.09 26.36 14.61 37.08 25.16 7.45 6.94 11.58 18.41 20.74 23.26 11.78-10.48 35.52-5.38 40.91 11.01-0.42 3.19-4.7 1.91-5.28-0.62-4.81-9.8-16.95-14.96-27.22-11.24-6.55 3.27 4.14 11.9 6.34 4.22 21.54-5.19 19.88 29.95 40.14 27.51 11.34 6.98 18.55 19.19 21.13 32.08 2.77 22.3-2.91 50.1-24.08 62.32-2.63 6.12 0.21 13.88 5 18.09 12.85 0.52 23.35 11.62 27.99 22.61 18.08 5.34 43.62 2.47 54.18-14.83 11.47-20.15-2.57-46.03-21.24-56.2 0.7-1.63 2.11-2.67 3.64-3.46 7.51 6.24 14.2 13.35 24.73 13.2-1.11-6.48-11.07-9.05-10.59-15.12 9-0.94 13.96 20.55 23.47 13.43 4.83-7.7-9.62-7.18-8.69-12.6 4.46-0.65 9.71 5.38 13.45 0.22 1.2-6.99-10.32-5.14-10.69-10.63 4.78-0.45 8.33 3.27 12.88 3.79 0.74-7.29-11.12-5.36-10.88-11.68 6.54 0.5 11.59 6.43 18.48 5.88-0.22-5.27-14.44-14.02-2.68-9.3 4.49 4.76 12.7 7.34 18.76 4.94 3.42-6.01-1.95-13.46-7.69-15.76-3.37-4-11.02-4.42-11.95-9.91 8.69 1.85 17.76 5.45 26.74 2.89-0.35-6.66-11.81-5.5-12.84-11.8 6.7 2.25 13.43 4.92 20.73 3.77 2.65-8.55-12.15-5.28-12.59-11.89 9.78 1.81 20.58 3.24 29.78-1.13-0.43-10.2-18.81-5.16-18.63-13.64 8.26-0.4 16.49-2.16 23.74-6.24-3.05-5.78-12.82-5.21-15.94-9.84 11.24-6.47 32.26-4.54 37.69-18.93-11.34-4.73-26.87 9.71-36.68 3.99 15.4-10.55 37.04-21 44.94-40.06-3.91-6.55-13.69-1.28-19.05 0.73-8.63 6.71-18.91 10.81-27.31 17.89-1.94 2.13-6.84 0.58-3.47-2.48 13.22-13.85 27.29-27.83 36.86-44.55 5.6-6.86 13.33-21.59 9.17-31.08-14.01-1.88-18.31 16.09-25.75 24.87m-335.94 6.76c-3.52 13.24 2.87 28.33 6.44 40.91 3.72 12.55 14.01 22.47 20.71 32.64-7.4 2.38-13.58-11.76-21.75-12.46-3.93-4-10.23-8.84-16.43-7.81-1.56 8.9 7.63 16.32 14.68 19.47 1.83 4.74 27.45 12.11 14.19 14.95-5.66-1.39-11.7-2.6-17.43-1.39 1.67 7.97 9.8 11.33 17.04 12.2 3.4 2.48 8.08 1.98 11.92 3.42 1.27 8.79-15.15 3.15-13.7 11.3 6.61 6.15 16.72 2.5 24.01 6.57-3.75 4.23-12.52 3.14-14.43 9.88 4.64 3.42 10.76 1.89 16.1 2.24 10.4-1.26 3.56 6.01-2.18 8.75-5.64 10.92 22.23-1.59 12.72 9.4-10.63 8.25 10.21 13.23 6.43 0.53 2.91-4.28 4.1-11.92 6.86-17.14 3.81-12.81 20.47-14.33 31.18-14.21-8.63-14.05-26.86-15.05-38.17-26.14-17.27-14.53-25.01-37.13-34.89-56.22-1.03-4.84-3.24-9.4-5.88-13.56-3.1-8.54-6.9-23.01-17.42-23.33m107.7 85.93c-9.46-1.16-8.61 10.37-4.05 14.94 3.76-1.8 1.75-10.59 9.48-7.53 11.26 1.74-2.67-6.85-5.43-7.41m18.15 2.06c-9.22 7.61 3.48 19.07 5.27 28.09 1.5 12.01 13.22 3.2 17.19-1.34-5.53-9.91-10.2-24.1-22.46-26.75m-13.91 7.87c-5.75 6.99-1.56 18.08 0.12 26.3 5.81 1.52 12.28 4.92 18.35 3.58-6.49-8.78-6.45-27.2-18.47-29.88m14.12 34.45c-16.54-5.36-34.76-8.71-51.77-3.85-10.83 11.28-12.06 28.23-15.52 42.82-5.67 25.11 20.45 39 40.63 44.46-4.49-11.18-11.54-24.21-3.69-35.74 12.77-15.53 36 1.27 50.11-11.97 8.06-8.67 6.43-21.8 7.13-32.62 5.97-3.02 7.68 7.05 10.8 10.04 6.2 7.98 13.53 21.32 4.55 30.16-5.67 8.76-15.6 5.2-23.91 4.15-9.34-4.94-23.61-1.4-34.69-4.03 2.1 11.82 6.11 26.68 19.5 30.02 16.27 6 39.52 3.04 45.26-16.02 12.9-23.69 9.03-57.68-15.2-71.86-12.14 1.98-20.53 14.98-33.2 14.44m30.54 12.95c0.41 11.27-2.93 22.4-12.12 29.58 4.81 4.61 15.82 5.42 20.36-0.78 9.1-8.89-1.68-24.15-8.24-28.8m-53.75 32.73c-4.06 1.08-4.32 6.1-5.29 9.49 3.54 4.46 14.39 2.73 11.21 10.52-1.34 4.11 3.83 4.25 6.54 4.94-5.79-7.26-3.86-22.17-12.46-24.95m146.01 13.85c-0.95 4.59 5.04 15.44 9.1 8.2 3.84-6.59-4.03-9.89-9.1-8.2m-96.71 43.23c-11.62 2.72-1.74 24.89 7.81 19.23-6.72-5.41 2.79-21.87-7.81-19.23z"/>
<path fill="#cc3367" d="m355.47 32.5c7.44-8.78 11.74-26.75 25.75-24.87 4.16 9.49-3.57 24.22-9.17 31.08-1.11-3.77 0.15-10.25-3.75-11.65-29.96 31.3-52.29 72.7-94.27 89.81-13.35 14.23-0.65 38.42-15.11 52.49 0.31 17.3-12.03 31.54-30.1 27.56 24.45-10.12 26.97-41.51 24.75-64.12 32.01-35.16 68.43-66.49 101.9-100.3z"/>
<path fill="#fd0165" d="m368.3 27.06c3.9 1.4 2.64 7.88 3.75 11.65-9.57 16.72-23.64 30.7-36.86 44.55-3.37 3.06 1.53 4.61 3.47 2.48 8.4-7.08 18.68-11.18 27.31-17.89 5.36-2.01 15.14-7.28 19.05-0.73-7.9 19.06-29.54 29.51-44.94 40.06 9.81 5.72 25.34-8.72 36.68-3.99-5.43 14.39-26.45 12.46-37.69 18.93 3.12 4.63 12.89 4.06 15.94 9.84-7.25 4.08-15.48 5.84-23.74 6.24-0.18 8.48 18.2 3.44 18.63 13.64-9.2 4.37-20 2.94-29.78 1.13 0.44 6.61 15.24 3.34 12.59 11.89-7.3 1.15-14.03-1.52-20.73-3.77 1.03 6.3 12.49 5.14 12.84 11.8-8.98 2.56-18.05-1.04-26.74-2.89 0.93 5.49 8.58 5.91 11.95 9.91-3.86 3.43-7.53 7.07-11.07 10.82-11.76-4.72 2.46 4.03 2.68 9.3-6.89 0.55-11.94-5.38-18.48-5.88-0.24 6.32 11.62 4.39 10.88 11.68-4.55-0.52-8.1-4.24-12.88-3.79 0.37 5.49 11.89 3.64 10.69 10.63-3.74 5.16-8.99-0.87-13.45-0.22-0.93 5.42 13.52 4.9 8.69 12.6-9.51 7.12-14.47-14.37-23.47-13.43-0.48 6.07 9.48 8.64 10.59 15.12-10.53 0.15-17.22-6.96-24.73-13.2 11.35-3.35 18.49-14.29 25-21.03 9.14-0.44-5.14-10.34 4.82-9.24 7.79-0.88 1.67-9.52-3.7-9.74 7.09-1.96 14.57-2.66 21.42-5.41 4.22-7.21-10.79-1.91-10.69-6.82 13.24-3.72 25.58-9.95 38.49-14.58-5.17-7.88-19.62 0.73-26.79-1.51 11.1-6.96 22.85-12.95 33.47-20.66 1.74-1.34 4.06-5.16 0.75-6.03-10.94-1.72-20.19 5.35-30.1 8.65 9.08-8.83 20.33-16.08 27.09-27.17 3.45-5.22-2.58-10.5-7.59-8.5-19.95 7.95-31.61 26.82-49.58 37.65-1.99-0.13-2.71 4.04-0.34 2.58 17.52-8.14 29.17-24.7 45.48-34.63 2.5-1.74 10.15-3.71 8.35 1.35-9.72 17.03-26.93 27.57-41.82 39.48-2.1 2.77 1.02 3.61 3.19 2.15 12.87-8.22 26.26-17.45 41.83-19.29-12.39 16.2-35.59 20.69-50.92 33.3 12.43-0.95 24.78-8.67 38.15-8.24-12.02 9.11-27.42 13.13-41.97 16.39 0.38 7.79 14.29-1.54 17.28 4.6-7.75 3.48-16.44 3.34-24.71 4.42-0.78 5.97 9.66 3.46 12.58 7.78-2.87 5.95-11.89 2.79-16.95 3.05-0.89 6.19 11.27 1.63 10.76 8.03-3.99 1.57-11.43-1.85-13.07 2.59 2.63 1.66 8.43 1.48 6.97 5.94-4.92 5.1-12.81 1.32-18.95 3.41-0.51 6.07 11.5-0.06 9.54 5.32-9.23 3.43-16.6-1.52-11.63 9.62 18.67 10.17 32.71 36.05 21.24 56.2-1.71 0.34-3.47 0.48-5.11-0.19 2.76-14.04-1.58-38.21-19.92-37.9-10.95-2.49-8.95 11.45-17.23 14.22-5.15 15.64 13.02 20.28 22.6 26.14-11.41 3.6-30.53 10-34.55-6.43-18.52-26.16 16.22-60.93-8.88-84.03-2.58-12.89-9.79-25.1-21.13-32.08-20.26 2.44-18.6-32.7-40.14-27.51-2.2 7.68-12.89-0.95-6.34-4.22 10.27-3.72 22.41 1.44 27.22 11.24 0.58 2.53 4.86 3.81 5.28 0.62-5.39-16.39-29.13-21.49-40.91-11.01-9.16-4.85-13.29-16.32-20.74-23.26 5.53-1.16 11.14-1.82 16.75-2.47 4.84 2.74 7.48 9.57 11.33 13.74 4.89-0.45 1.41-7 0.93-10.11 4.02-1.43 8.08-2.81 11.87-4.8 1.94 4.03 7.61 22.55 9.89 9.68 3.76 2.98 7.02 6.52 10.73 9.58-0.11 4.62 3.09 5.09 7.05 3.44 0.76 3.49 4.03 4.72 7.22 5.13-0.35 7.49-7.81 17.23-1.06 23.31 13.89 0.53 25.06 13.19 23.57 27.1 5.62 9.11 8.61 29.43 23.31 23.53 18.07 3.98 30.41-10.26 30.1-27.56 14.46-14.07 1.76-38.26 15.11-52.49 41.98-17.11 64.31-58.51 94.27-89.81z"/>
<path fill="#cb6697" d="m19.53 39.26c10.52 0.32 14.32 14.79 17.42 23.33-5.1 4.91-8.73 10.92-10.98 17.58-3.57-12.58-9.96-27.67-6.44-40.91z"/>
<path fill="#fc99fb" d="m106.16 52.92c19.84 6.17 32.65 24.71 41.95 42.23-3.79 1.99-7.85 3.37-11.87 4.8-6.23-17.89-16.76-33.99-30.08-47.03z"/>
<path fill="#fc0165" d="m25.97 80.17c2.25-6.66 5.88-12.67 10.98-17.58 2.64 4.16 4.85 8.72 5.88 13.56 2.48 16.49 7.6 32.55 16.15 46.91 2.94 3.09-1.67 4.2-3.72 5.02 0.77 4.14 5.04 6.65 5.78 10.71-6.99 5.8-7.26 17.3 2.83 18.36-2.28 4.44 1.01 10.87-2.99 14.03-5.34-0.35-11.46 1.18-16.1-2.24 1.91-6.74 10.68-5.65 14.43-9.88-7.29-4.07-17.4-0.42-24.01-6.57-1.45-8.15 14.97-2.51 13.7-11.3-3.84-1.44-8.52-0.94-11.92-3.42 0.47-3.58 0.59-7.21 0.39-10.81 13.26-2.84-12.36-10.21-14.19-14.95 0.91-3.84 1.43-7.74 1.75-11.66 8.17 0.7 14.35 14.84 21.75 12.46-6.7-10.17-16.99-20.09-20.71-32.64z"/>
<path fill="#fd99fc" d="m70.15 73.63c18.23 1.25 41.26 7.61 53.83 22.69-5.61 0.65-11.22 1.31-16.75 2.47-10.72-10.55-22.74-20.07-37.08-25.16z"/>
<path fill="#cc3367" d="m42.83 76.15c9.88 19.09 17.62 41.69 34.89 56.22 8.3 18.75-0.81 38.03 0.13 57.49 3.78 12.7-17.06 7.72-6.43-0.53 9.51-10.99-18.36 1.52-12.72-9.4 5.74-2.74 12.58-10.01 2.18-8.75 4-3.16 0.71-9.59 2.99-14.03-10.09-1.06-9.82-12.56-2.83-18.36-0.74-4.06-5.01-6.57-5.78-10.71 2.05-0.82 6.66-1.93 3.72-5.02-8.55-14.36-13.67-30.42-16.15-46.91z"/>
<path fill="#fd99fb" d="m154.08 75.96c9.35 10.25 14.72 24.47 14.65 38.45-3.71-3.06-6.97-6.6-10.73-9.58-0.06-9.77-1.08-19.52-3.92-28.87z"/>
<path fill="#a70010" d="m321.65 91.5c5.01-2 11.04 3.28 7.59 8.5-6.76 11.09-18.01 18.34-27.09 27.17 9.91-3.3 19.16-10.37 30.1-8.65 3.31 0.87 0.99 4.69-0.75 6.03-10.62 7.71-22.37 13.7-33.47 20.66 7.17 2.24 21.62-6.37 26.79 1.51-12.91 4.63-25.25 10.86-38.49 14.58-0.1 4.91 14.91-0.39 10.69 6.82-6.85 2.75-14.33 3.45-21.42 5.41 5.37 0.22 11.49 8.86 3.7 9.74-9.96-1.1 4.32 8.8-4.82 9.24-6.51 6.74-13.65 17.68-25 21.03-1.53 0.79-2.94 1.83-3.64 3.46-4.97-11.14 2.4-6.19 11.63-9.62 1.96-5.38-10.05 0.75-9.54-5.32 6.14-2.09 14.03 1.69 18.95-3.41 1.46-4.46-4.34-4.28-6.97-5.94 1.64-4.44 9.08-1.02 13.07-2.59 0.51-6.4-11.65-1.84-10.76-8.03 5.06-0.26 14.08 2.9 16.95-3.05-2.92-4.32-13.36-1.81-12.58-7.78 8.27-1.08 16.96-0.94 24.71-4.42-2.99-6.14-16.9 3.19-17.28-4.6 14.55-3.26 29.95-7.28 41.97-16.39-13.37-0.43-25.72 7.29-38.15 8.24 15.33-12.61 38.53-17.1 50.92-33.3-15.57 1.84-28.96 11.07-41.83 19.29-2.17 1.46-5.29 0.62-3.19-2.15 14.89-11.91 32.1-22.45 41.82-39.48 1.8-5.06-5.85-3.09-8.35-1.35-16.31 9.93-27.96 26.49-45.48 34.63-2.37 1.46-1.65-2.71 0.34-2.58 17.97-10.83 29.63-29.7 49.58-37.65z"/>
<path fill="#cb6698" d="m8.5 92.54c6.2-1.03 12.5 3.81 16.43 7.81-0.32 3.92-0.84 7.82-1.75 11.66-7.05-3.15-16.24-10.57-14.68-19.47z"/>
<path fill="#fc99fa" d="m175.78 117.85c0.71-4.57 1.06-11.06 4.06-13.93 3.47 5.65 3.15 12.68 3.16 19.06-3.19-0.41-6.46-1.64-7.22-5.13z"/>
<path fill="#cb6697" d="m19.94 125.57c5.73-1.21 11.77 0 17.43 1.39 0.2 3.6 0.08 7.23-0.39 10.81-7.24-0.87-15.37-4.23-17.04-12.2z"/>
<path fill="#f70465" d="m127.23 125.19c2.76 0.56 16.69 9.15 5.43 7.41-7.73-3.06-5.72 5.73-9.48 7.53-4.56-4.57-5.41-16.1 4.05-14.94z"/>
<path fill="#fcfdcd" d="m145.38 127.25c12.26 2.65 16.93 16.84 22.46 26.75-3.97 4.54-15.69 13.35-17.19 1.34-1.79-9.02-14.49-20.48-5.27-28.09m4.11 12.99c-6.24 3.97 4.4 18.05 10.27 12.81-1.21-4.9-3.89-13.86-10.27-12.81z"/>
<path fill="#980134" d="m77.72 132.37c11.31 11.09 29.54 12.09 38.17 26.14-10.71-0.12-27.37 1.4-31.18 14.21-2.76 5.22-3.95 12.86-6.86 17.14-0.94-19.46 8.17-38.74-0.13-57.49z"/>
<path fill="#fcfcce" d="m131.47 135.12c12.02 2.68 11.98 21.1 18.47 29.88-6.07 1.34-12.54-2.06-18.35-3.58-1.68-8.22-5.87-19.31-0.12-26.3m2.83 10.04c-5.58 4.78-1.26 18.78 7.05 15.19 1.19-5.03-2.62-13.45-7.05-15.19z"/>
<path fill="#020101" d="m149.49 140.24c6.38-1.05 9.06 7.91 10.27 12.81-5.87 5.24-16.51-8.84-10.27-12.81z"/>
<path fill="#020201" d="m134.3 145.16c4.43 1.74 8.24 10.16 7.05 15.19-8.31 3.59-12.63-10.41-7.05-15.19z"/>
<path fill="#fe9934" d="m145.59 169.57c12.67 0.54 21.06-12.46 33.2-14.44 24.23 14.18 28.1 48.17 15.2 71.86-5.74 19.06-28.99 22.02-45.26 16.02-0.83-9.53 1.8-27.59 15.19-25.99 8.31 1.05 18.24 4.61 23.91-4.15 8.98-8.84 1.65-22.18-4.55-30.16-3.12-2.99-4.83-13.06-10.8-10.04-0.7 10.82 0.93 23.95-7.13 32.62-14.11 13.24-37.34-3.56-50.11 11.97-7.85 11.53-0.8 24.56 3.69 35.74-20.18-5.46-46.3-19.35-40.63-44.46 3.46-14.59 4.69-31.54 15.52-42.82 17.01-4.86 35.23-1.51 51.77 3.85m-35.91 7.8c-14.57 5.87-15.9 27.86-13.7 41.44-0.27 3.77 7.4 7.56 7.84 3.53-7.49-16.62 9.29-37.42 27.19-33.57 5.6 1.23 30.08-8.71 13.85-7.01-12.2 4.21-22.85-7.62-35.18-4.39z"/>
<path fill="#fefdca" d="m109.68 177.37c12.33-3.23 22.98 8.6 35.18 4.39 16.23-1.7-8.25 8.24-13.85 7.01-17.9-3.85-34.68 16.95-27.19 33.57-0.44 4.03-8.11 0.24-7.84-3.53-2.2-13.58-0.87-35.57 13.7-41.44z"/>
<path fill="#cb6697" d="m298.96 190.73c3.54-3.75 7.21-7.39 11.07-10.82 5.74 2.3 11.11 9.75 7.69 15.76-6.06 2.4-14.27-0.18-18.76-4.94z"/>
<path fill="#980101" d="m176.13 182.52c6.56 4.65 17.34 19.91 8.24 28.8-4.54 6.2-15.55 5.39-20.36 0.78 9.19-7.18 12.53-18.31 12.12-29.58z"/>
<path fill="#cc3367" d="m203.99 185.01c25.1 23.1-9.64 57.87 8.88 84.03 4.02 16.43 23.14 10.03 34.55 6.43 4.97 0.17 10.65 1.44 14.55-2.46 1.64 0.67 3.4 0.53 5.11 0.19-10.56 17.3-36.1 20.17-54.18 14.83-4.64-10.99-15.14-22.09-27.99-22.61-4.79-4.21-7.63-11.97-5-18.09 21.17-12.22 26.85-40.02 24.08-62.32z"/>
<path fill="#d7730e" d="m129.23 212.99c11.08 2.63 25.35-0.91 34.69 4.03-13.39-1.6-16.02 16.46-15.19 25.99-13.39-3.34-17.4-18.2-19.5-30.02z"/>
<path fill="#963364" d="m122.38 215.25c8.6 2.78 6.67 17.69 12.46 24.95-2.71-0.69-7.88-0.83-6.54-4.94 3.18-7.79-7.67-6.06-11.21-10.52 0.97-3.39 1.23-8.41 5.29-9.49z"/>
<path fill="#f70565" d="m268.39 229.1c5.07-1.69 12.94 1.61 9.1 8.2-4.06 7.24-10.05-3.61-9.1-8.2z"/>
<path fill="#100101" d="m224.82 249.33c8.28-2.77 6.28-16.71 17.23-14.22 18.34-0.31 22.68 23.86 19.92 37.9-3.9 3.9-9.58 2.63-14.55 2.46-9.58-5.86-27.75-10.5-22.6-26.14m13.92-11.07c-3.29 1.48-5.25 5.08-4.15 8.59-11.21 4.23-2.18 21.38 7.86 18.8 5.28-5.8-12.29-16.5-3.88-19.51 3.33 6.64 7.61 15.34 16.09 15.72 6.64-9.21-4.36-26.25-15.92-23.6z"/>
<path fill="#fc9935" d="m238.74 238.26c11.56-2.65 22.56 14.39 15.92 23.6-8.48-0.38-12.76-9.08-16.09-15.72-8.41 3.01 9.16 13.71 3.88 19.51-10.04 2.58-19.07-14.57-7.86-18.8-1.1-3.51 0.86-7.11 4.15-8.59z"/>
<path fill="#020504" d="m267.45 277.74c5.82-7.4 4.54-18.07 7.36-26.05 3.24 10.9-3.28 21.27-6.47 31.1 23.64 24.51 43.97 51.97 62.16 80.7 5.82 12.66 3.8 33.65-10.43 39.51 1.89 5.18 7.79 13.97-0.25 16.07-14.95 8-26.13-6.41-33.97-17.06-8.2 3.87-19.54 4.67-25.22-3.78-23.42-28.47-20.8-67.63-29.29-101.55-5.92-3.07-12.96-0.15-19.15-2.6-2.12 8.94-12.01 12.3-20.42 10 2.66-3.51 9.48 2.66 13.04-2.94 0.85-0.61 1.67-1.25 2.47-1.93 3.68-2.03 1.47-7.09 2.05-10.3 17.32 5.85 43.5 3.76 58.12-11.17m-5.17 7.52c21.13 31.35 48.01 61.32 65.99 95.62 5.25-0.76 1.3-9.23 0.1-12.16-18.7-29.71-40-61.52-66.09-83.46m-6 4c-3.44 1.41-1.73 5.28 0.13 7.27 22.61 32.88 38.3 70.06 61.89 102.46 9.66-0.73 10.51-14.02 4.75-20.05-20.45-30.87-40.9-64.26-66.77-89.68m-10.09 3.95c0.78 9.51 5.5 19.32 8.76 27.58 12.69 29.4 21.71 61.12 41.35 86.86 5.12 6.27 16.24 14.68 23.61 7.11-1.79-13.16-12.25-22.23-18.27-33.4-12.96-19.38-21.38-41.33-34.51-60.6-6.27-9.17-10.54-24.51-20.94-27.55m-6.52 32.92c4.84 23.54 7.76 49.41 23.54 68.6 3.8 5.63 15.49 9.6 19.79 3.2-11.86-24.94-22.45-50.91-31.91-77.01-3.5-8.64-5.48-20.7-11.95-25.86-5.98 7.46 2.23 21.53 0.53 31.07z"/>
<path fill="#fa9937" d="m185.51 269.06c13.71 2.33 25.38 15.94 21.77 30.15-0.8 0.68-1.62 1.32-2.47 1.93-4.69 0.99-9.48 0.34-13.96-1.3 5.85-0.44 11.64-2.26 12.29-8.89-10.6 12.99-29.44-6.03-22.22-17.55 6.25 4.2 6.76 2.76 4.59-4.34m5.83 8.48c-1.48 5.23 5.87 9.04 10.43 9.4-0.84-4.22-8.02-8.12-10.43-9.4z"/>
<path fill="#ca9836" d="m171.68 272.33c10.6-2.64 1.09 13.82 7.81 19.23-9.55 5.66-19.43-16.51-7.81-19.23z"/>
<path fill="#190200" d="m191.34 277.54c2.41 1.28 9.59 5.18 10.43 9.4-4.56-0.36-11.91-4.17-10.43-9.4z"/>
<path fill="#09c8f7" d="m262.28 285.26c26.09 21.94 47.39 53.75 66.09 83.46 1.2 2.93 5.15 11.4-0.1 12.16-17.98-34.3-44.86-64.27-65.99-95.62z"/>
<path fill="#02fd03" d="m256.28 289.26c25.87 25.42 46.32 58.81 66.77 89.68 5.76 6.03 4.91 19.32-4.75 20.05-23.59-32.4-39.28-69.58-61.89-102.46-1.86-1.99-3.57-5.86-0.13-7.27z"/>
<path fill="#6534c8" d="m246.19 293.21c10.4 3.04 14.67 18.38 20.94 27.55-3.69-0.41-10.1-3.97-12.18 0.03-3.26-8.26-7.98-18.07-8.76-27.58z"/>
<path fill="#049604" d="m239.67 326.13c1.7-9.54-6.51-23.61-0.53-31.07 6.47 5.16 8.45 17.22 11.95 25.86-5.39-5.2-11.69-2.24-11.42 5.21z"/>
<path fill="#3c3" d="m239.67 326.13c-0.27-7.45 6.03-10.41 11.42-5.21 9.46 26.1 20.05 52.07 31.91 77.01-4.3 6.4-15.99 2.43-19.79-3.2-15.78-19.19-18.7-45.06-23.54-68.6z"/>
<path fill="#9966fd" d="m254.95 320.79c2.08-4 8.49-0.44 12.18-0.03 13.13 19.27 21.55 41.22 34.51 60.6 6.02 11.17 16.48 20.24 18.27 33.4-7.37 7.57-18.49-0.84-23.61-7.11-19.64-25.74-28.66-57.46-41.35-86.86z"/>
<path fill="#0c0102" d="m354.77 25.75c6.4-9.47 14.15-23.43 27.66-21.57 6.98 2.94 4.08 12.46 1.59 17.84-5.69 19.63-19.77 35.03-32.75 50.17 10.94-4.44 26.68-17.71 37.52-6.58-2.92 18.32-24.28 25.05-35.7 37.5 9.13-0.3 21.46-8.68 28.76-0.58-2.23 14.85-22.5 15.42-33.68 19.6 1.68 4.87 12.08 3.54 11.85 10.8-3.56 5.15-11.74 4.73-17.07 7.89 4.54 3.34 12.78 5.14 10.74 12.6-3.36 7.41-24.89-2.01-17.25 8.51 6.09 10.87-13.74 1.38-7.82 9.65 1.4 7.6-11.82 3.16-15.95 3.75 2.57 6.5 12.21 11.13 9.14 20.05-2.43 8.2-14.67-0.23-16.44 8.26-11.69-5.34-4.35 13.28-15.07 13.82 5.92 11.96-9.22 9.96-8.53 20.18-0.04 6.15-10.77 4.45-6.89 11.28-5.46 2.32 0.36 8.74-1.86 13.13-2.13 27.66-37.79 33.41-59.42 27.99-7.55-5.68-2.86 5.52-6.22 9.04 3.49-13.39-8.66-29.51-22.16-29.2 2.67 6.21 1.73 8.18-3.58 3.11-9 11.54 10.97 30.99 21.58 18.01-0.88 6.43-6.57 8.49-12.38 8.91 4.58 1.22 9.36 2.4 14.09 1.22-3.19 1.45-6.45 2.83-9.91 3.51-9.54 0.43-13.92-10.19-23.28-10.1-8.58-2.02-8.81-13.65-7.07-20.59 0.83-7.42 13.7-1.19 15.19-6.57-5-5.1-5.08-12.1-5.38-18.88-11.11 0.22-22.67 0.89-32.92-4.23-5.04-2.55-14.75 0.62-16.96-6.14 1.44-6.04-4.25-7.63-8.74-7.82-0.6 9.76 8.47 16.97 7.79 26.46-23.73-2.52-55.96-19.83-48.65-48.6 4.55-7.51-3.7-7.26-8.1-9.1-5.94-1.83 5.27-14.22-4.69-11.34-9.91 3.41-11.44-11.67-1.74-12.25-9.72 2.41-27.36-7.69-12.14-14.43-3.53-2.2-19.55-2.38-17.14-12.54 1.3-4.54 9.29-1.02 9.59-5.29-8.87-3.85-21.52-5.56-24.8-16.33 0.07-6.89 8.75-4.43 13.27-5.33-8.53-6.66-19.67-11.06-24.01-21.88-3.61-4.91 2.93-11.63 8.29-9.6 6.92 2.82 12.82 7.49 19.36 11.03-12.94-17.8-17.27-40.15-17.76-61.67 4.69-5.35 13.73-1.78 16.41 4.12 20.43 32.33 26.75 76.88 63.83 96.09 11.89 3.63 21.48 11.98 29.23 21.5 7.56-13.69-18.03-25.29-4.09-38.93-13.96-21.72-33.28-41.71-59.36-47.4-4.73-3.56 4.78-4.14 7.09-4.67 23.35 1 46.73 10.77 62.62 27.97-4.95-19.27-18.1-35.57-34.71-46.18-2.15-2.1-6.84-3.07-6.01-6.82 29.66 2.39 51.52 26.52 63.4 52 2.39-10.62-4.01-19.86-5.4-29.96 14.73 8.51 22.72 27.58 23.99 44.49 8.4-2.33 0.39-18.92 2.8-24.52 11.52 13.66 12.97 35.52 8.19 53.48 7.58 6.1 23.85 6.61 24.31 20.18 1.32 11.66 6.3 30.81 19.86 31.46 18.06-7.69 23.91-31.35 22.7-49.31-4.66-14.8 11.03-23.5 19.85-32.09 27.65-29.02 59.46-54.03 84.93-85.1m15.88-13.88c-25.62 37.46-65.17 64.8-95.49 99.29-9.28 9.18-26.69 17.82-20.94 33.47 0.4 19.5-5.13 44.42-25.4 52.33-14.7 5.71-17.77-14.44-23.3-23.61 1.51-14.36-10.26-26.6-24.31-27.37-5.29-6.97 1.31-15.43 1.8-22.97-0.84-5.86 1.28-15.18-4.12-19.16-1.13 4.64-2.75 9.23-3.19 14.01-3.81 1.24-7.07 1.09-7.02-3.41 0.18-14.05-5.27-28.08-14.54-38.56 2.65 9.42 3.75 19.11 3.93 28.89-2.56 12.87-7.87-5.56-9.97-9.6-9.26-17.57-22.12-36.08-41.97-42.27 13.46 13.15 23.82 29.12 30.12 47.02 0.94 3.06 3.82 9.41-0.89 10.16-4.22-3.94-6.64-10.92-11.41-13.8-12.62-15.07-35.38-21.33-53.79-22.69 14.37 5.17 26.35 14.73 37.19 25.2 7.05 6.98 11.59 18.32 20.58 23.25 10.25-8.76 29.79-6.99 37.79 5.31 2.3 1.87 5.26 8.69-0.27 7.44-5.55-10.75-20.72-20.38-31.35-11.44 0.71 5.88 6.4 6.8 9.4 1.72 21.07-3.51 19.25 30.01 39.31 27.9 11.43 6.81 18.56 19.19 21.19 32.03 2.77 22.32-2.98 50.07-24.07 62.38-2.6 6.05 0.13 14.01 5.03 18 12.83 0.7 23.23 11.57 27.94 22.64 18.17 5.35 43.36 2.45 54.29-14.75 11.17-20.36-2.6-45.87-21.21-56.32 0.95-1.34 1.99-2.7 3.51-3.45 7.37 6.28 14.26 13.42 24.71 13.19-1.59-6.17-9.38-8.8-11-14.46 4.72-3.59 7.99 7.62 13.13 8.04-0.49 4.81 8.44 9.87 11.13 4.03 2.7-5.65-5.31-8.39-9.42-9.03 0.51-1.41 1.67-2.4 2.6-3.52 8.27 9.76 16.8-5.38 3.69-5.6-4.59-2.91-3.23-5.3 2.41-3.3 5.36 5.95 13.01 0.97 2.48-2.99-9.18-2.53-5.89-9.05 2.86-2.65 1.84 3.14 6.64 2.67 9.88 3.57-0.13-3.92-3.59-7.07-6.96-8.58-3.12-4.68 0.79-2.79 3.97-1.52 4.43 4.81 12.71 7.39 18.72 4.96 3.51-6.02-1.98-13.38-7.66-15.76-3.47-3.9-10.86-4.49-12.01-9.92 5.88 1.26 11.62 3.29 17.67 3.6 6.93 3.54 13-3.47 4.62-5.65-2.61-2.37-8.08-2.72-8.23-6.91 4.17 0.84 7.85 3.14 11.97 4.14 7.76 5.08 14.02-5.37 4.4-6.22-2.55-2.28-8.63-1.72-8.3-6.03 4.58 0.41 9.06 1.52 13.63 2.06 7.94 0.91 26.36-4.83 8.57-10.05-3.2-2.58-12.56-0.72-11.04-6.69 8.22-0.59 16.44-2.37 23.77-6.25-2.74-6.4-14.67-4.25-15.81-10.72 8.96-2.69 18.43-3.89 26.91-8.1 9.32-1.05 15.4-15.42 1.89-9.92-9.35-2.17-21.77 10.9-28.01 3.17 12.45-5.91 23.59-14.31 33.76-23.57 8.25-3.27 17.49-23.31 2.18-17.64-14.84 2.21-26.28 14.67-39.33 21.44-2.14 1.04-3.84-2.03-1.45-3.34 12.98-13.98 27.53-27.72 36.63-44.59 6.14-5.54 8.69-16.6 10.72-25.1 3.15-9.03-9.56-7.43-11.92-1.73m-351.14 27.36c-3.45 13.35 2.83 28.22 6.46 40.94 3.81 12.61 13.8 22.34 20.88 32.69-7.9 2.19-13.55-11.7-21.91-12.46-3.84-4.21-10.22-8.76-16.44-7.84-1.46 8.91 7.56 16.4 14.71 19.37 1.81 5.05 27.34 11.97 14.17 15.06-5.66-1.56-11.64-2.46-17.49-1.51 1.69 8.04 9.81 11.44 17.13 12.3 3.38 2.46 8.05 1.94 11.86 3.4 1.28 8.79-15.04 3.17-13.73 11.32 6.74 5.97 16.61 2.79 24.17 6.46-3.99 4.46-12.6 3.19-14.6 10.02 4.73 3.27 10.81 1.92 16.17 2.28 14.79-0.19-6.09 6.31-2.24 13.26 5.22-0.29 22.25-2.33 11.4 6.53-7.27 8.35 12.29 9.46 7.77-1.2 3.13-4.22 3.96-11.98 6.88-17.14 3.91-12.68 20.09-14.37 31.16-14.11-8.49-14.18-26.84-15.14-38.18-26.21-17.23-14.66-24.91-37.01-34.86-56.25-0.99-4.87-3.27-9.39-5.88-13.57-3.08-8.59-6.92-22.96-17.43-23.34m107.69 85.95c-9.47-1.05-8.47 10.32-4.08 15.01 3.87-1.95 1.86-10.56 9.58-7.52 11.17 1.75-2.64-7.06-5.5-7.49m18.16 2.07c-9.13 7.65 3.47 19.08 5.28 28.09 1.9 12.03 11.86 3.09 17.3-0.56-5-10.39-10.27-24.67-22.58-27.53m-13.91 7.9c-5.65 6.88-1.62 18.11 0.16 26.27 5.8 1.68 12.23 4.77 18.35 3.63-6.47-8.76-6.48-27.32-18.51-29.9m14.17 34.36c-16.92-4.63-36.23-11.13-53.01-2.85-10.65 15.95-15.08 36.51-14.13 55.53 4.76 17.86 24.3 25.78 40.43 30.84-4.43-11.19-11.47-24.18-3.7-35.71 12.69-15.61 36.03 1.19 50.14-12.01 8.58-8.68 5.54-23.07 7.81-33.03 9.61 1.58 11.97 17.01 17.77 23.93 6.33 16.07-13.2 27.82-27 20.79-9.36-4.95-23.65-1.35-34.73-4.06 2.16 11.87 6.1 26.71 19.52 30.04 10.41 3.32 23.46 4.33 33.22-1.17 22.85-19.17 26.58-58.77 5.05-80.87-12.98-16-26.64 11.03-41.37 8.57m30.55 13.14c0.31 11.24-3.05 22.29-12.13 29.48 4.8 4.58 15.86 5.36 20.35-0.83 9.06-8.81-1.75-24.35-8.22-28.65m-53.8 32.59c-3.75 1.2-4.87 5.91-5.25 9.4 3.37 4.62 14.11 2.85 11.21 10.62-1.85 5.19 10.9 6.79 4.8 0.55-4.89-5.82-2.94-19-10.76-20.57m146.05 13.84c-1.01 4.68 5.01 15.48 9.1 8.22 3.64-6.71-3.94-9.73-9.1-8.22m-96.76 43.28c-11.69 2.77-1.52 24.86 7.74 19.25-6.28-5.49 2.74-21.88-7.74-19.25z"/>
<path fill="#cb6597" d="m370.65 11.87c2.36-5.7 15.07-7.3 11.92 1.73-2.03 8.5-4.58 19.56-10.72 25.1-0.27-2.87-0.44-5.74-0.82-8.6-0.66-6.04-1.31-12.19-0.38-18.23z"/>
<path fill="#cc3367" d="m275.16 111.16c30.32-34.49 69.87-61.83 95.49-99.29-0.93 6.04-0.28 12.19 0.38 18.23-0.73-1.28-0.9-3.64-2.92-3.07-29.42 32.23-52.55 72.76-94.51 90.36-12.76 14.17 0.01 38.19-14.64 52.06 0.66 17.69-12.38 31.1-30.14 27.51 20.27-7.91 25.8-32.83 25.4-52.33-5.75-15.65 11.66-24.29 20.94-33.47z"/>
<path fill="#fd0165" d="m368.11 27.03c2.02-0.57 2.19 1.79 2.92 3.07 0.38 2.86 0.55 5.73 0.82 8.6-9.1 16.87-23.65 30.61-36.63 44.59-2.39 1.31-0.69 4.38 1.45 3.34 13.05-6.77 24.49-19.23 39.33-21.44-0.21 5.92-0.01 12.02-2.18 17.64-10.17 9.26-21.31 17.66-33.76 23.57 6.24 7.73 18.66-5.34 28.01-3.17-0.52 3.32-0.97 6.67-1.89 9.92-8.48 4.21-17.95 5.41-26.91 8.1 1.14 6.47 13.07 4.32 15.81 10.72-7.33 3.88-15.55 5.66-23.77 6.25-1.52 5.97 7.84 4.11 11.04 6.69-3.01 3.22-5.62 6.78-8.57 10.05-4.57-0.54-9.05-1.65-13.63-2.06-0.33 4.31 5.75 3.75 8.3 6.03-1.46 2.08-2.91 4.16-4.4 6.22-4.12-1-7.8-3.3-11.97-4.14 0.15 4.19 5.62 4.54 8.23 6.91-1.49 1.92-2.99 3.84-4.62 5.65-6.05-0.31-11.79-2.34-17.67-3.6 1.15 5.43 8.54 6.02 12.01 9.92-3.81 3.47-7.45 7.13-11.06 10.8-3.18-1.27-7.09-3.16-3.97 1.52-0.64 1.85-1.65 3.53-2.92 5.01-8.75-6.4-12.04 0.12-2.86 2.65-0.83 0.99-1.65 1.99-2.48 2.99-5.64-2-7 0.39-2.41 3.3-1.21 1.88-2.41 3.77-3.69 5.6-0.93 1.12-2.09 2.11-2.6 3.52-0.69 1.62-1.2 3.31-1.71 5-5.14-0.42-8.41-11.63-13.13-8.04 1.62 5.66 9.41 8.29 11 14.46-10.45 0.23-17.34-6.91-24.71-13.19 8.98-3.75 18.41-9.94 21.52-19.47 7.19-1.08 7.46-4.77 4.41-10.05 9.79 1.26 8.94-9.32 0.24-10.5 7.06-1.88 14.56-2.58 21.31-5.44 4.32-7-10.72-1.8-10.62-6.76 13.08-4.19 26.88-9.41 38.52-15.39-6.89-6.21-19.24 1.28-26.86-0.68 11.1-7 22.89-12.92 33.5-20.68 1.75-1.3 3.96-5.19 0.73-6.03-10.95-1.6-20.18 5.4-30.14 8.62 9.53-8.96 20.87-16.43 27.57-28.02 2.53-5.37-4.13-9.78-8.68-7.3-19.8 9.3-34.39 27.23-50.74 40.23 20.46-7.42 31.88-29.08 52-37.04 7.86 0.37-0.27 9.05-2.45 11.84-8.73 14.49-28.71 20.26-36.6 33.99 15.18-5.08 29.19-20.35 45.62-19.2-13.36 14.93-36.25 20.67-50.47 32.16 11.29-0.18 24.64-8.66 37.66-7.93-12.09 9.15-27.43 13.06-41.99 16.39 0.67 7.65 14.02-1.39 17.33 4.59-8.05 3.56-17.12 3.04-25.57 4.96 2.54 5.07 9.75 3.42 13.48 7.22-3.04 5.92-11.87 2.77-16.99 3.08-0.33 5.1 7.9 3.2 11.05 6.09-1.64 5.6-11.59-0.65-13.41 4.48 2.72 1.67 8.25 1.59 7.1 6.06-5.27 4.76-12.84 1.43-19.11 3.31 0.31 5.73 9 0.27 10.32 4.87-8.5 4.03-18.1-1.31-12.24 10.05 18.61 10.45 32.38 35.96 21.21 56.32-1.74 0.06-3.47-0.05-5.2-0.18 2.63-13.96-1.55-38.37-19.97-37.93-10.76-2.28-10.2 12.03-17.68 15.94-2.9 14.96 13.82 18.55 23.19 24.27-8.72 3.79-18.5 4.02-27.83 3.48-18.73-18.08-10.89-44.76-6.36-66.86 4.51-10.98-3.82-18.86-9.34-26.99-2.63-12.84-9.76-25.22-21.19-32.03-20.06 2.11-18.24-31.41-39.31-27.9-3 5.08-8.69 4.16-9.4-1.72 10.63-8.94 25.8 0.69 31.35 11.44 5.53 1.25 2.57-5.57 0.27-7.44-8-12.3-27.54-14.07-37.79-5.31-8.99-4.93-13.53-16.27-20.58-23.25 5.51-0.98 11.04-1.81 16.6-2.51 4.77 2.88 7.19 9.86 11.41 13.8 4.71-0.75 1.83-7.1 0.89-10.16 3.99-1.47 8.03-2.86 11.85-4.75 2.1 4.04 7.41 22.47 9.97 9.6 3.44 3.32 7.2 6.3 10.61 9.67-0.05 4.5 3.21 4.65 7.02 3.41 1.11 3.24 4.11 4.73 7.31 5.15-0.49 7.54-7.09 16-1.8 22.97 14.05 0.77 25.82 13.01 24.31 27.37 5.53 9.17 8.6 29.32 23.3 23.61 17.76 3.59 30.8-9.82 30.14-27.51 14.65-13.87 1.88-37.89 14.64-52.06 41.96-17.6 65.09-58.13 94.51-90.36z"/>
<path fill="#cb6697" d="m19.51 39.23c10.51 0.38 14.35 14.75 17.43 23.34-4.89 5.05-8.84 10.88-10.97 17.6-3.63-12.72-9.91-27.59-6.46-40.94z"/>
<path fill="#fc99fb" d="m106.13 52.91c19.85 6.19 32.71 24.7 41.97 42.27-3.82 1.89-7.86 3.28-11.85 4.75-6.3-17.9-16.66-33.87-30.12-47.02z"/>
<path fill="#fc0165" d="m25.97 80.17c2.13-6.72 6.08-12.55 10.97-17.6 2.61 4.18 4.89 8.7 5.88 13.57 2.25 17.66 9.02 34.1 17.09 49.76-9.07 1.6 0.25 8.19 0.96 12.88-6.37 6.01-7.1 16.98 2.83 18.4-1.44 4.62 0.98 10.58-2.81 14.08-5.36-0.36-11.44 0.99-16.17-2.28 2-6.83 10.61-5.56 14.6-10.02-7.56-3.67-17.43-0.49-24.17-6.46-1.31-8.15 15.01-2.53 13.73-11.32-3.81-1.46-8.48-0.94-11.86-3.4 0.26-3.59 0.34-7.2 0.36-10.79 13.17-3.09-12.36-10.01-14.17-15.06 0.65-3.83 1.26-7.67 1.73-11.53 8.36 0.76 14.01 14.65 21.91 12.46-7.08-10.35-17.07-20.08-20.88-32.69z"/>
<path fill="#cc6698" d="m376 65.19c15.31-5.67 6.07 14.37-2.18 17.64 2.17-5.62 1.97-11.72 2.18-17.64z"/>
<path fill="#fd99fb" d="m70.16 73.6c18.41 1.36 41.17 7.62 53.79 22.69-5.56 0.7-11.09 1.53-16.6 2.51-10.84-10.47-22.82-20.03-37.19-25.2z"/>
<path fill="#cc3367" d="m42.82 76.14c9.95 19.24 17.63 41.59 34.86 56.25 8.36 18.72-0.73 38.05 0.14 57.46 4.52 10.66-15.04 9.55-7.77 1.2 10.85-8.86-6.18-6.82-11.4-6.53-3.85-6.95 17.03-13.45 2.24-13.26 3.79-3.5 1.37-9.46 2.81-14.08-9.93-1.42-9.2-12.39-2.83-18.4-0.71-4.69-10.03-11.28-0.96-12.88-8.07-15.66-14.84-32.1-17.09-49.76z"/>
<path fill="#fd99fb" d="m154.14 75.89c9.27 10.48 14.72 24.51 14.54 38.56-3.41-3.37-7.17-6.35-10.61-9.67-0.18-9.78-1.28-19.47-3.93-28.89z"/>
<path fill="#a70010" d="m320.99 91.81c4.55-2.48 11.21 1.93 8.68 7.3-6.7 11.59-18.04 19.06-27.57 28.02 9.96-3.22 19.19-10.22 30.14-8.62 3.23 0.84 1.02 4.73-0.73 6.03-10.61 7.76-22.4 13.68-33.5 20.68 7.62 1.96 19.97-5.53 26.86 0.68-11.64 5.98-25.44 11.2-38.52 15.39-0.1 4.96 14.94-0.24 10.62 6.76-6.75 2.86-14.25 3.56-21.31 5.44 8.7 1.18 9.55 11.76-0.24 10.5 3.05 5.28 2.78 8.97-4.41 10.05-3.11 9.53-12.54 15.72-21.52 19.47-1.52 0.75-2.56 2.11-3.51 3.45-5.86-11.36 3.74-6.02 12.24-10.05-1.32-4.6-10.01 0.86-10.32-4.87 6.27-1.88 13.84 1.45 19.11-3.31 1.15-4.47-4.38-4.39-7.1-6.06 1.82-5.13 11.77 1.12 13.41-4.48-3.15-2.89-11.38-0.99-11.05-6.09 5.12-0.31 13.95 2.84 16.99-3.08-3.73-3.8-10.94-2.15-13.48-7.22 8.45-1.92 17.52-1.4 25.57-4.96-3.31-5.98-16.66 3.06-17.33-4.59 14.56-3.33 29.9-7.24 41.99-16.39-13.02-0.73-26.37 7.75-37.66 7.93 14.22-11.49 37.11-17.23 50.47-32.16-16.43-1.15-30.44 14.12-45.62 19.2 7.89-13.73 27.87-19.5 36.6-33.99 2.18-2.79 10.31-11.47 2.45-11.84-20.12 7.96-31.54 29.62-52 37.04 16.35-13 30.94-30.93 50.74-40.23z"/>
<path fill="#cb6698" d="m8.5 92.56c6.22-0.92 12.6 3.63 16.44 7.84-0.47 3.86-1.08 7.7-1.73 11.53-7.15-2.97-16.17-10.46-14.71-19.37z"/>
<path fill="#cb6596" d="m368.07 103.23c13.51-5.5 7.43 8.87-1.89 9.92 0.92-3.25 1.37-6.6 1.89-9.92z"/>
<path fill="#fc99fa" d="m178.89 103.85c5.4 3.98 3.28 13.3 4.12 19.16-3.2-0.42-6.2-1.91-7.31-5.15 0.44-4.78 2.06-9.37 3.19-14.01z"/>
<path fill="#cb6697" d="m19.89 125.48c5.85-0.95 11.83-0.05 17.49 1.51-0.02 3.59-0.1 7.2-0.36 10.79-7.32-0.86-15.44-4.26-17.13-12.3z"/>
<path fill="#f70465" d="m127.2 125.18c2.86 0.43 16.67 9.24 5.5 7.49-7.72-3.04-5.71 5.57-9.58 7.52-4.39-4.69-5.39-16.06 4.08-15.01z"/>
<path fill="#fcfdcd" d="m145.36 127.25c12.31 2.86 17.58 17.14 22.58 27.53-5.44 3.65-15.4 12.59-17.3 0.56-1.81-9.01-14.41-20.44-5.28-28.09m4.14 13c-6.32 4.04 4.43 17.93 10.2 12.82-1.04-4.98-3.83-13.82-10.2-12.82z"/>
<path fill="#980134" d="m77.68 132.39c11.34 11.07 29.69 12.03 38.18 26.21-11.07-0.26-27.25 1.43-31.16 14.11-2.92 5.16-3.75 12.92-6.88 17.14-0.87-19.41 8.22-38.74-0.14-57.46z"/>
<path fill="#fcfcce" d="m131.45 135.15c12.03 2.58 12.04 21.14 18.51 29.9-6.12 1.14-12.55-1.95-18.35-3.63-1.78-8.16-5.81-19.39-0.16-26.27m2.83 10.02c-5.5 4.82-1.3 18.74 7.12 15.22 1.01-5.14-2.58-13.55-7.12-15.22z"/>
<path fill="#020101" d="m149.5 140.25c6.37-1 9.16 7.84 10.2 12.82-5.77 5.11-16.52-8.78-10.2-12.82z"/>
<path fill="#020201" d="m134.28 145.17c4.54 1.67 8.13 10.08 7.12 15.22-8.42 3.52-12.62-10.4-7.12-15.22z"/>
<path fill="#cc6596" d="m342.35 144.91c17.79 5.22-0.63 10.96-8.57 10.05 2.95-3.27 5.56-6.83 8.57-10.05z"/>
<path fill="#fe9934" d="m145.62 169.51c14.73 2.46 28.39-24.57 41.37-8.57 21.53 22.1 17.8 61.7-5.05 80.87-9.76 5.5-22.81 4.49-33.22 1.17-0.69-9.64 1.75-27.52 15.21-25.98 13.8 7.03 33.33-4.72 27-20.79-5.8-6.92-8.16-22.35-17.77-23.93-2.27 9.96 0.77 24.35-7.81 33.03-14.11 13.2-37.45-3.6-50.14 12.01-7.77 11.53-0.73 24.52 3.7 35.71-16.13-5.06-35.67-12.98-40.43-30.84-0.95-19.02 3.48-39.58 14.13-55.53 16.78-8.28 36.09-1.78 53.01 2.85m-35.91 7.87c-14.41 5.62-15.67 27.14-13.98 40.56-0.28 4.08 5.95 7.79 8.02 5.27-7.35-17.05 8.76-38.18 27.26-34.49 5.65 1.38 30.02-8.77 13.88-6.86-12.3 3.86-22.83-7.55-35.18-4.48z"/>
<path fill="#cb6596" d="m328.45 158.93c9.62 0.85 3.36 11.3-4.4 6.22 1.49-2.06 2.94-4.14 4.4-6.22z"/>
<path fill="#ca6596" d="m320.31 167.92c8.38 2.18 2.31 9.19-4.62 5.65 1.63-1.81 3.13-3.73 4.62-5.65z"/>
<path fill="#fefdca" d="m109.71 177.38c12.35-3.07 22.88 8.34 35.18 4.48 16.14-1.91-8.23 8.24-13.88 6.86-18.5-3.69-34.61 17.44-27.26 34.49-2.07 2.52-8.3-1.19-8.02-5.27-1.69-13.42-0.43-34.94 13.98-40.56z"/>
<path fill="#cb6697" d="m298.97 190.69c3.61-3.67 7.25-7.33 11.06-10.8 5.68 2.38 11.17 9.74 7.66 15.76-6.01 2.43-14.29-0.15-18.72-4.96z"/>
<path fill="#980101" d="m176.17 182.65c6.47 4.3 17.28 19.84 8.22 28.65-4.49 6.19-15.55 5.41-20.35 0.83 9.08-7.19 12.44-18.24 12.13-29.48z"/>
<path fill="#cc3367" d="m204 185.01c5.52 8.13 13.85 16.01 9.34 26.99-4.53 22.1-12.37 48.78 6.36 66.86 9.33 0.54 19.11 0.31 27.83-3.48 4.98 1.15 10.25 0.8 14.46-2.28 1.73 0.13 3.46 0.24 5.2 0.18-10.93 17.2-36.12 20.1-54.29 14.75-4.71-11.07-15.11-21.94-27.94-22.64-4.9-3.99-7.63-11.95-5.03-18 21.09-12.31 26.84-40.06 24.07-62.38z"/>
<path fill="#ca6696" d="m295 192.21c3.37 1.51 6.83 4.66 6.96 8.58-3.24-0.9-8.04-0.43-9.88-3.57 1.27-1.48 2.28-3.16 2.92-5.01z"/>
<path fill="#c96694" d="m289.22 199.87c10.53 3.96 2.88 8.94-2.48 2.99 0.83-1 1.65-2 2.48-2.99z"/>
<path fill="#c96797" d="m284.33 206.16c13.11 0.22 4.58 15.36-3.69 5.6 1.28-1.83 2.48-3.72 3.69-5.6z"/>
<path fill="#d7730e" d="m129.2 212.94c11.08 2.71 25.37-0.89 34.73 4.06-13.46-1.54-15.9 16.34-15.21 25.98-13.42-3.33-17.36-18.17-19.52-30.04z"/>
<path fill="#953364" d="m122.37 215.24c7.82 1.57 5.87 14.75 10.76 20.57 6.1 6.24-6.65 4.64-4.8-0.55 2.9-7.77-7.84-6-11.21-10.62 0.38-3.49 1.5-8.2 5.25-9.4z"/>
<path fill="#ca6698" d="m278.04 215.28c4.11 0.64 12.12 3.38 9.42 9.03-2.69 5.84-11.62 0.78-11.13-4.03 0.51-1.69 1.02-3.38 1.71-5z"/>
<path fill="#f70565" d="m268.42 229.08c5.16-1.51 12.74 1.51 9.1 8.22-4.09 7.26-10.11-3.54-9.1-8.22z"/>
<path fill="#0d0101" d="m224.34 251.11c7.48-3.91 6.92-18.22 17.68-15.94 18.42-0.44 22.6 23.97 19.97 37.93-4.21 3.08-9.48 3.43-14.46 2.28-9.37-5.72-26.09-9.31-23.19-24.27m14.42-12.82c-5.47 3.87-7.66 11.54-9.65 17.62 1.4 4.94 9.74 14.28 14.64 7.85-0.07-5.52-11.09-13.75-6-17.6 4.85 5.09 7.38 16.15 16.94 15.77 6.55-9.36-4.33-26.29-15.93-23.64m10.79 27.03c-6.39 4.4 6.99 11.96 8.44 4.34 3.1-7.4-5.77-3.71-8.44-4.34z"/>
<path fill="#fc9935" d="m238.76 238.29c11.6-2.65 22.48 14.28 15.93 23.64-9.56 0.38-12.09-10.68-16.94-15.77-5.09 3.85 5.93 12.08 6 17.6-4.9 6.43-13.24-2.91-14.64-7.85 1.99-6.08 4.18-13.75 9.65-17.62z"/>
<path fill="#020504" d="m273.02 262.05c2.22-4.39-3.6-10.81 1.86-13.13 3.37 11.89-2.8 23.23-6.43 33.84 23.43 24.67 43.95 51.97 62.05 80.73 5.84 12.69 3.77 33.52-10.36 39.53 1.62 5.3 7.81 13.97-0.35 16.08-14.96 7.94-26.04-6.46-33.94-17.04-8.24 3.71-19.51 4.62-25.23-3.81-23.42-28.49-20.75-67.67-29.32-101.55-5.84-2.94-12.87-0.53-19.06-2.56-2.08 7.44-9.59 11.73-17.22 10.5 3.46-0.68 6.72-2.06 9.91-3.51 0.95-0.53 1.77-1.21 2.45-2.05 3.36-3.52-1.33-14.72 6.22-9.04 21.63 5.42 57.29-0.33 59.42-27.99m-10.86 23.11c3.84 8.6 11.51 16.68 17.63 23.64 16.14 24 35.37 46.15 48.52 72.04 5.18-0.62 1.22-9.24 0.06-12.09-13.83-21.91-28.12-43.93-45.73-63-5.65-7.15-12.12-16.66-20.48-20.59m-7.62 4.42c-0.18 11.6 12.79 18.94 15.18 30.29 19.87 24 28.22 56.43 49.36 79.06 7.49-1.21 9.83-10.99 5.79-16.71-14-22.97-29.43-45.08-45.55-66.61-8.16-8.12-13.66-23.46-24.78-26.03m-8.34 3.65c0.83 9.55 5.39 19.14 8.7 27.55 7.24 20.29 16.98 39.6 24.56 59.75 7.52 13.39 14.18 29.47 28.99 36.22 3.72 1.91 8.73 1.3 11.47-1.99-1.84-13.14-12.22-22.25-18.29-33.39-12.95-19.4-21.35-41.37-34.54-60.63-6.2-9.18-10.48-24.42-20.89-27.51m-6.6 32.88c2.98 18.42 7.54 36.71 14.15 54.15 4.95 10.38 15.83 26.98 29.14 18.5-10.93-25.43-22.58-51.42-31.78-77.85-3.25-8.79-5.78-19.24-11.18-26-7.98 5.94 1.97 21.92-0.33 31.2z"/>
<path fill="#956537" d="m249.55 265.32c2.67 0.63 11.54-3.06 8.44 4.34-1.45 7.62-14.83 0.06-8.44-4.34z"/>
<path fill="#fa9937" d="m185.22 269.88c13.5-0.31 25.65 15.81 22.16 29.2-0.68 0.84-1.5 1.52-2.45 2.05-4.73 1.18-9.51 0-14.09-1.22 5.81-0.42 11.5-2.48 12.38-8.91-10.61 12.98-30.58-6.47-21.58-18.01 5.31 5.07 6.25 3.1 3.58-3.11m6.13 7.68c-1.47 5.31 5.88 8.89 10.44 9.44-0.96-4.37-8.03-8.3-10.44-9.44z"/>
<path fill="#ca9836" d="m171.66 272.36c10.48-2.63 1.46 13.76 7.74 19.25-9.26 5.61-19.43-16.48-7.74-19.25z"/>
<path fill="#190200" d="m191.35 277.56c2.41 1.14 9.48 5.07 10.44 9.44-4.56-0.55-11.91-4.13-10.44-9.44z"/>
<path fill="#0f91bd" d="m262.16 285.16c8.36 3.93 14.83 13.44 20.48 20.59-0.96 1-1.92 2.02-2.85 3.05-6.12-6.96-13.79-15.04-17.63-23.64z"/>
<path fill="#04c904" d="m254.54 289.58c11.12 2.57 16.62 17.91 24.78 26.03-4.08-3.12-7.8 0.58-9.6 4.26-2.39-11.35-15.36-18.69-15.18-30.29z"/>
<path fill="#6534c8" d="m246.2 293.23c10.41 3.09 14.69 18.33 20.89 27.51-3.79-0.44-9.46-3.63-12.19 0.04-3.31-8.41-7.87-18-8.7-27.55z"/>
<path fill="#049604" d="m239.6 326.11c2.3-9.28-7.65-25.26 0.33-31.2 5.4 6.76 7.93 17.21 11.18 26-5.53-5.13-11.54-2.25-11.51 5.2z"/>
<path fill="#08c8f7" d="m279.79 308.8c0.93-1.03 1.89-2.05 2.85-3.05 17.61 19.07 31.9 41.09 45.73 63 1.16 2.85 5.12 11.47-0.06 12.09-13.15-25.89-32.38-48.04-48.52-72.04z"/>
<path fill="#02fd02" d="m269.72 319.87c1.8-3.68 5.52-7.38 9.6-4.26 16.12 21.53 31.55 43.64 45.55 66.61 4.04 5.72 1.7 15.5-5.79 16.71-21.14-22.63-29.49-55.06-49.36-79.06z"/>
<path fill="#3c3" d="m239.6 326.11c-0.03-7.45 5.98-10.33 11.51-5.2 9.2 26.43 20.85 52.42 31.78 77.85-13.31 8.48-24.19-8.12-29.14-18.5-6.61-17.44-11.17-35.73-14.15-54.15z"/>
<path fill="#9966fd" d="m254.9 320.78c2.73-3.67 8.4-0.48 12.19-0.04 13.19 19.26 21.59 41.23 34.54 60.63 6.07 11.14 16.45 20.25 18.29 33.39-2.74 3.29-7.75 3.9-11.47 1.99-14.81-6.75-21.47-22.83-28.99-36.22-7.58-20.15-17.32-39.46-24.56-59.75z"/>
</g>
</svg>
