<?xml version="1.0" encoding="UTF-8" standalone="no"?>
<!-- Created with Inkscape (http://www.inkscape.org/) -->

<svg
   version="1.1"
   id="svg79797"
   width="800"
   height="800"
   viewBox="0 0 800 800"
   sodipodi:docname="unicorn-vector-clipart-pdv.svg"
   inkscape:version="1.2 (dc2aedaf03, 2022-05-15)"
   xmlns:inkscape="http://www.inkscape.org/namespaces/inkscape"
   xmlns:sodipodi="http://sodipodi.sourceforge.net/DTD/sodipodi-0.dtd"
   xmlns="http://www.w3.org/2000/svg"
   xmlns:svg="http://www.w3.org/2000/svg">
  <defs
     id="defs79801">
    <clipPath
       clipPathUnits="userSpaceOnUse"
       id="clipPath79813">
      <path
         d="M 0,600 H 600 V 0 H 0 Z"
         id="path79811" />
    </clipPath>
  </defs>
  <sodipodi:namedview
     id="namedview79799"
     pagecolor="#ffffff"
     bordercolor="#000000"
     borderopacity="0.25"
     inkscape:showpageshadow="2"
     inkscape:pageopacity="0.0"
     inkscape:pagecheckerboard="0"
     inkscape:deskcolor="#d1d1d1"
     showgrid="false"
     inkscape:zoom="1.04625"
     inkscape:cx="400"
     inkscape:cy="400.4779"
     inkscape:window-width="1920"
     inkscape:window-height="1017"
     inkscape:window-x="-8"
     inkscape:window-y="-8"
     inkscape:window-maximized="1"
     inkscape:current-layer="g79805">
    <inkscape:page
       x="0"
       y="0"
       id="page79803"
       width="800"
       height="800" />
  </sodipodi:namedview>
  <g
     id="g79805"
     inkscape:groupmode="layer"
     inkscape:label="Page 1"
     transform="matrix(1.3333333,0,0,-1.3333333,0,800)">
    <g
       id="g79807">
      <g
         id="g79809"
         clip-path="url(#clipPath79813)">
        <g
           id="g79815"
           transform="translate(450.125,338.4375)">
          <path
             d="M 0,0 C 67.092,-48.19 27.658,-94.434 56.733,-126.333 -10.142,-127.675 -14.058,-52.704 0,0"
             style="fill:#d468d4;fill-opacity:1;fill-rule:evenodd;stroke:none"
             id="path79817" />
        </g>
        <g
           id="g79819"
           transform="translate(429.1182,329.3945)">
          <path
             d="M 0,0 C 58.96,-4.466 72.691,-76.468 101.54,-85.94 24.728,-153.527 35.266,-34.451 0,0"
             style="fill:#ff6699;fill-opacity:1;fill-rule:evenodd;stroke:none"
             id="path79821" />
        </g>
        <g
           id="g79823"
           transform="translate(211.5508,224.8174)">
          <path
             d="m 0,0 c -36.355,-19.667 -65.354,-47.859 -74.984,-98.497 l -38.692,8.611 c 3.597,57.21 35.526,110.347 69.46,138.373 C -29.477,32.324 -14.739,16.162 0,0"
             style="fill:#e67878;fill-opacity:1;fill-rule:evenodd;stroke:none"
             id="path79825" />
        </g>
        <g
           id="g79827"
           transform="translate(423.4951,238.6836)">
          <path
             d="m 0,0 c -11.45,-38.591 -12.409,-76.725 14.251,-113.645 l -31.494,-23.71 c -34.993,36.292 -48.38,91.264 -44.012,132.97 C -40.836,-2.924 -20.419,-1.461 0,0"
             style="fill:#e67878;fill-opacity:1;fill-rule:evenodd;stroke:none"
             id="path79829" />
        </g>
        <g
           id="g79831"
           transform="translate(423.2656,340.1523)">
          <path
             d="M 0,0 C 49.336,90.663 101.564,-69.435 146.329,-63.36 27.319,-172.775 31.934,-1.507 0,0"
             style="fill:#ffc7da;fill-opacity:1;fill-rule:evenodd;stroke:none"
             id="path79833" />
        </g>
        <g
           id="g79835"
           transform="translate(187.3174,441.3398)">
          <path
             d="M 0,0 C 87.833,0.344 65.287,-87.944 130.783,-53.739 98.39,-160.192 5.284,-111.813 0,0"
             style="fill:#ffc7da;fill-opacity:1;fill-rule:evenodd;stroke:none"
             id="path79837" />
        </g>
        <g
           id="g79839"
           transform="translate(187.3174,441.3398)">
          <path
             d="M 0,0 C 58.96,-4.469 72.689,-76.47 101.54,-85.943 24.729,-153.53 35.266,-34.451 0,0"
             style="fill:#ff6699;fill-opacity:1;fill-rule:evenodd;stroke:none"
             id="path79841" />
        </g>
        <g
           id="g79843"
           transform="translate(123.415,483.4014)">
          <path
             d="M 0,0 C 12.063,3.376 29.533,-13.958 35.858,-26.151 42.187,-38.346 37.533,-50.965 25.468,-54.338 13.406,-57.714 -1.504,-50.564 -7.83,-38.371 -14.156,-26.178 -12.063,-3.374 0,0"
             style="fill:#ff8a8a;fill-opacity:1;fill-rule:evenodd;stroke:none"
             id="path79845" />
        </g>
        <g
           id="g79847"
           transform="translate(163.416,446.833)">
          <path
             d="M 0,0 -48.858,123.584 -35.373,-10.17 Z"
             style="fill:#ffe3e3;fill-opacity:1;fill-rule:evenodd;stroke:none"
             id="path79849" />
        </g>
        <g
           id="g79851"
           transform="translate(125.9834,541.5127)">
          <path
             d="M 0,0 -4.037,10.213 -9.579,10.575 -8.568,0.56 Z m 8.409,-21.269 -4.037,10.209 -11.847,0.775 1.009,-10.011 z m 8.409,-21.271 -4.036,10.212 -18.155,1.185 1.011,-10.01 z m 8.409,-21.27 -4.036,10.21 -24.461,1.6 1.009,-10.012 z m 8.411,-21.27 -4.037,10.211 -30.768,2.012 1.011,-10.014 z"
             style="fill:#cc3366;fill-opacity:1;fill-rule:evenodd;stroke:none"
             id="path79853" />
        </g>
        <g
           id="g79855"
           transform="translate(357.376,341.3262)">
          <path
             d="m 0,0 c 41.373,25.011 91.268,4.513 91.268,-52.553 0,-69.828 -68.126,-114.263 -166.138,-106.602 -55.23,4.316 -133.318,27.666 -135.536,152.132 -0.163,9.076 0.065,17.338 0.438,24.771 -1.907,-0.683 -3.844,-1.336 -5.813,-1.952 -33.623,-10.528 -60.451,-12.867 -64.94,-4.587 -2.241,4.134 -7.353,2.02 -14.053,2.985 -13.018,1.875 -26.632,13.494 -31.91,34.375 -4.348,17.199 48.241,23.516 64.369,41.656 16.128,18.139 29.195,19.428 40.821,20.052 1.934,14.067 8.892,29.512 18.497,32.518 13.119,4.107 26.299,-16.518 29.89,-31.579 3.492,-14.627 8.054,-26.574 15.003,-39.304 C -136.404,32.158 -116.46,-70.405 0,0"
             style="fill:#ff9999;fill-opacity:1;fill-rule:evenodd;stroke:none"
             id="path79857" />
        </g>
        <g
           id="g79859"
           transform="translate(424.0459,224.5937)">
          <path
             d="m 0,0 c -28.2,-30.848 -78.733,-47.33 -141.54,-42.423 -55.23,4.317 -133.317,27.666 -135.536,152.132 -0.163,9.076 0.065,17.339 0.438,24.771 22.421,11.795 30.792,30.507 21.132,58.095 13.306,-26.478 12.733,-50.707 -9.255,-63.732 C -252.694,-31.915 -140.546,-35.903 0,0"
             style="fill:#f58989;fill-opacity:1;fill-rule:evenodd;stroke:none"
             id="path79861" />
        </g>
        <g
           id="g79863"
           transform="translate(78.2783,350.6533)">
          <path
             d="M 0,0 C -0.694,0.551 -1.242,1.177 -1.623,1.882 -2.585,3.657 -4.079,4.28 -5.999,4.49 15.436,4.068 23.898,13.539 30.71,24.273 27.856,11.599 18.31,4.922 0,0"
             style="fill:#a14040;fill-opacity:1;fill-rule:evenodd;stroke:none"
             id="path79865" />
        </g>
        <g
           id="g79867"
           transform="translate(151.7539,420.0459)">
          <path
             d="m 0,0 c -0.272,-3.172 -2.414,-5.994 -5.664,-7.926 l 1.438,-6.933 -4.103,5.644 c -1.896,-0.728 -4.023,-1.198 -6.288,-1.341 l -2.055,-8.376 -0.684,8.365 c -2.1,0.117 -4.085,0.516 -5.881,1.142 l -4.402,-6.406 1.877,7.503 c -3.649,1.93 -6.09,4.928 -6.381,8.328 2.943,-3.708 9.035,-6.254 16.073,-6.254 7.036,0 13.127,2.546 16.07,6.254"
             style="fill:#1a1a1a;fill-opacity:1;fill-rule:evenodd;stroke:none"
             id="path79869" />
        </g>
        <g
           id="g79871"
           transform="translate(135.8818,451.6035)">
          <path
             d="M 0,0 C -32.667,-31.457 -88.038,-17.231 -76.892,34.715 -66.194,10.489 -24.171,31.115 0,0"
             style="fill:#ff6699;fill-opacity:1;fill-rule:evenodd;stroke:none"
             id="path79873" />
        </g>
        <g
           id="g79875"
           transform="translate(51.7041,392.416)">
          <path
             d="m 0,0 c 1.38,0 3.102,-1.864 3.844,-4.164 0.744,-2.3 0.228,-4.164 -1.152,-4.164 -1.38,0 -3.101,1.864 -3.843,4.164 C -1.895,-1.864 -1.378,0 0,0"
             style="fill:#1a1a1a;fill-opacity:1;fill-rule:evenodd;stroke:none"
             id="path79877" />
        </g>
        <g
           id="g79879"
           transform="translate(135.8818,451.6035)">
          <path
             d="M 0,0 C -20.515,-38.315 -79.386,-40.702 -87.085,10.538 -68.052,-8.891 -34.581,22.021 0,0"
             style="fill:#d468d4;fill-opacity:1;fill-rule:evenodd;stroke:none"
             id="path79881" />
        </g>
        <g
           id="g79883"
           transform="translate(187.3174,441.3398)">
          <path
             d="M 0,0 C 67.094,-48.19 27.659,-94.433 56.733,-126.333 -10.142,-127.674 -14.059,-52.705 0,0"
             style="fill:#d468d4;fill-opacity:1;fill-rule:evenodd;stroke:none"
             id="path79885" />
        </g>
        <g
           id="g79887"
           transform="translate(443.3438,256.6631)">
          <path
             d="M 0,0 C 1.555,-40.224 12.896,-76.644 50.003,-103.043 L 27.795,-135.616 C -17.002,-112.486 -47.339,-64.729 -56.6,-23.831 -37.732,-15.887 -18.866,-7.942 0,0"
             style="fill:#ff9999;fill-opacity:1;fill-rule:evenodd;stroke:none"
             id="path79889" />
        </g>
        <g
           id="g79891"
           transform="translate(248.5547,222.541)">
          <path
             d="m 0,0 c -28.874,-31.91 -48.375,-69.206 -43.196,-120.682 l -39.073,-5.985 C -95.017,-71.174 -79.784,-9.183 -55.563,29.759 -37.041,19.839 -18.52,9.92 0,0"
             style="fill:#ff9999;fill-opacity:1;fill-rule:evenodd;stroke:none"
             id="path79893" />
        </g>
        <g
           id="g79895"
           transform="translate(97.875,134.9316)">
          <path
             d="m 0,0 -5.403,-19.437 41.828,-10.736 2.266,21.562 z"
             style="fill:#1a1a1a;fill-opacity:1;fill-rule:evenodd;stroke:none"
             id="path79897" />
        </g>
        <g
           id="g79899"
           transform="translate(166.2861,95.874)">
          <path
             d="M 0,0 -1.634,-19.616 H 44.635 L 39.072,5.985 Z"
             style="fill:#1a1a1a;fill-opacity:1;fill-rule:evenodd;stroke:none"
             id="path79901" />
        </g>
        <g
           id="g79903"
           transform="translate(493.3467,153.6201)">
          <path
             d="m 0,0 15.177,-11.478 -21.099,-35.165 -16.286,14.07 z"
             style="fill:#1a1a1a;fill-opacity:1;fill-rule:evenodd;stroke:none"
             id="path79905" />
        </g>
        <g
           id="g79907"
           transform="translate(406.252,101.3281)">
          <path
             d="M 0,0 8.994,-21 41.751,7.872 31.494,23.71 Z"
             style="fill:#1a1a1a;fill-opacity:1;fill-rule:evenodd;stroke:none"
             id="path79909" />
        </g>
        <g
           id="g79911"
           transform="translate(95.6211,324.8105)">
          <path
             d="m 0,0 0.909,-2.819 2.963,0.006 -2.4,-1.735 0.921,-2.817 -2.393,1.746 -2.394,-1.746 0.92,2.817 -2.4,1.735 2.964,-0.006 z m -41.829,-67.368 1.987,-6.15 6.463,0.013 -5.237,-3.79 2.01,-6.143 -5.223,3.81 -5.22,-3.81 2.008,6.143 -5.237,3.79 6.465,-0.013 z m 51.04,35.781 0.579,-1.795 1.886,0.004 -1.528,-1.104 0.587,-1.793 -1.524,1.111 -1.523,-1.111 0.586,1.793 -1.527,1.104 1.887,-0.004 z m 454.958,156.698 0.745,-2.306 2.424,0.006 -1.964,-1.422 0.754,-2.303 -1.959,1.428 -1.957,-1.428 0.754,2.303 -1.964,1.422 2.424,-0.006 z m -31.462,33.314 0.662,-2.05 2.154,0.004 -1.745,-1.265 0.67,-2.047 -1.741,1.272 -1.74,-1.272 0.67,2.047 -1.746,1.265 2.155,-0.004 z m -143.618,-91.798 0.661,-2.05 2.154,0.004 -1.744,-1.263 0.668,-2.047 -1.739,1.271 -1.74,-1.271 0.669,2.047 -1.746,1.263 2.154,-0.004 z m 80.322,36.276 1.903,-5.895 6.194,0.012 -5.017,-3.63 1.925,-5.889 -5.005,3.65 -5.004,-3.65 1.925,5.889 -5.017,3.63 6.194,-0.012 z m -30.722,62.186 0.826,-2.564 2.694,0.005 -2.182,-1.579 0.837,-2.559 -2.175,1.588 -2.175,-1.588 0.836,2.559 -2.182,1.579 2.693,-0.005 z m -55.523,69.587 0.827,-2.562 2.692,0.004 -2.18,-1.578 0.836,-2.559 -2.175,1.586 -2.176,-1.586 0.838,2.559 -2.182,1.578 2.692,-0.004 z m 99.941,-37.015 1.49,-4.612 4.846,0.01 -3.927,-2.843 1.507,-4.608 -3.916,2.857 -3.916,-2.857 1.506,4.608 -3.926,2.843 4.847,-0.01 z m 31.091,-85.875 1.821,-5.638 5.925,0.011 -4.8,-3.474 1.841,-5.63 -4.787,3.491 -4.785,-3.491 1.841,5.63 -4.8,3.474 5.925,-0.011 z m 29.614,-75.51 2.151,-6.664 7.002,0.014 -5.673,-4.105 2.177,-6.656 -5.657,4.127 -5.656,-4.127 2.175,6.656 -5.672,4.105 7.001,-0.014 z m -114.75,77.732 1.325,-4.103 4.309,0.011 -3.491,-2.528 1.339,-4.096 -3.482,2.542 -3.48,-2.542 1.339,4.096 -3.489,2.528 4.308,-0.011 z m -142.137,20.728 2.977,-9.227 9.696,0.018 -7.854,-5.682 3.015,-9.216 -7.834,5.714 -7.832,-5.714 3.014,9.216 -7.855,5.682 9.695,-0.018 z m -93.278,107.342 1.986,-6.15 6.464,0.014 -5.238,-3.791 2.01,-6.143 -5.222,3.81 -5.222,-3.81 2.01,6.143 -5.238,3.791 6.464,-0.014 z m 52.192,-68.848 2.564,-7.944 8.349,0.018 -6.764,-4.895 2.595,-7.936 -6.744,4.922 -6.744,-4.922 2.594,7.936 -6.764,4.895 8.348,-0.018 z m 84.024,-99.939 1.158,-3.589 3.77,0.007 -3.055,-2.209 1.173,-3.585 -3.046,2.222 -3.047,-2.222 1.172,3.585 -3.053,2.209 3.77,-0.007 z m 41.086,43.678 1.407,-4.358 4.578,0.009 -3.708,-2.684 1.422,-4.351 -3.699,2.697 -3.699,-2.697 1.424,4.351 -3.708,2.684 4.577,-0.009 z m -3.332,58.482 1.986,-6.149 6.464,0.013 -5.237,-3.79 2.01,-6.143 -5.223,3.81 -5.221,-3.81 2.009,6.143 -5.235,3.79 6.462,-0.013 z m -69.587,18.508 2.647,-8.201 8.618,0.017 -6.982,-5.053 2.679,-8.191 -6.962,5.079 -6.963,-5.079 2.679,8.191 -6.982,5.053 8.619,-0.017 z"
             style="fill:#ffcc00;fill-opacity:1;fill-rule:evenodd;stroke:none"
             id="path79913" />
        </g>
      </g>
    </g>
  </g>
</svg>
