<?xml version="1.0" encoding="UTF-8" standalone="no"?>
<!-- Created with Inkscape (http://www.inkscape.org/) -->

<svg
   xmlns:i="http://ns.adobe.com/AdobeIllustrator/10.0/"
   xmlns:dc="http://purl.org/dc/elements/1.1/"
   xmlns:cc="http://creativecommons.org/ns#"
   xmlns:rdf="http://www.w3.org/1999/02/22-rdf-syntax-ns#"
   xmlns:svg="http://www.w3.org/2000/svg"
   xmlns="http://www.w3.org/2000/svg"
   xmlns:sodipodi="http://sodipodi.sourceforge.net/DTD/sodipodi-0.dtd"
   xmlns:inkscape="http://www.inkscape.org/namespaces/inkscape"
   id="svg2"
   sodipodi:docname="Fussballspieler-Junge-farbe.svg"
   viewBox="0 0 300 400"
   version="1.1"
   inkscape:version="0.91 r13725">
  <title
     id="title4129">Soccer Boy</title>
  <defs
     id="defs4" />
  <sodipodi:namedview
     id="base"
     bordercolor="#666666"
     inkscape:pageshadow="2"
     inkscape:window-y="1"
     pagecolor="#ffffff"
     inkscape:window-height="1035"
     inkscape:window-maximized="1"
     inkscape:zoom="2.4542847"
     inkscape:window-x="4"
     showgrid="false"
     borderopacity="1.0"
     inkscape:current-layer="layer1"
     inkscape:cx="91.216775"
     inkscape:cy="248.17449"
     inkscape:window-width="1916"
     inkscape:pageopacity="0.0"
     inkscape:document-units="px" />
  <g
     id="layer1"
     inkscape:label="Ebene 1"
     inkscape:groupmode="layer"
     transform="translate(0 -652.36)">
    <path
       id="path5378"
       style="fill:#4056f3"
       d="m70.357 110.79c-4.8187 0.32712-17.684 4.7272-24.042 10.253-5.5571 9.6906-10.215 10.77-14.849 13.081-15.378 9.82-21.718 23.31-22.981 35.01 11.362-1.49 17.785-18.16 35.002-4.6l-4.9497 18.738c4.579-2.6139 11.69-11.311 19.092-23.335 4.4169-3.717-2.4451 3.5485 0.35355 44.194 2.2968 3.7226-6.0093 27.09-1.0607 46.316 1.4381 4.6671 2.1243 8.9582 5.3033 14.496 5.7546 6.3156 15.555 11.261 17.324 6.364l-10.96-6.7175c1.3746-6.4959-1.0956-10.195 9.8995-23.688 7.0892-6.6752 6.1711-8.9019 4.9497-10.96 7.5927 5.5197 15.554-12.044 20.153-7.0711 12.654-1.5074 10.783 1.4509 15.203 2.4749 7.5425-0.81163 15.085-3.153 22.627-1.4142-4.8293-13.682-3.2918-28.122-8.4853-44.548 1.2679-10.36 4.7935-23.43 1.7678-28.638 8.9543 0.70711 12.743 1.4142 31.113 2.1213 2.5779 1.0656 3.7 2.6165 8.8388 2.8284l2.1213-8.4853-7.0711 0.35355c-1.1917-7.3224-4.5233-14.563 3.182-27.224l-27.577 0.35355-3.8891-2.8284c-9.4659-2.0719-16.182-3.4564-28.991-6.364-1.079 5.3548 1.2341 8.4482 2.8284 12.021-0.82169 7.9026-2.2481 14.596-4.9498 18.738-9.3194-6.9441-20.742-11.785-31.113-17.678-4.1166-3.7185-8.3875-7.3212-8.8388-13.789z"
       sodipodi:nodetypes="ccccccccccccccccccccccccccccccc"
       inkscape:connector-curvature="0"
       transform="translate(0 652.36)" />
    <path
       id="path5384"
       style="stroke:#ffbf00;stroke-width:3.189;fill:none"
       d="m72.478 110.79c1.6118 11.652 22.344 19.522 37.123 28.638l2.8284-17.678-2.4749-5.6568 0.35356-3.5355"
       sodipodi:nodetypes="ccccc"
       inkscape:connector-curvature="0"
       transform="translate(0 652.36)" />
    <path
       id="path3847"
       sodipodi:nodetypes="cssccccscccccccccccccccc"
       style="fill:#382f1f;fill-opacity:1;stroke:#000000;stroke-width:2.83459997;stroke-linecap:round;stroke-linejoin:round"
       inkscape:connector-curvature="0"
       d="m 55.941,718.45 c 11.642,28.087 28.128,45.55 49.69,43.785 9.9686,-0.81587 11.465,-3.8508 16.497,-10.946 7.0107,-9.8848 11.915,-32.131 11.915,-46.175 1.9651,-2.1707 1.8549,-7.8482 -0.28749,-16.576 -1.1557,-13.515 -6.2586,-14.202 -11.081,-15.777 -2.5331,-8.6072 -7.1633,-9.1901 -11.926,-9.2567 -3.6049,-2.8369 -4.9975,-7.1839 -13.093,-6.9485 -1.8683,0.0544 -4.0905,0.35763 -6.7827,0.97565 -7.1637,0.27456 -14.715,-1.8328 -20.448,7.353 -9.4237,2.0207 -15.982,6.3351 -15.603,16.3 -10.104,9.6941 -10.942,17.166 -12.224,24.748 -0.24293,8.418 4.8093,19.685 18.758,33.719 3.0287,6.3685 7.754,7.2603 10.783,7.9003 -3.7024,-4.5804 -4.9837,-7.6097 -9.6648,-14.968 -3.4304,-6.5668 -6.8076,-14.135 -6.8076,-14.135 -11.905,-3.7185 -6.3392,-29.911 5.9628,-16.039 3.9028,4.9805 6.5806,10.149 5.9628,-2.1892 -1.3835,-6.9108 0.10892,-8.2855 0.84474,-11.137 7.7555,-1.4139 8.1532,-5.8611 11.081,-9.2567 5.0101,-4.424 9.3748,-8.355 17.317,-7.0675 10.714,7.4764 12.45947,4.98329 20.52451,7.2122 0,0 9.60449,5.3274 12.12249,9.9215 1.8322,8.9632 2.2955,14.271 4.3976,15.563" />
    <path
       id="path5368"
       style="fill:#9f734f;fill-opacity:1;stroke:none"
       d="m 62.933,54.048 c 4.134548,4.0015 5.651388,2.93578 5.497988,-5.21452 -0.19782,-4.8319 -1.843188,-6.21708 1.042732,-11.04848 5.1265,-0.58107 7.0711,-4.0318 10.783,-9.5459 4.2602,-3.8716 8.630508,-10.690237 16.263,-6.364 6.0862,2.8209 8.4127,3.917676 22.097,7.0711 3.7381,2.8542 7.76542,3.1339 10.81842,9.0156 1.64,6.812 0.77498,15.341 3.67728,16.44 -1.6105,15.242 -2.732,25.518 -10.253,41.719 -4.7605,11.689 -21.42,20.585 -44.725,2.8284 C 67.61542,88.4432 60.598396,76.183184 54.483396,64.796184 43.03042,54.395151 53.217402,36.604035 63.349402,53.503035 Z"
       sodipodi:nodetypes="ccccccccccccc"
       inkscape:connector-curvature="0"
       transform="translate(0,652.36)" />
    <path
       id="path3756"
       sodipodi:nodetypes="cccc"
       style="stroke:#000000;stroke-linecap:round;stroke-width:2.8346;fill:none"
       inkscape:connector-curvature="0"
       d="m107.8 710.31c0.98652 4.9937 3.513 7.3602 6.5432 7.0881 5.9711-0.74419 9.1386 5.1401 3.4562 9.1478-3.0802 2.4983-8.04 1.2667-11.342-1.257" />
    <path
       id="path3758"
       sodipodi:nodetypes="ccc"
       style="stroke:#000000;stroke-width:2.126;fill:#ffffff"
       inkscape:connector-curvature="0"
       d="m98.528 705.16c1.3095 11.778-13.605 7.8139-16.738 5.757 1.6829-3.4097 11.01-10.483 16.738-5.757z" />
    <path
       id="path3758-4"
       sodipodi:nodetypes="ccc"
       style="stroke:#000000;stroke-width:2.126;fill:#ffffff"
       inkscape:connector-curvature="0"
       d="m110.26 703.77c5.9033 8.87 14.347-1.7616 15.41-4.845-3.1951-1.4786-14.029-1.4628-15.41 4.845z" />
    <path
       id="path3778"
       sodipodi:nodetypes="cccc"
       style="stroke:#000000;stroke-linecap:round;stroke-width:2.8346;fill:#ff3f38"
       inkscape:connector-curvature="0"
       d="m86.334 738.57c25.693 4.8001 30.711 2.6866 36.345-4.3513-3.1863 4.3815-1.2923 8.2663-9.6541 13.87-9.5543 4.2003-6.8834-8.1522-26.691-9.5185z" />
    <path
       id="path3780"
       sodipodi:nodetypes="ccc"
       style="stroke:#000000;stroke-linecap:round;stroke-width:2.8346;fill:none"
       inkscape:connector-curvature="0"
       d="m75.26 703.22c5.4253-3.2432 8.2178-9.3682 18.456-7.3428" />
    <path
       id="path3780-7"
       sodipodi:nodetypes="ccc"
       style="stroke:#000000;stroke-linecap:round;stroke-width:2.8346;fill:none"
       inkscape:connector-curvature="0"
       d="m125.32 691.89c-6.3897-0.25715-9.4184-4.265-17.281 2.3351" />
    <path
       id="path3800"
       sodipodi:rx="5"
       sodipodi:ry="6.25"
       style="stroke:#000000;stroke-linecap:round;stroke-width:3.0217;fill:#8e7865;fill-opacity:1"
       sodipodi:type="arc"
       d="m 387.85715,120.04076 a 5,6.25 0 0 1 -5,6.25 5,6.25 0 0 1 -5,-6.25 5,6.25 0 0 1 5,-6.25 5,6.25 0 0 1 5,6.25 z"
       transform="matrix(.67309 -.22748 .23318 .65664 -193.53 716.38)"
       sodipodi:cy="120.04076"
       sodipodi:cx="382.85715" />
    <path
       id="path3800-8"
       sodipodi:rx="5"
       sodipodi:ry="5.9342127"
       style="stroke:#000000;stroke-linecap:round;stroke-width:3.2161;fill:#8e7865;fill-opacity:1"
       sodipodi:type="arc"
       d="m 387.85715,120.04076 a 5,5.9342127 0 0 1 -5,5.93421 5,5.9342127 0 0 1 -5,-5.93421 5,5.9342127 0 0 1 5,-5.93422 5,5.9342127 0 0 1 5,5.93422 z"
       transform="matrix(.71126 .17608 -.078765 .59486 -144.62 563.18)"
       sodipodi:cy="120.04076"
       sodipodi:cx="382.85715" />
    <path
       id="path3827"
       sodipodi:rx="1.9642857"
       sodipodi:ry="2.5"
       style="stroke:#000000;stroke-linecap:round;stroke-width:2.5761;fill:#000000"
       sodipodi:type="arc"
       d="m 390.71429,130.21933 a 1.9642857,2.5 0 0 1 -1.96429,2.5 1.9642857,2.5 0 0 1 -1.96429,-2.5 1.9642857,2.5 0 0 1 1.96429,-2.5 1.9642857,2.5 0 0 1 1.96429,2.5 z"
       transform="matrix(.50594 0 0 .59830 -104.24 630.07)"
       sodipodi:cy="130.21933"
       sodipodi:cx="388.75" />
    <path
       id="path3827-1"
       sodipodi:rx="1.9642857"
       sodipodi:ry="2.5"
       style="stroke:#000000;stroke-linecap:round;stroke-width:2.5761;fill:#000000"
       sodipodi:type="arc"
       d="m 390.71429,130.21933 a 1.9642857,2.5 0 0 1 -1.96429,2.5 1.9642857,2.5 0 0 1 -1.96429,-2.5 1.9642857,2.5 0 0 1 1.96429,-2.5 1.9642857,2.5 0 0 1 1.96429,2.5 z"
       transform="matrix(.48356 -.14253 .18373 .57184 -93.49 682.8)"
       sodipodi:cy="130.21933"
       sodipodi:cx="388.75" />
    <path
       id="path3851"
       sodipodi:nodetypes="cccc"
       style="stroke:#000000;stroke-linecap:round;stroke-width:2.126;fill:none"
       inkscape:connector-curvature="0"
       d="m52.828 707.84c0.63559-7.8519 3.6326-6.3516 6.2468-3.5354 1.3878 1.535 5.021 3.9896-1.1358 4.0793-2.7816 1.1785-1.7611 2.9009 2.2716 4.0793" />
    <path
       id="path3853"
       sodipodi:nodetypes="cccccc"
       style="stroke:#000000;stroke-width:2.8346;fill:#9f734f;fill-opacity:1"
       inkscape:connector-curvature="0"
       d="m75.43 750.43 0.65527 14.288c8.2331 14.833 24.122 17.55 32.355 23.626 0.72221-6.3619 4.0415-13.534 0.5465-18.691l-0.75879-7.4346c-10.714-0.1928-15.979 1.3615-32.798-11.788z" />
    <path
       id="path5380"
       style="stroke:#ffb200;stroke-width:2.8346;fill:none"
       d="m8.8388 169.84c4.9702-16.68 36.485-21.91 38.891 2.83"
       sodipodi:nodetypes="cc"
       inkscape:connector-curvature="0"
       transform="translate(0 652.36)" />
    <path
       id="path3855"
       sodipodi:nodetypes="csscccsssc"
       style="stroke:#000000;stroke-width:2.8346;fill:none"
       inkscape:connector-curvature="0"
       d="m75.682 762.14c-21.39 3.5885-19.548 5.3101-27.271 9.3037-7.4738 3.8644-3.6757 7.3379-16.56 14.183-4.2592 2.2629-29.54 21.381-21.254 47.129-5.1112-25.978 37.851-30.141 35.726-4.9993 5.6974-7.0721 10.633-15.064 10.633-15.064s3.4255-4.2494 0.83507 9.2475 2.7335 29.428-0.79728 47.287c-3.5307 17.859-1.0796 27.984 2.1051 40.985 4.9415 20.173 31.707 16.29 16.454 10.763" />
    <path
       id="path5382"
       style="stroke:#ffab00;stroke-width:3.189;fill:none"
       d="m169.71 121.4c-7.0674 8.3853-4.6169 26.463-1.4142 31.466l1.4142 1.0607"
       sodipodi:nodetypes="ccc"
       inkscape:connector-curvature="0"
       transform="translate(0 652.36)" />
    <path
       id="path3857"
       sodipodi:nodetypes="cssccsscsc"
       style="stroke:#000000;stroke-width:2.8346;fill:none"
       inkscape:connector-curvature="0"
       d="m108.76 763.92c10.592-0.46024 20.705 3.925 29.023 5.2054 10.054 1.5476 2.2546 4.3019 13.557 4.1381 15.47-0.22421 11.786-0.97141 21.237-0.0721-7.9094 8.3475-3.1069 29.984 0.13774 34.069-13.52-1.3209 2.1062-1.7846-17.656-2.4244-14.129-0.45742-8.4748-0.20091-12.696-0.34127-3.7328-0.12412-6.6877-0.9599-6.6877-0.9599 2.3642 11.56-4.5214 21.069-2.4248 29.152 5.0489 19.467 2.6235 16.27 7.6865 43.333" />
    <path
       id="path3859"
       sodipodi:nodetypes="ccccccccccccccccccccsssscsc"
       style="stroke:#000000;stroke-width:2.8346;fill:#9f734f;fill-opacity:1;stroke-linecap:round;stroke-linejoin:round"
       inkscape:connector-curvature="0"
       d="m12.708 896.44c0.6367 7.0126-0.32807 8.4831 3.1363 12.556 3.6785 5.0479 6.1964 10.381 5.9115 16.403-2.5942 2.9294 6.582 8.3517 5.9241-1.1047 1.2948-6.7582-3.1352-10.172-5.6403-14.711 6.0661 8.7285 6.3702 9.6264 7.923 15.837-1.7021 5.3096 5.7906 5.1681 5.8863 1.3669 0.69702-3.9958-2.7047-11.504-7.6931-17.916 3.4969 5.5786 8.6646 10.062 10.185 16.936-1.114 4.2744 7.4885 3.7791 5.7319-1.4973-1.8105-6.5566-7.0727-11.394-10.836-16.952 4.1981 5.0064 8.0295 7.9426 11.682 15.497 0.603 6.2155 7.12 1.799 4.0138-1.8398-2.5338-6.3786-3.5833-11.69-7.9421-14.802l-5.7544-10.983c1.5221 3.7885 4.182 4.6525 5.1637 6.2251l4.3102 4.4175c2.5679 2.4552 4.7727 2.6097 5.9042-0.19247-4.5295-9.9908-8.3526-11.881-12.124-13.952-2.1591-1.5709-4.2832-3.2409-6.9242-3.4435-1.5675-0.26742-2.0147-3.0016-3.8742-2.3684-0.46489 0.15828 3.0844-5.1614 2.0439-11.691-1.0405-6.5301 3.1412-9.872 1.9112-18.615-1.23-8.7434 14.746-34.788 10.38-39.689-6.6536-7.4704-19.124-5.9401-25.5-0.64613-2.5187 2.2841-9.6686 37.644-9.7975 38.701-0.44729 3.667 4.496 44.334 5.9782 42.465z" />
    <path
       id="path3861"
       style="stroke:#000000;stroke-width:2.8346;fill:none"
       d="m37.071 836.82c3.9285 0.0335 8.9233-8.516 9.3555-10.298"
       sodipodi:nodetypes="cc"
       inkscape:transform-center-y="-1.3033538"
       inkscape:connector-curvature="0"
       inkscape:transform-center-x="-3.4954714" />
    <path
       id="path3863"
       sodipodi:nodetypes="cccccccccccccccscc"
       style="stroke:#000000;stroke-width:2.8346;fill:#9f734f;fill-opacity:1;stroke-linecap:round;stroke-linejoin:round"
       inkscape:connector-curvature="0"
       d="m171.76 774.07 43.17 3.2373 11.958-2.0071c8.5572-2.09 14.505-0.20213 22.489 0.00001 6.3799 1.4355 6.8584 4.6254 0.4785 6.6989l-18.9-0.71774 18.422 0.71774c5.7419 1.4355 5.7419 4.7849 0 6.2204l-11.962-0.23925-10.288-0.71775 7.8951 4.3064 4.7849 0.23925c5.3034-0.0115 9.1758 4.795-0.47849 5.9812-3.7957 0.3224-5.0893 1.9092-11.875 0.43745-1.6001-0.40897-5.8053 2.1186-9.2946-2.0686-0.91059-0.83661-3.2291-0.58447-5.1972-0.23598-1.5066 0.26679-41.768 2.7219-42.968 3.6241-2.326-4.4164-2.5433-18.442 1.7666-25.476z" />
    <path
       id="path3865"
       sodipodi:nodetypes="cc"
       style="stroke:#000000;stroke-width:2.8346;fill:none"
       inkscape:connector-curvature="0"
       d="m172.34 773.18c1.3542-0.1992 2.8888-0.80438 3.3835 0.93046" />
    <path
       id="path3867"
       sodipodi:nodetypes="cc"
       style="stroke:#000000;stroke-width:2.8346;fill:none"
       inkscape:connector-curvature="0"
       d="m173.04 807.43c3.025 1.7989 3.2908-7.7023 2.5207-9.5583" />
    <path
       id="path3869"
       sodipodi:nodetypes="cc"
       style="stroke:#000000;stroke-width:2.835;fill:#9f734f;fill-opacity:1;stroke-miterlimit:4;stroke-dasharray:none;stroke-linecap:round;stroke-linejoin:round"
       inkscape:connector-curvature="0"
       d="m239.17 788.49c6.9538 7.9919 9.8225 2.9253 7.2744-0.25376" />
    <path
       id="path3871"
       sodipodi:nodetypes="ccccccc"
       style="stroke:#000000;stroke-width:2.8346;fill:#9f734f;fill-opacity:1"
       inkscape:connector-curvature="0"
       d="m115.23 928.79c8.6031-1.8833 13.292-3.1675 34.102-14.771 15.09 20.23 18.866 7.6732 28.441 24.136 6.1285 7.5793 16.84-4.0073 11.726-15.095-21.206-24.569-17.354-47.13-36.764-44.454-23.434-4.4895-17.363-2.0903-39.521 0.43745-17.528 14.969 0.61623 39.062 2.0158 49.746z" />
    <path
       id="path3873"
       sodipodi:nodetypes="cccccccc"
       style="stroke:#000000;stroke-width:2.835;fill:#ff0e00;stroke-miterlimit:4;stroke-dasharray:none;stroke-linecap:round;stroke-linejoin:round"
       inkscape:connector-curvature="0"
       d="m120.05 877.77s-2.2966-3.924-17.171-2.871c-3.8144-3.7066-11.867 9.6823-18.189 8.4827-4.1955 17.277-12.93 8.3777-15.835 33.665 15.113 10.675 39.454 17.231 46.049 16.342 9.0728-7.1823 4.1879-5.3873 0.14994-5.0778-1.8134-12.011-18.042-33.444-2.9513-49.102 4.3247-1.782 5.7612-0.88054 7.9463-1.4395z" />
    <path
       id="path3875"
       sodipodi:nodetypes="ccccccccc"
       style="stroke:#000000;stroke-width:2.8346;fill:#926541;fill-opacity:1"
       inkscape:connector-curvature="0"
       d="m107.3 932.76c-1.7539 14.386 4.4548 17.12 4.3985 29.808-9.9049 6.7151 2.8343 17.431-7.4744 36.85 5.3975 6.9793 10.795 6.3954 16.193 2.5696 12.281-23.963 22.156-26.313 22.502-35.8-0.37474-20.881 7.7063-32.338 1.0973-49.002-10.203 5.1884-15.5 7.4076-23.312 10.803-0.64309 1.4095-3.7442 3.1779-5.721 5.4785-2.3117-0.0439-4.0015 0.10933-7.6834-0.70656z" />
    <path
       id="path3877"
       sodipodi:nodetypes="ccccccc"
       style="stroke:#000000;stroke-width:2.8346;fill:#fffbdd"
       inkscape:connector-curvature="0"
       d="m106.04 996.06c-2.3812-2.2043-4.5093 2.3605-7.782 3.7218-10.866 6.145 0.24495 12.027 18.271 32.82 11.33 16.169 28.134 13.518 20.639-3.7218-3.3407-9.77-8.3895-19.327-16.241-26.391-4.9822 0.6928-7.8232 6.9529-16.917-3.0451z" />
    <path
       id="path3879"
       sodipodi:nodetypes="ccssccc"
       style="stroke:#000000;stroke-width:2.8346;fill:#fffbdd"
       inkscape:connector-curvature="0"
       d="m182.1 948.01c3.5944 4.4323 4.1254 7.9326 7.4436 8.4587 0.34507 20.438 25.306 11.349 25.038-4.7368-0.095-5.6893 6.4687-15.545 6.0902-26.391-1.1956-34.267-35.942-25.09-30.789-3.7218 3.3974 8.2712-2.1763 24.169-11.842 17.594z" />
    <path
       id="path3881"
       sodipodi:nodetypes="ccccc"
       style="stroke:#000000;stroke-width:2.126;fill:#787ea4"
       inkscape:connector-curvature="0"
       d="m200.37 926.02c-8.2242-16.696 19.797-33.141 16.917 2.0301-2.6486 13.373-5.0638 14.427-6.0902 22.669 3.3835 10.691-18.271 25.263-15.226 5.4135 0.96653-8.4265 7.4808-17.801 4.3985-30.113z" />
    <path
       id="path3949"
       sodipodi:nodetypes="ccc"
       style="stroke:#000000;stroke-width:2.126;fill:none"
       inkscape:connector-curvature="0"
       d="m70.333 763.7c3.0803 15.606 27.175 20.642 40.263 30.789 7.8395-25.87 0.90226-20.414 1.3534-30.451" />
    <path
       id="path3951"
       sodipodi:nodetypes="cc"
       style="stroke:#000000;stroke-width:2.126;fill:none"
       inkscape:connector-curvature="0"
       d="m167.44 773.18c-6.4636 13.775-5.0247 25.007-1.8947 31.805" />
    <path
       id="path3953"
       sodipodi:nodetypes="cc"
       style="stroke:#000000;stroke-width:2.126;fill:none"
       inkscape:connector-curvature="0"
       d="m8.4158 821.22c13.551-28.34 43.718-10.17 40.635 3.08" />
    <path
       id="path3955"
       sodipodi:nodetypes="ccccccccc"
       style="stroke:#000000;stroke-width:2.126;fill:#ffc400"
       inkscape:connector-curvature="0"
       d="m76.303 897.63c8.9565 10.775 22.693 14.986 34.782 19.049l-2.0639-4.906-7.8835-3.0451 6.1917-1.9962-0.54135-4.906-6.5639 2.1992c-6.763 1.49-12.82-4.7-19.587-11.17z" />
    <path
       id="path3973"
       sodipodi:nodetypes="ccccccc"
       style="stroke:#000000;stroke-width:2.126;fill:none"
       inkscape:connector-curvature="0"
       d="m98.189 1000.6c-0.80104 4.0073 0.12211 7.9112 3.3402 10.579l18.943 19.948c3.4161 4.6165 3.339 6.8754 15.51 11.062-5.4551 2.3895-11.404-0.1587-17.752-6.6989-8.1467-10.615-14.731-17.064-21.604-24.284-4.5315-7.881-0.86122-9.6815 1.5631-10.607z" />
    <path
       id="path3975"
       sodipodi:nodetypes="cc"
       style="stroke:#000000;stroke-linecap:round;stroke-width:2.126;fill:none"
       inkscape:connector-curvature="0"
       d="m122.92 1010.2c2.7879 3.6303 7.1818 10.561 8.2062 15.073" />
    <path
       id="path3977"
       sodipodi:nodetypes="ccccc"
       style="stroke:#000000;stroke-width:2.126;fill:#0007ff"
       inkscape:connector-curvature="0"
       d="m106.7 1016.2c2.676-1.8754 6.7886-2.7636 10.355-3.3029 0.26097 1.3272 0.93617 2.7955 2.0097 4.5218-3.4312-0.1895-5.6513 1.5889-8.8202 2.8563z" />
    <path
       id="path3977-7"
       sodipodi:nodetypes="ccccc"
       style="stroke:#000000;stroke-width:2.126;fill:#0007ff"
       inkscape:connector-curvature="0"
       d="m112.73 1022.8c2.676-1.8754 4.779-1.9169 8.3457-2.4563 0.26097 1.3273 1.634 2.8514 2.3725 3.9078-3.7662 0.9828-4.0045 1.1795-7.1734 2.4469z" />
    <path
       id="path3997"
       sodipodi:nodetypes="cc"
       style="stroke:#000000;stroke-linecap:round;stroke-width:2.126;fill:none"
       inkscape:connector-curvature="0"
       d="m203.3 913.85 8.2755-3.1532" />
    <path
       id="path3997-6"
       sodipodi:nodetypes="cc"
       style="stroke:#000000;stroke-linecap:round;stroke-width:2.126;fill:none"
       inkscape:connector-curvature="0"
       d="m202.01 918.65 11.354-4.1006" />
    <path
       id="path3997-5"
       sodipodi:nodetypes="cc"
       style="stroke:#000000;stroke-linecap:round;stroke-width:2.126;fill:none"
       inkscape:connector-curvature="0"
       d="m202.72 922.91 11.828-3.8638" />
    <path
       id="path3997-8"
       sodipodi:nodetypes="cc"
       style="stroke:#000000;stroke-linecap:round;stroke-width:2.126;fill:none"
       inkscape:connector-curvature="0"
       d="m203.9 927.18 10.644-3.6269" />
    <path
       id="path3997-2"
       sodipodi:nodetypes="cc"
       style="stroke:#000000;stroke-linecap:round;stroke-width:2.126;fill:none"
       inkscape:connector-curvature="0"
       d="m203.9 932.62 10.644-3.8638" />
    <path
       id="path3997-66"
       sodipodi:nodetypes="cc"
       style="stroke:#000000;stroke-linecap:round;stroke-width:2.126;fill:none"
       inkscape:connector-curvature="0"
       d="m203.19 937.6 9.9334-3.6269" />
    <path
       id="path3997-57"
       sodipodi:nodetypes="cc"
       style="stroke:#000000;stroke-linecap:round;stroke-width:2.126;fill:none"
       inkscape:connector-curvature="0"
       d="m201.77 942.34 10.17-3.6269" />
    <path
       id="path3997-1"
       sodipodi:nodetypes="cc"
       style="stroke:#000000;stroke-linecap:round;stroke-width:2.126;fill:none"
       inkscape:connector-curvature="0"
       d="m201.53 946.6 8.2755-3.1532" />
    <path
       id="path3997-67"
       sodipodi:nodetypes="cc"
       style="stroke:#000000;stroke-linecap:round;stroke-width:2.126;fill:none"
       inkscape:connector-curvature="0"
       d="m200.35 951.57 8.2755-3.1532" />
    <path
       id="path3997-3"
       sodipodi:nodetypes="cc"
       style="stroke:#000000;stroke-linecap:round;stroke-width:2.126;fill:none"
       inkscape:connector-curvature="0"
       d="m198.22 957.02 10.881-4.1006" />
    <path
       id="path3997-59"
       sodipodi:nodetypes="cc"
       style="stroke:#000000;stroke-linecap:round;stroke-width:2.126;fill:none"
       inkscape:connector-curvature="0"
       d="m198.69 961.05 9.4597-3.3901" />
    <g
       id="g5190"
       clip-rule="evenodd"
       stroke-miterlimit="10"
       transform="matrix(.87228 0 0 .87228 14.106 241.67)">
      <path
         id="path5119"
         style="stroke:#000000;stroke-width:.035433;stroke-miterlimit:10;fill-rule:evenodd"
         d="m245.5 659.07c29.152 0 52.813 22.531 52.813 50.292 0 27.76-23.66 50.292-52.813 50.292s-52.812-22.532-52.812-50.292c0-27.761 23.66-50.292 52.812-50.292"
         inkscape:connector-curvature="0"
         i:knockout="Off" />
      <path
         id="path5121"
         style="fill-rule:evenodd;stroke:#000000;stroke-miterlimit:10;stroke-width:.035433;fill:#ffffff"
         d="m217.92 670.27c-1.548 0.648-2.664 1.332-3.78 2.196-1.116 0.756-1.908 1.692-2.664 2.664-0.864 0.9-1.584 1.872-2.16 2.916l7.128-1.836c0.468-1.98 0.972-3.96 1.476-5.94z"
         inkscape:connector-curvature="0"
         i:knockout="Off" />
      <path
         id="path5123"
         style="fill-rule:evenodd;stroke:#000000;stroke-miterlimit:10;stroke-width:.035433;fill:#ffffff"
         d="m225.56 667.14 15.984-3.888 11.016 9.108-2.916 11.628-12.24 5.688-15.48-4.104-2.304-9.468 5.94-8.964z"
         inkscape:connector-curvature="0"
         i:knockout="Off" />
      <path
         id="path5125"
         style="fill-rule:evenodd;stroke:#000000;stroke-miterlimit:10;stroke-width:.035433;fill:#ffffff"
         d="m256.01 673.08-1.943 11.016 12.131 12.132 12.96-1.944 3.996-14.544-14.184-11.628-12.96 4.968z"
         inkscape:connector-curvature="0"
         i:knockout="Off" />
      <path
         id="path5127"
         style="fill-rule:evenodd;stroke:#000000;stroke-miterlimit:10;stroke-width:.035433;fill:#ffffff"
         d="m268.72 700.33 12.24-2.196 7.272 12.24-10.044 16.596-12.6-1.188-4.607-10.549 7.739-14.903z"
         inkscape:connector-curvature="0"
         i:knockout="Off" />
      <path
         id="path5129"
         style="fill-rule:evenodd;stroke:#000000;stroke-miterlimit:10;stroke-width:.035433;fill:#ffffff"
         d="m287.15 734.96-5.832-6.768 10.188-17.209 3.528-1.943c0.036 4.176-0.288 7.703-0.972 11.268-0.828 3.527-2.053 6.732-3.276 9.324-1.223 2.447-2.34 4.176-3.636 5.328z"
         inkscape:connector-curvature="0"
         i:knockout="Off" />
      <path
         id="path5131"
         style="fill-rule:evenodd;stroke:#000000;stroke-miterlimit:10;stroke-width:.035433;fill:#ffffff"
         d="m226.56 722.47 14.436-10.656 16.236 4.248 5.184 12.205-8.964 11.771-20.232-4.248-6.66-13.32z"
         inkscape:connector-curvature="0"
         i:knockout="Off" />
      <path
         id="path5133"
         style="fill-rule:evenodd;stroke:#000000;stroke-miterlimit:10;stroke-width:.035433;fill:#ffffff"
         d="m257.63 756.17c-2.988 0.434-6.012 0.756-9.216 0.828-3.312 0.072-6.84 0-10.044-0.359-3.42-0.504-6.588-1.404-9.36-2.305-2.772-0.971-4.896-2.051-6.768-3.383l-0.252-4.861 9.576-7.271 21.457 3.781 6.155 9.432-1.548 4.138z"
         inkscape:connector-curvature="0"
         i:knockout="Off" />
      <path
         id="path5135"
         style="fill-rule:evenodd;stroke:#000000;stroke-miterlimit:10;stroke-width:.035433;fill:#ffffff"
         d="m206.98 702.78 13.212-13.428 14.292 3.996 3.636 15.48-14.904 11.521-12.96-0.361-3.276-17.208z"
         inkscape:connector-curvature="0"
         i:knockout="Off" />
      <path
         id="path5137"
         style="fill-rule:evenodd;stroke:#000000;stroke-miterlimit:10;stroke-width:.035433;fill:#ffffff"
         d="m202.12 730.18c-1.152 0.467-2.232-0.758-3.384-3.277-1.26-2.736-2.952-8.244-3.528-12.348-0.54-4.141-0.504-8.172 0.252-12.24l7.524 2.412 3.996 16.705-4.86 8.748z"
         inkscape:connector-curvature="0"
         i:knockout="Off" />
    </g>
  </g>
  <metadata
     id="metadata9448">
    <rdf:RDF>
      <cc:Work>
        <dc:format>image/svg+xml</dc:format>
        <dc:type
           rdf:resource="http://purl.org/dc/dcmitype/StillImage" />
        <cc:license
           rdf:resource="http://creativecommons.org/licenses/publicdomain/" />
        <dc:publisher>
          <cc:Agent
             rdf:about="http://openclipart.org/">
            <dc:title>Openclipart</dc:title>
          </cc:Agent>
        </dc:publisher>
        <dc:title>Soccer playing boy coloured</dc:title>
        <dc:date>2012-05-22T14:34:14</dc:date>
        <dc:description>A soccer playing boy</dc:description>
        <dc:source>https://openclipart.org/detail/170155/soccer-playing-boy-coloured-by-frankes</dc:source>
        <dc:creator>
          <cc:Agent>
            <dc:title>frankes</dc:title>
          </cc:Agent>
        </dc:creator>
        <dc:subject>
          <rdf:Bag>
            <rdf:li>Fußball</rdf:li>
            <rdf:li>Junge</rdf:li>
            <rdf:li>boy</rdf:li>
            <rdf:li>football</rdf:li>
            <rdf:li>game</rdf:li>
            <rdf:li>playing</rdf:li>
            <rdf:li>soccer</rdf:li>
            <rdf:li>spiel</rdf:li>
            <rdf:li>spielen</rdf:li>
            <rdf:li>sport</rdf:li>
            <rdf:li>sports</rdf:li>
          </rdf:Bag>
        </dc:subject>
      </cc:Work>
      <cc:License
         rdf:about="http://creativecommons.org/licenses/publicdomain/">
        <cc:permits
           rdf:resource="http://creativecommons.org/ns#Reproduction" />
        <cc:permits
           rdf:resource="http://creativecommons.org/ns#Distribution" />
        <cc:permits
           rdf:resource="http://creativecommons.org/ns#DerivativeWorks" />
      </cc:License>
    </rdf:RDF>
  </metadata>
</svg>
